<svg xmlns="http://www.w3.org/2000/svg" fill="currentColor" data-icon="noteThirtySecond32" data-version="v2" viewBox="0 0 32 32"><path fill-rule="evenodd" d="M21.979 20.992a6.8 6.8 0 0 0-.555-2.336c-.02-.041-.02-.082-.02-.144 0-.042 0-.083.02-.124.043-.145.49-1.282.49-2.46a4.45 4.45 0 0 0-.448-1.922c.193-.538.427-1.386.427-2.192 0-.207 0-.393-.042-.579-.235-1.26-.725-1.819-2.153-3.328-1.066-1.116-2.217-1.447-2.579-3.514-.021-.186-.298-.393-.426-.393s-.256.248-.256.248v18.46c-.426-.351-1.023-.537-1.705-.537-2.622 0-4.732 1.88-4.732 3.886C10 27.277 11.023 28 12.323 28c2.11 0 4.732-1.922 4.732-3.886v-8.269c1.108.083 2.323.434 3.496 2.75.469.909.66 1.84.66 2.831 0 .58-.064 1.158-.17 1.758 0 .061-.021.103-.021.144 0 .248.127.434.277.496a.3.3 0 0 0 .127.042c.128 0 .278-.104.427-.331.064-.124.149-1.075.149-1.964 0-.207-.021-.393-.021-.579m-.874-4.486c-.043.166-.043.331-.107.476-.021.062-.128.124-.234.124-.064 0-.128-.02-.15-.083-.32-.454-.618-.806-.98-1.22l-.107-.103c-.916-1.054-1.854-1.488-2.28-3.08 0-.02.15-.248.277-.269 1.343 0 2.43 1.055 3.09 2.006.342.496.533 1.054.533 1.653a4 4 0 0 1-.042.496m.021-4.258c-.043.207-.15.558-.256.91-.298-.372-.682-.765-1.172-1.282-1.044-1.116-2.089-1.468-2.43-3.473 1.172 0 2.43.496 3.602 2.419.235.413.32.723.32.992 0 .165-.043.29-.064.434" clip-rule="evenodd"/></svg>
