<svg xmlns="http://www.w3.org/2000/svg" fill="currentColor" data-icon="noteSixteenth32" data-version="v2" viewBox="0 0 32 32"><path fill-rule="evenodd" d="M22.351 17.881c0-.065-.022-.108-.022-.195 0-.044 0-.088.022-.153.067-.13.56-1.436.56-2.764 0-.282-.023-.522-.068-.783-.223-1.48-.805-2.089-2.416-3.786-1.208-1.262-2.461-1.61-2.842-3.917-.045-.24-.313-.283-.447-.283-.135 0-.38.022-.38.022v16.407c-.426-.37-1.052-.566-1.79-.566-2.753 0-4.968 1.98-4.968 4.092C10 27.238 11.074 28 12.439 28c2.237 0 4.99-2.024 4.99-4.091v-9.226c1.23.087 2.618.457 3.96 3.111.515 1.045.716 2.111.716 3.243 0 .63-.067 1.284-.179 1.936-.022.087-.022.13-.022.196 0 .305.156.479.313.522.067.022.112.044.179.044.156 0 .313-.087.447-.37.09-.109.157-1.35.157-2.394v-.478c0-.914-.246-1.807-.649-2.612m-.313-2.459c-.045.174-.045.392-.157.566-.022.065-.179.13-.29.13-.068 0-.113-.021-.157-.086-.358-.544-.739-.98-1.209-1.502-1.051-1.175-2.08-1.697-2.55-3.481-.023-.022-.023-.044-.023-.066 0-.087.135-.217.314-.217h.179c1.364 0 2.573 1.218 3.311 2.284a3.32 3.32 0 0 1 .604 1.937c0 .152 0 .283-.022.435" clip-rule="evenodd"/></svg>
