<svg xmlns="http://www.w3.org/2000/svg" fill="currentColor" data-icon="noteWhole32" data-version="v2" viewBox="0 0 32 32"><path fill-rule="evenodd" d="M16.123 12.91c-3.253 0-5.273 1.381-5.273 3.056 0 1.653 1.391 3.124 5.027 3.124 3.994 0 5.273-1.403 5.273-3.124 0-1.743-2.76-3.056-5.027-3.056m-2.558 1.54c.27-.838 1.167-.974 1.93-.974 1.66 0 3.007 1.811 3.007 3.305 0 .159-.022.317-.045.453-.112.611-.471 1.041-1.077 1.2-.247.068-.494.09-.74.09-.225 0-.427-.022-.651-.09a3.4 3.4 0 0 1-1.145-.657 4 4 0 0 1-.516-.543c-.471-.566-.852-1.404-.852-2.173 0-.204.022-.408.09-.611" clip-rule="evenodd"/></svg>
