<svg xmlns="http://www.w3.org/2000/svg" viewBox="0 0 45 42"><g fill="none" fill-rule="evenodd"><path d="M0 0h45v42H0z"/><path fill="currentColor" d="M15.478 18.994c.297 0 .528.231.528.528a.52.52 0 0 1-.528.528h-4.422v4.422a.52.52 0 0 1-.528.528.52.52 0 0 1-.528-.528v-4.95c0-.297.231-.528.528-.528zm5.986 1.452h.242c1.276 0 2.024-.836 2.024-2.002 0-.484-.286-1.012-1.144-1.012-.462 0-.726.154-.726.308 0 .066.11.154.264.286a.83.83 0 0 1 .198.55c0 .594-.44 1.034-.99 1.034-.506 0-.858-.374-.836-.946.044-1.188 1.188-1.914 2.574-1.914 1.342 0 2.442.704 2.442 1.848 0 .88-.748 1.584-1.672 1.958-.176.088-.264.132-.264.198 0 .11.088.132.242.198a1.5 1.5 0 0 1 .858 1.364c0 1.738-1.54 2.86-3.41 2.86-1.562 0-2.266-.814-2.266-1.694 0-.726.462-1.276 1.078-1.276.462 0 .836.264.836.792 0 .572-.308.836-.55.946-.176.088-.286.132-.286.264 0 .22.352.396.792.396 1.342 0 2.024-1.342 2.024-2.31 0-.704-.396-1.188-1.21-1.188h-.22c-.286 0-.44-.132-.44-.33s.154-.33.44-.33m8.064-1.452h4.95c.297 0 .528.231.528.528v4.95a.52.52 0 0 1-.528.528.52.52 0 0 1-.528-.528V20.05h-4.422a.52.52 0 0 1-.528-.528c0-.297.231-.528.528-.528" class="fill"/></g></svg>
