<svg xmlns="http://www.w3.org/2000/svg" fill="currentColor" data-icon="actionsCopy24" data-version="v2" viewBox="0 0 24 24"><path fill-rule="evenodd" d="M19 4H9c-.552 0-1 .45-1 1v1h1v-.5c0-.28.224-.5.5-.5h9c.276 0 .5.22.5.5v9c0 .28-.224.5-.5.5H18v1h1c.552 0 1-.45 1-1V5c0-.55-.448-1-1-1m-3 14.5c0 .28-.224.5-.5.5h-10c-.276 0-.5-.22-.5-.5v-10c0-.28.224-.5.5-.5h10c.276 0 .5.22.5.5zM16 7H5c-.552 0-1 .45-1 1v11c0 .55.448 1 1 1h11c.552 0 1-.45 1-1V8c0-.55-.448-1-1-1m-5 4h-1v2H8v1h2v2h1v-2h2v-1h-2z" clip-rule="evenodd"/></svg>
