<svg xmlns="http://www.w3.org/2000/svg" fill="currentColor" data-icon="measureRemove24" data-version="v2" viewBox="0 0 24 24"><path d="M5.302 16.242c0 .197.161.359.36.36h2.175v.8H5.66c-.641 0-1.16-.522-1.161-1.16v-2.176h.802zm14.198 0c0 .638-.52 1.16-1.161 1.16h-2.176v-.8h2.176a.36.36 0 0 0 .36-.36v-2.176h.801z"/><path fill-rule="evenodd" d="M13.51 11.536c.219 0 .41.169.41.395a.404.404 0 0 1-.41.396h-3.02a.404.404 0 0 1-.41-.396c0-.226.192-.395.41-.395zm-3.073.638.053.005a.3.3 0 0 1-.102-.02z" clip-rule="evenodd"/><path d="M7.837 7.261H5.66a.36.36 0 0 0-.36.36v2.175h-.8V7.621c0-.644.52-1.161 1.161-1.162h2.176zm10.502-.801c.64 0 1.16.517 1.161 1.16v2.176h-.802V7.621a.36.36 0 0 0-.36-.36h-2.175V6.46z"/></svg>
