<svg xmlns="http://www.w3.org/2000/svg" fill="currentColor" data-icon="noteEighth32" data-version="v2" viewBox="0 0 32 32"><path fill-rule="evenodd" d="M17.25 6.479C17.188 6.13 17.019 6 16.616 6c-.106 0-.191.044-.212.196V22.43c-.403-.37-.997-.567-1.696-.567-2.608 0-4.707 1.98-4.707 4.092C10 27.238 11.018 28 12.311 28c2.12 0 4.728-2.024 4.728-4.091V11.701c1.314.827 2.883 3.22 3.54 4.81.319.74.51 1.98.51 3.264 0 .979-.15 2.002-.51 2.98q-.063.196-.063.327a.75.75 0 0 0 .34.631l.041.022c.191.022.446-.065.552-.435 0 0 .551-2.068.551-3.765 0-2.72-1.102-5.288-2.438-7.464-1.081-1.719-1.972-3.503-2.311-5.592" clip-rule="evenodd"/></svg>
