<svg xmlns="http://www.w3.org/2000/svg" fill="currentColor" data-icon="noteHalf32" data-version="v2" viewBox="0 0 32 32"><path fill-rule="evenodd" d="M14.3 28c3.9 0 4.7-3.322 4.7-4.163V6h-.616v16.327c-.41-.366-1.006-.582-1.724-.582-3.552 0-4.66 2.89-4.66 4.184C12 27.245 13.006 28 14.3 28m.553-4.249c1.17-.712 1.91-.97 2.402-.97.452 0 .698.215.862.517a1 1 0 0 1 .144.475c0 .496-.493 1.1-2.155 2.243-1.068.755-1.807 1.013-2.32 1.013-.493 0-.78-.258-.944-.56a1.06 1.06 0 0 1-.144-.497c0-.539.513-1.229 2.155-2.221" clip-rule="evenodd"/></svg>
