<svg xmlns="http://www.w3.org/2000/svg" viewBox="0 0 45 42"><g fill="none" fill-rule="evenodd"><path d="M0 0h45v42H0z"/><path fill="currentColor" d="M15.478 18.994c.297 0 .528.231.528.528a.52.52 0 0 1-.528.528h-4.422v4.422a.52.52 0 0 1-.528.528.52.52 0 0 1-.528-.528v-4.95c0-.297.231-.528.528-.528zm9.242 3.124h.638c.176 0 .308.11.308.308 0 .176-.132.308-.33.308h-.748c-.154 0-.198.066-.22.176l-.352 1.1c-.044.198-.088.286.088.308l.748.066c.198.022.286.132.286.308s-.088.308-.33.308h-3.696c-.22 0-.33-.132-.33-.308s.11-.286.308-.308l.77-.066c.198-.022.198-.066.264-.22l.374-1.21c.022-.11-.022-.154-.11-.154h-2.992c-.264 0-.396-.11-.396-.286 0-.154.088-.242.22-.374.858-.858 1.562-1.628 2.2-2.552.572-.814 1.012-1.782 1.21-2.464.044-.132.11-.242.286-.242.286 0 .638.198 1.056.198.396 0 .704-.198 1.034-.198.176 0 .242.066.242.176 0 .066 0 .132-.11.264-1.056 1.386-2.948 3.234-4.664 4.598-.088.066-.11.11-.11.154s.022.11.176.11h1.98c.154 0 .176-.066.22-.176l.396-1.254c.044-.154.088-.242.242-.418l1.408-1.518c.176-.198.286-.286.506-.286.176 0 .308.044.308.198 0 .066-.044.242-.088.418l-.902 2.86c-.022.132.022.176.11.176m4.808-3.124h4.95c.297 0 .528.231.528.528v4.95a.52.52 0 0 1-.528.528.52.52 0 0 1-.528-.528V20.05h-4.422a.52.52 0 0 1-.528-.528c0-.297.231-.528.528-.528" class="fill"/></g></svg>
