<svg xmlns="http://www.w3.org/2000/svg" viewBox="0 0 45 42"><g fill="none" fill-rule="evenodd"><path d="M0 0h45v42H0z"/><path fill="currentColor" d="M15.478 18.994c.297 0 .528.231.528.528a.52.52 0 0 1-.528.528h-4.422v4.422a.52.52 0 0 1-.528.528.52.52 0 0 1-.528-.528v-4.95c0-.297.231-.528.528-.528zm8.334-1.694c-1.298.066-2.134 1.496-2.596 2.794-.132.418.066.44.264.308.44-.33.968-.462 1.562-.462 1.276 0 1.958.836 1.958 1.892 0 2.244-1.804 3.344-3.41 3.344-2.728 0-2.992-2.376-2.2-4.774.792-2.442 2.31-3.652 4.202-3.652 1.298 0 2.09.66 2.09 1.562 0 .748-.44 1.232-1.078 1.232-.484 0-.924-.308-.924-.836 0-.462.264-.792.594-.946.11-.044.308-.132.308-.22 0-.132-.352-.264-.77-.242m-1.408 3.432c-.77 0-1.474.88-1.694 2.024-.154.748-.22 1.848.814 1.848.858 0 1.694-1.254 1.694-2.794 0-.638-.176-1.078-.814-1.078m7.124-1.738h4.95c.297 0 .528.231.528.528v4.95a.52.52 0 0 1-.528.528.52.52 0 0 1-.528-.528V20.05h-4.422a.52.52 0 0 1-.528-.528c0-.297.231-.528.528-.528" class="fill"/></g></svg>
