<svg data-icon="actionsCut24" data-version="v2" class="" width="24" height="24" viewBox="0 0 24 24" fill="currentcolor" xmlns="http://www.w3.org/2000/svg"><path fill-rule="evenodd" clip-rule="evenodd" d="M7.593 18C6.733 18 6.037 17.33 6.037 16.5C6.037 15.67 6.733 15 7.593 15C8.452 15 9.148 15.67 9.148 16.5C9.148 17.33 8.452 18 7.593 18ZM7.654 8.99C7.627 8.99 7.601 9 7.573 9C6.723 8.99 6.037 8.32 6.037 7.5C6.037 6.67 6.733 6 7.593 6C8.452 6 9.148 6.67 9.148 7.5C9.148 8.31 8.484 8.96 7.654 8.99ZM18.747 17.06L11.849 12L18.75 6.92C19.001 6.78 19.087 6.48 18.942 6.24C18.797 6 18.477 5.92 18.226 6.05L10.996 11.37L8.755 9.72C9.6 9.31 10.185 8.47 10.185 7.5C10.185 6.12 9.024 5 7.593 5C6.161 5 5 6.12 5 7.5C5 8.82 6.061 9.88 7.402 9.98L10.144 12L7.391 14.02C6.055 14.12 5 15.19 5 16.5C5 17.88 6.161 19 7.593 19C9.024 19 10.185 17.88 10.185 16.5C10.185 15.52 9.597 14.68 8.749 14.27L10.996 12.62L18.222 17.93C18.473 18.07 18.794 17.99 18.938 17.75C19.083 17.51 18.998 17.2 18.747 17.06Z"></path></svg>