<svg data-icon="actionsPrint24" data-version="v2" class="" width="24" height="24" viewBox="0 0 24 24" fill="currentcolor" xmlns="http://www.w3.org/2000/svg"><path fill-rule="evenodd" clip-rule="evenodd" d="M19 16.5C19 16.77 18.776 17 18.5 17H17V15.5C17 15.22 16.776 15 16.5 15H7.5C7.224 15 7 15.22 7 15.5V17H5.5C5.224 17 5 16.77 5 16.5V14.5C5 14.22 5.224 14 5.5 14H18.5C18.776 14 19 14.22 19 14.5V16.5ZM8 16H16V19H8V16ZM8 5.5C8 5.22 8.224 5 8.5 5H15.5C15.776 5 16 5.22 16 5.5V12.5C16 12.77 15.776 13 15.5 13H8.5C8.224 13 8 12.77 8 12.5V5.5ZM19 13H17V5C17 4.45 16.552 4 16 4H8C7.448 4 7 4.45 7 5V13H5C4.448 13 4 13.45 4 14V17C4 17.55 4.448 18 5 18H7V19.5C7 19.78 7.224 20 7.5 20H16.5C16.776 20 17 19.78 17 19.5V18H19C19.552 18 20 17.55 20 17V14C20 13.45 19.552 13 19 13Z"></path></svg>