<svg data-icon="actionsPianoKeyboard24" data-version="v2" class="" width="24" height="24" viewBox="0 0 24 24" fill="currentcolor" xmlns="http://www.w3.org/2000/svg"><path d="M14.998 5.00001H14V11.06C13.396 11.156 12.533 11.413 11.457 12.048C11.301 12.141 11.148 12.24 11 12.343V5.00001H8.99998V13.005C8.99998 13.555 8.55699 14 8.00099 14H6.99899C6.44699 14 5.99998 13.544 5.99998 13.005V5.00001H5.00999C3.89299 5.00001 2.99998 5.89502 2.99998 7.01002V16.99C2.99998 18.107 3.89499 19 5.00999 19H8.24999C8.37564 19.3534 8.54567 19.6894 8.75599 20H5.00899C4.21029 20.0016 3.44386 19.685 2.87918 19.1201C2.31451 18.5553 1.99812 17.7887 1.99998 16.99V7.01002C1.99812 6.21115 2.31465 5.44446 2.87954 4.87957C3.44443 4.31468 4.21111 3.99815 5.00999 4.00001H14.998V5.00001ZM7.99999 17.222C7.98999 17.404 7.98999 17.585 7.99999 17.765V19H6.99999V14L8.00099 14L7.99999 17.222ZM21.999 8.31002L21.307 9.00002L17.998 6.46002V15.5H17.992C17.993 16.82 17.065 18.3 15.522 19.22C13.481 20.44 11.144 20.21 10.303 18.7C9.46099 17.2 10.434 14.99 12.474 13.77C14.1 12.81 15.902 12.77 16.998 13.55V5.69002V5.00002H17.998L21.999 8.31002Z"></path></svg>