<svg data-icon="actionsChangeViewHorizontal24" data-version="v2" class="" width="24" height="24" viewBox="0 0 24 24" fill="currentcolor" xmlns="http://www.w3.org/2000/svg"><path fill-rule="evenodd" clip-rule="evenodd" d="M18.5005 11H5.49951C5.22399 11 5 11.2369 5 11.5385C5 11.84 5.22399 12.0769 5.49951 12.0769H18.5005C18.776 12.0769 19 11.84 19 11.5385C19 11.2369 18.776 11 18.5005 11Z"></path><path fill-rule="evenodd" clip-rule="evenodd" d="M18.5005 8H5.49951C5.22399 8 5 8.23692 5 8.53846C5 8.84 5.22399 9.07692 5.49951 9.07692H18.5005C18.776 9.07692 19 8.84 19 8.53846C19 8.23692 18.776 8 18.5005 8Z"></path><path fill-rule="evenodd" clip-rule="evenodd" d="M18.5005 14H5.49951C5.22399 14 5 14.2369 5 14.5385C5 14.84 5.22399 15.0769 5.49951 15.0769H18.5005C18.776 15.0769 19 14.84 19 14.5385C19 14.2369 18.776 14 18.5005 14Z"></path><path fill-rule="evenodd" clip-rule="evenodd" d="M18.5005 5H5.49951C5.22399 5 5 5.23692 5 5.53846C5 5.84 5.22399 6.07692 5.49951 6.07692H18.5005C18.776 6.07692 19 5.84 19 5.53846C19 5.23692 18.776 5 18.5005 5Z"></path><path fill-rule="evenodd" clip-rule="evenodd" d="M18.5005 17H5.49951C5.22399 17 5 17.2369 5 17.5385C5 17.84 5.22399 18.0769 5.49951 18.0769H18.5005C18.776 18.0769 19 17.84 19 17.5385C19 17.2369 18.776 17 18.5005 17Z"></path></svg>