<svg data-icon="actionsBackspace24" data-version="v2" class="" width="24" height="24" viewBox="0 0 24 24" fill="currentcolor" xmlns="http://www.w3.org/2000/svg"><path fill-rule="evenodd" clip-rule="evenodd" d="M17.2071 9.5L11.5 15.2071L10.7929 14.5L16.5 8.79289L17.2071 9.5Z"></path><path fill-rule="evenodd" clip-rule="evenodd" d="M11.5 8.79289L17.2071 14.5L16.5 15.2071L10.7929 9.5L11.5 8.79289Z"></path><path d="M19.5 6H8C8 6 6.66667 8 4 12C6.66667 16 8 18 8 18H19.5C19.775 18 20 17.7013 20 17.3333V6.66667C20 6.29867 19.775 6 19.5 6ZM19 16.6667H8.5L5.4205 12L8.5 7.33333C15.5 7.33333 19 7.33333 19 7.33333V16.6667Z"></path></svg>