<svg data-icon="actionsExport24" data-version="v2" class="" width="24" height="24" viewBox="0 0 24 24" fill="currentcolor" xmlns="http://www.w3.org/2000/svg"><path fill-rule="evenodd" clip-rule="evenodd" d="M16.259 8.21C15.672 6.35 13.998 5 12 5C9.826 5 8.013 6.59 7.592 8.71C5.542 9.14 4 11.01 4 13.26C4 15.65 5.753 17.59 8 17.85V16.82C6.306 16.56 5 15.08 5 13.26C5 11.26 6.567 9.64 8.5 9.64C8.5 7.65 10.067 6.03 12 6.03C13.769 6.03 15.216 7.39 15.452 9.15C17.427 9.26 19 10.93 19 13C19 14.48 18.186 15.75 17 16.39V17.55C18.755 16.83 20 15.07 20 13C20 10.65 18.397 8.69 16.259 8.21ZM15.167 15.98L13 18.22V11.19C13 10.91 12.776 10.68 12.5 10.68C12.224 10.68 12 10.91 12 11.19V18.22L9.833 15.98C9.643 15.79 9.333 15.79 9.143 15.98C8.952 16.18 8.952 16.5 9.143 16.7L12.097 19.75C12.113 19.77 12.122 19.8 12.143 19.82C12.239 19.92 12.366 19.97 12.493 19.96C12.496 19.97 12.498 19.97 12.5 19.97C12.502 19.97 12.504 19.96 12.506 19.96C12.633 19.97 12.761 19.92 12.857 19.82C12.879 19.8 12.889 19.77 12.906 19.74L15.857 16.7C16.048 16.5 16.048 16.18 15.857 15.98C15.667 15.79 15.357 15.79 15.167 15.98Z"></path></svg>