<svg data-icon="actionsPaste24" data-version="v2" class="" width="24" height="24" viewBox="0 0 24 24" fill="currentcolor" xmlns="http://www.w3.org/2000/svg"><path fill-rule="evenodd" clip-rule="evenodd" d="M13.323 11L9.677 14.65L7.677 13L7.003 13.68L9.003 15.32L9.677 16L9.743 15.93L9.823 16L10.496 15.32L10.416 15.26L13.996 11.68L13.323 11ZM16 18.5C16 18.78 15.776 19 15.5 19H5.5C5.224 19 5 18.78 5 18.5V8.5C5 8.22 5.224 8 5.5 8H15.5C15.776 8 16 8.22 16 8.5V18.5ZM16 7H5C4.448 7 4 7.45 4 8V19C4 19.55 4.448 20 5 20H16C16.552 20 17 19.55 17 19V8C17 7.45 16.552 7 16 7ZM19 4H9C8.448 4 8 4.45 8 5V6H9V5.5C9 5.22 9.224 5 9.5 5H18.5C18.776 5 19 5.22 19 5.5V14.5C19 14.78 18.776 15 18.5 15H18V16H19C19.552 16 20 15.55 20 15V5C20 4.45 19.552 4 19 4Z"></path></svg>