<svg data-icon="actionsRedo24" data-version="v2" class="" width="24" height="24" viewBox="0 0 24 24" fill="currentcolor" xmlns="http://www.w3.org/2000/svg"><path fill-rule="evenodd" clip-rule="evenodd" d="M17.8613 11.8267L20 9.26667H17.3333C16.2891 6.76 13.8176 5 10.9333 5C7.104 5 4 8.104 4 11.9333C4 15.7627 7.104 18.8667 10.9333 18.8667C12.8981 18.8667 14.6677 18.0453 15.9296 16.7333H14.2997C13.3461 17.4053 12.1867 17.8 10.9333 17.8C7.6928 17.8 5.06667 15.176 5.06667 11.9333C5.06667 8.69067 7.6928 6.06667 10.9333 6.06667C13.2117 6.06667 15.1829 7.368 16.1547 9.26667H14.6667L16.7947 11.816C16.7947 11.8587 16.8 11.8907 16.8 11.9333H16.8885L17.3333 12.4667L17.7781 11.9333H17.8667C17.8667 11.9013 17.8624 11.8693 17.8613 11.8267Z"></path></svg>