<svg data-icon="articulationsMarcato24" data-version="v2" class="" width="24" height="24" viewBox="0 0 24 24" fill="currentcolor" xmlns="http://www.w3.org/2000/svg"><path fill-rule="evenodd" clip-rule="evenodd" d="M13.356 14.816C14.61 14.816 15.49 15.52 15.49 16.642C15.49 18.512 13.092 20.316 11.134 20.316C9.946 20.316 9 19.634 9 18.49C9 16.598 10.936 14.816 13.356 14.816ZM12.552 4C12.64 4 12.706 4.044 12.772 4.132L15.148 9.214C15.17 9.236 15.17 9.28 15.17 9.324C15.17 9.456 15.082 9.544 14.928 9.566H13.432C13.344 9.566 13.256 9.522 13.19 9.434C13.19 9.434 11.958 6.816 11.936 6.728C11.892 6.684 11.848 6.662 11.804 6.662C11.76 6.662 11.738 6.684 11.716 6.728C11.6797 6.8007 10.8626 8.59991 10.5795 9.22353L10.5094 9.378C10.493 9.4142 10.484 9.434 10.484 9.434C10.44 9.544 10.33 9.588 10.242 9.588C10.22 9.588 10.154 9.588 10.132 9.566C10.022 9.544 9.978 9.434 9.978 9.324C9.978 9.28 9.978 9.258 10 9.214L12.332 4.132C12.332 4.132 12.398 4 12.552 4Z"></path></svg>