<svg data-icon="articulationsBreathmark24" data-version="v2" class="" width="24" height="24" viewBox="0 0 24 24" fill="currentcolor" xmlns="http://www.w3.org/2000/svg"><path fill-rule="evenodd" clip-rule="evenodd" d="M12.351 7.64893C10.9272 7.64893 10 8.54852 10 9.67302C10 10.7654 10.7616 11.4722 11.8543 11.4722C12.6821 11.4722 12.7815 12.1469 12.7815 12.1469C12.8146 12.2754 12.8477 12.3718 12.8477 12.5003C12.8477 12.9501 12.6159 13.3678 12.3179 13.7533C11.755 14.4602 10.894 14.9421 10.8278 15.0064C10.6954 15.0706 10.5629 15.1349 10.5629 15.2955C10.5629 15.3276 10.596 15.3598 10.596 15.3919C10.6291 15.5847 10.7285 15.6489 10.8278 15.6489C11.9205 15.6489 13.6093 14.2353 14.1391 13.4321C14.8013 12.4361 15 11.3116 15 10.3798V10.1549C15 9.22322 14.6026 8.58065 14.0728 8.19511C13.5762 7.8417 12.947 7.64893 12.351 7.64893Z"></path></svg>