<svg data-icon="articulationsSlurs24" data-version="v2" class="triggerIcon_LVopQ" width="24" height="24" viewBox="0 0 24 24" fill="currentcolor" xmlns="http://www.w3.org/2000/svg"><path fill-rule="evenodd" clip-rule="evenodd" d="M18.2553 15.2832C18.3979 16.7959 16.0214 18.6503 13.3629 19.834C10.8567 20.9498 7.82531 21.5196 6.83194 20.3692L7.02579 20.2829C7.81724 20.9426 11.1238 19.9847 13.0623 19.1216C14.9593 18.277 17.9529 16.4299 18.0614 15.3695L18.2553 15.2832ZM8.61716 7.82264V15.7841C8.60475 16.9498 7.09182 18.1031 5.85172 18.1031C5.09525 18.1031 4.5 17.6691 4.5 16.9374C4.5 15.7345 5.72771 14.606 7.25304 14.606C7.66227 14.606 8.0095 14.73 8.24512 14.9285V7.82264H8.61716ZM14.1287 5.06685V13.0283C14.1163 14.194 12.6034 15.3473 11.3633 15.3473C10.6068 15.3473 10.0116 14.9133 10.0116 14.1816C10.0116 12.9787 11.2393 11.8502 12.7646 11.8502C13.1739 11.8502 13.5211 11.9742 13.7567 12.1727V5.06685H14.1287ZM19.6403 3V10.9615C19.6279 12.1272 18.115 13.2805 16.8749 13.2805C16.1184 13.2805 15.5232 12.8465 15.5232 12.1148C15.5232 10.9119 16.7509 9.78339 18.2762 9.78339C18.6854 9.78339 19.0327 9.9074 19.2683 10.1058V3H19.6403Z"></path></svg>