<svg data-icon="articulationsGraceSlur24" data-version="v2" class="" width="24" height="24" viewBox="0 0 24 24" fill="currentcolor" xmlns="http://www.w3.org/2000/svg"><path d="M12.9071 7.86481L6.01738 8.8706V10.3793L12.9071 9.3735V7.86481Z"></path><path d="M12.9071 9.8764L6.01738 10.8822V12.3909L12.9071 11.3851V9.8764Z"></path><path fill-rule="evenodd" clip-rule="evenodd" d="M6.0375 16.7661C5.8464 16.5951 5.56478 16.5046 5.23286 16.5046C3.99574 16.5046 3 17.4199 3 18.3955C3 18.9889 3.48278 19.3409 4.09632 19.3409C5.10211 19.3409 6.33924 18.4055 6.33924 17.45V9.12205H6.0375V16.7661Z"></path><path fill-rule="evenodd" clip-rule="evenodd" d="M12.5752 15.2574C12.3841 15.0864 12.1024 14.9959 11.7705 14.9959C10.5334 14.9959 9.53766 15.9112 9.53766 16.8868C9.53766 17.4802 10.0204 17.8322 10.634 17.8322C11.6398 17.8322 12.8769 16.8968 12.8769 15.9413V8.11626L12.5752 9.12205V15.2574Z"></path><path fill-rule="evenodd" clip-rule="evenodd" d="M17.4137 18.5551C17.0402 19.6023 13.4735 20.7945 11.2935 21.2205C9.06576 21.6559 5.39224 21.8788 4.73147 21.0337L4.50869 21.0773C5.25878 22.4639 8.55077 22.5711 11.4309 22.0082C14.4861 21.4111 17.4129 20.0724 17.6365 18.5115L17.4137 18.5551Z"></path><path fill-rule="evenodd" clip-rule="evenodd" d="M20.147 12.6126C19.8592 12.3602 19.435 12.2266 18.9352 12.2266C17.072 12.2266 15.5724 13.5778 15.5724 15.0182C15.5724 15.8943 16.2995 16.4141 17.2235 16.4141C18.7383 16.4141 20.6014 15.0331 20.6014 13.6224V1.32715H20.147V12.6126Z"></path></svg>