<svg data-icon="articulationsAccent24" data-version="v2" class="" width="24" height="24" viewBox="0 0 24 24" fill="currentcolor" xmlns="http://www.w3.org/2000/svg"><path fill-rule="evenodd" clip-rule="evenodd" d="M12.356 15.25C13.61 15.25 14.49 15.954 14.49 17.076C14.49 18.946 12.092 20.75 10.134 20.75C8.946 20.75 8 20.068 8 18.924C8 17.032 9.936 15.25 12.356 15.25ZM9.374 4C9.396 4 9.484 4.022 9.572 4.044L16.172 6.288C16.458 6.376 16.458 6.508 16.458 6.684L16.4576 6.74176C16.4545 6.89314 16.4262 7.02133 16.172 7.08L9.44 9.346C9.418 9.368 9.374 9.368 9.352 9.368C9.198 9.368 9.11 9.192 9.044 9.038C9.022 8.972 9 8.906 9 8.84C9 8.73 9.066 8.62 9.308 8.51C9.308 8.51 14.016 6.904 14.258 6.838C14.39 6.794 14.434 6.75 14.434 6.684C14.434 6.618 14.39 6.552 14.28 6.53C14.06 6.442 9.308 4.836 9.308 4.836C9.066 4.748 9 4.638 9 4.528C9 4.462 9.022 4.396 9.044 4.308C9.11 4.132 9.176 4 9.374 4Z"></path></svg>