<svg data-icon="articulationsStaccatissimo24" data-version="v2" class="" width="24" height="24" viewBox="0 0 24 24" fill="currentcolor" xmlns="http://www.w3.org/2000/svg"><path fill-rule="evenodd" clip-rule="evenodd" d="M13.356 14.696C14.61 14.696 15.49 15.4 15.49 16.522C15.49 18.392 13.092 20.196 11.134 20.196C9.946 20.196 9 19.514 9 18.37C9 16.478 10.936 14.696 13.356 14.696ZM13.1 4C13.694 4 14.2 4.176 14.2 4.506C14.2 4.72923 14.0929 5.9202 13.9261 7.18157L13.8563 7.68775C13.65 9.1205 13.375 10.49 13.1 10.49C12.594 10.49 12.022 4.814 12.022 4.484C12.044 4.198 12.528 4 13.1 4Z"></path></svg>