<svg data-icon="articulationsDetachedLegato24" data-version="v2" class="" width="24" height="24" viewBox="0 0 24 24" fill="currentcolor" xmlns="http://www.w3.org/2000/svg"><path fill-rule="evenodd" clip-rule="evenodd" d="M14.93 10.0935C15.436 10.0935 15.458 9.85153 15.458 9.56553C15.458 9.27953 15.458 9.03753 14.93 9.03753H8.528C8 9.03753 8 9.27953 8 9.56553C8 9.85153 8 10.0935 8.528 10.0935H14.93ZM12.62 5.69353C12.62 5.18753 12.202 4.76953 11.696 4.76953C11.19 4.76953 10.772 5.18753 10.772 5.69353C10.772 6.19953 11.19 6.61753 11.696 6.61753C12.202 6.61753 12.62 6.19953 12.62 5.69353Z"></path><path fill-rule="evenodd" clip-rule="evenodd" d="M12.878 14.235C14.132 14.235 15.012 14.939 15.012 16.061C15.012 17.931 12.614 19.735 10.656 19.735C9.46797 19.735 8.52197 19.053 8.52197 17.909C8.52197 16.017 10.458 14.235 12.878 14.235Z"></path></svg>