<svg data-icon="articulationsFingering24" data-version="v2" class="" width="24" height="24" viewBox="0 0 24 24" fill="currentcolor" xmlns="http://www.w3.org/2000/svg"><path fill-rule="evenodd" clip-rule="evenodd" d="M9.57799 6C9.45923 6.22425 9.37922 6.46612 9.33784 6.72023L8.04 6.72013V12.4834C8.04 12.8793 7.72128 13.2001 7.32075 13.2001H7.32V16.8001H10.2L10.1997 15.0147C10.3784 15.1902 10.6364 15.4449 11.0286 15.8322L10.92 15.7252V16.8001L12.0268 16.8014C12.3599 17.1147 12.5985 17.322 12.8018 17.4737C12.6575 17.5042 12.5073 17.5201 12.3532 17.5201H5.16682C3.97012 17.5201 3 16.5578 3 15.3533V8.16695C3 6.97025 3.96237 6.00013 5.16682 6.00013L9.57799 6ZM11.4753 6.16583C12.2697 5.83297 12.6926 5.98706 13.1055 6.76033C13.1346 6.81116 13.1888 6.9066 13.2645 7.04125C13.3904 7.26525 13.5306 7.51763 13.6816 7.793C13.7671 7.94893 13.8526 8.10593 13.9378 8.26365L13.9471 8.25702L14.0516 8.1812C14.2012 8.07762 14.3637 7.98718 14.5391 7.91368C15.0441 7.7021 15.4237 7.76672 15.7574 8.0796L15.787 8.05574C15.925 7.95284 16.0904 7.8688 16.2841 7.80861C16.8504 7.63266 17.248 7.82207 17.5996 8.32145L17.566 8.27529C18.4218 7.81867 19.0801 8.16445 19.5392 9.11188C19.9302 9.91859 20.1124 10.3254 20.4794 11.2216C21.0525 12.6212 21.1087 13.9594 20.8593 15.1121C20.8074 15.3518 20.7542 15.526 20.7159 15.6257C20.6437 15.8139 20.4321 15.9081 20.2434 15.836C20.0548 15.7639 19.9604 15.5529 20.0327 15.3647C20.0581 15.2985 20.1004 15.1597 20.1441 14.9581C20.3644 13.9399 20.3144 12.7488 19.802 11.4976C19.4409 10.6158 19.2649 10.2228 18.8805 9.42952C18.5975 8.84564 18.3648 8.69092 17.9505 8.89796L18.6692 10.3244C18.7599 10.5045 18.6872 10.7238 18.5066 10.8143C18.3261 10.9049 18.1062 10.8323 18.0155 10.6522L17.271 9.17291C17.1109 8.9056 17.0685 8.83693 17.0009 8.74093C16.816 8.47836 16.7263 8.43565 16.5018 8.50542C16.3872 8.54103 16.2963 8.58718 16.2251 8.64028C16.2138 8.64867 16.2035 8.65682 16.194 8.66467C16.2512 8.76094 16.307 8.86611 16.363 8.97892L17.0665 10.3712C17.1575 10.5512 17.0849 10.7706 16.9045 10.8613C16.7241 10.952 16.5041 10.8797 16.4132 10.6997L15.7085 9.30511C15.354 8.59111 15.1686 8.44154 14.8224 8.58657C14.6957 8.63968 14.5778 8.70532 14.4689 8.7807C14.3998 8.82859 14.3395 8.87608 14.2884 8.92048C14.5138 9.3442 14.7345 9.77005 14.9474 10.1914C15.0734 10.4409 15.1948 10.6854 15.3112 10.9241C15.3996 11.1054 15.3239 11.3237 15.1422 11.4119C14.9605 11.5 14.7416 11.4245 14.6532 11.2433C14.5383 11.0077 14.4184 10.7663 14.2939 10.5198C14.069 10.0745 13.8349 9.62378 13.5969 9.17549C13.5079 9.10874 13.4588 9.00971 13.4527 8.9074C13.3161 8.65032 13.1779 8.39537 13.0396 8.14321C12.8899 7.87016 12.7509 7.62 12.6262 7.39815C12.5516 7.26529 12.4983 7.17157 12.465 7.11296C12.2234 6.66076 12.202 6.65296 11.7586 6.83873C11.4376 6.97323 11.4027 7.13931 11.562 7.53137C11.5847 7.57641 11.5847 7.57641 11.6868 7.77901C11.7861 7.97605 11.8967 8.19587 12.0158 8.43294C12.356 9.11029 12.6963 9.79018 13.014 10.4284L13.045 10.4907C13.2061 10.8146 13.3571 11.1191 13.4963 11.401C13.5249 11.4588 13.5534 11.5174 13.5819 11.5769C13.8103 12.0532 14.0285 12.562 14.2296 13.0707C14.2999 13.2485 14.3631 13.4138 14.4182 13.5623C14.4515 13.6519 14.4748 13.7163 14.4872 13.7515C14.4878 13.7532 14.4884 13.7548 14.489 13.7565C14.5063 13.8026 14.5167 13.8492 14.5175 13.9036C14.5196 14.0442 14.4493 14.186 14.2986 14.2564C14.1421 14.3296 14.0431 14.302 13.9076 14.2311C13.8202 14.1854 13.7091 14.1064 13.5549 13.9849C13.4337 13.8895 13.288 13.7695 13.0925 13.6049C12.9845 13.514 12.593 13.1819 12.5557 13.1504C12.5224 13.1222 12.5224 13.1222 12.4891 13.0941C11.9368 12.6282 11.594 12.3563 11.3797 12.2241C11.2335 12.134 11.2557 12.1374 11.1704 12.1922C11.0047 12.2987 10.927 12.4282 10.9319 12.6063C10.9322 12.6215 10.9322 12.6215 10.9323 12.6327C10.933 12.7107 10.9479 12.7456 11.1023 12.8827C11.1213 12.8996 11.139 12.9153 11.1559 12.9303L11.2045 12.9738C11.2124 12.9809 11.2201 12.9879 11.2279 12.9949L11.275 13.0379C11.4432 13.1928 11.6659 13.4127 12.5551 14.2907C12.5801 14.3154 12.5801 14.3154 12.6051 14.34C13.4695 15.1929 13.952 15.6435 14.1725 15.7872C14.4066 15.9398 14.7072 16.0948 15.0574 16.2477C15.3926 16.3941 15.7538 16.5303 16.1152 16.6524C16.332 16.7256 16.4998 16.7775 16.5936 16.8045C16.7877 16.8605 16.8996 17.0628 16.8435 17.2564C16.7875 17.45 16.5846 17.5616 16.3905 17.5057C16.2867 17.4758 16.1086 17.4207 15.8806 17.3437C15.5007 17.2154 15.1206 17.072 14.764 16.9163C14.3796 16.7485 14.0448 16.5759 13.7722 16.3981C13.4893 16.2137 13.0109 15.7669 12.0906 14.8589C12.0822 14.8507 12.0766 14.8452 12.072 14.8406L12.0404 14.8094C10.8765 13.6602 10.867 13.6509 10.6158 13.4278C10.3021 13.1493 10.203 12.917 10.2005 12.6265C10.188 12.1769 10.4046 11.8161 10.7741 11.5787C11.1446 11.3406 11.404 11.3811 11.7645 11.6034C12.022 11.7622 12.378 12.0446 12.9616 12.5369C12.9952 12.5653 12.9952 12.5653 13.0289 12.5937C13.0528 12.6139 13.2151 12.7515 13.3592 12.8736C13.2193 12.5367 13.0726 12.2062 12.9218 11.8918C12.8945 11.8348 12.8672 11.7787 12.8399 11.7235C12.7011 11.4423 12.5504 11.1384 12.3896 10.8152L12.3586 10.7529C12.0414 10.1156 11.7015 9.43652 11.3616 8.75991C11.2426 8.52309 11.1322 8.3035 11.033 8.10669C10.9821 8.00553 10.9566 7.95495 10.9395 7.92079L10.9081 7.85726L10.8965 7.83346C10.5909 7.08703 10.7178 6.48317 11.4753 6.16583ZM5.88 6.72013H5.16682C4.39963 6.72013 3.7788 7.30754 3.72394 8.05859L3.72 8.16695V15.3533C3.72 16.157 4.36469 16.8001 5.16682 16.8001H6.6V13.2001H6.59925C6.20202 13.2001 5.88 12.872 5.88 12.4834V6.72013ZM9.47972 8.1519C9.50505 8.22689 9.53313 8.30207 9.56396 8.37735L9.60186 8.46201C9.60596 8.47043 9.60869 8.47604 9.61096 8.48071L9.63496 8.52965C9.65193 8.56401 9.67115 8.60221 9.74709 8.75291C9.85046 8.95812 9.96076 9.17739 10.0749 9.40453C10.1995 9.65254 10.3217 9.89622 10.4411 10.1345C10.2921 10.1929 10.144 10.2701 9.99575 10.3654C9.80383 10.4887 9.631 10.6309 9.47961 10.7891L9.47972 8.1519Z"></path></svg>