<svg data-icon="articulationsFermata24" data-version="v2" class="" width="24" height="24" viewBox="0 0 24 24" fill="currentcolor" xmlns="http://www.w3.org/2000/svg"><path fill-rule="evenodd" clip-rule="evenodd" d="M11.578 10.376C16.264 10.376 17.21 13.852 17.43 14.688C17.452 14.754 17.452 14.82 17.474 14.842C17.628 15.15 17.716 15.304 17.936 15.304C18.134 15.304 18.244 15.216 18.244 14.996C18.244 14.93 18.244 14.864 18.222 14.776C16.858 8.044 12.26 8 11.622 8C10.918 8 6.364 8.044 5.022 14.776C5 14.864 5 14.952 5 15.018C5 15.238 5.11 15.304 5.286 15.304C5.484 15.304 5.594 15.15 5.726 14.842C5.748 14.82 5.77 14.732 5.792 14.644C6.056 13.742 7.046 10.376 11.578 10.376ZM12.81 14.094C12.81 13.456 12.26 12.906 11.6 12.906C10.962 12.906 10.412 13.456 10.412 14.094C10.412 14.754 10.962 15.304 11.6 15.304C12.26 15.304 12.81 14.754 12.81 14.094Z"></path></svg>