<svg data-icon="clefF415Mb40" data-version="v2" class="" width="40" height="40" viewBox="0 0 40 40" fill="currentcolor" xmlns="http://www.w3.org/2000/svg"><path fill-rule="evenodd" clip-rule="evenodd" d="M25 19.6899H10V20.3101H25V19.6899ZM25 14.845H10V15.4651H25V14.845ZM25 24.5349H10V25.155H25V24.5349ZM25 10H10V10.6202H25V10ZM25 29.3798H10V30H25V29.3798ZM30 19.6899H25V20.3101H30V19.6899ZM30 14.845H25V15.4651H30V14.845ZM30 24.5349H25V25.155H30V24.5349ZM30 10H25V10.6202H30V10ZM30 29.3798H25V30H30V29.3798Z"></path><path fill-rule="evenodd" clip-rule="evenodd" d="M25.6 16.8539C24.98 16.8539 24.52 17.2996 24.52 17.9004C24.52 18.5012 24.98 18.9469 25.6 18.9469C26.22 18.9469 26.68 18.5012 26.68 17.9004C26.68 17.2996 26.22 16.8539 25.6 16.8539ZM25.58 11.9895C24.96 11.9895 24.48 12.4547 24.48 13.0554C24.48 13.6562 24.96 14.1213 25.58 14.1213C26.2 14.1213 26.68 13.6562 26.68 13.0554C26.68 12.4547 26.2 11.9895 25.58 11.9895ZM18.76 27.4547C18.72 27.5709 18.7 27.6097 18.7 27.6872C18.7 27.8035 18.78 27.8616 18.9 27.8616C18.98 27.8616 19.04 27.8229 19.14 27.7453C19.24 27.6291 19.5 27.3771 19.88 27.3771C20.3 27.3771 20.44 27.6485 20.44 27.9973C20.44 28.5787 20.06 29.5477 19.24 29.5477C19 29.5477 18.8 29.4508 18.8 29.3345C18.8 29.257 18.86 29.2376 18.96 29.1795C19.1 29.1213 19.28 28.9857 19.28 28.6756C19.28 28.3849 19.06 28.2298 18.8 28.2298C18.46 28.2298 18.2 28.5399 18.2 28.9275C18.2 29.412 18.6 29.8578 19.46 29.8578C20.6 29.8578 21.44 29.1019 21.44 27.9779C21.44 27.2802 20.94 26.9895 20.14 26.9895C19.9 26.9895 19.72 27.0283 19.56 27.0671C19.38 27.1252 19.36 27.0477 19.4 26.9314L19.58 26.3888C19.62 26.2725 19.68 26.2725 19.8 26.2919C19.94 26.3112 20.12 26.3306 20.28 26.3306C21 26.3306 21.56 26.0012 21.94 25.6717C22.06 25.5554 22.12 25.4779 22.12 25.4004C22.12 25.3422 22.06 25.2841 22 25.2841C21.96 25.2841 21.86 25.3229 21.7 25.381C21.44 25.4391 21.14 25.4779 20.78 25.4779C20.44 25.4779 20.18 25.4391 20.04 25.4004C19.86 25.3422 19.8 25.3229 19.7 25.3229C19.56 25.3229 19.48 25.4004 19.44 25.536L18.76 27.4547ZM16.06 26.8345C16 26.912 15.96 26.9702 15.96 27.0477C15.96 27.1252 16.06 27.2221 16.16 27.2221C16.26 27.2221 16.32 27.164 16.38 27.0864L16.84 26.6019C16.9 26.5244 16.94 26.505 17 26.505C17.04 26.505 17.06 26.5244 17.06 26.5826C17.06 26.6213 17.06 26.6601 17.04 26.7182L16.2 29.257C16.16 29.3539 16.16 29.3733 16.04 29.3926L15.62 29.4314C15.5 29.4314 15.44 29.4895 15.44 29.5864C15.44 29.6833 15.5 29.7609 15.64 29.7609H17.7C17.84 29.7609 17.9 29.6833 17.9 29.5864C17.9 29.4895 17.84 29.4314 17.72 29.4314L17.3 29.3926C17.22 29.3733 17.24 29.3151 17.26 29.2182L18.46 25.5554C18.48 25.4973 18.48 25.4585 18.48 25.4198C18.48 25.3616 18.44 25.3035 18.36 25.3035C18.24 25.3035 18.08 25.4198 17.94 25.4198C17.86 25.4198 17.78 25.3616 17.72 25.3422C18.82 24.5864 19.88 23.7337 20.84 22.7453C22.58 20.9236 23.62 18.5593 23.62 16.0205C23.62 12.6485 21.5 10.4004 18.04 10.4004C14.56 10.4004 13 12.8616 13 14.7221C13 16.2725 13.84 17.6097 15.46 17.6097C16.72 17.6097 17.58 16.757 17.58 15.5554C17.58 14.3151 16.64 13.5399 15.66 13.5399C15.12 13.5399 14.92 13.6756 14.66 13.6756C14.4 13.6756 14.34 13.5205 14.34 13.3267C14.34 12.5516 15.54 11.1368 17.58 11.1368C19.7 11.1368 20.62 13.1523 20.62 16.195C20.62 18.1911 20.18 20.5167 18.94 22.3771C17.74 24.1795 15.68 25.8267 13.2 27.2027C13.02 27.2996 12.9 27.3965 12.9 27.5515C12.9 27.6678 12.98 27.7841 13.16 27.7841C13.26 27.7841 13.38 27.7453 13.5 27.6872C14.7 27.1058 15.88 26.505 17 25.788L16.06 26.8345Z"></path></svg>