<svg data-icon="clefF540" data-version="v2" class="" width="40" height="40" viewBox="0 0 40 40" fill="currentcolor" xmlns="http://www.w3.org/2000/svg"><path fill-rule="evenodd" clip-rule="evenodd" d="M25 19.5934H10V20.2194H25V19.5934ZM25 14.703H10V15.3289H25V14.703ZM25 24.4839H10V25.1098H25V24.4839ZM25 9.8125H10V10.4385H25V9.8125ZM25 29.3743H10V30.0003H25V29.3743ZM30 19.5934H25V20.2194H30V19.5934ZM30 14.703H25V15.3289H30V14.703ZM30 24.4839H25V25.1098H30V24.4839ZM30 9.8125H25V10.4385H30V9.8125ZM30 29.3743H25V30.0003H30V29.3743Z"></path><path fill-rule="evenodd" clip-rule="evenodd" d="M18.04 5C14.56 5 13 7.48435 13 9.36229C13 10.9272 13.84 12.277 15.46 12.277C16.72 12.277 17.58 11.4163 17.58 10.2034C17.58 8.95149 16.64 8.16902 15.66 8.16902C15.12 8.16902 14.92 8.30595 14.66 8.30595C14.4 8.30595 14.34 8.14945 14.34 7.95384C14.34 7.17136 15.54 5.74335 17.58 5.74335C19.7 5.74335 20.62 7.77778 20.62 10.849C20.62 12.8639 20.18 15.2113 18.94 17.0892C17.74 18.9085 15.68 20.5712 13.2 21.9601C13.02 22.0579 12.9 22.1557 12.9 22.3122C12.9 22.4296 12.98 22.547 13.16 22.547C13.26 22.547 13.38 22.5078 13.5 22.4492C16.16 21.1776 18.72 19.6909 20.84 17.4609C22.58 15.6221 23.62 13.2355 23.62 10.6729C23.62 7.26917 21.5 5 18.04 5ZM25.6 11.5141C24.98 11.5141 24.52 11.964 24.52 12.5704C24.52 13.1768 24.98 13.6268 25.6 13.6268C26.22 13.6268 26.68 13.1768 26.68 12.5704C26.68 11.964 26.22 11.5141 25.6 11.5141ZM25.58 6.60407C24.96 6.60407 24.48 7.07355 24.48 7.67997C24.48 8.28639 24.96 8.75587 25.58 8.75587C26.2 8.75587 26.68 8.28639 26.68 7.67997C26.68 7.07355 26.2 6.60407 25.58 6.60407Z"></path></svg>