<svg data-icon="clefG28Vb40" data-version="v2" class="" width="40" height="40" viewBox="0 0 40 40" fill="currentcolor" xmlns="http://www.w3.org/2000/svg"><path fill-rule="evenodd" clip-rule="evenodd" d="M24.2222 17.2196H10.8889V17.7864H24.2222V17.2196ZM24.2222 12.7914H10.8889V13.3582H24.2222V12.7914ZM24.2222 21.6477H10.8889V22.2145H24.2222V21.6477ZM24.2222 8.36328H10.8889V8.93008H24.2222V8.36328ZM24.2222 26.0758H10.8889V26.6426H24.2222V26.0758ZM28.6667 17.2196H24.2222V17.7864H28.6667V17.2196ZM28.6667 12.7914H24.2222V13.3582H28.6667V12.7914ZM28.6667 21.6477H24.2222V22.2145H28.6667V21.6477ZM28.6667 8.36328H24.2222V8.93008H28.6667V8.36328ZM28.6667 26.0758H24.2222V26.6426H28.6667V26.0758Z"></path><path fill-rule="evenodd" clip-rule="evenodd" d="M19.7957 33.8634C20.2223 33.8634 20.3646 34.1468 20.3646 34.4302C20.3646 34.7313 20.2401 35.0324 19.9379 35.2449C19.8668 35.2981 19.8134 35.2981 19.6712 35.2095C19.2623 34.8907 19.1201 34.7313 19.1201 34.4833C19.1201 34.0936 19.4046 33.8634 19.7957 33.8634ZM18.8001 35.918C18.889 35.8649 18.9423 35.8826 19.0668 35.9712C19.6357 36.414 19.7779 36.538 19.7779 36.8036C19.7779 37.2642 19.4401 37.5121 19.0134 37.5121C18.4801 37.5121 18.3023 37.1579 18.3023 36.8391C18.3023 36.5557 18.4268 36.1483 18.8001 35.918ZM21.2001 20.4018C21.1646 20.1893 21.1823 20.1361 21.3957 20.1538C22.1176 20.219 22.7887 20.5518 23.276 21.0865C23.7633 21.6212 24.0312 22.3188 24.0268 23.041C24.0268 24.1569 23.3512 25.0602 22.3557 25.5562C22.1423 25.6624 22.1068 25.6624 22.0712 25.4499L21.2001 20.4018ZM21.9112 5.52328C22.4979 5.52328 22.9779 6.00152 22.9779 6.97571C22.9779 8.19787 22.3912 9.33148 21.0046 10.7131C20.7201 10.9965 20.2934 11.4038 19.8846 11.7581C19.7601 11.8644 19.689 11.8467 19.6534 11.6164C19.5823 11.1559 19.5468 10.5536 19.5468 9.98684C19.5468 7.22368 20.8268 5.52328 21.9112 5.52328ZM19.9734 17.5855C20.0268 17.9221 20.0268 17.9044 19.7068 18.0106C18.1423 18.542 17.129 19.9413 17.129 21.4469C17.129 23.041 17.9646 24.1746 19.1734 24.582C19.3157 24.6351 19.529 24.6883 19.6534 24.6883C19.7957 24.6883 19.8668 24.5997 19.8668 24.4934C19.8668 24.3694 19.7246 24.3163 19.6001 24.2632C18.8534 23.9443 18.3201 23.1827 18.3201 22.3679C18.3201 21.3583 19.0134 20.5967 20.0979 20.2955C20.3823 20.2247 20.4179 20.2424 20.4534 20.4372L21.3423 25.7156C21.3779 25.9104 21.3601 25.9104 21.0934 25.9636C20.809 26.0167 20.4534 26.0521 20.0979 26.0521C16.9868 26.0521 14.9779 24.334 14.9779 21.872C14.9779 20.8269 15.1557 19.4276 16.6312 17.7626C17.6979 16.5759 18.5157 15.9205 19.3512 15.2475C19.529 15.1058 19.5646 15.1235 19.6001 15.3183L19.9734 17.5855ZM20.2401 14.8755C20.2046 14.663 20.2401 14.6452 20.3468 14.539C20.6312 14.2733 21.0046 13.9013 21.3423 13.5294C22.8357 11.8998 23.7246 9.792 23.7246 7.79048C23.7246 6.24949 23.2979 4.72621 22.569 3.66346C22.3023 3.27378 21.8401 2.77783 21.6446 2.77783C21.3957 2.77783 20.8446 3.23836 20.489 3.62803C19.1734 5.08046 18.7468 7.29453 18.7468 9.13664C18.7468 10.164 18.8712 11.3153 18.9957 12.0415C19.0312 12.254 19.049 12.2895 18.8357 12.4666C17.6979 13.4054 16.4712 14.4858 15.5468 15.6194C14.3201 17.1427 13.5557 18.79 13.5557 20.6852C13.5557 23.7672 15.6712 26.6898 20.0268 26.6898C20.4357 26.6898 20.8979 26.6544 21.2534 26.5835C21.449 26.5481 21.4846 26.5304 21.5201 26.7429C21.7334 27.9297 22.0001 29.4706 22.0001 30.3031C22.0001 32.9246 20.2223 33.2434 19.1734 33.2434C18.2134 33.2434 17.7512 32.96 17.7512 32.7298C17.7512 32.6058 17.9112 32.5526 18.3201 32.4286C18.8712 32.2692 19.5112 31.791 19.5112 30.7637C19.5112 29.7895 18.889 28.957 17.8046 28.957C16.6134 28.957 15.9023 29.8957 15.9023 30.9939C15.9023 32.0744 16.5068 33.6508 18.7823 33.8634C18.4623 34.0582 18.2846 34.377 18.2846 34.7844C18.2846 35.0501 18.3557 35.2626 18.4979 35.4398C18.5868 35.5638 18.6223 35.5992 18.409 35.6878C17.8401 35.918 17.609 36.3077 17.609 36.7328C17.609 37.3173 18.0357 37.7778 18.9957 37.7778C19.8668 37.7778 20.6134 37.335 20.6134 36.5202C20.6134 36.2014 20.5423 35.9712 20.329 35.7409C20.2046 35.5992 20.169 35.5638 20.3823 35.4575C20.8623 35.2095 21.0401 34.8375 21.0401 34.5187C21.0401 34.1645 20.8623 33.8634 20.489 33.7039C21.5912 33.3674 22.7823 32.4818 22.7823 30.3386C22.7823 29.3289 22.4623 27.6463 22.2668 26.5481C22.2312 26.3355 22.249 26.3532 22.4979 26.247C24.2934 25.5385 25.4846 24.0329 25.4846 22.0314C25.4846 19.7642 23.8134 17.7626 21.2001 17.7626C20.7379 17.7626 20.7379 17.7627 20.6846 17.4438L20.2401 14.8755Z"></path></svg>