<svg data-icon="clefC440" data-version="v2" class="" width="40" height="40" viewBox="0 0 40 40" fill="currentcolor" xmlns="http://www.w3.org/2000/svg"><path fill-rule="evenodd" clip-rule="evenodd" d="M25 19.67H10V20.2914H25V19.67ZM25 14.8157H10V15.4371H25V14.8157ZM25 24.5243H10V25.1456H25V24.5243ZM25 9.96143H10V10.5828H25V9.96143ZM25 29.3786H10V29.9999H25V29.3786ZM30 19.67H25V20.2914H30V19.67ZM30 14.8157H25V15.4371H30V14.8157ZM30 24.5243H25V25.1456H30V24.5243ZM30 9.96143H25V10.5828H30V9.96143ZM30 29.3786H25V29.9999H30V29.3786Z"></path><path fill-rule="evenodd" clip-rule="evenodd" d="M13.42 5.68325C13.14 5.68325 13 5.81917 13 6.09101V24.8092C13 25.081 13.14 25.2169 13.42 25.2169H15.14C15.42 25.2169 15.56 25.081 15.56 24.8092V6.09101C15.56 5.81917 15.42 5.68325 15.14 5.68325H13.42ZM17.6 6.09101C17.6 5.81917 17.46 5.68325 17.18 5.68325H17.16C16.88 5.68325 16.74 5.81917 16.74 6.09101V24.8092C16.74 25.081 16.88 25.2169 17.16 25.2169H17.18C17.46 25.2169 17.6 25.081 17.6 24.8092V16.3044C17.6 16.1491 17.7 16.1685 17.78 16.1879C18.3 16.3239 19.14 16.8287 19.56 19.0228C19.62 19.3335 19.74 19.5083 19.94 19.5083C20.16 19.5083 20.26 19.3141 20.36 18.984C20.62 18.1297 21.08 17.1782 22.5 17.1782C23.8 17.1782 24.16 18.4209 24.16 20.9646C24.16 23.5082 23.7 24.6538 22.04 24.6538C21.6 24.6538 21.2 24.5956 20.88 24.4985C20.54 24.4014 20.34 24.2655 20.34 24.1296C20.34 24.0325 20.66 23.916 20.88 23.8383C21.28 23.7024 21.68 23.314 21.68 22.5762C21.68 21.7218 21.1 21.2364 20.32 21.2364C19.46 21.2364 18.78 21.7995 18.78 22.8286C18.78 24.0519 19.88 25.2752 22.26 25.2752C25.54 25.2752 26.98 23.0422 26.98 21.0228C26.98 18.3432 25.46 16.4792 22.8 16.4792C22.22 16.4792 21.84 16.5763 21.58 16.6539C21.38 16.7122 21.18 16.751 21 16.6345C20.72 16.4598 20.28 15.8384 20.28 15.4501C20.28 15.0617 20.72 14.4404 21 14.2656C21.18 14.1491 21.38 14.188 21.58 14.2462C21.84 14.3239 22.22 14.421 22.8 14.421C25.46 14.421 26.98 12.5569 26.98 9.87736C26.98 7.85797 25.54 5.625 22.26 5.625C19.88 5.625 18.78 6.84828 18.78 8.07156C18.78 9.10067 19.46 9.66377 20.32 9.66377C21.1 9.66377 21.68 9.17834 21.68 8.32399C21.68 7.58613 21.28 7.19779 20.88 7.06187C20.66 6.9842 20.34 6.8677 20.34 6.77061C20.34 6.63469 20.54 6.49877 20.88 6.40169C21.2 6.3046 21.6 6.24635 22.04 6.24635C23.7 6.24635 24.16 7.39196 24.16 9.93561C24.16 12.4793 23.8 13.722 22.5 13.722C21.08 13.722 20.62 12.7705 20.36 11.9162C20.26 11.5861 20.16 11.3919 19.94 11.3919C19.74 11.3919 19.62 11.5667 19.56 11.8773C19.14 14.0715 18.3 14.5763 17.78 14.7122C17.7 14.7316 17.6 14.7511 17.6 14.5957V6.09101Z"></path></svg>