<svg data-icon="clefC540" data-version="v2" class="" width="40" height="41" viewBox="0 0 40 41" fill="currentcolor" xmlns="http://www.w3.org/2000/svg"><path fill-rule="evenodd" clip-rule="evenodd" d="M25 19.9202H10V20.564H25V19.9202ZM25 14.8898H10V15.5337H25V14.8898ZM25 24.9505H10V25.5944H25V24.9505ZM25 9.85938H10V10.5033H25V9.85938ZM25 29.9809H10V30.6248H25V29.9809ZM30 19.9202H25V20.564H30V19.9202ZM30 14.8898H25V15.5337H30V14.8898ZM30 24.9505H25V25.5944H30V24.9505ZM30 9.85938H25V10.5033H30V9.85938ZM30 29.9809H25V30.6248H30V29.9809Z"></path><path fill-rule="evenodd" clip-rule="evenodd" d="M13.42 0.0603647C13.14 0.0603647 13 0.201216 13 0.482918V19.8801C13 20.1618 13.14 20.3026 13.42 20.3026H15.14C15.42 20.3026 15.56 20.1618 15.56 19.8801V0.482918C15.56 0.201216 15.42 0.0603647 15.14 0.0603647H13.42ZM17.6 0.482918C17.6 0.201216 17.46 0.0603647 17.18 0.0603647H17.16C16.88 0.0603647 16.74 0.201216 16.74 0.482918V19.8801C16.74 20.1618 16.88 20.3026 17.16 20.3026H17.18C17.46 20.3026 17.6 20.1618 17.6 19.8801V11.0669C17.6 10.9059 17.7 10.926 17.78 10.9461C18.3 11.087 19.14 11.6101 19.56 13.8839C19.62 14.2058 19.74 14.3869 19.94 14.3869C20.16 14.3869 20.26 14.1857 20.36 13.8436C20.62 12.9583 21.08 11.9723 22.5 11.9723C23.8 11.9723 24.16 13.2601 24.16 15.896C24.16 18.5319 23.7 19.7191 22.04 19.7191C21.6 19.7191 21.2 19.6588 20.88 19.5581C20.54 19.4575 20.34 19.3167 20.34 19.1758C20.34 19.0752 20.66 18.9545 20.88 18.874C21.28 18.7332 21.68 18.3307 21.68 17.5661C21.68 16.6808 21.1 16.1777 20.32 16.1777C19.46 16.1777 18.78 16.7613 18.78 17.8277C18.78 19.0954 19.88 20.363 22.26 20.363C25.54 20.363 26.98 18.049 26.98 15.9564C26.98 13.1796 25.46 11.2479 22.8 11.2479C22.22 11.2479 21.84 11.3486 21.58 11.429C21.38 11.4894 21.18 11.5296 21 11.4089C20.72 11.2278 20.28 10.5839 20.28 10.1815C20.28 9.77907 20.72 9.13518 21 8.95409C21.18 8.83336 21.38 8.8736 21.58 8.93397C21.84 9.01445 22.22 9.11506 22.8 9.11506C25.46 9.11506 26.98 7.18339 26.98 4.40662C26.98 2.31398 25.54 0 22.26 0C19.88 0 18.78 1.26766 18.78 2.53532C18.78 3.60176 19.46 4.18528 20.32 4.18528C21.1 4.18528 21.68 3.68224 21.68 2.7969C21.68 2.03228 21.28 1.62985 20.88 1.489C20.66 1.40851 20.34 1.28778 20.34 1.18717C20.34 1.04632 20.54 0.90547 20.88 0.804862C21.2 0.704255 21.6 0.64389 22.04 0.64389C23.7 0.64389 24.16 1.83106 24.16 4.46698C24.16 7.10291 23.8 8.39069 22.5 8.39069C21.08 8.39069 20.62 7.40473 20.36 6.51938C20.26 6.17732 20.16 5.9761 19.94 5.9761C19.74 5.9761 19.62 6.15719 19.56 6.47914C19.14 8.75287 18.3 9.27604 17.78 9.41689C17.7 9.43701 17.6 9.45713 17.6 9.29616V0.482918Z"></path></svg>