<svg data-icon="clefF340" data-version="v2" class="" width="40" height="40" viewBox="0 0 40 40" fill="currentcolor" xmlns="http://www.w3.org/2000/svg"><path fill-rule="evenodd" clip-rule="evenodd" d="M25 19.5934H10V20.2194H25V19.5934ZM25 14.703H10V15.3289H25V14.703ZM25 24.4839H10V25.1098H25V24.4839ZM25 9.8125H10V10.4385H25V9.8125ZM25 29.3743H10V30.0003H25V29.3743ZM30 19.5934H25V20.2194H30V19.5934ZM30 14.703H25V15.3289H30V14.703ZM30 24.4839H25V25.1098H30V24.4839ZM30 9.8125H25V10.4385H30V9.8125ZM30 29.3743H25V30.0003H30V29.3743Z"></path><path fill-rule="evenodd" clip-rule="evenodd" d="M18.0399 15C14.5599 15 12.9999 17.4844 12.9999 19.3623C12.9999 20.9272 13.8399 22.277 15.4599 22.277C16.7199 22.277 17.5799 21.4163 17.5799 20.2034C17.5799 18.9515 16.6399 18.169 15.6599 18.169C15.1199 18.169 14.9199 18.3059 14.6599 18.3059C14.3999 18.3059 14.3399 18.1495 14.3399 17.9538C14.3399 17.1714 15.5399 15.7434 17.5799 15.7434C19.6999 15.7434 20.6199 17.7778 20.6199 20.849C20.6199 22.8639 20.1799 25.2113 18.9399 27.0892C17.7399 28.9085 15.6799 30.5712 13.1999 31.9601C13.0199 32.0579 12.8999 32.1557 12.8999 32.3122C12.8999 32.4296 12.9799 32.547 13.1599 32.547C13.2599 32.547 13.3799 32.5078 13.4999 32.4492C16.1599 31.1776 18.7199 29.6909 20.8399 27.4609C22.5799 25.6221 23.6199 23.2355 23.6199 20.6729C23.6199 17.2692 21.4999 15 18.0399 15ZM25.5999 21.5141C24.9799 21.5141 24.5199 21.964 24.5199 22.5704C24.5199 23.1768 24.9799 23.6268 25.5999 23.6268C26.2199 23.6268 26.6799 23.1768 26.6799 22.5704C26.6799 21.964 26.2199 21.5141 25.5999 21.5141ZM25.5799 16.6041C24.9599 16.6041 24.4799 17.0736 24.4799 17.68C24.4799 18.2864 24.9599 18.7559 25.5799 18.7559C26.1999 18.7559 26.6799 18.2864 26.6799 17.68C26.6799 17.0736 26.1999 16.6041 25.5799 16.6041Z"></path></svg>