<svg data-icon="clefC340" data-version="v2" class="" width="40" height="40" viewBox="0 0 40 40" fill="currentcolor" xmlns="http://www.w3.org/2000/svg"><path fill-rule="evenodd" clip-rule="evenodd" d="M25 19.6899H10V20.3101H25V19.6899ZM25 14.845H10V15.4651H25V14.845ZM25 24.5349H10V25.155H25V24.5349ZM25 10H10V10.6202H25V10ZM25 29.3798H10V30H25V29.3798ZM30 19.6899H25V20.3101H30V19.6899ZM30 14.845H25V15.4651H30V14.845ZM30 24.5349H25V25.155H30V24.5349ZM30 10H25V10.6202H30V10ZM30 29.3798H25V30H30V29.3798Z"></path><path fill-rule="evenodd" clip-rule="evenodd" d="M13.42 10.252C13.14 10.252 13 10.3876 13 10.659V29.3411C13 29.6125 13.14 29.7481 13.42 29.7481H15.14C15.42 29.7481 15.56 29.6125 15.56 29.3411V10.659C15.56 10.3876 15.42 10.252 15.14 10.252H13.42ZM17.6 10.659C17.6 10.3876 17.46 10.252 17.18 10.252H17.16C16.88 10.252 16.74 10.3876 16.74 10.659V29.3411C16.74 29.6125 16.88 29.7481 17.16 29.7481H17.18C17.46 29.7481 17.6 29.6125 17.6 29.3411V20.8528C17.6 20.6977 17.7 20.7171 17.78 20.7365C18.3 20.8721 19.14 21.376 19.56 23.5659C19.62 23.876 19.74 24.0504 19.94 24.0504C20.16 24.0504 20.26 23.8566 20.36 23.5272C20.62 22.6745 21.08 21.7249 22.5 21.7249C23.8 21.7249 24.16 22.9652 24.16 25.5039C24.16 28.0427 23.7 29.1861 22.04 29.1861C21.6 29.1861 21.2 29.128 20.88 29.0311C20.54 28.9342 20.34 28.7985 20.34 28.6628C20.34 28.5659 20.66 28.4497 20.88 28.3721C21.28 28.2365 21.68 27.8489 21.68 27.1125C21.68 26.2597 21.1 25.7752 20.32 25.7752C19.46 25.7752 18.78 26.3373 18.78 27.3644C18.78 28.5853 19.88 29.8063 22.26 29.8063C25.54 29.8063 26.98 27.5776 26.98 25.5621C26.98 22.8876 25.46 21.0272 22.8 21.0272C22.22 21.0272 21.84 21.1241 21.58 21.2016C21.38 21.2597 21.18 21.2985 21 21.1822C20.72 21.0078 20.28 20.3876 20.28 20.0001C20.28 19.6125 20.72 18.9923 21 18.8179C21.18 18.7016 21.38 18.7404 21.58 18.7985C21.84 18.876 22.22 18.9729 22.8 18.9729C25.46 18.9729 26.98 17.1125 26.98 14.438C26.98 12.4225 25.54 10.1938 22.26 10.1938C19.88 10.1938 18.78 11.4148 18.78 12.6357C18.78 13.6628 19.46 14.2249 20.32 14.2249C21.1 14.2249 21.68 13.7404 21.68 12.8876C21.68 12.1512 21.28 11.7636 20.88 11.628C20.66 11.5504 20.34 11.4342 20.34 11.3373C20.34 11.2016 20.54 11.0659 20.88 10.969C21.2 10.8721 21.6 10.814 22.04 10.814C23.7 10.814 24.16 11.9574 24.16 14.4962C24.16 17.0349 23.8 18.2752 22.5 18.2752C21.08 18.2752 20.62 17.3256 20.36 16.4729C20.26 16.1435 20.16 15.9497 19.94 15.9497C19.74 15.9497 19.62 16.1241 19.56 16.4342C19.14 18.6241 18.3 19.128 17.78 19.2636C17.7 19.283 17.6 19.3024 17.6 19.1473V10.659Z"></path></svg>