<svg data-icon="clefG240" data-version="v2" class="" width="40" height="40" viewBox="0 0 40 40" fill="currentcolor" xmlns="http://www.w3.org/2000/svg"><path fill-rule="evenodd" clip-rule="evenodd" d="M24.3333 17.5338H11V18.1008H24.3333V17.5338ZM24.3333 13.1046H11V13.6715H24.3333V13.1046ZM24.3333 21.9631H11V22.53H24.3333V21.9631ZM24.3333 8.67529H11V9.24224H24.3333V8.67529ZM24.3333 26.3923H11V26.9593H24.3333V26.3923ZM28.7778 17.5338H24.3333V18.1008H28.7778V17.5338ZM28.7778 13.1046H24.3333V13.6715H28.7778V13.1046ZM28.7778 21.9631H24.3333V22.53H28.7778V21.9631ZM28.7778 8.67529H24.3333V9.24224H28.7778V8.67529ZM28.7778 26.3923H24.3333V26.9593H28.7778V26.3923Z"></path><path fill-rule="evenodd" clip-rule="evenodd" d="M22.3556 5.74614C22.9422 5.74614 23.4222 6.2245 23.4222 7.19894C23.4222 8.42141 22.8356 9.5553 21.4489 10.9372C21.1644 11.2207 20.7378 11.6282 20.3289 11.9825C20.2044 12.0888 20.1333 12.0711 20.0978 11.8408C20.0267 11.3802 19.9911 10.7778 19.9911 10.2108C19.9911 7.44698 21.2711 5.74614 22.3556 5.74614ZM21.6444 20.6284C21.6089 20.4158 21.6267 20.3627 21.84 20.3804C22.5619 20.4455 23.233 20.7785 23.7203 21.3133C24.2076 21.8482 24.4756 22.5459 24.4711 23.2683C24.4711 24.3845 23.7956 25.288 22.8 25.7841C22.5867 25.8904 22.5511 25.8904 22.5156 25.6778L21.6444 20.6284ZM20.4178 17.8114C20.4711 18.1481 20.4711 18.1303 20.1511 18.2366C18.5867 18.7682 17.5733 20.1678 17.5733 21.6738C17.5733 23.2683 18.4089 24.4022 19.6178 24.8097C19.76 24.8628 19.9733 24.916 20.0978 24.916C20.24 24.916 20.3111 24.8274 20.3111 24.7211C20.3111 24.5971 20.1689 24.5439 20.0444 24.4908C19.2978 24.1719 18.7644 23.41 18.7644 22.595C18.7644 21.5852 19.4578 20.8233 20.5422 20.5221C20.8267 20.4513 20.8622 20.469 20.8978 20.6639L21.7867 25.9436C21.8222 26.1384 21.8044 26.1384 21.5378 26.1916C21.2533 26.2447 20.8978 26.2802 20.5422 26.2802C17.4311 26.2802 15.4222 24.5616 15.4222 22.099C15.4222 21.0537 15.6 19.654 17.0756 17.9886C18.1422 16.8016 18.96 16.146 19.7956 15.4728C19.9733 15.3311 20.0089 15.3488 20.0444 15.5437L20.4178 17.8114ZM20.6844 15.1007C20.6489 14.8881 20.6844 14.8704 20.7911 14.7641C21.0756 14.4984 21.4489 14.1263 21.7867 13.7542C23.28 12.1243 24.1689 10.0159 24.1689 8.01392C24.1689 6.47254 23.7422 4.94887 23.0133 3.88585C22.7467 3.49608 22.2844 3 22.0889 3C21.84 3 21.2889 3.46064 20.9333 3.85042C19.6178 5.30321 19.1911 7.51784 19.1911 9.36042C19.1911 10.388 19.3156 11.5396 19.44 12.266C19.4756 12.4786 19.4933 12.514 19.28 12.6912C18.1422 13.6302 16.9156 14.711 15.9911 15.8449C14.7644 17.3685 14 19.0162 14 20.9119C14 23.9947 16.1156 26.918 20.4711 26.918C20.88 26.918 21.3422 26.8826 21.6978 26.8117C21.8933 26.7763 21.9289 26.7585 21.9644 26.9711C22.1778 28.1582 22.4444 29.6996 22.4444 30.5323C22.4444 33.1544 20.6667 33.4733 19.6178 33.4733C18.6578 33.4733 18.1956 33.1898 18.1956 32.9595C18.1956 32.8355 18.3556 32.7823 18.7644 32.6583C19.3156 32.4989 19.9556 32.0205 19.9556 30.9929C19.9556 30.0185 19.3333 29.1858 18.2489 29.1858C17.0578 29.1858 16.3467 30.1248 16.3467 31.2232C16.3467 32.3748 17.04 34.1111 19.7244 34.1111C20.9156 34.1111 23.2267 33.5796 23.2267 30.5677C23.2267 29.5578 22.9067 27.8747 22.7111 26.7763C22.6756 26.5637 22.6933 26.5814 22.9422 26.4751C24.7378 25.7664 25.9289 24.2604 25.9289 22.2584C25.9289 19.9906 24.2578 17.9886 21.6444 17.9886C21.1822 17.9886 21.1822 17.9886 21.1289 17.6697L20.6844 15.1007Z"></path></svg>