<svg data-icon="clefG215Mb40" data-version="v2" class="" width="40" height="40" viewBox="0 0 40 40" fill="currentcolor" xmlns="http://www.w3.org/2000/svg"><path fill-rule="evenodd" clip-rule="evenodd" d="M24.7222 17.3451H11.3889V17.914H24.7222V17.3451ZM24.7222 12.9006H11.3889V13.4695H24.7222V12.9006ZM24.7222 21.7896H11.3889V22.3585H24.7222V21.7896ZM24.7222 8.45605H11.3889V9.02495H24.7222V8.45605ZM24.7222 26.2341H11.3889V26.803H24.7222V26.2341ZM29.1667 17.3451H24.7222V17.914H29.1667V17.3451ZM29.1667 12.9006H24.7222V13.4695H29.1667V12.9006ZM29.1667 21.7896H24.7222V22.3585H29.1667V21.7896ZM29.1667 8.45605H24.7222V9.02495H29.1667V8.45605ZM29.1667 26.2341H24.7222V26.803H29.1667V26.2341Z"></path><path fill-rule="evenodd" clip-rule="evenodd" d="M21.7843 17.4248C23.0654 17.4248 24.106 17.8491 24.9072 18.6971C25.7084 19.5445 26.109 20.5128 26.109 21.6009C26.109 22.6883 25.8406 23.6068 25.3025 24.3553C24.7644 25.0984 24.0272 25.6566 23.0915 26.0312C23.0505 26.0572 23.0063 26.0777 22.96 26.0922C22.8841 26.1218 22.8456 26.1538 22.8456 26.1888C22.8456 26.2303 22.9333 26.7529 23.1093 27.7592C23.2906 28.7654 23.3807 29.5726 23.3807 30.1806C23.3807 31.2567 23.1265 32.0668 22.618 32.6102C22.1229 33.1465 21.4725 33.5147 20.7579 33.6633C20.957 33.7101 21.1846 33.7332 21.4423 33.7332C21.7232 33.7332 21.9508 33.7042 22.1268 33.6455C22.3022 33.5874 22.416 33.5578 22.4687 33.5578C22.5214 33.5578 22.5475 33.5934 22.5475 33.6633C22.5475 33.7332 22.4948 33.8126 22.3899 33.9003C21.9454 34.3211 21.4477 34.532 20.8983 34.532C20.7816 34.532 20.6524 34.5232 20.5126 34.5054C20.3721 34.4876 20.2933 34.5143 20.2755 34.5842L20.109 35.0843C20.0853 35.143 20.0853 35.1839 20.109 35.207C20.1327 35.2307 20.1967 35.2248 20.3016 35.1892C20.4071 35.1549 20.5647 35.1371 20.7757 35.1371C21.5531 35.1371 21.9425 35.4381 21.9425 36.0408C21.9425 36.5552 21.7754 36.9736 21.4423 37.2953C21.1087 37.6171 20.7229 37.7777 20.2844 37.7777C19.8459 37.7777 19.5271 37.6959 19.328 37.5318C19.1294 37.3682 19.0299 37.181 19.0299 36.9706C19.024 36.7543 19.0737 36.5878 19.1786 36.4704C19.228 36.4139 19.2887 36.3684 19.3568 36.3367C19.4249 36.3051 19.4988 36.2881 19.5739 36.2867C19.8601 36.2867 20.0035 36.4124 20.0035 36.6636C20.0035 36.9149 19.9069 37.0844 19.7137 37.1727C19.6207 37.2076 19.5739 37.2485 19.5739 37.2953C19.5739 37.4299 19.7226 37.4968 20.0213 37.4968C20.3194 37.4968 20.5647 37.3392 20.7579 37.0227C20.9462 36.7232 21.0467 36.3768 21.0477 36.023C21.0477 35.6781 20.8776 35.5027 20.5386 35.4968C20.3105 35.4968 20.0912 35.6052 19.8809 35.8215C19.7991 35.9033 19.7256 35.9442 19.6616 35.9442C19.5443 35.9442 19.4832 35.8855 19.4773 35.7688C19.4773 35.7451 19.4974 35.6781 19.5383 35.5673L20.144 33.7777V33.7599C20.0734 33.7717 19.9715 33.7777 19.837 33.7777C19.7025 33.7777 19.5182 33.7628 19.2841 33.7332L19.2663 33.7771V33.8126L18.1878 37.2076C18.1641 37.3013 18.176 37.3481 18.2228 37.3481L18.5997 37.3831C18.7051 37.3949 18.7609 37.45 18.7668 37.5496C18.7668 37.6432 18.7051 37.69 18.5825 37.69H16.7312C16.6145 37.69 16.5558 37.6432 16.5558 37.5496C16.5558 37.4559 16.6086 37.4002 16.714 37.3831L17.0909 37.3475C17.1496 37.3475 17.1964 37.3125 17.2314 37.2426L17.9946 34.874C18.0065 34.8325 18.0124 34.7892 18.0124 34.7424C18.0183 34.695 17.9976 34.6719 17.9508 34.6719C17.904 34.6719 17.8571 34.7075 17.8103 34.7774L17.3979 35.2248C17.3761 35.2588 17.3464 35.2869 17.3113 35.3069C17.2762 35.3268 17.2367 35.3379 17.1964 35.3392C17.0791 35.3392 17.021 35.2835 17.021 35.1721C17.021 35.1371 17.05 35.0784 17.1087 34.9966L18.2927 33.6633C18.3283 33.6046 18.3715 33.5756 18.4243 33.5756C17.7167 33.3474 17.2083 32.9729 16.8977 32.4526C16.5825 31.9323 16.4243 31.3912 16.4243 30.8295C16.4243 30.2683 16.5997 29.7859 16.9505 29.3823C17.3013 28.9788 17.7517 28.7767 18.3016 28.7767C18.8515 28.7767 19.2841 28.9521 19.6 29.3029C19.9158 29.6543 20.074 30.081 20.074 30.5841C20.074 31.0813 19.9567 31.4671 19.7226 31.7421C19.4903 32.0217 19.1781 32.2238 18.8278 32.321C18.4651 32.4265 18.2868 32.5202 18.2927 32.6019C18.2927 32.7365 18.4183 32.8562 18.6702 32.9616C18.9274 33.0725 19.2491 33.1282 19.6349 33.1282C20.0213 33.1282 20.3543 33.0962 20.6352 33.0316C20.9161 32.9676 21.2201 32.8384 21.5478 32.6458C21.869 32.4526 22.1238 32.1427 22.3105 31.7154C22.4977 31.2887 22.5914 30.7714 22.5914 30.1628C22.5914 29.5548 22.4308 28.3435 22.109 26.5307C22.0971 26.4377 22.0734 26.382 22.0391 26.3648C22.0035 26.347 21.869 26.3612 21.6355 26.4081C21.4127 26.4555 21.0649 26.4786 20.5914 26.4786C19.5271 26.4786 18.5706 26.3085 17.7226 25.9695C16.8806 25.6306 16.1961 25.1743 15.6699 24.6006C14.5937 23.432 14.0557 22.0021 14.0557 20.312C14.0557 18.6153 14.7253 16.9282 16.0646 15.2499C16.8071 14.3373 17.9158 13.273 19.389 12.0564C19.4832 11.9746 19.5413 11.91 19.565 11.8632C19.5887 11.8164 19.5851 11.7346 19.5561 11.6179C19.3874 10.6472 19.3021 9.66382 19.3013 8.67857C19.3013 6.25779 19.8897 4.39465 21.0649 3.09033C21.5917 2.51728 21.9804 2.22809 22.2323 2.22217C22.3253 2.22217 22.4687 2.31876 22.6619 2.51195C22.8545 2.70455 23.0216 2.90899 23.1614 3.12589C23.9395 4.26605 24.3289 5.66104 24.3289 7.31025C24.3229 8.31649 24.1096 9.33103 23.6883 10.3545C23.2687 11.3754 22.6716 12.314 21.9247 13.1266C21.6029 13.4834 21.2669 13.8259 20.9161 14.153C20.8708 14.1964 20.8373 14.2506 20.8189 14.3106C20.8004 14.3705 20.7976 14.4342 20.8106 14.4956L21.258 17.1006C21.2758 17.2707 21.3078 17.3673 21.3546 17.3904C21.4014 17.4141 21.5443 17.426 21.7843 17.426V17.4248ZM15.4945 21.592C15.4945 22.8495 15.9686 23.8699 16.9155 24.6534C17.8631 25.4374 19.114 25.8291 20.6702 25.8291C20.961 25.8333 21.2516 25.8129 21.5389 25.768C21.7724 25.7266 21.8986 25.6946 21.9158 25.6714C21.9336 25.6477 21.9366 25.5867 21.9247 25.4871L21.0299 20.1359C21.0003 20.0423 20.9683 19.9866 20.9333 19.9688C20.8983 19.9511 20.8106 19.9599 20.6702 19.9955C20.1203 20.1531 19.6817 20.4163 19.3546 20.7848C19.0269 21.1534 18.8657 21.5653 18.8717 22.0216C18.8717 22.4779 18.992 22.8815 19.2314 23.2323C19.4714 23.5831 19.7315 23.8202 20.0124 23.9434C20.2933 24.0661 20.4331 24.1686 20.4331 24.2498C20.4331 24.3843 20.3632 24.4519 20.2228 24.4519C20.0823 24.4519 19.9188 24.4139 19.7315 24.3381C19.1117 24.1212 18.6115 23.7354 18.2317 23.1796C17.8571 22.6243 17.6699 21.9576 17.6699 21.1795C17.6699 20.402 17.9069 19.6879 18.381 19.039C18.8545 18.3896 19.4862 17.9368 20.2755 17.679C20.445 17.6269 20.5363 17.583 20.5475 17.5475C20.5594 17.5125 20.5564 17.41 20.5386 17.2405L20.1611 14.9424C20.138 14.8487 20.1149 14.796 20.0912 14.7842C20.0675 14.7723 20.0094 14.8019 19.9158 14.8719C18.7869 15.7845 17.869 16.6354 17.1614 17.4248C16.0497 18.6823 15.4945 20.0714 15.4945 21.592ZM22.5037 5.01096C21.9129 5.01096 21.3659 5.43526 20.8634 6.28327C20.3603 7.13129 20.109 8.21634 20.109 9.53785C20.109 10.1755 20.144 10.7254 20.2139 11.1877C20.2494 11.3921 20.3283 11.4419 20.4509 11.3364C20.8401 10.9955 21.2176 10.6415 21.5828 10.275C22.9102 8.94761 23.5739 7.68419 23.5739 6.48535C23.5739 6.00534 23.4743 5.6403 23.2758 5.38904C23.0708 5.13718 22.8136 5.01155 22.5037 5.01155V5.01096ZM24.6352 22.776C24.6352 21.9985 24.378 21.3318 23.8637 20.776C23.3487 20.2207 22.72 19.9108 21.9774 19.8456C21.872 19.8343 21.808 19.8456 21.7843 19.8811C21.7606 19.9167 21.7606 19.9896 21.7843 20.1004L22.6613 25.224C22.6731 25.3289 22.6969 25.3876 22.7318 25.3994C22.7674 25.4113 22.8403 25.3876 22.9511 25.3289C23.466 25.0658 23.8755 24.7126 24.1795 24.2682C24.4835 23.8231 24.6358 23.3259 24.6358 22.776H24.6352Z"></path></svg>