<svg data-icon="clefC140" data-version="v2" class="" width="40" height="40" viewBox="0 0 40 40" fill="currentcolor" xmlns="http://www.w3.org/2000/svg"><path fill-rule="evenodd" clip-rule="evenodd" d="M25 19.4358H10V20.0797H25V19.4358ZM25 14.4054H10V15.0493H25V14.4054ZM25 24.4662H10V25.11H25V24.4662ZM25 9.375H10V10.0189H25V9.375ZM25 29.4965H10V30.1404H25V29.4965ZM30 19.4358H25V20.0797H30V19.4358ZM30 14.4054H25V15.0493H30V14.4054ZM30 24.4662H25V25.11H30V24.4662ZM30 9.375H25V10.0189H30V9.375ZM30 29.4965H25V30.1404H30V29.4965Z"></path><path fill-rule="evenodd" clip-rule="evenodd" d="M13.42 19.6971C13.14 19.6971 13 19.8379 13 20.1196V39.5168C13 39.7985 13.14 39.9394 13.42 39.9394H15.14C15.42 39.9394 15.56 39.7985 15.56 39.5168V20.1196C15.56 19.8379 15.42 19.6971 15.14 19.6971H13.42ZM17.6 20.1196C17.6 19.8379 17.46 19.6971 17.18 19.6971H17.16C16.88 19.6971 16.74 19.8379 16.74 20.1196V39.5168C16.74 39.7985 16.88 39.9394 17.16 39.9394H17.18C17.46 39.9394 17.6 39.7985 17.6 39.5168V30.7036C17.6 30.5426 17.7 30.5627 17.78 30.5828C18.3 30.7237 19.14 31.2468 19.56 33.5206C19.62 33.8425 19.74 34.0236 19.94 34.0236C20.16 34.0236 20.26 33.8224 20.36 33.4803C20.62 32.595 21.08 31.609 22.5 31.609C23.8 31.609 24.16 32.8968 24.16 35.5327C24.16 38.1687 23.7 39.3558 22.04 39.3558C21.6 39.3558 21.2 39.2955 20.88 39.1949C20.54 39.0943 20.34 38.9534 20.34 38.8126C20.34 38.7119 20.66 38.5912 20.88 38.5107C21.28 38.3699 21.68 37.9674 21.68 37.2028C21.68 36.3175 21.1 35.8144 20.32 35.8144C19.46 35.8144 18.78 36.398 18.78 37.4644C18.78 38.7321 19.88 39.9997 22.26 39.9997C25.54 39.9997 26.98 37.6857 26.98 35.5931C26.98 32.8163 25.46 30.8847 22.8 30.8847C22.22 30.8847 21.84 30.9853 21.58 31.0658C21.38 31.1261 21.18 31.1664 21 31.0456C20.72 30.8645 20.28 30.2207 20.28 29.8182C20.28 29.4158 20.72 28.7719 21 28.5908C21.18 28.4701 21.38 28.5103 21.58 28.5707C21.84 28.6512 22.22 28.7518 22.8 28.7518C25.46 28.7518 26.98 26.8201 26.98 24.0433C26.98 21.9507 25.54 19.6367 22.26 19.6367C19.88 19.6367 18.78 20.9044 18.78 22.172C18.78 23.2385 19.46 23.822 20.32 23.822C21.1 23.822 21.68 23.319 21.68 22.4336C21.68 21.669 21.28 21.2666 20.88 21.1257C20.66 21.0452 20.34 20.9245 20.34 20.8239C20.34 20.683 20.54 20.5422 20.88 20.4416C21.2 20.341 21.6 20.2806 22.04 20.2806C23.7 20.2806 24.16 21.4678 24.16 24.1037C24.16 26.7396 23.8 28.0274 22.5 28.0274C21.08 28.0274 20.62 27.0414 20.36 26.1561C20.26 25.814 20.16 25.6128 19.94 25.6128C19.74 25.6128 19.62 25.7939 19.56 26.1159C19.14 28.3896 18.3 28.9128 17.78 29.0536C17.7 29.0737 17.6 29.0938 17.6 28.9329V20.1196Z"></path></svg>