<svg data-icon="clefC240" data-version="v2" class="" width="40" height="40" viewBox="0 0 40 40" fill="currentcolor" xmlns="http://www.w3.org/2000/svg"><path fill-rule="evenodd" clip-rule="evenodd" d="M25 19.6999H10V20.3207H25V19.6999ZM25 14.85H10V15.4708H25V14.85ZM25 24.5499H10V25.1707H25V24.5499ZM25 10H10V10.6208H25V10ZM25 29.3999H10V30.0207H25V29.3999ZM30 19.6999H25V20.3207H30V19.6999ZM30 14.85H25V15.4708H30V14.85ZM30 24.5499H25V25.1707H30V24.5499ZM30 10H25V10.6208H30V10ZM30 29.3999H25V30.0207H30V29.3999Z"></path><path fill-rule="evenodd" clip-rule="evenodd" d="M13.42 15.4254C13.14 15.4254 13 15.5612 13 15.8328V34.5343C13 34.8059 13.14 34.9417 13.42 34.9417H15.14C15.42 34.9417 15.56 34.8059 15.56 34.5343V15.8328C15.56 15.5612 15.42 15.4254 15.14 15.4254H13.42ZM17.6 15.8328C17.6 15.5612 17.46 15.4254 17.18 15.4254H17.16C16.88 15.4254 16.74 15.5612 16.74 15.8328V34.5343C16.74 34.8059 16.88 34.9417 17.16 34.9417H17.18C17.46 34.9417 17.6 34.8059 17.6 34.5343V26.0371C17.6 25.8819 17.7 25.9013 17.78 25.9207C18.3 26.0565 19.14 26.5609 19.56 28.7531C19.62 29.0635 19.74 29.2381 19.94 29.2381C20.16 29.2381 20.26 29.0441 20.36 28.7143C20.62 27.8607 21.08 26.9101 22.5 26.9101C23.8 26.9101 24.16 28.1517 24.16 30.6931C24.16 33.2345 23.7 34.3791 22.04 34.3791C21.6 34.3791 21.2 34.3209 20.88 34.2239C20.54 34.1269 20.34 33.9911 20.34 33.8553C20.34 33.7583 20.66 33.6419 20.88 33.5643C21.28 33.4285 21.68 33.0405 21.68 32.3033C21.68 31.4497 21.1 30.9647 20.32 30.9647C19.46 30.9647 18.78 31.5273 18.78 32.5555C18.78 33.7777 19.88 34.9999 22.26 34.9999C25.54 34.9999 26.98 32.7689 26.98 30.7513C26.98 28.0741 25.46 26.2117 22.8 26.2117C22.22 26.2117 21.84 26.3087 21.58 26.3863C21.38 26.4445 21.18 26.4833 21 26.3669C20.72 26.1923 20.28 25.5715 20.28 25.1835C20.28 24.7955 20.72 24.1747 21 24.0001C21.18 23.8837 21.38 23.9225 21.58 23.9807C21.84 24.0583 22.22 24.1553 22.8 24.1553C25.46 24.1553 26.98 22.2929 26.98 19.6158C26.98 17.5982 25.54 15.3672 22.26 15.3672C19.88 15.3672 18.78 16.5894 18.78 17.8116C18.78 18.8398 19.46 19.4024 20.32 19.4024C21.1 19.4024 21.68 18.9174 21.68 18.0638C21.68 17.3266 21.28 16.9386 20.88 16.8028C20.66 16.7252 20.34 16.6088 20.34 16.5118C20.34 16.376 20.54 16.2402 20.88 16.1432C21.2 16.0462 21.6 15.988 22.04 15.988C23.7 15.988 24.16 17.1326 24.16 19.674C24.16 22.2153 23.8 23.4569 22.5 23.4569C21.08 23.4569 20.62 22.5063 20.36 21.6528C20.26 21.323 20.16 21.129 19.94 21.129C19.74 21.129 19.62 21.3036 19.56 21.6139C19.14 23.8061 18.3 24.3105 17.78 24.4463C17.7 24.4657 17.6 24.4851 17.6 24.3299V15.8328Z"></path></svg>