<svg data-icon="clefF415Ma40" data-version="v2" class="" width="40" height="40" viewBox="0 0 40 40" fill="currentcolor" xmlns="http://www.w3.org/2000/svg"><path fill-rule="evenodd" clip-rule="evenodd" d="M25 19.3202H10V19.9626H25V19.3202ZM25 14.3015H10V14.9439H25V14.3015ZM25 24.3389H10V24.9813H25V24.3389ZM25 9.28271H10V9.92511H25V9.28271ZM25 29.3577H10V30.0001H25V29.3577ZM30 19.3202H25V19.9626H30V19.3202ZM30 14.3015H25V14.9439H30V14.3015ZM30 24.3389H25V24.9813H30V24.3389ZM30 9.28271H25V9.92511H30V9.28271ZM30 29.3577H25V30.0001H30V29.3577Z"></path><path fill-rule="evenodd" clip-rule="evenodd" d="M16.12 6.606C16.06 6.6863 16.02 6.74652 16.02 6.82682C16.02 6.90712 16.12 7.0075 16.22 7.0075C16.32 7.0075 16.38 6.94727 16.44 6.86697L16.9 6.3651C16.96 6.2848 17 6.26472 17.06 6.26472C17.1 6.26472 17.12 6.2848 17.12 6.34502C17.12 6.38517 17.12 6.42532 17.1 6.48555L16.26 9.11537C16.22 9.21574 16.22 9.23581 16.1 9.25589L15.68 9.29604C15.56 9.29604 15.5 9.35626 15.5 9.45664C15.5 9.55701 15.56 9.63731 15.7 9.63731H17.76C17.9 9.63731 17.96 9.55701 17.96 9.45664C17.96 9.35626 17.9 9.29604 17.78 9.29604L17.36 9.25589C17.28 9.23581 17.3 9.17559 17.32 9.07521L18.52 5.28105C18.54 5.22082 18.54 5.18067 18.54 5.14052C18.54 5.0803 18.5 5.02007 18.42 5.02007C18.3 5.02007 18.14 5.14052 18 5.14052C17.86 5.14052 17.78 5.02007 17.62 5.02007C17.54 5.02007 17.5 5.06022 17.44 5.12045L16.12 6.606ZM18.82 7.24839C18.78 7.36884 18.76 7.40899 18.76 7.48929C18.76 7.60974 18.84 7.66997 18.96 7.66997C19.04 7.66997 19.1 7.62982 19.2 7.54952C19.3 7.42907 19.56 7.16809 19.94 7.16809C20.36 7.16809 20.5 7.44914 20.5 7.81049C20.5 8.41274 20.12 9.41649 19.3 9.41649C19.06 9.41649 18.86 9.31611 18.86 9.19566C18.86 9.11536 18.92 9.09529 19.02 9.03506C19.16 8.97484 19.34 8.83432 19.34 8.51312C19.34 8.21199 19.12 8.05139 18.86 8.05139C18.52 8.05139 18.26 8.37259 18.26 8.77409C18.26 9.27596 18.66 9.73769 19.52 9.73769C20.66 9.73769 21.5 8.95477 21.5 7.79042C21.5 7.06772 21 6.7666 20.2 6.7666C19.96 6.7666 19.78 6.80674 19.62 6.84689C19.44 6.90712 19.42 6.82682 19.46 6.70637L19.64 6.14427C19.68 6.02382 19.74 6.02382 19.86 6.0439C20 6.06397 20.18 6.08405 20.34 6.08405C21.06 6.08405 21.62 5.74277 22 5.4015C22.12 5.28105 22.18 5.20075 22.18 5.12045C22.18 5.06022 22.12 5 22.06 5C22.02 5 21.92 5.04015 21.76 5.10037C21.5 5.1606 21.2 5.20075 20.84 5.20075C20.5 5.20075 20.24 5.1606 20.1 5.12045C19.92 5.06022 19.86 5.04015 19.76 5.04015C19.62 5.04015 19.54 5.12045 19.5 5.26097L18.82 7.24839ZM25.58 11.3437C24.96 11.3437 24.48 11.8255 24.48 12.4478C24.48 13.0701 24.96 13.5519 25.58 13.5519C26.2 13.5519 26.68 13.0701 26.68 12.4478C26.68 11.8255 26.2 11.3437 25.58 11.3437ZM25.6 16.3825C24.98 16.3825 24.52 16.8442 24.52 17.4665C24.52 18.0889 24.98 18.5506 25.6 18.5506C26.22 18.5506 26.68 18.0889 26.68 17.4665C26.68 16.8442 26.22 16.3825 25.6 16.3825ZM18.04 9.69754C14.56 9.69754 13 12.2471 13 14.1743C13 15.7803 13.84 17.1654 15.46 17.1654C16.72 17.1654 17.58 16.2821 17.58 15.0375C17.58 13.7527 16.64 12.9497 15.66 12.9497C15.12 12.9497 14.92 13.0902 14.66 13.0902C14.4 13.0902 14.34 12.9296 14.34 12.7289C14.34 11.9259 15.54 10.4604 17.58 10.4604C19.7 10.4604 20.62 12.5482 20.62 15.6999C20.62 17.7677 20.18 20.1767 18.94 22.1039C17.74 23.9708 15.68 25.6772 13.2 27.1025C13.02 27.2029 12.9 27.3033 12.9 27.4639C12.9 27.5843 12.98 27.7048 13.16 27.7048C13.26 27.7048 13.38 27.6646 13.5 27.6044C16.16 26.2995 18.72 24.7738 20.84 22.4853C22.58 20.5982 23.62 18.1491 23.62 15.5193C23.62 12.0262 21.5 9.69754 18.04 9.69754Z"></path></svg>