<svg data-icon="clefF48Vb40" data-version="v2" class="" width="40" height="40" viewBox="0 0 40 40" fill="currentcolor" xmlns="http://www.w3.org/2000/svg"><path fill-rule="evenodd" clip-rule="evenodd" d="M25 19.3677H10V20.0073H25V19.3677ZM25 14.3714H10V15.0109H25V14.3714ZM25 24.3641H10V25.0036H25V24.3641ZM25 9.375H10V10.0145H25V9.375ZM25 29.3605H10V30H25V29.3605ZM30 19.3677H25V20.0073H30V19.3677ZM30 14.3714H25V15.0109H30V14.3714ZM30 24.3641H25V25.0036H30V24.3641ZM30 9.375H25V10.0145H30V9.375ZM30 29.3605H25V30H30V29.3605Z"></path><path fill-rule="evenodd" clip-rule="evenodd" d="M25.6 16.4432C24.98 16.4432 24.52 16.9029 24.52 17.5225C24.52 18.142 24.98 18.6017 25.6 18.6017C26.22 18.6017 26.68 18.142 26.68 17.5225C26.68 16.9029 26.22 16.4432 25.6 16.4432ZM25.58 11.4269C24.96 11.4269 24.48 11.9065 24.48 12.5261C24.48 13.1456 24.96 13.6253 25.58 13.6253C26.2 13.6253 26.68 13.1456 26.68 12.5261C26.68 11.9065 26.2 11.4269 25.58 11.4269ZM18.42 25.1569C18.1 25.1569 17.82 25.1969 17.58 25.2968C18.74 24.4974 19.84 23.598 20.84 22.5188C22.58 20.6402 23.62 18.202 23.62 15.5839C23.62 12.1064 21.5 9.78809 18.04 9.78809C14.56 9.78809 13 12.3262 13 14.2448C13 15.8437 13.84 17.2227 15.46 17.2227C16.72 17.2227 17.58 16.3433 17.58 15.1042C17.58 13.8252 16.64 13.0257 15.66 13.0257C15.12 13.0257 14.92 13.1656 14.66 13.1656C14.4 13.1656 14.34 13.0057 14.34 12.8059C14.34 12.0065 15.54 10.5475 17.58 10.5475C19.7 10.5475 20.62 12.626 20.62 15.7637C20.62 17.8222 20.18 20.2205 18.94 22.1391C17.74 23.9978 15.68 25.6965 13.2 27.1155C13.02 27.2154 12.9 27.3153 12.9 27.4752C12.9 27.5951 12.98 27.7151 13.16 27.7151C13.26 27.7151 13.38 27.6751 13.5 27.6151C14.7 27.0355 15.86 26.396 17 25.6765C16.8 25.8964 16.7 26.1762 16.7 26.5159C16.7 26.7957 16.78 27.0555 16.94 27.2354C17.04 27.3753 17.08 27.4353 16.84 27.5352C16.2 27.795 15.94 28.2347 15.94 28.7143C15.94 29.3738 16.42 29.8935 17.5 29.8935C18.48 29.8935 19.32 29.3738 19.32 28.4745C19.32 28.0948 19.24 27.835 19 27.5951C18.86 27.4353 18.82 27.3753 19.06 27.2554C19.6 26.9756 19.8 26.5759 19.8 26.1962C19.8 25.6366 19.4 25.1569 18.42 25.1569ZM17.28 27.795C17.38 27.735 17.44 27.735 17.58 27.8549C18.22 28.3546 18.38 28.4945 18.38 28.7943C18.38 29.2939 18 29.5937 17.52 29.5937C16.92 29.5937 16.72 29.174 16.72 28.8143C16.72 28.5145 16.86 28.0548 17.28 27.795ZM18.4 25.4567C18.88 25.4567 19.04 25.7765 19.04 26.1162C19.04 26.436 18.9 26.7957 18.56 27.0156C18.48 27.0755 18.42 27.0955 18.26 26.9756C17.8 26.6358 17.64 26.456 17.64 26.1562C17.64 25.7165 17.96 25.4567 18.4 25.4567Z"></path></svg>