<svg data-icon="clefF48Va40" data-version="v2" class="" width="40" height="40" viewBox="0 0 40 40" fill="currentcolor" xmlns="http://www.w3.org/2000/svg"><path fill-rule="evenodd" clip-rule="evenodd" d="M25 19.846H10V20.4568H25V19.846ZM25 15.0744H10V15.6851H25V15.0744ZM25 24.6176H10V25.2284H25V24.6176ZM25 10.3027H10V10.9135H25V10.3027ZM25 29.3892H10V30H25V29.3892ZM30 19.846H25V20.4568H30V19.846ZM30 15.0744H25V15.6851H30V15.0744ZM30 24.6176H25V25.2284H30V24.6176ZM30 10.3027H25V10.9135H30V10.3027ZM30 29.3892H25V30H30V29.3892Z"></path><path fill-rule="evenodd" clip-rule="evenodd" d="M25.6001 17.053C24.9801 17.053 24.5201 17.492 24.5201 18.0836C24.5201 18.6753 24.9801 19.1143 25.6001 19.1143C26.2201 19.1143 26.6801 18.6753 26.6801 18.0836C26.6801 17.492 26.2201 17.053 25.6001 17.053ZM25.5801 12.2623C24.9601 12.2623 24.4801 12.7203 24.4801 13.312C24.4801 13.9037 24.9601 14.3618 25.5801 14.3618C26.2001 14.3618 26.6801 13.9037 26.6801 13.312C26.6801 12.7203 26.2001 12.2623 25.5801 12.2623ZM19.3401 6.25C18.3201 6.25 17.6201 6.72716 17.6201 7.54788C17.6201 7.81509 17.7001 8.06322 17.8601 8.235C17.9601 8.3686 18.0001 8.42586 17.7601 8.5213C17.1201 8.76942 16.8601 9.18932 16.8601 9.6474C16.8601 10.1436 17.1401 10.5445 17.7601 10.6972C14.4601 10.8308 13.0001 13.1784 13.0001 14.9535C13.0001 16.4804 13.8401 17.7973 15.4601 17.7973C16.7201 17.7973 17.5801 16.9575 17.5801 15.7742C17.5801 14.5526 16.6401 13.7892 15.6601 13.7892C15.1201 13.7892 14.9201 13.9228 14.6601 13.9228C14.4001 13.9228 14.3401 13.7701 14.3401 13.5792C14.3401 12.8158 15.5401 11.4224 17.5801 11.4224C19.7001 11.4224 20.6201 13.4074 20.6201 16.404C20.6201 18.3699 20.1801 20.6603 18.9401 22.4926C17.7401 24.2677 15.6801 25.89 13.2001 27.2452C13.0201 27.3406 12.9001 27.436 12.9001 27.5887C12.9001 27.7032 12.9801 27.8178 13.1601 27.8178C13.2601 27.8178 13.3801 27.7796 13.5001 27.7223C16.1601 26.4817 18.7201 25.0311 20.8401 22.8553C22.5801 21.0611 23.6201 18.7326 23.6201 16.2322C23.6201 13.1784 21.8201 11.0789 18.8601 10.7544C19.6401 10.6208 20.2401 10.1436 20.2401 9.41836C20.2401 9.05572 20.1601 8.80759 19.9201 8.57855C19.7801 8.42586 19.7401 8.3686 19.9801 8.25408C20.5201 7.98687 20.7201 7.60514 20.7201 7.2425C20.7201 6.70808 20.3201 6.25 19.3401 6.25ZM18.2001 8.76942C18.3001 8.71216 18.3601 8.71216 18.5001 8.82668C19.1401 9.30384 19.3001 9.43745 19.3001 9.72375C19.3001 10.2009 18.9201 10.4872 18.4401 10.4872C17.8401 10.4872 17.6401 10.0864 17.6401 9.74283C17.6401 9.45653 17.7801 9.01755 18.2001 8.76942ZM19.3201 6.5363C19.8001 6.5363 19.9601 6.84168 19.9601 7.16615C19.9601 7.47154 19.8201 7.81509 19.4801 8.02505C19.4001 8.08231 19.3401 8.10139 19.1801 7.98687C18.7201 7.6624 18.5601 7.49062 18.5601 7.20433C18.5601 6.78442 18.8801 6.5363 19.3201 6.5363Z"></path></svg>