<svg data-icon="clefF440" data-version="v2" class="" width="40" height="40" viewBox="0 0 40 40" fill="currentcolor" xmlns="http://www.w3.org/2000/svg"><path fill-rule="evenodd" clip-rule="evenodd" d="M25 19.6899H10V20.3101H25V19.6899ZM25 14.845H10V15.4651H25V14.845ZM25 24.5349H10V25.155H25V24.5349ZM25 10H10V10.6202H25V10ZM25 29.3798H10V30H25V29.3798ZM30 19.6899H25V20.3101H30V19.6899ZM30 14.845H25V15.4651H30V14.845ZM30 24.5349H25V25.155H30V24.5349ZM30 10H25V10.6202H30V10ZM30 29.3798H25V30H30V29.3798Z"></path><path fill-rule="evenodd" clip-rule="evenodd" d="M18.04 10.4004C14.56 10.4004 13 12.8616 13 14.7221C13 16.2725 13.84 17.6097 15.46 17.6097C16.72 17.6097 17.58 16.757 17.58 15.5554C17.58 14.3151 16.64 13.5399 15.66 13.5399C15.12 13.5399 14.92 13.6756 14.66 13.6756C14.4 13.6756 14.34 13.5205 14.34 13.3267C14.34 12.5516 15.54 11.1368 17.58 11.1368C19.7 11.1368 20.62 13.1523 20.62 16.195C20.62 18.1911 20.18 20.5167 18.94 22.3771C17.74 24.1795 15.68 25.8267 13.2 27.2027C13.02 27.2996 12.9 27.3965 12.9 27.5516C12.9 27.6678 12.98 27.7841 13.16 27.7841C13.26 27.7841 13.38 27.7454 13.5 27.6872C16.16 26.4275 18.72 24.9547 20.84 22.7454C22.58 20.9236 23.62 18.5593 23.62 16.0205C23.62 12.6485 21.5 10.4004 18.04 10.4004ZM25.6 16.8539C24.98 16.8539 24.52 17.2996 24.52 17.9004C24.52 18.5012 24.98 18.9469 25.6 18.9469C26.22 18.9469 26.68 18.5012 26.68 17.9004C26.68 17.2996 26.22 16.8539 25.6 16.8539ZM25.58 11.9895C24.96 11.9895 24.48 12.4547 24.48 13.0554C24.48 13.6562 24.96 14.1213 25.58 14.1213C26.2 14.1213 26.68 13.6562 26.68 13.0554C26.68 12.4547 26.2 11.9895 25.58 11.9895Z"></path></svg>