<svg data-icon="clefG28Va40" data-version="v2" class="" width="40" height="40" viewBox="0 0 40 40" fill="currentcolor" xmlns="http://www.w3.org/2000/svg"><path fill-rule="evenodd" clip-rule="evenodd" d="M24.2222 17.4812H10.8889V18.0205H24.2222V17.4812ZM24.2222 13.2682H10.8889V13.8075H24.2222V13.2682ZM24.2222 21.6942H10.8889V22.2335H24.2222V21.6942ZM24.2222 9.05518H10.8889V9.59444H24.2222V9.05518ZM24.2222 25.9072H10.8889V26.4465H24.2222V25.9072ZM28.6667 17.4812H24.2222V18.0205H28.6667V17.4812ZM28.6667 13.2682H24.2222V13.8075H28.6667V13.2682ZM28.6667 21.6942H24.2222V22.2335H28.6667V21.6942ZM28.6667 9.05518H24.2222V9.59444H28.6667V9.05518ZM28.6667 25.9072H24.2222V26.4465H28.6667V25.9072Z"></path><path fill-rule="evenodd" clip-rule="evenodd" d="M22.4801 0.252781C22.9068 0.252781 23.049 0.522414 23.049 0.808898C23.049 1.07853 22.9246 1.38187 22.6223 1.56724C22.5512 1.6178 22.4979 1.63465 22.3557 1.53354C21.9468 1.24705 21.8046 1.09538 21.8046 0.842602C21.8046 0.471857 22.089 0.252781 22.4801 0.252781ZM21.609 3.74115C21.1468 3.70745 20.9868 3.37041 20.9868 3.08392C20.9868 2.83114 21.1112 2.44355 21.4846 2.22447C21.5734 2.17391 21.6268 2.17391 21.7512 2.27503C22.3201 2.69633 22.4623 2.81429 22.4623 3.06707C22.4623 3.48837 22.1246 3.74115 21.6979 3.74115H21.609ZM21.2001 20.5089C21.1646 20.3067 21.1823 20.2562 21.3957 20.273C22.1176 20.3349 22.7887 20.6516 23.276 21.1604C23.7633 21.6691 24.0312 22.3328 24.0268 23.0199C24.0268 24.0816 23.3512 24.941 22.3557 25.4129C22.1423 25.514 22.1068 25.514 22.0712 25.3118L21.2001 20.5089ZM21.9112 6.35322C22.4979 6.35322 22.9779 6.80822 22.9779 7.73509C22.9779 8.89788 22.3912 9.97641 21.0046 11.2909C20.7201 11.5605 20.2934 11.9481 19.8846 12.2851C19.7601 12.3863 19.689 12.3694 19.6534 12.1503C19.5823 11.7122 19.5468 11.1392 19.5468 10.5999C19.5468 7.97102 20.8268 6.35322 21.9112 6.35322ZM19.9734 17.8295C20.0268 18.1496 20.0268 18.1328 19.7068 18.2339C18.1423 18.7395 17.129 20.0708 17.129 21.5032C17.129 23.0199 17.9646 24.0984 19.1734 24.486C19.3157 24.5366 19.529 24.5871 19.6534 24.5871C19.7957 24.5871 19.8668 24.5029 19.8668 24.4018C19.8668 24.2838 19.7246 24.2332 19.6001 24.1827C18.8534 23.8793 18.3201 23.1547 18.3201 22.3795C18.3201 21.4189 19.0134 20.6943 20.0979 20.4078C20.3823 20.3404 20.4179 20.3573 20.4534 20.5426L21.3423 25.5645C21.3779 25.7499 21.3601 25.7499 21.0934 25.8005C20.809 25.851 20.4534 25.8847 20.0979 25.8847C16.9868 25.8847 14.9779 24.2501 14.9779 21.9077C14.9779 20.9134 15.1557 19.5821 16.6312 17.998C17.6979 16.8689 18.5157 16.2454 19.3512 15.605C19.529 15.4702 19.5646 15.487 19.6001 15.6724L19.9734 17.8295ZM20.2401 15.2511C20.2046 15.0489 20.2401 15.032 20.3468 14.9309C20.6312 14.6781 21.0046 14.3242 21.3423 13.9703C22.8357 12.42 23.7246 10.4146 23.7246 8.51028C23.7246 7.04415 23.2979 5.59488 22.569 4.58376C22.4268 4.38153 22.2134 4.1456 22.0179 3.97708C22.729 3.87597 23.2979 3.45467 23.2979 2.79744C23.2979 2.47725 23.2268 2.25817 23.0134 2.05595C22.889 1.92113 22.8534 1.87058 23.0668 1.76946C23.5468 1.53354 23.7246 1.19649 23.7246 0.876306C23.7246 0.404449 23.369 0 22.4979 0C21.5912 0 20.969 0.421302 20.969 1.14594C20.969 1.38187 21.0401 1.60094 21.1823 1.75261C21.2712 1.87058 21.3068 1.92113 21.0934 2.00539C20.5246 2.22447 20.2934 2.59521 20.2934 2.99966C20.2934 3.45467 20.5601 3.82541 21.1823 3.96023C20.9512 4.1119 20.6846 4.34783 20.489 4.55005C19.1734 5.93192 18.7468 8.03842 18.7468 9.79104C18.7468 10.7685 18.8712 11.8638 18.9957 12.5548C19.0312 12.757 19.049 12.7907 18.8357 12.9592C17.6979 13.8524 16.4712 14.8804 15.5468 15.9589C14.3201 17.4082 13.5557 18.9754 13.5557 20.7786C13.5557 23.7108 15.6712 26.4914 20.0268 26.4914C20.4357 26.4914 20.8979 26.4577 21.2534 26.3903C21.449 26.3566 21.4846 26.3397 21.5201 26.542C21.7334 27.6711 22.0001 29.1372 22.0001 29.9292C22.0001 32.4233 20.2223 32.7267 19.1734 32.7267C18.2134 32.7267 17.7512 32.457 17.7512 32.238C17.7512 32.12 17.9112 32.0694 18.3201 31.9515C18.8712 31.7998 19.5112 31.3448 19.5112 30.3674C19.5112 29.4405 18.889 28.6485 17.8046 28.6485C16.6134 28.6485 15.9023 29.5416 15.9023 30.5865C15.9023 31.6818 16.5957 33.3333 19.2801 33.3333C20.4712 33.3333 22.7823 32.8278 22.7823 29.9629C22.7823 29.0024 22.4623 27.4014 22.2668 26.3566C22.2312 26.1544 22.249 26.1712 22.4979 26.0701C24.2934 25.396 25.4846 23.9636 25.4846 22.0593C25.4846 19.9023 23.8134 17.998 21.2001 17.998C20.7379 17.998 20.7379 17.998 20.6846 17.6946L20.2401 15.2511Z"></path></svg>