<svg data-icon="clefG215Ma40" data-version="v2" class="" width="40" height="40" viewBox="0 0 40 40" fill="currentcolor" xmlns="http://www.w3.org/2000/svg"><path fill-rule="evenodd" clip-rule="evenodd" d="M24.2222 17.4733H10.8889V18.0128H24.2222V17.4733ZM24.2222 13.2581H10.8889V13.7976H24.2222V13.2581ZM24.2222 21.6884H10.8889V22.2279H24.2222V21.6884ZM24.2222 9.04297H10.8889V9.58251H24.2222V9.04297ZM24.2222 25.9035H10.8889V26.4431H24.2222V25.9035ZM28.6667 17.4733H24.2222V18.0128H28.6667V17.4733ZM28.6667 13.2581H24.2222V13.7976H28.6667V13.2581ZM28.6667 21.6884H24.2222V22.2279H28.6667V21.6884ZM28.6667 9.04297H24.2222V9.58251H28.6667V9.04297ZM28.6667 25.9035H24.2222V26.4431H28.6667V25.9035Z"></path><path fill-rule="evenodd" clip-rule="evenodd" d="M19.6712 1.34884C19.6179 1.41629 19.5823 1.46687 19.5823 1.53431C19.5823 1.60175 19.6712 1.68606 19.7601 1.68606C19.849 1.68606 19.9023 1.63547 19.9557 1.56803L20.3646 1.14652C20.4179 1.07908 20.4534 1.06222 20.5068 1.06222C20.5423 1.06222 20.5601 1.07908 20.5601 1.12966C20.5601 1.16338 20.5601 1.1971 20.5423 1.24768L19.7957 3.45642C19.7601 3.54072 19.7601 3.55758 19.6534 3.57444L19.2801 3.60816C19.1734 3.60816 19.1201 3.65874 19.1201 3.74304C19.1201 3.82735 19.1734 3.89479 19.2979 3.89479H21.129C21.2534 3.89479 21.3068 3.82735 21.3068 3.74304C21.3068 3.65874 21.2534 3.60816 21.1468 3.60816L20.7734 3.57444C20.7023 3.55758 20.7201 3.507 20.7379 3.42269L21.8046 0.236048C21.8223 0.185466 21.8223 0.151745 21.8223 0.118024C21.8223 0.0674423 21.7868 0.0168604 21.7157 0.0168604C21.609 0.0168604 21.4668 0.118024 21.3423 0.118024C21.2179 0.118024 21.1468 0.0168604 21.0046 0.0168604C20.9334 0.0168604 20.8979 0.0505813 20.8446 0.101163L19.6712 1.34884ZM22.0712 1.88838C22.0357 1.98955 22.0179 2.02327 22.0179 2.09071C22.0179 2.19187 22.089 2.24245 22.1957 2.24245C22.2668 2.24245 22.3201 2.20873 22.409 2.14129C22.4979 2.04013 22.729 1.82094 23.0668 1.82094C23.4401 1.82094 23.5646 2.05699 23.5646 2.36048C23.5646 2.86629 23.2268 3.70932 22.4979 3.70932C22.2846 3.70932 22.1068 3.62502 22.1068 3.52386C22.1068 3.45642 22.1601 3.43955 22.249 3.38897C22.3734 3.33839 22.5334 3.22037 22.5334 2.9506C22.5334 2.69769 22.3379 2.56281 22.1068 2.56281C21.8046 2.56281 21.5734 2.83257 21.5734 3.16979C21.5734 3.5913 21.929 3.97909 22.6934 3.97909C23.7068 3.97909 24.4534 3.32153 24.4534 2.34362C24.4534 1.73664 24.009 1.48373 23.2979 1.48373C23.0846 1.48373 22.9246 1.51745 22.7823 1.55117C22.6223 1.60175 22.6046 1.53431 22.6401 1.43315L22.8001 0.961052C22.8357 0.859888 22.889 0.859888 22.9957 0.876749C23.1201 0.89361 23.2801 0.91047 23.4223 0.91047C24.0623 0.91047 24.5601 0.623841 24.8979 0.337211C25.0046 0.236048 25.0579 0.168605 25.0579 0.101163C25.0579 0.0505813 25.0046 0 24.9512 0C24.9157 0 24.8268 0.0337209 24.6846 0.0843026C24.4534 0.134884 24.1868 0.168605 23.8668 0.168605C23.5646 0.168605 23.3334 0.134884 23.209 0.101163C23.049 0.0505813 22.9957 0.0337208 22.9068 0.0337208C22.7823 0.0337208 22.7112 0.101163 22.6757 0.219187L22.0712 1.88838ZM21.9112 6.33957C22.4979 6.33957 22.9779 6.79481 22.9779 7.72214C22.9779 8.88552 22.3912 9.96459 21.0046 11.2797C20.7201 11.5495 20.2934 11.9373 19.8846 12.2745C19.7601 12.3757 19.689 12.3588 19.6534 12.1396C19.5823 11.7012 19.5468 11.128 19.5468 10.5884C19.5468 7.95819 20.8268 6.33957 21.9112 6.33957ZM21.2001 20.5024C21.1646 20.3001 21.1823 20.2495 21.3957 20.2664C22.1176 20.3284 22.7887 20.6452 23.276 21.1542C23.7633 21.6632 24.0312 22.3272 24.0268 23.0147C24.0268 24.0769 23.3512 24.9368 22.3557 25.4089C22.1423 25.51 22.1068 25.51 22.0712 25.3077L21.2001 20.5024ZM19.9734 17.8216C20.0268 18.142 20.0268 18.1251 19.7068 18.2263C18.1423 18.7321 17.129 20.0641 17.129 21.4972C17.129 23.0147 17.9646 24.0937 19.1734 24.4815C19.3157 24.5321 19.529 24.5827 19.6534 24.5827C19.7957 24.5827 19.8668 24.4984 19.8668 24.3972C19.8668 24.2792 19.7246 24.2286 19.6001 24.178C18.8534 23.8746 18.3201 23.1496 18.3201 22.374C18.3201 21.4129 19.0134 20.6879 20.0979 20.4013C20.3823 20.3338 20.4179 20.3507 20.4534 20.5362L21.3423 25.5606C21.3779 25.7461 21.3601 25.7461 21.0934 25.7967C20.809 25.8472 20.4534 25.881 20.0979 25.881C16.9868 25.881 14.9779 24.2455 14.9779 21.9019C14.9779 20.9071 15.1557 19.5751 16.6312 17.9902C17.6979 16.8606 18.5157 16.2367 19.3512 15.596C19.529 15.4611 19.5646 15.478 19.6001 15.6635L19.9734 17.8216ZM20.2401 15.2419C20.2046 15.0396 20.2401 15.0228 20.3468 14.9216C20.6312 14.6687 21.0046 14.3146 21.3423 13.9605C22.8357 12.4094 23.7246 10.403 23.7246 8.49772C23.7246 7.03085 23.2979 5.58085 22.569 4.56921C22.3023 4.19828 21.8401 3.72618 21.6446 3.72618C21.3957 3.72618 20.8446 4.16456 20.489 4.53549C19.1734 5.91806 18.7468 8.02563 18.7468 9.77913C18.7468 10.757 18.8712 11.853 18.9957 12.5443C19.0312 12.7466 19.049 12.7803 18.8357 12.9489C17.6979 13.8425 16.4712 14.871 15.5468 15.9501C14.3201 17.4001 13.5557 18.9681 13.5557 20.7722C13.5557 23.7059 15.6712 26.4879 20.0268 26.4879C20.4357 26.4879 20.8979 26.4542 21.2534 26.3868C21.449 26.3531 21.4846 26.3362 21.5201 26.5385C21.7334 27.6682 22.0001 29.1351 22.0001 29.9275C22.0001 32.4229 20.2223 32.7264 19.1734 32.7264C18.2134 32.7264 17.7512 32.4566 17.7512 32.2374C17.7512 32.1194 17.9112 32.0688 18.3201 31.9508C18.8712 31.799 19.5112 31.3438 19.5112 30.3659C19.5112 29.4385 18.889 28.6461 17.8046 28.6461C16.6134 28.6461 15.9023 29.5397 15.9023 30.5851C15.9023 31.681 16.5957 33.3333 19.2801 33.3333C20.4712 33.3333 22.7823 32.8275 22.7823 29.9612C22.7823 29.0002 22.4623 27.3984 22.2668 26.3531C22.2312 26.1507 22.249 26.1676 22.4979 26.0664C24.2934 25.392 25.4846 23.9589 25.4846 22.0536C25.4846 19.8955 23.8134 17.9902 21.2001 17.9902C20.7379 17.9902 20.7379 17.9902 20.6846 17.6867L20.2401 15.2419Z"></path></svg>