<svg data-icon="concertPitch24" data-version="v2" class="" width="24" height="24" viewBox="0 0 24 24" fill="currentcolor" xmlns="http://www.w3.org/2000/svg"><path fill-rule="evenodd" clip-rule="evenodd" d="M16.8 4C17.3899 4 17.8667 4.45 17.8667 5H18.9333C19.5232 5 20 5.45 20 6V18C20 18.55 19.5232 19 18.9333 19H12.5333V20H11.4667V19H5.06667C4.4768 19 4 18.55 4 18V6C4 5.45 4.4768 5 5.06667 5H6.13333C6.13333 4.45 6.61013 4 7.2 4H16.8ZM6.13333 6H5.6C5.3056 6 5.06667 6.22 5.06667 6.5V17.5C5.06667 17.78 5.3056 18 5.6 18H18.4C18.6944 18 18.9333 17.78 18.9333 17.5V6.5C18.9333 6.22 18.6944 6 18.4 6H17.8667V16C17.8667 16.55 17.3899 17 16.8 17H7.2C6.61013 17 6.13333 16.55 6.13333 16V6ZM11.4667 5H7.73333C7.43893 5 7.2 5.22 7.2 5.5V15.5C7.2 15.78 7.43893 16 7.73333 16H11.4667V5ZM16.2667 5H12.5333V16H16.2667C16.5611 16 16.8 15.78 16.8 15.5V5.5C16.8 5.22 16.5611 5 16.2667 5ZM10.4 13V14H8.26667V13H10.4ZM15.7333 13V14H13.6V13H15.7333ZM15.7333 11V12H13.6V11H15.7333ZM10.4 11V12H8.26667V11H10.4ZM15.7333 9V10H13.6V9H15.7333ZM10.4 9V10H8.26667V9H10.4ZM15.7333 7V8H13.6V7H15.7333ZM10.4 7V8H8.26667V7H10.4Z"></path></svg>