<svg xmlns="http://www.w3.org/2000/svg" width="45" height="42" viewBox="0 0 45 42"><g fill="none" fill-rule="evenodd"><path d="M0 0h45v42H0z"></path><path class="fill" fill="#000" d="M15.478 18.994h-4.95a.521.521 0 0 0-.528.528v4.95c0 .297.231.528.528.528a.521.521 0 0 0 .528-.528V20.05h4.422a.521.521 0 0 0 .528-.528.521.521 0 0 0-.528-.528zM23.4 16.75c-1.782 0-2.926 1.21-2.926 2.464 0 .484.264.946.946.946.594 0 1.034-.528 1.034-1.122a.92.92 0 0 0-.264-.66c-.132-.132-.242-.22-.242-.396 0-.264.418-.616 1.166-.616.594 0 1.144.176 1.144.946 0 1.034-.484 2.134-2.2 2.816-1.848.748-2.618 1.848-2.992 3.256-.044.176-.066.264-.066.352 0 .198.132.33.352.33.22 0 .33-.11.44-.396.11-.286.242-.484.572-.484.77 0 1.342.946 2.794.946 1.122 0 1.628-.704 2.024-1.936.066-.154.088-.22.088-.308 0-.176-.176-.264-.33-.264-.132 0-.22.066-.33.242-.264.352-.55.484-.946.484-.638 0-1.166-.396-1.87-.396-.33 0-.616.044-.88.154-.176.066-.264.132-.352.132-.154 0-.088-.176.088-.374.484-.55 1.232-.88 2.09-1.078 1.738-.396 3.278-1.21 3.278-3.146 0-1.166-.968-1.892-2.618-1.892zm6.128 2.244a.521.521 0 0 0-.528.528c0 .297.231.528.528.528h4.422v4.422c0 .297.231.528.528.528a.521.521 0 0 0 .528-.528v-4.95a.521.521 0 0 0-.528-.528h-4.95z"></path></g></svg>