<svg data-icon="dynamicsMezzoPiano32" data-version="v2" class="" width="32" height="32" viewBox="0 0 32 32" fill="currentcolor" xmlns="http://www.w3.org/2000/svg"><path fill-rule="evenodd" clip-rule="evenodd" d="M17.208 14.124C16.592 15.466 16.042 16.28 15.602 16.28C15.47 16.28 15.426 16.214 15.426 16.082C15.426 15.312 16.702 13.398 16.702 12.188C16.702 11.638 16.416 11 15.514 11C14.876 11 14.37 11.308 14.018 11.682C13.798 11.902 13.776 11.99 13.688 11.99C13.578 11.99 13.644 11.814 13.512 11.528C13.38 11.242 13.094 11 12.544 11C11.906 11 11.4 11.308 11.048 11.682C10.828 11.902 10.806 11.99 10.718 11.99C10.608 11.99 10.674 11.836 10.542 11.528C10.41 11.242 10.102 11.022 9.684 11.022C8.518 11.022 7.836 11.968 7.154 13.2C7.044 13.398 7 13.508 7 13.618C7 13.772 7.11 13.86 7.242 13.86C7.396 13.86 7.462 13.75 7.572 13.574C8.232 12.452 8.672 11.858 9.068 11.858C9.244 11.858 9.31 11.968 9.31 12.122C9.31 12.298 9.244 12.518 9.178 12.672L7.572 16.654C7.528 16.764 7.506 16.83 7.506 16.896C7.506 16.984 7.572 17.028 7.748 17.028H8.826C9.024 17.028 9.09 16.984 9.178 16.764L10.608 13.2C10.872 12.562 11.334 12.1 11.818 12.1C12.082 12.1 12.148 12.232 12.148 12.408C12.148 12.672 12.06 12.914 11.928 13.222C11.928 13.244 11.906 13.244 10.542 16.654C10.498 16.764 10.476 16.83 10.476 16.896C10.476 16.984 10.542 17.028 10.718 17.028H11.796C11.994 17.028 12.06 16.984 12.148 16.764L13.578 13.2C13.842 12.562 14.304 12.1 14.788 12.1C15.052 12.1 15.118 12.232 15.118 12.408C15.118 13.178 13.754 15.444 13.754 16.368C13.754 16.94 14.106 17.248 14.744 17.248C16.13 17.248 17.01 16.038 17.692 14.476C18.352 12.98 18.924 11.858 19.496 11.858C19.672 11.858 19.716 11.968 19.716 12.122C19.716 12.298 19.65 12.518 19.584 12.672L16.878 19.382C16.812 19.558 16.768 19.602 16.548 19.602H15.866C15.668 19.602 15.58 19.69 15.58 19.888C15.58 20.064 15.668 20.152 15.844 20.152H20.09C20.288 20.152 20.376 20.064 20.376 19.866C20.376 19.69 20.288 19.602 20.112 19.602H19.232C19.1 19.602 19.034 19.602 19.034 19.536C19.034 19.514 19.056 19.448 19.078 19.382L20.068 16.918C20.112 16.808 20.156 16.654 20.266 16.654C20.376 16.654 20.442 16.874 20.794 17.05C21.102 17.204 21.388 17.248 21.762 17.248C23.874 17.248 25.59 15.048 25.59 12.958C25.59 11.682 24.798 11 23.566 11C22.884 11 22.4 11.22 22.004 11.572C21.696 11.836 21.63 12.012 21.542 12.012C21.432 12.012 21.498 11.858 21.3 11.484C21.146 11.22 20.816 11.022 20.244 11.022C18.594 11.022 17.89 12.584 17.362 13.772L17.208 14.124ZM21.256 16.5C20.882 16.5 20.706 16.258 20.706 15.796C20.706 15.334 20.882 14.894 21.124 14.278L21.564 13.2C21.872 12.452 22.444 11.814 22.972 11.814C23.346 11.814 23.478 12.144 23.478 12.628C23.478 13.706 22.312 16.5 21.256 16.5Z"></path></svg>