<svg data-icon="dynamicsMezzoForte32" data-version="v2" class="" width="32" height="32" viewBox="0 0 32 32" fill="currentcolor" xmlns="http://www.w3.org/2000/svg"><path fill-rule="evenodd" clip-rule="evenodd" d="M15.514 12.454C14.876 12.454 14.37 12.762 14.018 13.136C13.798 13.356 13.776 13.444 13.688 13.444C13.578 13.444 13.644 13.268 13.512 12.982C13.38 12.696 13.094 12.454 12.544 12.454C11.906 12.454 11.4 12.762 11.048 13.136C10.828 13.356 10.806 13.444 10.718 13.444C10.608 13.444 10.674 13.29 10.542 12.982C10.41 12.696 10.102 12.476 9.684 12.476C8.518 12.476 7.836 13.422 7.154 14.654C7.044 14.852 7 14.962 7 15.072C7 15.226 7.11 15.314 7.242 15.314C7.396 15.314 7.462 15.204 7.572 15.028C8.232 13.906 8.672 13.312 9.068 13.312C9.244 13.312 9.31 13.422 9.31 13.576C9.31 13.752 9.244 13.972 9.178 14.126L7.572 18.108C7.528 18.218 7.506 18.284 7.506 18.35C7.506 18.438 7.572 18.482 7.748 18.482H8.826C9.024 18.482 9.09 18.438 9.178 18.218L10.608 14.654C10.872 14.016 11.334 13.554 11.818 13.554C12.082 13.554 12.148 13.686 12.148 13.862C12.148 14.126 12.06 14.368 11.928 14.676C11.928 14.698 11.906 14.698 10.542 18.108C10.498 18.218 10.476 18.284 10.476 18.35C10.476 18.438 10.542 18.482 10.718 18.482H11.796C11.994 18.482 12.06 18.438 12.148 18.218L13.578 14.654C13.842 14.016 14.304 13.554 14.788 13.554C15.052 13.554 15.118 13.686 15.118 13.862C15.118 14.632 13.754 16.898 13.754 17.822C13.754 18.394 14.106 18.702 14.744 18.702C15.58 18.702 16.35 18.086 17.054 16.92C17.186 16.7 17.252 16.568 17.252 16.458C17.252 16.326 17.164 16.26 17.054 16.26C16.9 16.26 16.834 16.37 16.724 16.546C16.306 17.206 15.888 17.734 15.602 17.734C15.47 17.734 15.426 17.668 15.426 17.536C15.426 16.766 16.702 14.852 16.702 13.642C16.702 13.092 16.416 12.454 15.514 12.454ZM17.78 12.96C17.538 12.96 17.428 13.07 17.428 13.312C17.428 13.532 17.538 13.642 17.758 13.642H19.034C19.166 13.642 19.21 13.642 19.21 13.73C19.21 13.774 19.188 13.84 19.166 13.95L17.78 18.768C17.164 20.924 16.768 21.628 15.888 21.628C15.602 21.628 15.492 21.54 15.492 21.43C15.492 21.254 15.69 21.364 16.02 21.144C16.284 20.968 16.46 20.682 16.46 20.33C16.46 19.758 16.064 19.428 15.47 19.428C14.81 19.428 14.326 19.956 14.326 20.638C14.326 21.606 15.052 22.112 15.976 22.112C17.648 22.112 18.682 20.99 19.892 18.504C20.53 17.162 21.014 15.798 21.542 13.95C21.542 13.928 21.564 13.906 21.564 13.884C21.564 13.84 21.74 13.642 21.85 13.642H23.28C23.522 13.642 23.632 13.532 23.632 13.29C23.632 13.07 23.522 12.96 23.302 12.96H21.982C21.828 12.96 21.762 12.96 21.762 12.85C21.762 12.784 21.784 12.718 21.806 12.586C22.246 10.672 22.73 9.506 23.83 9.506C24.006 9.506 24.182 9.55 24.182 9.682C24.182 9.814 24.072 9.792 23.83 9.902C23.544 10.034 23.368 10.342 23.368 10.738C23.368 11.354 23.808 11.662 24.358 11.662C24.93 11.662 25.436 11.288 25.436 10.474C25.436 9.66 24.93 9 23.544 9C21.41 9 20.222 10.518 19.496 12.63C19.386 12.96 19.364 12.96 19.056 12.96H17.78Z"></path></svg>