<svg data-icon="dynamicsSforzando32" data-version="v2" class="" width="32" height="32" viewBox="0 0 32 32" fill="currentcolor" xmlns="http://www.w3.org/2000/svg"><path fill-rule="evenodd" clip-rule="evenodd" d="M11.234 12.762C9.936 12.762 9.034 13.422 9.034 14.588C9.034 15.358 9.452 15.776 10.222 16.304C10.86 16.744 11.058 17.03 11.058 17.47C11.058 17.954 10.64 18.46 9.936 18.46C9.386 18.46 9.012 18.284 9.012 18.13C9.012 18.02 9.144 18.064 9.386 17.91C9.584 17.778 9.694 17.558 9.694 17.272C9.694 16.832 9.32 16.546 8.902 16.546C8.374 16.546 8 16.986 8 17.58C8 18.306 8.748 18.988 9.914 18.988C11.344 18.988 12.444 18.218 12.444 16.942C12.444 16.326 12.224 15.864 11.366 15.226C10.574 14.632 10.31 14.39 10.31 13.972C10.31 13.62 10.574 13.246 11.256 13.246C11.63 13.246 11.938 13.334 11.938 13.488C11.938 13.576 11.828 13.576 11.674 13.686C11.542 13.796 11.454 13.972 11.454 14.214C11.454 14.654 11.784 14.918 12.224 14.918C12.752 14.918 13.038 14.5 13.038 14.082C13.038 13.268 12.356 12.762 11.234 12.762ZM13.522 12.96C13.28 12.96 13.17 13.07 13.17 13.312C13.17 13.532 13.28 13.642 13.5 13.642H14.776C14.908 13.642 14.952 13.642 14.952 13.73C14.952 13.774 14.93 13.84 14.908 13.95L13.522 18.768C12.906 20.924 12.51 21.628 11.63 21.628C11.344 21.628 11.234 21.54 11.234 21.43C11.234 21.254 11.432 21.364 11.762 21.144C12.026 20.968 12.202 20.682 12.202 20.33C12.202 19.758 11.806 19.428 11.212 19.428C10.552 19.428 10.068 19.956 10.068 20.638C10.068 21.606 10.794 22.112 11.718 22.112C13.39 22.112 14.424 20.99 15.634 18.504C16.272 17.162 16.756 15.798 17.284 13.95C17.284 13.928 17.306 13.906 17.306 13.884C17.306 13.84 17.482 13.642 17.592 13.642H19.022C19.264 13.642 19.374 13.532 19.374 13.29C19.374 13.07 19.264 12.96 19.044 12.96H17.724C17.57 12.96 17.504 12.96 17.504 12.85C17.504 12.784 17.526 12.718 17.548 12.586C17.988 10.672 18.472 9.506 19.572 9.506C19.748 9.506 19.924 9.55 19.924 9.682C19.924 9.814 19.814 9.792 19.572 9.902C19.286 10.034 19.11 10.342 19.11 10.738C19.11 11.354 19.55 11.662 20.1 11.662C20.672 11.662 21.178 11.288 21.178 10.474C21.178 9.66 20.672 9 19.286 9C17.152 9 15.964 10.518 15.238 12.63C15.128 12.96 15.106 12.96 14.798 12.96H13.522ZM23.84 12.872C23.664 12.872 23.554 12.938 23.312 13.004C23.07 13.07 22.718 13.114 22.41 13.114C21.09 13.114 20.452 12.916 20.188 12.916C19.968 12.916 19.858 13.004 19.792 13.202L19.264 14.742C19.22 14.874 19.198 14.984 19.198 15.072C19.198 15.226 19.308 15.292 19.44 15.292C19.594 15.292 19.682 15.16 19.77 14.962L19.99 14.5C20.056 14.368 20.1 14.236 20.232 14.236C20.32 14.236 20.694 14.302 21.332 14.302C21.728 14.302 22.036 14.148 22.168 14.148C22.256 14.148 21.772 14.632 21.75 14.654L18.362 18.086C18.186 18.262 18.098 18.35 18.098 18.526C18.098 18.68 18.208 18.79 18.384 18.79C18.582 18.79 18.714 18.614 18.824 18.526C19 18.394 19.176 18.306 19.352 18.306C19.968 18.306 20.408 18.988 21.486 18.988C22.718 18.988 23.29 18.108 23.29 17.206C23.29 16.524 22.894 16.238 22.498 16.238C22.102 16.238 21.772 16.546 21.772 17.008C21.772 17.426 22.058 17.668 22.366 17.668C22.586 17.668 22.652 17.558 22.718 17.558C22.762 17.558 22.784 17.58 22.784 17.624C22.784 17.668 22.74 17.756 22.696 17.844C22.608 17.998 22.454 18.086 22.256 18.086C21.596 18.086 21.398 17.316 20.54 17.316C20.254 17.316 20.122 17.448 20.056 17.448C20.056 17.448 20.21 17.184 20.32 17.074L23.84 13.598C24.016 13.422 24.126 13.29 24.126 13.114C24.126 12.96 23.994 12.872 23.84 12.872Z"></path></svg>