<svg data-icon="dynamicsPianissimo32" data-version="v2" class="" width="32" height="32" viewBox="0 0 32 32" fill="currentcolor" xmlns="http://www.w3.org/2000/svg"><path fill-rule="evenodd" clip-rule="evenodd" d="M14.986 11C14.304 11 13.82 11.22 13.424 11.572C13.116 11.836 13.05 12.012 12.962 12.012C12.852 12.012 12.918 11.858 12.72 11.484C12.566 11.22 12.236 11.022 11.664 11.022C10.366 11.022 9.662 11.946 8.98 13.2C8.87 13.398 8.826 13.508 8.826 13.618C8.826 13.772 8.936 13.86 9.068 13.86C9.222 13.86 9.31 13.728 9.42 13.53C10.058 12.43 10.498 11.858 10.894 11.858C11.07 11.858 11.136 11.968 11.136 12.122C11.136 12.298 11.07 12.518 11.004 12.672L8.298 19.382C8.232 19.558 8.188 19.602 7.968 19.602H7.286C7.088 19.602 7 19.69 7 19.888C7 20.064 7.088 20.152 7.264 20.152H11.51C11.708 20.152 11.796 20.064 11.796 19.866C11.796 19.69 11.708 19.602 11.532 19.602H10.652C10.52 19.602 10.454 19.602 10.454 19.536C10.454 19.514 10.476 19.448 10.498 19.382L11.488 16.918C11.532 16.808 11.576 16.654 11.686 16.654C11.796 16.654 11.862 16.874 12.214 17.05C12.522 17.204 12.808 17.248 13.182 17.248C15.294 17.248 17.01 15.048 17.01 12.958C17.01 11.682 16.218 11 14.986 11ZM22.796 11C22.114 11 21.63 11.22 21.234 11.572C20.926 11.836 20.86 12.012 20.772 12.012C20.662 12.012 20.728 11.858 20.53 11.484C20.376 11.22 20.046 11.022 19.474 11.022C18.418 11.022 17.846 11.594 17.362 12.276C17.23 12.474 17.186 12.584 17.186 12.694C17.186 12.848 17.296 12.914 17.428 12.914C17.582 12.914 17.67 12.804 17.78 12.65C17.78 12.65 17.824 12.562 17.868 12.518C18.088 12.232 18.374 11.858 18.704 11.858C18.88 11.858 18.946 11.968 18.946 12.122C18.946 12.298 18.88 12.518 18.814 12.672L16.108 19.382C16.042 19.558 15.998 19.602 15.778 19.602H15.096C14.898 19.602 14.81 19.69 14.81 19.888C14.81 20.064 14.898 20.152 15.074 20.152H19.32C19.518 20.152 19.606 20.064 19.606 19.866C19.606 19.69 19.518 19.602 19.342 19.602H18.462C18.33 19.602 18.264 19.602 18.264 19.536C18.264 19.514 18.286 19.448 18.308 19.382L19.298 16.918C19.342 16.808 19.386 16.654 19.496 16.654C19.606 16.654 19.672 16.874 20.024 17.05C20.332 17.204 20.618 17.248 20.992 17.248C23.104 17.248 24.82 15.048 24.82 12.958C24.82 11.682 24.028 11 22.796 11ZM14.392 11.814C14.766 11.814 14.898 12.144 14.898 12.628C14.898 13.706 13.732 16.5 12.676 16.5C12.302 16.5 12.126 16.258 12.126 15.796C12.126 15.334 12.302 14.894 12.544 14.278L12.984 13.2C13.292 12.452 13.864 11.814 14.392 11.814ZM22.202 11.814C22.576 11.814 22.708 12.144 22.708 12.628C22.708 13.706 21.542 16.5 20.486 16.5C20.112 16.5 19.936 16.258 19.936 15.796C19.936 15.334 20.112 14.894 20.354 14.278L20.794 13.2C21.102 12.452 21.674 11.814 22.202 11.814Z"></path></svg>