<svg data-icon="dynamicsFortepiano32" data-version="v2" class="" width="32" height="32" viewBox="0 0 32 32" fill="currentcolor" xmlns="http://www.w3.org/2000/svg"><path fill-rule="evenodd" clip-rule="evenodd" d="M11.454 12.96C11.212 12.96 11.102 13.07 11.102 13.312C11.102 13.532 11.212 13.642 11.432 13.642H12.708C12.84 13.642 12.884 13.642 12.884 13.73C12.884 13.774 12.862 13.84 12.84 13.95L11.454 18.768C10.838 20.924 10.442 21.628 9.562 21.628C9.276 21.628 9.166 21.54 9.166 21.43C9.166 21.254 9.364 21.364 9.694 21.144C9.958 20.968 10.134 20.682 10.134 20.33C10.134 19.758 9.738 19.428 9.144 19.428C8.484 19.428 8 19.956 8 20.638C8 21.606 8.726 22.112 9.65 22.112C11.322 22.112 12.356 20.99 13.566 18.504C14.204 17.162 14.688 15.798 15.216 13.95C15.216 13.928 15.238 13.906 15.238 13.884C15.238 13.84 15.414 13.642 15.524 13.642H16.954C17.196 13.642 17.306 13.532 17.306 13.29C17.306 13.07 17.196 12.96 16.976 12.96H15.656C15.502 12.96 15.436 12.96 15.436 12.85C15.436 12.784 15.458 12.718 15.48 12.586C15.92 10.672 16.404 9.506 17.504 9.506C17.68 9.506 17.856 9.55 17.856 9.682C17.856 9.814 17.746 9.792 17.504 9.902C17.218 10.034 17.042 10.342 17.042 10.738C17.042 11.354 17.482 11.662 18.032 11.662C18.604 11.662 19.11 11.288 19.11 10.474C19.11 9.66 18.604 9 17.218 9C15.084 9 13.896 10.518 13.17 12.63C13.06 12.96 13.038 12.96 12.73 12.96H11.454ZM22.696 12.74C22.014 12.74 21.53 12.96 21.134 13.312C20.826 13.576 20.76 13.752 20.672 13.752C20.562 13.752 20.628 13.598 20.43 13.224C20.276 12.96 19.946 12.762 19.374 12.762C18.076 12.762 17.372 13.686 16.69 14.94C16.58 15.138 16.536 15.248 16.536 15.358C16.536 15.512 16.646 15.6 16.778 15.6C16.932 15.6 17.02 15.468 17.13 15.27C17.768 14.17 18.208 13.598 18.604 13.598C18.78 13.598 18.846 13.708 18.846 13.862C18.846 14.038 18.78 14.258 18.714 14.412L16.008 21.122C15.942 21.298 15.898 21.342 15.678 21.342H14.996C14.798 21.342 14.71 21.43 14.71 21.628C14.71 21.804 14.798 21.892 14.974 21.892H19.22C19.418 21.892 19.506 21.804 19.506 21.606C19.506 21.43 19.418 21.342 19.242 21.342H18.362C18.23 21.342 18.164 21.342 18.164 21.276C18.164 21.254 18.186 21.188 18.208 21.122L19.198 18.658C19.242 18.548 19.286 18.394 19.396 18.394C19.506 18.394 19.572 18.614 19.924 18.79C20.232 18.944 20.518 18.988 20.892 18.988C23.004 18.988 24.72 16.788 24.72 14.698C24.72 13.422 23.928 12.74 22.696 12.74ZM22.102 13.554C22.476 13.554 22.608 13.884 22.608 14.368C22.608 15.446 21.442 18.24 20.386 18.24C20.012 18.24 19.836 17.998 19.836 17.536C19.836 17.074 20.012 16.634 20.254 16.018L20.694 14.94C21.002 14.192 21.574 13.554 22.102 13.554Z"></path></svg>