<svg data-icon="dynamicsForte32" data-version="v2" class="" width="32" height="32" viewBox="0 0 32 32" fill="currentcolor" xmlns="http://www.w3.org/2000/svg"><path fill-rule="evenodd" clip-rule="evenodd" d="M13.454 12.96C13.212 12.96 13.102 13.07 13.102 13.312C13.102 13.532 13.212 13.642 13.432 13.642H14.708C14.84 13.642 14.884 13.642 14.884 13.73C14.884 13.774 14.862 13.84 14.84 13.95L13.454 18.768C12.838 20.924 12.442 21.628 11.562 21.628C11.276 21.628 11.166 21.54 11.166 21.43C11.166 21.254 11.364 21.364 11.694 21.144C11.958 20.968 12.134 20.682 12.134 20.33C12.134 19.758 11.738 19.428 11.144 19.428C10.484 19.428 10 19.956 10 20.638C10 21.606 10.726 22.112 11.65 22.112C13.322 22.112 14.356 20.99 15.566 18.504C16.204 17.162 16.688 15.798 17.216 13.95C17.216 13.928 17.238 13.906 17.238 13.884C17.238 13.84 17.414 13.642 17.524 13.642H18.954C19.196 13.642 19.306 13.532 19.306 13.29C19.306 13.07 19.196 12.96 18.976 12.96H17.656C17.502 12.96 17.436 12.96 17.436 12.85C17.436 12.784 17.458 12.718 17.48 12.586C17.92 10.672 18.404 9.506 19.504 9.506C19.68 9.506 19.856 9.55 19.856 9.682C19.856 9.814 19.746 9.792 19.504 9.902C19.218 10.034 19.042 10.342 19.042 10.738C19.042 11.354 19.482 11.662 20.032 11.662C20.604 11.662 21.11 11.288 21.11 10.474C21.11 9.66 20.604 9 19.218 9C17.084 9 15.896 10.518 15.17 12.63C15.06 12.96 15.038 12.96 14.73 12.96H13.454Z"></path></svg>