<svg data-icon="dynamicsRinforzando32" data-version="v2" class="" width="32" height="32" viewBox="0 0 32 32" fill="currentcolor" xmlns="http://www.w3.org/2000/svg"><path fill-rule="evenodd" clip-rule="evenodd" d="M24.522 13.598C24.698 13.422 24.808 13.29 24.808 13.114C24.808 12.96 24.676 12.872 24.522 12.872C24.346 12.872 24.236 12.938 23.994 13.004C23.752 13.07 23.4 13.114 23.092 13.114C21.772 13.114 21.134 12.916 20.87 12.916C20.65 12.916 20.54 13.004 20.474 13.202L19.946 14.742C19.902 14.874 19.88 14.984 19.88 15.072C19.88 15.226 19.99 15.292 20.122 15.292C20.276 15.292 20.364 15.16 20.452 14.962L20.672 14.5C20.738 14.368 20.782 14.236 20.914 14.236C21.002 14.236 21.376 14.302 22.014 14.302C22.41 14.302 22.718 14.148 22.85 14.148C22.938 14.148 22.454 14.632 22.432 14.654L19.044 18.086C18.868 18.262 18.78 18.35 18.78 18.526C18.78 18.68 18.89 18.79 19.066 18.79C19.264 18.79 19.396 18.614 19.506 18.526C19.682 18.394 19.858 18.306 20.034 18.306C20.65 18.306 21.09 18.988 22.168 18.988C23.4 18.988 23.972 18.108 23.972 17.206C23.972 16.524 23.576 16.238 23.18 16.238C22.784 16.238 22.454 16.546 22.454 17.008C22.454 17.426 22.74 17.668 23.048 17.668C23.268 17.668 23.334 17.558 23.4 17.558C23.444 17.558 23.466 17.58 23.466 17.624C23.466 17.668 23.422 17.756 23.378 17.844C23.29 17.998 23.136 18.086 22.938 18.086C22.278 18.086 22.08 17.316 21.222 17.316C20.936 17.316 20.804 17.448 20.738 17.448C20.738 17.448 20.892 17.184 21.002 17.074L24.522 13.598ZM8.572 18.394C8.528 18.504 8.506 18.57 8.506 18.636C8.506 18.724 8.572 18.768 8.748 18.768H9.826C10.024 18.768 10.09 18.724 10.178 18.504L11.608 14.94C11.894 14.214 12.598 13.4 13.082 13.4C13.214 13.4 13.302 13.444 13.302 13.532C13.302 13.73 12.818 13.796 12.818 14.412C12.818 14.852 13.148 15.116 13.61 15.116C14.138 15.116 14.534 14.676 14.534 13.906C14.534 13.268 14.204 12.74 13.39 12.74C12.818 12.74 12.356 13.048 12.026 13.422C11.828 13.642 11.806 13.73 11.718 13.73C11.608 13.73 11.696 13.62 11.542 13.268C11.41 12.982 11.102 12.762 10.662 12.762C9.584 12.762 8.858 13.62 8.154 14.94C8.044 15.138 8 15.248 8 15.358C8 15.512 8.11 15.6 8.242 15.6C8.396 15.6 8.484 15.49 8.572 15.314C9.232 14.17 9.672 13.598 10.068 13.598C10.244 13.598 10.31 13.708 10.31 13.862C10.31 14.038 10.244 14.258 10.178 14.412L8.572 18.394ZM18.736 12.96C18.582 12.96 18.516 12.96 18.516 12.85C18.516 12.784 18.538 12.718 18.56 12.586C19 10.672 19.484 9.506 20.584 9.506C20.76 9.506 20.936 9.55 20.936 9.682C20.936 9.814 20.826 9.792 20.584 9.902C20.298 10.034 20.122 10.342 20.122 10.738C20.122 11.354 20.562 11.662 21.112 11.662C21.684 11.662 22.19 11.288 22.19 10.474C22.19 9.66 21.684 9 20.342 9C18.164 9 16.976 10.518 16.25 12.63C16.14 12.96 16.118 12.96 15.81 12.96H15.106C14.864 12.96 14.754 13.07 14.754 13.312C14.754 13.532 14.864 13.642 15.084 13.642H15.788C15.92 13.642 15.964 13.642 15.964 13.73C15.964 13.774 15.942 13.84 15.92 13.95L14.534 18.768C13.918 20.924 13.522 21.628 12.642 21.628C12.356 21.628 12.246 21.54 12.246 21.43C12.246 21.254 12.444 21.364 12.774 21.144C13.038 20.968 13.214 20.682 13.214 20.33C13.214 19.758 12.818 19.428 12.224 19.428C11.564 19.428 11.08 19.956 11.08 20.638C11.08 21.606 11.806 22.112 12.73 22.112C14.402 22.112 15.436 20.99 16.646 18.504C17.284 17.162 17.768 15.798 18.296 13.95C18.296 13.928 18.318 13.906 18.318 13.884C18.318 13.84 18.494 13.642 18.604 13.642H19.682C19.924 13.642 20.034 13.532 20.034 13.29C20.034 13.07 19.924 12.96 19.704 12.96H18.736Z"></path></svg>