<svg data-icon="dynamicsFortississimo32" data-version="v2" class="" width="32" height="32" viewBox="0 0 32 32" fill="currentcolor" xmlns="http://www.w3.org/2000/svg"><path fill-rule="evenodd" clip-rule="evenodd" d="M17.936 12.96C17.782 12.96 17.716 12.96 17.716 12.85C17.716 12.784 17.738 12.718 17.76 12.586C18.2 10.672 18.53 9.506 19.388 9.506C19.498 9.506 19.564 9.528 19.564 9.594C19.564 9.748 19.168 9.836 19.168 10.43C19.168 11.068 19.564 11.332 20.092 11.332C20.686 11.332 21.06 10.936 21.06 10.21C21.06 9.638 20.62 9 19.366 9C17.21 9 16.176 10.496 15.45 12.63C15.34 12.96 15.318 12.96 15.01 12.96H12.656C12.502 12.96 12.436 12.96 12.436 12.85C12.436 12.784 12.458 12.718 12.48 12.586C12.92 10.672 13.25 9.506 14.108 9.506C14.218 9.506 14.284 9.528 14.284 9.594C14.284 9.748 13.888 9.836 13.888 10.43C13.888 11.068 14.284 11.332 14.812 11.332C15.406 11.332 15.78 10.936 15.78 10.21C15.78 9.638 15.34 9 14.086 9C11.93 9 10.896 10.496 10.17 12.63C10.06 12.96 10.038 12.96 9.73 12.96H8.454C8.212 12.96 8.102 13.07 8.102 13.312C8.102 13.532 8.212 13.642 8.432 13.642H9.708C9.84 13.642 9.884 13.642 9.884 13.73C9.884 13.774 9.862 13.84 9.84 13.95L8.454 18.768C7.838 20.924 7.442 21.628 6.562 21.628C6.276 21.628 6.166 21.54 6.166 21.43C6.166 21.254 6.364 21.364 6.694 21.144C6.958 20.968 7.134 20.682 7.134 20.33C7.134 19.758 6.738 19.428 6.144 19.428C5.484 19.428 5 19.956 5 20.638C5 21.606 5.726 22.112 6.65 22.112C8.322 22.112 9.356 20.99 10.566 18.504C11.204 17.162 11.688 15.798 12.216 13.95C12.216 13.928 12.238 13.906 12.238 13.884C12.238 13.84 12.414 13.642 12.524 13.642H14.988C15.12 13.642 15.164 13.642 15.164 13.73C15.164 13.774 15.142 13.84 15.12 13.95L13.734 18.768C13.118 20.924 12.722 21.628 11.842 21.628C11.666 21.628 11.622 21.584 11.622 21.518C11.622 21.43 11.71 21.386 11.952 21.232C12.216 21.056 12.326 20.814 12.326 20.462C12.326 19.934 11.952 19.604 11.424 19.604C10.742 19.604 10.346 20.066 10.346 20.748C10.346 21.606 11.006 22.112 11.93 22.112C13.602 22.112 14.636 20.99 15.846 18.504C16.484 17.162 16.968 15.798 17.496 13.95C17.496 13.928 17.518 13.906 17.518 13.884C17.518 13.84 17.694 13.642 17.804 13.642H20.268C20.4 13.642 20.444 13.642 20.444 13.73C20.444 13.774 20.422 13.84 20.4 13.95L19.014 18.768C18.398 20.924 18.002 21.628 17.122 21.628C16.946 21.628 16.902 21.584 16.902 21.518C16.902 21.43 16.99 21.386 17.232 21.232C17.496 21.056 17.606 20.814 17.606 20.462C17.606 19.934 17.232 19.604 16.704 19.604C16.022 19.604 15.626 20.066 15.626 20.748C15.626 21.606 16.286 22.112 17.21 22.112C18.882 22.112 19.916 20.99 21.126 18.504C21.764 17.162 22.248 15.798 22.776 13.95C22.776 13.928 22.798 13.906 22.798 13.884C22.798 13.84 22.974 13.642 23.084 13.642H24.514C24.756 13.642 24.866 13.532 24.866 13.29C24.866 13.07 24.756 12.96 24.536 12.96H23.216C23.062 12.96 22.996 12.96 22.996 12.85C22.996 12.784 23.018 12.718 23.04 12.586C23.48 10.672 23.964 9.506 25.064 9.506C25.24 9.506 25.416 9.55 25.416 9.682C25.416 9.814 25.306 9.792 25.064 9.902C24.778 10.034 24.602 10.342 24.602 10.738C24.602 11.354 25.042 11.662 25.592 11.662C26.164 11.662 26.67 11.288 26.67 10.474C26.67 9.66 26.164 9 24.778 9C22.644 9 21.456 10.518 20.73 12.63C20.62 12.96 20.598 12.96 20.29 12.96H17.936Z"></path></svg>