<svg data-icon="dynamicsPianoForte32" data-version="v2" class="" width="32" height="32" viewBox="0 0 32 32" fill="currentcolor" xmlns="http://www.w3.org/2000/svg"><path fill-rule="evenodd" clip-rule="evenodd" d="M12.984 14.94C13.292 14.192 13.864 13.554 14.392 13.554C14.766 13.554 14.898 13.884 14.898 14.368C14.898 15.446 13.732 18.24 12.676 18.24C12.302 18.24 12.126 17.998 12.126 17.536C12.126 17.074 12.302 16.634 12.544 16.018L12.984 14.94ZM8.298 21.122C8.232 21.298 8.188 21.342 7.968 21.342H7.286C7.088 21.342 7 21.43 7 21.628C7 21.804 7.088 21.892 7.264 21.892H11.51C11.708 21.892 11.796 21.804 11.796 21.606C11.796 21.43 11.708 21.342 11.532 21.342H10.652C10.52 21.342 10.454 21.342 10.454 21.276C10.454 21.254 10.476 21.188 10.498 21.122L11.488 18.658C11.532 18.548 11.576 18.394 11.686 18.394C11.796 18.394 11.862 18.614 12.214 18.79C12.522 18.944 12.808 18.988 13.182 18.988C15.294 18.988 17.01 16.788 17.01 14.698C17.01 13.422 16.218 12.74 14.986 12.74C14.304 12.74 13.82 12.96 13.424 13.312C13.116 13.576 13.05 13.752 12.962 13.752C12.852 13.752 12.918 13.598 12.72 13.224C12.566 12.96 12.236 12.762 11.664 12.762C10.366 12.762 9.662 13.686 8.98 14.94C8.87 15.138 8.826 15.248 8.826 15.358C8.826 15.512 8.936 15.6 9.068 15.6C9.222 15.6 9.31 15.468 9.42 15.27C10.058 14.17 10.498 13.598 10.894 13.598C11.07 13.598 11.136 13.708 11.136 13.862C11.136 14.038 11.07 14.258 11.004 14.412L8.298 21.122ZM17.868 12.96C17.626 12.96 17.516 13.07 17.516 13.312C17.516 13.532 17.626 13.642 17.846 13.642H19.122C19.254 13.642 19.298 13.642 19.298 13.73C19.298 13.774 19.276 13.84 19.254 13.95L17.868 18.768C17.252 20.924 16.856 21.628 15.976 21.628C15.69 21.628 15.58 21.54 15.58 21.43C15.58 21.254 15.778 21.364 16.108 21.144C16.372 20.968 16.548 20.682 16.548 20.33C16.548 19.758 16.152 19.428 15.558 19.428C14.898 19.428 14.414 19.956 14.414 20.638C14.414 21.606 15.14 22.112 16.064 22.112C17.736 22.112 18.77 20.99 19.98 18.504C20.618 17.162 21.102 15.798 21.63 13.95C21.63 13.928 21.652 13.906 21.652 13.884C21.652 13.84 21.828 13.642 21.938 13.642H23.368C23.61 13.642 23.72 13.532 23.72 13.29C23.72 13.07 23.61 12.96 23.39 12.96H22.07C21.916 12.96 21.85 12.96 21.85 12.85C21.85 12.784 21.872 12.718 21.894 12.586C22.334 10.672 22.818 9.506 23.918 9.506C24.094 9.506 24.27 9.55 24.27 9.682C24.27 9.814 24.16 9.792 23.918 9.902C23.632 10.034 23.456 10.342 23.456 10.738C23.456 11.354 23.896 11.662 24.446 11.662C25.018 11.662 25.524 11.288 25.524 10.474C25.524 9.66 25.018 9 23.632 9C21.498 9 20.31 10.518 19.584 12.63C19.474 12.96 19.452 12.96 19.144 12.96H17.868Z"></path></svg>