<svg data-icon="dynamicsPiano32" data-version="v2" class="" width="32" height="32" viewBox="0 0 32 32" fill="currentcolor" xmlns="http://www.w3.org/2000/svg"><path fill-rule="evenodd" clip-rule="evenodd" d="M18.986 11C18.304 11 17.82 11.22 17.424 11.572C17.116 11.836 17.05 12.012 16.962 12.012C16.852 12.012 16.918 11.858 16.72 11.484C16.566 11.22 16.236 11.022 15.664 11.022C14.366 11.022 13.662 11.946 12.98 13.2C12.87 13.398 12.826 13.508 12.826 13.618C12.826 13.772 12.936 13.86 13.068 13.86C13.222 13.86 13.31 13.728 13.42 13.53C14.058 12.43 14.498 11.858 14.894 11.858C15.07 11.858 15.136 11.968 15.136 12.122C15.136 12.298 15.07 12.518 15.004 12.672L12.298 19.382C12.232 19.558 12.188 19.602 11.968 19.602H11.286C11.088 19.602 11 19.69 11 19.888C11 20.064 11.088 20.152 11.264 20.152H15.51C15.708 20.152 15.796 20.064 15.796 19.866C15.796 19.69 15.708 19.602 15.532 19.602H14.652C14.52 19.602 14.454 19.602 14.454 19.536C14.454 19.514 14.476 19.448 14.498 19.382L15.488 16.918C15.532 16.808 15.576 16.654 15.686 16.654C15.796 16.654 15.862 16.874 16.214 17.05C16.522 17.204 16.808 17.248 17.182 17.248C19.294 17.248 21.01 15.048 21.01 12.958C21.01 11.682 20.218 11 18.986 11ZM18.392 11.814C18.766 11.814 18.898 12.144 18.898 12.628C18.898 13.706 17.732 16.5 16.676 16.5C16.302 16.5 16.126 16.258 16.126 15.796C16.126 15.334 16.302 14.894 16.544 14.278L16.984 13.2C17.292 12.452 17.864 11.814 18.392 11.814Z"></path></svg>