<svg data-icon="dynamicsPianississimo32" data-version="v2" class="" width="32" height="32" viewBox="0 0 32 32" fill="currentcolor" xmlns="http://www.w3.org/2000/svg"><path fill-rule="evenodd" clip-rule="evenodd" d="M10.986 11C10.304 11 9.82 11.22 9.424 11.572C9.116 11.836 9.05 12.012 8.962 12.012C8.852 12.012 8.918 11.858 8.72 11.484C8.566 11.22 8.236 11.022 7.664 11.022C6.366 11.022 5.662 11.946 4.98 13.2C4.87 13.398 4.826 13.508 4.826 13.618C4.826 13.772 4.936 13.86 5.068 13.86C5.222 13.86 5.31 13.728 5.42 13.53C6.058 12.43 6.498 11.858 6.894 11.858C7.07 11.858 7.136 11.968 7.136 12.122C7.136 12.298 7.07 12.518 7.004 12.672L4.298 19.382C4.232 19.558 4.188 19.602 3.968 19.602H3.286C3.088 19.602 3 19.69 3 19.888C3 20.064 3.088 20.152 3.264 20.152H7.51C7.708 20.152 7.796 20.064 7.796 19.866C7.796 19.69 7.708 19.602 7.532 19.602H6.652C6.52 19.602 6.454 19.602 6.454 19.536C6.454 19.514 6.476 19.448 6.498 19.382L7.488 16.918C7.532 16.808 7.576 16.654 7.686 16.654C7.796 16.654 7.862 16.874 8.214 17.05C8.522 17.204 8.808 17.248 9.182 17.248C11.294 17.248 13.01 15.048 13.01 12.958C13.01 11.682 12.218 11 10.986 11ZM18.796 11C18.114 11 17.63 11.22 17.234 11.572C16.926 11.836 16.86 12.012 16.772 12.012C16.662 12.012 16.728 11.858 16.53 11.484C16.376 11.22 16.046 11.022 15.474 11.022C14.418 11.022 13.846 11.594 13.362 12.276C13.23 12.474 13.186 12.584 13.186 12.694C13.186 12.848 13.296 12.914 13.428 12.914C13.582 12.914 13.67 12.804 13.78 12.65C13.78 12.65 13.824 12.562 13.868 12.518C14.088 12.232 14.374 11.858 14.704 11.858C14.88 11.858 14.946 11.968 14.946 12.122C14.946 12.298 14.88 12.518 14.814 12.672L12.108 19.382C12.042 19.558 11.998 19.602 11.778 19.602H11.096C10.898 19.602 10.81 19.69 10.81 19.888C10.81 20.064 10.898 20.152 11.074 20.152H15.32C15.518 20.152 15.606 20.064 15.606 19.866C15.606 19.69 15.518 19.602 15.342 19.602H14.462C14.33 19.602 14.264 19.602 14.264 19.536C14.264 19.514 14.286 19.448 14.308 19.382L15.298 16.918C15.342 16.808 15.386 16.654 15.496 16.654C15.606 16.654 15.672 16.874 16.024 17.05C16.332 17.204 16.618 17.248 16.992 17.248C19.104 17.248 20.82 15.048 20.82 12.958C20.82 11.682 20.028 11 18.796 11ZM26.606 11C25.924 11 25.44 11.22 25.044 11.572C24.736 11.836 24.67 12.012 24.582 12.012C24.472 12.012 24.538 11.858 24.34 11.484C24.186 11.22 23.856 11.022 23.284 11.022C22.228 11.022 21.656 11.594 21.172 12.276C21.04 12.474 20.996 12.584 20.996 12.694C20.996 12.848 21.106 12.914 21.238 12.914C21.392 12.914 21.48 12.804 21.59 12.65C21.59 12.65 21.634 12.562 21.678 12.518C21.898 12.232 22.184 11.858 22.514 11.858C22.69 11.858 22.756 11.968 22.756 12.122C22.756 12.298 22.69 12.518 22.624 12.672L19.918 19.382C19.852 19.558 19.808 19.602 19.588 19.602H18.906C18.708 19.602 18.62 19.69 18.62 19.888C18.62 20.064 18.708 20.152 18.884 20.152H23.13C23.328 20.152 23.416 20.064 23.416 19.866C23.416 19.69 23.328 19.602 23.152 19.602H22.272C22.14 19.602 22.074 19.602 22.074 19.536C22.074 19.514 22.096 19.448 22.118 19.382L23.108 16.918C23.152 16.808 23.196 16.654 23.306 16.654C23.416 16.654 23.482 16.874 23.834 17.05C24.142 17.204 24.428 17.248 24.802 17.248C26.914 17.248 28.63 15.048 28.63 12.958C28.63 11.682 27.838 11 26.606 11ZM10.392 11.814C10.766 11.814 10.898 12.144 10.898 12.628C10.898 13.706 9.732 16.5 8.676 16.5C8.302 16.5 8.126 16.258 8.126 15.796C8.126 15.334 8.302 14.894 8.544 14.278L8.984 13.2C9.292 12.452 9.864 11.814 10.392 11.814ZM18.202 11.814C18.576 11.814 18.708 12.144 18.708 12.628C18.708 13.706 17.542 16.5 16.486 16.5C16.112 16.5 15.936 16.258 15.936 15.796C15.936 15.334 16.112 14.894 16.354 14.278L16.794 13.2C17.102 12.452 17.674 11.814 18.202 11.814ZM26.012 11.814C26.386 11.814 26.518 12.144 26.518 12.628C26.518 13.706 25.352 16.5 24.296 16.5C23.922 16.5 23.746 16.258 23.746 15.796C23.746 15.334 23.922 14.894 24.164 14.278L24.604 13.2C24.912 12.452 25.484 11.814 26.012 11.814Z"></path></svg>