<svg data-icon="dynamicsFortissimo32" data-version="v2" class="" width="32" height="32" viewBox="0 0 32 32" fill="currentcolor" xmlns="http://www.w3.org/2000/svg"><path fill-rule="evenodd" clip-rule="evenodd" d="M15.656 12.96C15.502 12.96 15.436 12.96 15.436 12.85C15.436 12.784 15.458 12.718 15.48 12.586C15.92 10.672 16.25 9.506 17.108 9.506C17.218 9.506 17.284 9.528 17.284 9.594C17.284 9.748 16.888 9.836 16.888 10.43C16.888 11.068 17.284 11.332 17.812 11.332C18.406 11.332 18.78 10.936 18.78 10.21C18.78 9.638 18.34 9 17.086 9C14.93 9 13.896 10.496 13.17 12.63C13.06 12.96 13.038 12.96 12.73 12.96H11.454C11.212 12.96 11.102 13.07 11.102 13.312C11.102 13.532 11.212 13.642 11.432 13.642H12.708C12.84 13.642 12.884 13.642 12.884 13.73C12.884 13.774 12.862 13.84 12.84 13.95L11.454 18.768C10.838 20.924 10.442 21.628 9.562 21.628C9.276 21.628 9.166 21.54 9.166 21.43C9.166 21.254 9.364 21.364 9.694 21.144C9.958 20.968 10.134 20.682 10.134 20.33C10.134 19.758 9.738 19.428 9.144 19.428C8.484 19.428 8 19.956 8 20.638C8 21.606 8.726 22.112 9.65 22.112C11.322 22.112 12.356 20.99 13.566 18.504C14.204 17.162 14.688 15.798 15.216 13.95C15.216 13.928 15.238 13.906 15.238 13.884C15.238 13.84 15.414 13.642 15.524 13.642H17.988C18.12 13.642 18.164 13.642 18.164 13.73C18.164 13.774 18.142 13.84 18.12 13.95L16.734 18.768C16.118 20.924 15.722 21.628 14.842 21.628C14.666 21.628 14.622 21.584 14.622 21.518C14.622 21.43 14.71 21.386 14.952 21.232C15.216 21.056 15.326 20.814 15.326 20.462C15.326 19.934 14.952 19.604 14.424 19.604C13.742 19.604 13.346 20.066 13.346 20.748C13.346 21.606 14.006 22.112 14.93 22.112C16.602 22.112 17.636 20.99 18.846 18.504C19.484 17.162 19.968 15.798 20.496 13.95C20.496 13.928 20.518 13.906 20.518 13.884C20.518 13.84 20.694 13.642 20.804 13.642H22.234C22.476 13.642 22.586 13.532 22.586 13.29C22.586 13.07 22.476 12.96 22.256 12.96H20.936C20.782 12.96 20.716 12.96 20.716 12.85C20.716 12.784 20.738 12.718 20.76 12.586C21.2 10.672 21.684 9.506 22.784 9.506C22.96 9.506 23.136 9.55 23.136 9.682C23.136 9.814 23.026 9.792 22.784 9.902C22.498 10.034 22.322 10.342 22.322 10.738C22.322 11.354 22.762 11.662 23.312 11.662C23.884 11.662 24.39 11.288 24.39 10.474C24.39 9.66 23.884 9 22.498 9C20.364 9 19.176 10.518 18.45 12.63C18.34 12.96 18.318 12.96 18.01 12.96H15.656Z"></path></svg>