<svg data-icon="editOutline24" data-version="v2" class="triggerIcon_hqLHQ" width="24" height="24" viewBox="0 0 24 24" fill="currentcolor" xmlns="http://www.w3.org/2000/svg"><path fill-rule="evenodd" clip-rule="evenodd" d="M14.0992 4.39109C15.6207 2.86964 18.0875 2.86964 19.6089 4.39109C21.1304 5.91255 21.1304 8.37932 19.6089 9.90077L12.0149 17.4948C11.5869 17.9228 11.3255 18.1842 11.0342 18.4115C10.691 18.6792 10.3196 18.9087 9.92667 19.096C9.59315 19.2549 9.24244 19.3718 8.66817 19.5632L5.35386 20.668C4.77951 20.8594 4.14629 20.7099 3.7182 20.2818C3.2901 19.8537 3.14062 19.2205 3.33207 18.6462L4.43683 15.3319C4.62822 14.7576 4.7451 14.4069 4.90405 14.0734C5.09132 13.6804 5.32084 13.309 5.58856 12.9658C5.81578 12.6745 6.07719 12.4131 6.50524 11.9851L14.0992 4.39109ZM5.96093 18.8845L5.11556 18.0391L5.84398 15.8538C6.05606 15.2176 6.14366 14.9589 6.25814 14.7187C6.39854 14.4241 6.57061 14.1457 6.77132 13.8883C6.93497 13.6785 7.12718 13.4845 7.60141 13.0102L13.4924 7.11927C13.7355 7.72927 14.147 8.46549 14.8407 9.15927C15.5345 9.85306 16.2708 10.2645 16.8807 10.5076L10.9898 16.3986C10.5155 16.8728 10.3215 17.065 10.1117 17.2287C9.85436 17.4294 9.57593 17.6015 9.28134 17.7419C9.04113 17.8564 8.78244 17.944 8.14619 18.156L5.96093 18.8845ZM18.076 9.31241C17.9521 9.28522 17.7973 9.24432 17.6213 9.18325C17.1373 9.01532 16.5006 8.69778 15.9014 8.09861C15.3022 7.49944 14.9847 6.86276 14.8168 6.37873C14.7557 6.2027 14.7148 6.04787 14.6876 5.92404L15.1599 5.45175C16.0956 4.51608 17.6126 4.51608 18.5483 5.45175C19.4839 6.38742 19.4839 7.90444 18.5483 8.84011L18.076 9.31241Z"></path></svg>