<svg data-icon="flat" data-version="v2" class="f-2021" xmlns="http://www.w3.org/2000/svg" width="80" height="80" viewBox="0 0 80 80" fill="currentcolor"><path d="M78.63 14.821C77.868 8.342 71.66 2.133 65.18 1.37a232 232 0 0 0-50.358 0C8.341 2.132 2.133 8.342 1.37 14.82a232 232 0 0 0 0 50.358c.763 6.48 6.971 12.689 13.451 13.451a232 232 0 0 0 50.358 0c6.48-.762 12.689-6.971 13.451-13.451a232 232 0 0 0 0-50.358ZM16.433 40.15a2.647 2.647 0 0 1-2.18-4.144L28.7 14.938a2.647 2.647 0 0 1 4.366 2.995L18.617 38.998a2.64 2.64 0 0 1-2.184 1.15Zm3.758 5.626 21.143-30.83A2.647 2.647 0 0 1 45.7 17.94L24.556 48.77a2.645 2.645 0 0 1-3.68.686 2.65 2.65 0 0 1-.685-3.68M23.83 66.19a2.647 2.647 0 0 1-2.18-4.144l32.303-47.102a2.647 2.647 0 0 1 4.366 2.994L26.015 65.04a2.65 2.65 0 0 1-2.185 1.15m14.836-1.134a2.645 2.645 0 0 1-3.68.687 2.647 2.647 0 0 1-.686-3.68l21.144-30.83a2.647 2.647 0 0 1 4.365 2.994zm27.082-21.06L51.3 65.063a2.645 2.645 0 0 1-3.68.686 2.647 2.647 0 0 1-.686-3.68l14.449-21.067a2.647 2.647 0 0 1 4.365 2.993Z"></path></svg>