<svg data-icon="flatPowerIcon24" data-version="v2" class="power-icon" xmlns="http://www.w3.org/2000/svg" width="24" height="24" viewBox="0 0 24 24" fill="currentcolor"><path d="M8.412 9.87c1-1.498 1.921-2.877 1.246-4.398a.3.3 0 0 1-.017-.25c.065-.172.269-.263.457-.204 2.035.638 3.946 1.898 5.314 3.504 1.282 1.503 2.091 3.314 2.088 5.208-.003 1.3-.313 2.366-.829 3.209a5.05 5.05 0 0 1-2.407 2.033.4.4 0 0 1-.142.028c-.197.003-.36-.141-.363-.322-.013-.766-.46-1.435-.877-2.06-.44-.66-.854-1.28-.823-1.979a5.3 5.3 0 0 0-1.791 1.35c-.568.666-.93 1.46-.933 2.284a.3.3 0 0 1-.06.198.38.38 0 0 1-.497.092 4.76 4.76 0 0 1-1.692-1.705 4.55 4.55 0 0 1-.586-2.281c0-1.842.989-3.322 1.914-4.707z"></path></svg>