<svg data-icon="instrumentsPluckedstrings24" data-version="v2" class="" width="24" height="24" viewBox="0 0 24 24" fill="currentcolor" xmlns="http://www.w3.org/2000/svg"><path fill-rule="evenodd" clip-rule="evenodd" d="M18.6738 6.55135L18.6265 6.5986L15.2256 10.0007C15.4883 10.4461 15.6475 10.9448 15.6915 11.46C15.7355 11.9752 15.6632 12.4938 15.48 12.9773C15.2967 13.4608 15.0071 13.897 14.6326 14.2535C14.2582 14.6101 13.8084 14.878 13.3164 15.0374C13.3547 15.2894 13.3952 15.5414 13.3952 15.8024C13.3952 16.8304 13.0904 17.8353 12.5192 18.69C11.9481 19.5448 11.1364 20.211 10.1866 20.6044C9.2369 20.9977 8.19183 21.1007 7.1836 20.9001C6.17536 20.6996 5.24924 20.2046 4.52234 19.4777C3.79545 18.7508 3.30042 17.8246 3.09987 16.8164C2.89932 15.8082 3.00225 14.7631 3.39565 13.8134C3.78904 12.8636 4.45523 12.0519 5.30997 11.4808C6.16471 10.9096 7.16961 10.6048 8.1976 10.6048C8.45973 10.6048 8.71174 10.6453 8.96262 10.6836C9.12245 10.1918 9.39065 9.74229 9.74742 9.36806C10.1042 8.99383 10.5404 8.70448 11.0239 8.52135C11.5075 8.33822 12.0259 8.26599 12.5411 8.30998C13.0563 8.35397 13.555 8.51306 14.0005 8.77552L17.4003 5.37345L17.4487 5.3262C17.3453 5.11009 17.312 4.86712 17.3534 4.63117C17.3947 4.39521 17.5086 4.17804 17.6793 4.00993L18.3475 3.34167C18.455 3.2334 18.5829 3.14747 18.7238 3.08883C18.8646 3.03019 19.0157 3 19.1682 3C19.3208 3 19.4719 3.03019 19.6127 3.08883C19.7536 3.14747 19.8814 3.2334 19.9889 3.34167L20.6572 4.01105C21.1106 4.46444 21.1173 5.19233 20.6572 5.65246L19.9889 6.32072C19.8205 6.49079 19.6033 6.60432 19.3675 6.64564C19.1317 6.68695 18.8901 6.65401 18.6738 6.55135ZM12.2387 9.45166C11.243 9.45166 10.3711 10.0985 10.0606 11.0447L9.75463 11.9717L8.79049 11.8254L8.76799 11.8221C8.57976 11.7868 8.38903 11.7665 8.1976 11.7613C7.39813 11.7613 6.61661 11.9984 5.95187 12.4426C5.28714 12.8867 4.76904 13.518 4.46309 14.2566C4.15715 14.9953 4.0771 15.808 4.23307 16.5921C4.38904 17.3762 4.77402 18.0965 5.33933 18.6618C5.90464 19.2271 6.6249 19.6121 7.40901 19.7681C8.19312 19.924 9.00587 19.844 9.74448 19.538C10.4831 19.2321 11.1144 18.714 11.5586 18.0493C12.0027 17.3845 12.2398 16.603 12.2398 15.8035C12.2398 15.6674 12.2263 15.5425 12.1791 15.232L12.1757 15.2095L12.0294 14.2454L12.9564 13.9405C13.4181 13.792 13.8208 13.5012 14.107 13.1097C14.3932 12.7183 14.5481 12.2462 14.5495 11.7613C14.5495 11.1488 14.3061 10.5613 13.873 10.1281C13.4398 9.695 12.8524 9.45166 12.2398 9.45166H12.2387ZM9.93013 15.2253C9.6237 15.2253 9.32982 15.1035 9.11315 14.8869C8.89647 14.6702 8.77474 14.3763 8.77474 14.0699C8.77474 13.7634 8.89647 13.4696 9.11315 13.2529C9.32982 13.0362 9.6237 12.9145 9.93013 12.9145C10.2366 12.9145 10.5304 13.0362 10.7471 13.2529C10.9638 13.4696 11.0855 13.7634 11.0855 14.0699C11.0855 14.3763 10.9638 14.6702 10.7471 14.8869C10.5304 15.1035 10.2366 15.2253 9.93013 15.2253ZM5.47955 16.2108L5.07117 15.8035L5.88793 14.9868L6.29631 15.3951L8.60598 17.7048L9.01437 18.1132L8.1976 18.9288L7.78922 18.5216L5.47955 16.2108ZM19.1654 4.15843L18.4972 4.82557C18.4915 4.83232 18.4915 4.82894 18.4972 4.83457L19.1654 5.50283C19.1699 5.50846 19.1677 5.50846 19.1733 5.50283L19.8416 4.83457C19.8472 4.82894 19.8472 4.83232 19.8416 4.82557L19.1733 4.15843C19.1677 4.15281 19.1699 4.15281 19.1654 4.15843Z"></path></svg>