<svg data-icon="keyboard24" data-version="v2" class="" width="24" height="24" viewBox="0 0 24 24" fill="currentcolor" xmlns="http://www.w3.org/2000/svg"><path fill-rule="evenodd" clip-rule="evenodd" d="M5 8H7V10H5V8ZM8 8H10V10H8V8ZM11 8H13V10H11V8ZM14 8H16V10H14V8ZM17 8H19V10H17V8ZM5 11H7V13H5V11ZM8 11H10V13H8V11ZM11 11H13V13H11V11ZM14 11H16V13H14V11ZM17 11H19V13H17V11ZM7 14H17V16H7V14Z"></path><path fill-rule="evenodd" clip-rule="evenodd" d="M19 7H5C4.44772 7 4 7.44772 4 8V16C4 16.5523 4.44772 17 5 17H19C19.5523 17 20 16.5523 20 16V8C20 7.44772 19.5523 7 19 7ZM5 6C3.89543 6 3 6.89543 3 8V16C3 17.1046 3.89543 18 5 18H19C20.1046 18 21 17.1046 21 16V8C21 6.89543 20.1046 6 19 6H5Z"></path></svg>