<svg data-icon="keysignatureB540" data-version="v2" class="" width="40" height="40" viewBox="0 0 40 40" fill="currentcolor" xmlns="http://www.w3.org/2000/svg"><path d="M11.6107 25.5163C10.9758 26.3938 10.4414 26.896 9.73718 27.4865V24.5792C9.89725 24.1321 10.1334 23.7701 10.4465 23.4923C10.7585 23.2154 11.0747 23.0765 11.3949 23.0765C12.8903 23.3165 12.3666 24.7222 11.6107 25.5163ZM9.73718 23.146V14.9976H9.16667V28.0154C9.16667 28.4099 9.26393 28.6072 9.4585 28.6072C9.57096 28.6072 9.7107 28.5029 9.91953 28.365C11.3401 27.3976 12.2526 26.6144 13.1639 25.2325C13.4456 24.8052 13.6448 23.8363 13.2369 23.1597C12.9826 22.7378 12.498 22.2946 11.8769 22.1636C11.0727 21.994 10.3794 22.4367 9.73718 23.146Z"></path><path d="M15.8141 16.3522C15.1792 17.2297 14.6448 17.7319 13.9406 18.3224V15.415C14.1007 14.9679 14.3368 14.606 14.6499 14.3282C14.9619 14.0513 15.2781 13.9124 15.5983 13.9124C17.0937 14.1524 16.57 15.558 15.8141 16.3522ZM13.9406 13.9819V5.8335H13.3701V18.8513C13.3701 19.2458 13.4673 19.443 13.6619 19.443C13.7744 19.443 13.9141 19.3388 14.1229 19.2009C15.5435 18.2334 16.4561 17.4502 17.3673 16.0683C17.6491 15.6411 17.8482 14.6722 17.4404 13.9956C17.186 13.5737 16.7014 13.1305 16.0803 12.9994C15.2761 12.8298 14.5828 13.2726 13.9406 13.9819Z"></path><path d="M19.9808 28.0188C19.3459 28.8963 18.8114 29.3986 18.1073 29.9891V27.0817C18.2673 26.6346 18.5034 26.2726 18.8165 25.9948C19.1286 25.7179 19.4448 25.579 19.765 25.579C21.2604 25.819 20.7367 27.2247 19.9808 28.0188ZM18.1073 25.6485V17.5002H17.5368V30.5179C17.5368 30.9124 17.634 31.1097 17.8286 31.1097C17.941 31.1097 18.0808 31.0054 18.2896 30.8676C19.7101 29.9001 20.6227 29.1169 21.534 27.735C21.8157 27.3078 22.0149 26.3389 21.607 25.6623C21.3527 25.2404 20.868 24.7971 20.247 24.6661C19.4428 24.4965 18.7494 24.9392 18.1073 25.6485Z"></path><path d="M24.1475 19.6855C23.5125 20.563 22.9781 21.0652 22.2739 21.6557V18.7484C22.434 18.3013 22.6701 17.9393 22.9832 17.6615C23.2953 17.3846 23.6114 17.2457 23.9316 17.2457C25.4271 17.4857 24.9034 18.8914 24.1475 19.6855ZM22.2739 17.3152V9.16683H21.7034V22.1846C21.7034 22.5791 21.8007 22.7764 21.9953 22.7764C22.1077 22.7764 22.2474 22.6721 22.4563 22.5342C23.8768 21.5668 24.7894 20.7836 25.7006 19.4017C25.9824 18.9744 26.1815 18.0055 25.7737 17.3289C25.5194 16.907 25.0347 16.4638 24.4136 16.3328C23.6095 16.1632 22.9161 16.6059 22.2739 17.3152Z"></path><path d="M28.3141 31.3522C27.6792 32.2297 27.1448 32.7319 26.4406 33.3224V30.415C26.6007 29.9679 26.8368 29.606 27.1499 29.3282C27.4619 29.0513 27.7781 28.9124 28.0983 28.9124C29.5937 29.1524 29.07 30.558 28.3141 31.3522ZM26.4406 28.9819V20.8335H25.8701V33.8513C25.8701 34.2458 25.9673 34.443 26.1619 34.443C26.2744 34.443 26.4141 34.3388 26.6229 34.2009C28.0435 33.2334 28.9561 32.4502 29.8673 31.0683C30.1491 30.6411 30.3482 29.6722 29.9404 28.9956C29.686 28.5737 29.2014 28.1305 28.5803 27.9994C27.7761 27.8298 27.0828 28.2726 26.4406 28.9819Z"></path></svg>