<svg data-icon="keysignatureS640" data-version="v2" class="" width="40" height="40" viewBox="0 0 40 40" fill="currentcolor" xmlns="http://www.w3.org/2000/svg"><path d="M21.3027 22.2786V18.4627L22.6506 18.0149V21.8114L21.3027 22.2786ZM23.9568 21.3555L23.0301 21.6751V17.8786L23.9568 17.5671V15.9901L23.0301 16.3017V12.4227H22.6506V16.4193L21.3027 16.8857V13.1138H20.9448V17.0293L20.018 17.3416V18.9216L20.9448 18.6101V22.3993L20.018 22.7099V24.2836L20.9448 23.9721V27.8292H21.3027V23.8344L22.6506 23.3882V27.1406H23.0301V23.2471L23.9568 22.9347V21.3555Z"></path><path d="M8.65928 17.1934V13.3775L10.0072 12.9297V16.7262L8.65928 17.1934ZM11.3134 16.2703L10.3867 16.5899V12.7934L11.3134 12.4819V10.9049L10.3867 11.2165V7.33747H10.0072V11.3341L8.65928 11.8005V8.02862H8.30138V11.9441L7.37463 12.2564V13.8364L8.30138 13.5249V17.3141L7.37463 17.6247V19.1984L8.30138 18.8869V22.744H8.65928V18.7492L10.0072 18.303V22.0554H10.3867V18.1619L11.3134 17.8495V16.2703Z"></path><path d="M12.8682 25.6112V21.7953L14.2161 21.3475V25.1439L12.8682 25.6112ZM15.5223 24.6881L14.5956 25.0077V21.2112L15.5223 20.8997V19.3227L14.5956 19.6343V15.7553H14.2161V19.7519L12.8682 20.2183V16.4464H12.5103V20.3619L11.5835 20.6742V22.2542L12.5103 21.9427V25.7319L11.5835 26.0425V27.6162L12.5103 27.3047V31.1618H12.8682V27.167L14.2161 26.7208V30.4732H14.5956V26.5797L15.5223 26.2673V24.6881Z"></path><path d="M17.0938 13.8608V10.0449L18.4417 9.59711V13.3936L17.0938 13.8608ZM19.7479 12.9377L18.8212 13.2573V9.46083L19.7479 9.14934V7.57235L18.8212 7.88387V4.00488H18.4417V8.00149L17.0938 8.46792V4.69603H16.7359V8.61156L15.8091 8.92383V10.5038L16.7359 10.1923V13.9815L15.8091 14.2921V15.8658L16.7359 15.5543V19.4114H17.0938V15.4167L18.4417 14.9704V18.7228H18.8212V14.8293L19.7479 14.5169V12.9377Z"></path><path d="M29.7205 19.7532V15.9374L31.0684 15.4896V19.286L29.7205 19.7532ZM32.3746 18.8302L31.4479 19.1497V15.3533L32.3746 15.0418V13.4648L31.4479 13.7763V9.89734H31.0684V13.8939L29.7205 14.3604V10.5885H29.3626V14.504L28.4359 14.8163V16.3962L29.3626 16.0848V19.8739L28.4359 20.1845V21.7582L29.3626 21.4468V25.3039H29.7205V21.3091L31.0684 20.8628V24.6153H31.4479V20.7218L32.3746 20.4094V18.8302Z"></path><path d="M25.5116 30.6964V26.8805L26.8595 26.4327V30.2291L25.5116 30.6964ZM28.1657 29.7733L27.239 30.0929V26.2964L28.1657 25.9849V24.4079L27.239 24.7195V20.8405H26.8595V24.8371L25.5116 25.3035V21.5316H25.1537V25.4471L24.2269 25.7594V27.3394L25.1537 27.0279V30.8171L24.2269 31.1277V32.7014L25.1537 32.3899V36.247H25.5116V32.2522L26.8595 31.806V35.5584H27.239V31.6649L28.1657 31.3525V29.7733Z"></path></svg>