<svg data-icon="keysignatureS240" data-version="v2" class="" width="40" height="40" viewBox="0 0 40 40" fill="currentcolor" xmlns="http://www.w3.org/2000/svg"><path d="M16.419 17.8869V13.6719L17.908 13.1772V17.3708L16.419 17.8869ZM19.3508 16.8673L18.3271 17.2203V13.0267L19.3508 12.6826V10.9407L18.3271 11.2848V7H17.908V11.4147L16.419 11.9299V7.76345H16.0237V12.0886L15 12.4335V14.1787L16.0237 13.8347V18.0203L15 18.3634V20.1017L16.0237 19.7577V24.0182H16.419V19.6056L17.908 19.1126V23.2576H18.3271V18.9568L19.3508 18.6117V16.8673Z"></path><path d="M21.0682 27.1853V22.9703L22.5572 22.4756V26.6692L21.0682 27.1853ZM24 26.1657L22.9763 26.5187V22.3251L24 21.981V20.239L22.9763 20.5832V16.2984H22.5572V20.7131L21.0682 21.2283V17.0618H20.6729V21.387L19.6492 21.7319V23.4771L20.6729 23.1331V27.3186L19.6492 27.6617V29.4L20.6729 29.056V33.3166H21.0682V28.9039L22.5572 28.411V32.556H22.9763V28.2551L24 27.9101V26.1657Z"></path></svg>