<svg data-icon="keysignatureB240" data-version="v2" class="" width="40" height="40" viewBox="0 0 40 40" fill="currentcolor" xmlns="http://www.w3.org/2000/svg"><path d="M17.6396 29.2602C16.9539 30.2079 16.3767 30.7503 15.6162 31.388V28.2481C15.7891 27.7652 16.0441 27.3743 16.3822 27.0742C16.7192 26.7752 17.0607 26.6252 17.4065 26.6252C19.0216 26.8844 18.456 28.4025 17.6396 29.2602ZM15.6162 26.7002V17.9H15V31.9592C15 32.3852 15.1051 32.5983 15.3152 32.5983C15.4367 32.5983 15.5876 32.4857 15.8131 32.3368C17.3473 31.2919 18.3329 30.4461 19.317 28.9536C19.6213 28.4922 19.8364 27.4458 19.3959 26.7151C19.1213 26.2594 18.5978 25.7807 17.9271 25.6392C17.0586 25.456 16.3097 25.9342 15.6162 26.7002Z"></path><path d="M22.0566 19.1296C21.3924 20.0581 20.8334 20.5895 20.0968 21.2143V18.138C20.2642 17.665 20.5112 17.282 20.8387 16.988C21.1652 16.6951 21.4959 16.5481 21.8308 16.5481C23.3951 16.802 22.8473 18.2893 22.0566 19.1296ZM20.0968 16.6216V8H19.5V21.7738C19.5 22.1912 19.6018 22.4 19.8053 22.4C19.9229 22.4 20.0691 22.2897 20.2875 22.1438C21.7735 21.1201 22.7281 20.2914 23.6812 18.8293C23.976 18.3772 24.1843 17.3521 23.7577 16.6362C23.4916 16.1898 22.9847 15.7208 22.335 15.5821C21.4938 15.4027 20.7685 15.8711 20.0968 16.6216Z"></path></svg>