<svg data-icon="keysignatureB740" data-version="v2" class="" width="40" height="40" viewBox="0 0 40 40" fill="currentcolor" xmlns="http://www.w3.org/2000/svg"><path d="M7.44405 23.8493C6.80912 24.7268 6.27469 25.229 5.57051 25.8195V22.9122C5.73057 22.4651 5.96669 22.1031 6.27978 21.8253C6.59185 21.5484 6.908 21.4095 7.22822 21.4095C8.72366 21.6495 8.19996 23.0552 7.44405 23.8493ZM5.57051 21.479V13.3306H5V26.3484C5 26.7429 5.09726 26.9402 5.29183 26.9402C5.40429 26.9402 5.54403 26.8359 5.75285 26.698C7.17339 25.7306 8.08597 24.9474 8.9972 23.5655C9.27897 23.1382 9.47812 22.1693 9.07027 21.4927C8.81596 21.0708 8.3313 20.6276 7.71021 20.4966C6.90605 20.327 6.21269 20.7697 5.57051 21.479Z"></path><path d="M11.6475 14.6852C11.0125 15.5627 10.4781 16.0649 9.77392 16.6554V13.748C9.93399 13.301 10.1701 12.939 10.4832 12.6612C10.7953 12.3843 11.1114 12.2454 11.4316 12.2454C12.9271 12.4854 12.4034 13.891 11.6475 14.6852ZM9.77392 12.3149V4.1665H9.20341V17.1843C9.20341 17.5788 9.30068 17.7761 9.49525 17.7761C9.6077 17.7761 9.74744 17.6718 9.95627 17.5339C11.3768 16.5664 12.2894 15.7832 13.2006 14.4014C13.4824 13.9741 13.6815 13.0052 13.2737 12.3286C13.0194 11.9067 12.5347 11.4635 11.9136 11.3324C11.1095 11.1628 10.4161 11.6056 9.77392 12.3149Z"></path><path d="M15.8141 26.3518C15.1792 27.2293 14.6448 27.7316 13.9406 28.3221V25.4147C14.1007 24.9676 14.3368 24.6056 14.6499 24.3278C14.9619 24.0509 15.2781 23.912 15.5983 23.912C17.0937 24.152 16.57 25.5577 15.8141 26.3518ZM13.9406 23.9815V15.8332H13.3701V28.8509C13.3701 29.2454 13.4673 29.4427 13.6619 29.4427C13.7744 29.4427 13.9141 29.3384 14.1229 29.2006C15.5435 28.2331 16.4561 27.4499 17.3673 26.068C17.6491 25.6408 17.8482 24.6719 17.4404 23.9953C17.186 23.5734 16.7014 23.1301 16.0803 22.9991C15.2761 22.8295 14.5828 23.2722 13.9406 23.9815Z"></path><path d="M19.9808 18.0185C19.3459 18.896 18.8114 19.3982 18.1073 19.9888V17.0814C18.2673 16.6343 18.5034 16.2723 18.8165 15.9945C19.1286 15.7176 19.4447 15.5787 19.765 15.5787C21.2604 15.8187 20.7367 17.2244 19.9808 18.0185ZM18.1073 15.6482V7.49984H17.5367V20.5176C17.5367 20.9121 17.634 21.1094 17.8286 21.1094C17.941 21.1094 18.0808 21.0051 18.2896 20.8672C19.7101 19.8998 20.6227 19.1166 21.5339 17.7347C21.8157 17.3074 22.0149 16.3385 21.607 15.662C21.3527 15.2401 20.868 14.7968 20.247 14.6658C19.4428 14.4962 18.7494 14.9389 18.1073 15.6482Z"></path><path d="M24.1475 29.6852C23.5125 30.5627 22.9781 31.0649 22.2739 31.6554V28.748C22.434 28.3009 22.6701 27.939 22.9832 27.6612C23.2953 27.3843 23.6114 27.2454 23.9316 27.2454C25.4271 27.4854 24.9034 28.891 24.1475 29.6852ZM22.2739 27.3149V19.1665H21.7034V32.1843C21.7034 32.5788 21.8007 32.7761 21.9952 32.7761C22.1077 32.7761 22.2474 32.6718 22.4563 32.5339C23.8768 31.5664 24.7894 30.7832 25.7006 29.4014C25.9824 28.9741 26.1815 28.0052 25.7737 27.3286C25.5194 26.9067 25.0347 26.4635 24.4136 26.3324C23.6095 26.1628 22.9161 26.6056 22.2739 27.3149Z"></path><path d="M28.3141 20.5185C27.6792 21.396 27.1448 21.8982 26.4406 22.4888V19.5814C26.6007 19.1343 26.8368 18.7723 27.1499 18.4945C27.4619 18.2176 27.7781 18.0787 28.0983 18.0787C29.5937 18.3187 29.07 19.7244 28.3141 20.5185ZM26.4406 18.1482V9.99984H25.8701V23.0176C25.8701 23.4121 25.9673 23.6094 26.1619 23.6094C26.2744 23.6094 26.4141 23.5051 26.6229 23.3672C28.0435 22.3998 28.9561 21.6166 29.8673 20.2347C30.1491 19.8074 30.3482 18.8385 29.9404 18.162C29.686 17.7401 29.2014 17.2968 28.5803 17.1658C27.7761 16.9962 27.0828 17.4389 26.4406 18.1482Z"></path><path d="M32.4808 32.1852C31.8459 33.0627 31.3114 33.5649 30.6073 34.1554V31.248C30.7673 30.8009 31.0034 30.439 31.3165 30.1612C31.6286 29.8843 31.9447 29.7454 32.265 29.7454C33.7604 29.9854 33.2367 31.391 32.4808 32.1852ZM30.6073 29.8149V21.6665H30.0367V34.6843C30.0367 35.0788 30.134 35.2761 30.3286 35.2761C30.441 35.2761 30.5808 35.1718 30.7896 35.0339C32.2101 34.0664 33.1227 33.2832 34.0339 31.9014C34.3157 31.4741 34.5149 30.5052 34.107 29.8286C33.8527 29.4067 33.368 28.9635 32.747 28.8324C31.9428 28.6628 31.2494 29.1056 30.6073 29.8149Z"></path></svg>