<svg data-icon="keysignatureB440" data-version="v2" class="" width="40" height="40" viewBox="0 0 40 40" fill="currentcolor" xmlns="http://www.w3.org/2000/svg"><path d="M14.1107 27.1828C13.4758 28.0603 12.9414 28.5625 12.2372 29.153V26.2457C12.3972 25.7986 12.6334 25.4366 12.9464 25.1588C13.2585 24.8819 13.5747 24.743 13.8949 24.743C15.3903 24.983 14.8666 26.3887 14.1107 27.1828ZM12.2372 24.8125V16.6641H11.6667V29.6819C11.6667 30.0764 11.7639 30.2737 11.9585 30.2737C12.071 30.2737 12.2107 30.1694 12.4195 30.0315C13.8401 29.0641 14.7526 28.2809 15.6639 26.899C15.9456 26.4717 16.1448 25.5028 15.7369 24.8262C15.4826 24.4043 14.998 23.9611 14.3769 23.8301C13.5727 23.6605 12.8794 24.1032 12.2372 24.8125Z"></path><path d="M18.3141 18.0187C17.6792 18.8962 17.1448 19.3984 16.4406 19.9889V17.0815C16.6007 16.6344 16.8368 16.2725 17.1499 15.9947C17.4619 15.7178 17.7781 15.5789 18.0983 15.5789C19.5937 15.8189 19.07 17.2245 18.3141 18.0187ZM16.4406 15.6484V7.5H15.8701V20.5178C15.8701 20.9123 15.9673 21.1095 16.1619 21.1095C16.2744 21.1095 16.4141 21.0053 16.6229 20.8674C18.0435 19.8999 18.9561 19.1167 19.8673 17.7348C20.1491 17.3076 20.3482 16.3387 19.9404 15.6621C19.686 15.2402 19.2014 14.797 18.5803 14.6659C17.7761 14.4963 17.0828 14.9391 16.4406 15.6484Z"></path><path d="M22.4808 29.6853C21.8459 30.5628 21.3114 31.0651 20.6073 31.6556V28.7482C20.7673 28.3011 21.0034 27.9391 21.3165 27.6613C21.6286 27.3844 21.9447 27.2455 22.265 27.2455C23.7604 27.4855 23.2367 28.8912 22.4808 29.6853ZM20.6073 27.315V19.1667H20.0367V32.1844C20.0367 32.5789 20.134 32.7762 20.3286 32.7762C20.441 32.7762 20.5808 32.6719 20.7896 32.5341C22.2101 31.5666 23.1227 30.7834 24.0339 29.4015C24.3157 28.9743 24.5149 28.0054 24.107 27.3288C23.8527 26.9069 23.368 26.4636 22.747 26.3326C21.9428 26.163 21.2494 26.6057 20.6073 27.315Z"></path><path d="M26.6475 21.352C26.0125 22.2295 25.4781 22.7317 24.7739 23.3223V20.4149C24.934 19.9678 25.1701 19.6058 25.4832 19.328C25.7953 19.0511 26.1114 18.9122 26.4316 18.9122C27.9271 19.1522 27.4034 20.5579 26.6475 21.352ZM24.7739 18.9817V10.8333H24.2034V23.8511C24.2034 24.2456 24.3007 24.4429 24.4952 24.4429C24.6077 24.4429 24.7474 24.3386 24.9563 24.2007C26.3768 23.2333 27.2894 22.4501 28.2006 21.0682C28.4824 20.6409 28.6815 19.672 28.2737 18.9954C28.0194 18.5736 27.5347 18.1303 26.9136 17.9993C26.1095 17.8297 25.4161 18.2724 24.7739 18.9817Z"></path></svg>