<svg data-icon="keysignatureS440" data-version="v2" class="" width="40" height="40" viewBox="0 0 40 40" fill="currentcolor" xmlns="http://www.w3.org/2000/svg"><path d="M26.1189 24.8361V20.694L27.5821 20.2079V24.329L26.1189 24.8361ZM29 23.8341L27.994 24.181V20.06L29 19.7219V18.01L27.994 18.3482V14.1375H27.5821V18.4759L26.1189 18.9822V14.8878H25.7304V19.1381L24.7245 19.4771V21.1921L25.7304 20.854V24.9672L24.7245 25.3043V27.0126L25.7304 26.6745V30.8614H26.1189V26.525L27.5821 26.0406V30.1139H27.994V25.8875L29 25.5484V23.8341Z"></path><path d="M12.3945 19.3161V15.174L13.8577 14.6879V18.809L12.3945 19.3161ZM15.2755 18.3141L14.2696 18.661V14.54L15.2755 14.2019V12.49L14.2696 12.8282V8.61753H13.8577V12.9559L12.3945 13.4622V9.36778H12.006V13.6181L11 13.9571V15.6721L12.006 15.334V19.4472L11 19.7843V21.4926L12.006 21.1545V25.3414H12.3945V21.005L13.8577 20.5206V24.5939H14.2696V20.3675L15.2755 20.0284V18.3141Z"></path><path d="M16.9633 28.4537V24.3115L18.4264 23.8254V27.9465L16.9633 28.4537ZM19.8443 27.4517L18.8383 27.7986V23.6775L19.8443 23.3394V21.6276L18.8383 21.9657V17.7551H18.4264V22.0934L16.9633 22.5997V18.5053H16.5748V22.7556L15.5688 23.0946V24.8096L16.5748 24.4715V28.5847L15.5688 28.9219V30.6301L16.5748 30.292V34.4789H16.9633V30.1426L18.4264 29.6581V33.7314H18.8383V29.505L19.8443 29.1659V27.4517Z"></path><path d="M21.5502 15.6986V11.5565L23.0134 11.0704V15.1914L21.5502 15.6986ZM24.4312 14.6966L23.4252 15.0435V10.9224L24.4312 10.5843V8.87249L23.4252 9.21065V5H23.0134V9.33833L21.5502 9.84464V5.75024H21.1617V10.0006L20.1557 10.3395V12.0546L21.1617 11.7165V15.8296L20.1557 16.1668V17.875L21.1617 17.537V21.7238H21.5502V17.3875L23.0134 16.9031V20.9764H23.4252V16.7499L24.4312 16.4109V14.6966Z"></path></svg>