<svg data-icon="keysignatureB140" data-version="v2" class="" width="40" height="40" viewBox="0 0 40 40" fill="currentcolor" xmlns="http://www.w3.org/2000/svg"><path d="M20.6928 25.8931C19.7335 27.2189 18.926 27.9777 17.862 28.87V24.4771C18.1039 23.8016 18.4606 23.2547 18.9337 22.8349C19.4052 22.4165 19.8829 22.2067 20.3667 22.2067C22.6262 22.5693 21.8349 24.6932 20.6927 25.8931L20.6928 25.8931ZM17.862 22.3117V10H17V29.669C17 30.2651 17.147 30.5632 17.4409 30.5632C17.6109 30.5632 17.822 30.4056 18.1375 30.1973C20.2839 28.7355 21.6627 27.5522 23.0395 25.4642C23.4653 24.8187 23.7662 23.3547 23.1499 22.3324C22.7657 21.695 22.0334 21.0253 21.095 20.8273C19.8799 20.571 18.8322 21.24 17.8619 22.3117H17.862Z"></path></svg>