<svg data-icon="keysignatureB640" data-version="v2" class="" width="40" height="40" viewBox="0 0 40 40" fill="currentcolor" xmlns="http://www.w3.org/2000/svg"><path d="M9.94405 25.5163C9.30912 26.3938 8.77469 26.896 8.07051 27.4865V24.5792C8.23057 24.1321 8.46669 23.7701 8.77978 23.4923C9.09185 23.2154 9.408 23.0765 9.72822 23.0765C11.2237 23.3165 10.7 24.7222 9.94405 25.5163ZM8.07051 23.146V14.9976H7.5V28.0154C7.5 28.4099 7.59726 28.6072 7.79183 28.6072C7.90429 28.6072 8.04403 28.5029 8.25285 28.365C9.67339 27.3976 10.586 26.6144 11.4972 25.2325C11.779 24.8052 11.9781 23.8363 11.5703 23.1597C11.316 22.7378 10.8313 22.2946 10.2102 22.1636C9.40605 21.994 8.71269 22.4367 8.07051 23.146Z"></path><path d="M14.1475 16.3522C13.5125 17.2297 12.9781 17.7319 12.2739 18.3224V15.415C12.434 14.9679 12.6701 14.606 12.9832 14.3282C13.2953 14.0513 13.6114 13.9124 13.9316 13.9124C15.4271 14.1524 14.9034 15.558 14.1475 16.3522ZM12.2739 13.9819V5.8335H11.7034V18.8513C11.7034 19.2458 11.8007 19.443 11.9952 19.443C12.1077 19.443 12.2474 19.3388 12.4563 19.2009C13.8768 18.2334 14.7894 17.4502 15.7006 16.0683C15.9824 15.6411 16.1815 14.6722 15.7737 13.9956C15.5194 13.5737 15.0347 13.1305 14.4136 12.9994C13.6095 12.8298 12.9161 13.2726 12.2739 13.9819Z"></path><path d="M18.3141 28.0188C17.6792 28.8963 17.1448 29.3986 16.4406 29.9891V27.0817C16.6007 26.6346 16.8368 26.2726 17.1499 25.9948C17.4619 25.7179 17.7781 25.579 18.0983 25.579C19.5937 25.819 19.07 27.2247 18.3141 28.0188ZM16.4406 25.6485V17.5002H15.8701V30.5179C15.8701 30.9124 15.9673 31.1097 16.1619 31.1097C16.2744 31.1097 16.4141 31.0054 16.6229 30.8676C18.0435 29.9001 18.9561 29.1169 19.8673 27.735C20.1491 27.3078 20.3482 26.3389 19.9404 25.6623C19.686 25.2404 19.2014 24.7971 18.5803 24.6661C17.7761 24.4965 17.0828 24.9392 16.4406 25.6485Z"></path><path d="M22.4808 19.6855C21.8459 20.563 21.3114 21.0652 20.6073 21.6557V18.7484C20.7673 18.3013 21.0034 17.9393 21.3165 17.6615C21.6286 17.3846 21.9447 17.2457 22.265 17.2457C23.7604 17.4857 23.2367 18.8914 22.4808 19.6855ZM20.6073 17.3152V9.16683H20.0367V22.1846C20.0367 22.5791 20.134 22.7764 20.3286 22.7764C20.441 22.7764 20.5808 22.6721 20.7896 22.5342C22.2101 21.5668 23.1227 20.7836 24.0339 19.4017C24.3157 18.9744 24.5149 18.0055 24.107 17.3289C23.8527 16.907 23.368 16.4638 22.747 16.3328C21.9428 16.1632 21.2494 16.6059 20.6073 17.3152Z"></path><path d="M26.6475 31.3522C26.0125 32.2297 25.4781 32.7319 24.7739 33.3224V30.415C24.934 29.9679 25.1701 29.606 25.4832 29.3282C25.7953 29.0513 26.1114 28.9124 26.4316 28.9124C27.9271 29.1524 27.4034 30.558 26.6475 31.3522ZM24.7739 28.9819V20.8335H24.2034V33.8513C24.2034 34.2458 24.3007 34.443 24.4952 34.443C24.6077 34.443 24.7474 34.3388 24.9563 34.2009C26.3768 33.2334 27.2894 32.4502 28.2006 31.0683C28.4824 30.6411 28.6815 29.6722 28.2737 28.9956C28.0194 28.5737 27.5347 28.1305 26.9136 27.9994C26.1095 27.8298 25.4161 28.2726 24.7739 28.9819Z"></path><path d="M30.8141 22.1855C30.1792 23.063 29.6448 23.5652 28.9406 24.1557V21.2484C29.1007 20.8013 29.3368 20.4393 29.6499 20.1615C29.9619 19.8846 30.2781 19.7457 30.5983 19.7457C32.0937 19.9857 31.57 21.3914 30.8141 22.1855ZM28.9406 19.8152V11.6668H28.3701V24.6846C28.3701 25.0791 28.4673 25.2764 28.6619 25.2764C28.7744 25.2764 28.9141 25.1721 29.1229 25.0342C30.5435 24.0668 31.4561 23.2836 32.3673 21.9017C32.6491 21.4744 32.8482 20.5055 32.4404 19.8289C32.186 19.407 31.7014 18.9638 31.0803 18.8328C30.2761 18.6632 29.5828 19.1059 28.9406 19.8152Z"></path></svg>