<svg data-icon="keysignatureB340" data-version="v2" class="" width="40" height="40" viewBox="0 0 40 40" fill="currentcolor" xmlns="http://www.w3.org/2000/svg"><path d="M15.7774 27.1828C15.1425 28.0603 14.608 28.5625 13.9038 29.153V26.2457C14.0639 25.7986 14.3 25.4366 14.6131 25.1588C14.9252 24.8819 15.2413 24.743 15.5615 24.743C17.057 24.983 16.5333 26.3887 15.7774 27.1828ZM13.9038 24.8125V16.6641H13.3333V29.6819C13.3333 30.0764 13.4306 30.2737 13.6252 30.2737C13.7376 30.2737 13.8774 30.1694 14.0862 30.0315C15.5067 29.0641 16.4193 28.2809 17.3305 26.899C17.6123 26.4717 17.8115 25.5028 17.4036 24.8262C17.1493 24.4043 16.6646 23.9611 16.0435 23.8301C15.2394 23.6605 14.546 24.1032 13.9038 24.8125Z"></path><path d="M19.9808 18.0187C19.3459 18.8962 18.8114 19.3984 18.1073 19.9889V17.0815C18.2673 16.6344 18.5034 16.2725 18.8165 15.9947C19.1286 15.7178 19.4447 15.5789 19.765 15.5789C21.2604 15.8189 20.7367 17.2245 19.9808 18.0187ZM18.1073 15.6484V7.5H17.5367V20.5178C17.5367 20.9123 17.634 21.1095 17.8286 21.1095C17.941 21.1095 18.0808 21.0053 18.2896 20.8674C19.7101 19.8999 20.6227 19.1167 21.5339 17.7348C21.8157 17.3076 22.0149 16.3387 21.607 15.6621C21.3527 15.2402 20.868 14.797 20.2469 14.6659C19.4428 14.4963 18.7494 14.9391 18.1073 15.6484Z"></path><path d="M24.1475 29.6853C23.5125 30.5628 22.9781 31.0651 22.2739 31.6556V28.7482C22.434 28.3011 22.6701 27.9391 22.9832 27.6613C23.2953 27.3844 23.6114 27.2455 23.9316 27.2455C25.4271 27.4855 24.9034 28.8912 24.1475 29.6853ZM22.2739 27.315V19.1667H21.7034V32.1844C21.7034 32.5789 21.8007 32.7762 21.9952 32.7762C22.1077 32.7762 22.2474 32.6719 22.4563 32.5341C23.8768 31.5666 24.7894 30.7834 25.7006 29.4015C25.9824 28.9743 26.1815 28.0054 25.7737 27.3288C25.5194 26.9069 25.0347 26.4636 24.4136 26.3326C23.6095 26.163 22.9161 26.6057 22.2739 27.315Z"></path></svg>