<svg data-icon="keysignatureS340" data-version="v2" class="" width="40" height="40" viewBox="0 0 40 40" fill="currentcolor" xmlns="http://www.w3.org/2000/svg"><path d="M14.3497 19.8565V15.8474L15.7659 15.3769V19.3656L14.3497 19.8565ZM17.1382 18.8867L16.1645 19.2224V15.2337L17.1382 14.9064V13.2495L16.1645 13.5768V9.50139H15.7659V13.7004L14.3497 14.1905V10.2275H13.9736V14.3414L12.9999 14.6695V16.3295L13.9736 16.0022V19.9833L12.9999 20.3096V21.963L13.9736 21.6358V25.6883H14.3497V21.4912L15.7659 21.0223V24.9648H16.1645V20.8741L17.1382 20.5459V18.8867Z"></path><path d="M18.7717 28.7006V24.6915L20.1879 24.221V28.2098L18.7717 28.7006ZM21.5603 27.7308L20.5866 28.0666V24.0778L21.5603 23.7506V22.0937L20.5866 22.421V18.3455H20.1879V22.5446L18.7717 23.0346V19.0717H18.3957V23.1855L17.422 23.5136V25.1736L18.3957 24.8463V28.8275L17.422 29.1538V30.8072L18.3957 30.48V34.5324H18.7717V30.3353L20.1879 29.8664V33.8089H20.5866V29.7182L21.5603 29.39V27.7308Z"></path><path d="M23.2114 16.3551V12.346L24.6276 11.8755V15.8642L23.2114 16.3551ZM25.9999 15.3853L25.0262 15.721V11.7323L25.9999 11.405V9.74816L25.0262 10.0755V6H24.6276V10.199L23.2114 10.6891V6.72616H22.8354V10.84L21.8617 11.1681V12.8281L22.8354 12.5008V16.4819L21.8617 16.8083V18.4617L22.8354 18.1344V22.1869H23.2114V17.9898L24.6276 17.5209V21.4634H25.0262V17.3727L25.9999 17.0445V15.3853Z"></path></svg>