<svg data-icon="keysignatureS540" data-version="v2" class="" width="40" height="40" viewBox="0 0 40 40" fill="currentcolor" xmlns="http://www.w3.org/2000/svg"><path d="M23.2555 22.7032V18.7977L24.6351 18.3393V22.225L23.2555 22.7032ZM25.972 21.7585L25.0234 22.0855V18.1999L25.972 17.881V16.267L25.0234 16.5858V12.6157H24.6351V16.7062L23.2555 17.1836V13.3231H22.8891V17.3306L21.9406 17.6502V19.2673L22.8891 18.9485V22.8268L21.9406 23.1447V24.7554L22.8891 24.4366V28.3843H23.2555V24.2957L24.6351 23.8389V27.6796H25.0234V23.6945L25.972 23.3748V21.7585Z"></path><path d="M10.3148 17.4985V13.5929L11.6945 13.1346V17.0203L10.3148 17.4985ZM13.0314 16.5537L12.0828 16.8808V12.9951L13.0314 12.6763V11.0622L12.0828 11.3811V7.41093H11.6945V11.5015L10.3148 11.9789V8.11832H9.94853V12.1259L9 12.4455V14.0626L9.94853 13.7438V17.622L9 17.9399V19.5506L9.94853 19.2319V23.1796H10.3148V19.0909L11.6945 18.6342V22.4748H12.0828V18.4898L13.0314 18.1701V16.5537Z"></path><path d="M14.6227 26.1142V22.2086L16.0023 21.7503V25.636L14.6227 26.1142ZM17.3392 25.1694L16.3907 25.4965V21.6108L17.3392 21.292V19.6779L16.3907 19.9968V16.0266H16.0023V20.1171L14.6227 20.5945V16.734H14.2564V20.7415L13.3078 21.0612V22.6782L14.2564 22.3594V26.2377L13.3078 26.5556V28.1663L14.2564 27.8475V31.7953H14.6227V27.7066L16.0023 27.2498V31.0905H16.3907V27.1054L17.3392 26.7857V25.1694Z"></path><path d="M18.9476 14.0876V10.182L20.3273 9.72368V13.6094L18.9476 14.0876ZM21.6641 13.1428L20.7156 13.4699V9.58419L21.6641 9.26539V7.65132L20.7156 7.97017V4H20.3273V8.09056L18.9476 8.56795V4.7074H18.5813V8.71496L17.6328 9.03458V10.6517L18.5813 10.3329V14.2111L17.6328 14.529V16.1397L18.5813 15.8209V19.7687H18.9476V15.68L20.3273 15.2233V19.0639H20.7156V15.0789L21.6641 14.7592V13.1428Z"></path><path d="M27.5633 31.3189V27.4133L28.9429 26.955V30.8407L27.5633 31.3189ZM30.2798 30.3741L29.3313 30.7012V26.8155L30.2798 26.4967V24.8826L29.3313 25.2015V21.2313H28.9429V25.3219L27.5633 25.7993V21.9387H27.197V25.9463L26.2484 26.2659V27.883L27.197 27.5642V31.4424L26.2484 31.7603V33.371L27.197 33.0523V37H27.5633V32.9113L28.9429 32.4546V36.2952H29.3313V32.3102L30.2798 31.9905V30.3741Z"></path></svg>