<svg data-icon="keysignatureS740" data-version="v2" class="" width="40" height="40" viewBox="0 0 40 40" fill="currentcolor" xmlns="http://www.w3.org/2000/svg"><path d="M19.6197 22.2631V18.4746L20.958 18.0299V21.7992L19.6197 22.2631ZM22.2549 21.3466L21.3348 21.6639V17.8946L22.2549 17.5854V16.0197L21.3348 16.329V12.4777H20.958V16.4457L19.6197 16.9088V13.1639H19.2644V17.0514L18.3443 17.3615V18.9301L19.2644 18.6209V22.383L18.3443 22.6913V24.2538L19.2644 23.9446V27.7741H19.6197V23.8079L20.958 23.3648V27.0904H21.3348V23.2247L22.2549 22.9146V21.3466Z"></path><path d="M7.06672 17.2143V13.4257L8.40502 12.9811V16.7504L7.06672 17.2143ZM9.70187 16.2978L8.78175 16.6151V12.8458L9.70187 12.5365V10.9708L8.78175 11.2801V7.42887H8.40502V11.3969L7.06672 11.86V8.11508H6.71138V12.0026L5.79126 12.3126V13.8813L6.71138 13.572V17.3341L5.79126 17.6425V19.205L6.71138 18.8957V22.7252H7.06672V18.759L8.40502 18.316V22.0416H8.78175V18.1759L9.70187 17.8658V16.2978Z"></path><path d="M11.2455 25.5719V21.7833L12.5838 21.3387V25.108L11.2455 25.5719ZM13.8807 24.6554L12.9605 24.9727V21.2034L13.8807 20.8941V19.3284L12.9605 19.6377V15.7865H12.5838V19.7545L11.2455 20.2176V16.4727H10.8902V20.3602L9.97006 20.6702V22.2389L10.8902 21.9296V25.6917L9.97006 26.0001V27.5625L10.8902 27.2533V31.0828H11.2455V27.1166L12.5838 26.6735V30.3991H12.9605V26.5335L13.8807 26.2233V24.6554Z"></path><path d="M15.4409 13.9055V10.117L16.7792 9.67235V13.4417L15.4409 13.9055ZM18.0761 12.9891L17.156 13.3063V9.53704L18.0761 9.22779V7.66207L17.156 7.97137V4.12012H16.7792V8.08815L15.4409 8.55124V4.80632H15.0856V8.69385L14.1655 9.00389V10.5725L15.0856 10.2633V14.0254L14.1655 14.3338V15.8962L15.0856 15.587V19.4165H15.4409V15.4503L16.7792 15.0072V18.7328H17.156V14.8671L18.0761 14.557V12.9891Z"></path><path d="M27.9773 19.7559V15.9673L29.3156 15.5227V19.292L27.9773 19.7559ZM30.6125 18.8394L29.6923 19.1567V15.3874L30.6125 15.0781V13.5124L29.6923 13.8217V9.97043H29.3156V13.9385L27.9773 14.4016V10.6566H27.622V14.5442L26.7019 14.8542V16.4229L27.622 16.1136V19.8757L26.7019 20.1841V21.7465L27.622 21.4373V25.2668H27.9773V21.3006L29.3156 20.8575V24.5831H29.6923V20.7174L30.6125 20.4073V18.8394Z"></path><path d="M32.1561 27.2777V23.4891L33.4944 23.0445V26.8138L32.1561 27.2777ZM34.7913 26.3612L33.8711 26.6785V22.9092L34.7913 22.5999V21.0342L33.8711 21.3435V17.4923H33.4944V21.4603L32.1561 21.9234V18.1785H31.8008V22.066L30.8807 22.376V23.9447L31.8008 23.6354V27.3975L30.8807 27.7059V29.2683L31.8008 28.9591V32.7886H32.1561V28.8224L33.4944 28.3793V32.1049H33.8711V28.2393L34.7913 27.9291V26.3612Z"></path><path d="M23.7985 30.6207V26.8321L25.1368 26.3875V30.1568L23.7985 30.6207ZM26.4337 29.7042L25.5135 30.0215V26.2522L26.4337 25.943V24.3773L25.5135 24.6866V20.8353H25.1368V24.8033L23.7985 25.2664V21.5215H23.4432V25.409L22.5231 25.7191V27.2877L23.4432 26.9785V30.7406L22.5231 31.0489V32.6114L23.4432 32.3022V36.1317H23.7985V32.1655L25.1368 31.7224V35.448H25.5135V31.5823L26.4337 31.2722V29.7042Z"></path></svg>