<svg data-icon="measureEnding432" data-version="v2" class="" width="32" height="32" viewBox="0 0 32 32" fill="currentcolor" xmlns="http://www.w3.org/2000/svg"><path fill-rule="evenodd" clip-rule="evenodd" d="M15.1838 19.9051H14.2057V22.0976H13.2805V19.9051H10.1966V19.1631L13.5744 15.0432H14.2057V19.2739H15.1838V19.9051ZM13.2805 19.2739V16.1177L10.6785 19.2739H13.2805ZM17.5353 19.6667C17.5353 19.8466 17.4703 20 17.3402 20.1269C17.2101 20.2538 17.0551 20.3172 16.8752 20.3172C16.6953 20.3172 16.5403 20.2538 16.4102 20.1269C16.2801 20 16.215 19.8466 16.215 19.6667C16.215 19.4868 16.2801 19.3318 16.4102 19.2017C16.5403 19.0716 16.6953 19.0066 16.8752 19.0066C17.0551 19.0066 17.2101 19.0716 17.3402 19.2017C17.4703 19.3318 17.5353 19.4868 17.5353 19.6667Z"></path><path fill-rule="evenodd" clip-rule="evenodd" d="M7.23684 9C7.10362 9 7 9.10362 7 9.23684V20.3388H7.47368V10.8503H25V9H7.23684Z"></path></svg>