<svg data-icon="measureDaCapo32" data-version="v2" class="" width="32" height="32" viewBox="0 0 32 32" fill="currentcolor" xmlns="http://www.w3.org/2000/svg"><path fill-rule="evenodd" clip-rule="evenodd" d="M15.2173 16.4302C15.2173 15.1729 14.7517 14.2106 13.8825 13.6364C13.3237 13.2639 12.6408 13.1397 11.3215 13.1397H8V13.6364H8.13969C8.63636 13.6364 8.82262 13.6829 8.91574 13.7761C8.97783 13.8537 8.97783 13.8847 8.97783 14.4745V18.5255C8.97783 19.0998 8.97783 19.1463 8.91574 19.2239C8.82262 19.3171 8.63636 19.3636 8.13969 19.3636H8V19.8603H11.4302C12.6098 19.8603 13.3548 19.6896 13.929 19.286C14.7517 18.7118 15.2173 17.7029 15.2173 16.4302ZM13.3548 16.3991C13.3548 18.4479 12.796 19.3636 11.3991 19.3636H11.2129C10.7472 19.3636 10.6541 19.2395 10.6541 18.7583V14.1951C10.6541 13.745 10.7627 13.6364 11.2129 13.6364H11.4457C12.7339 13.6364 13.3548 14.5366 13.3548 16.3991ZM22.9468 17.5322L22.3725 17.3925C22.1086 18.6807 21.3636 19.4257 20.2927 19.4257C19.0355 19.4257 18.4302 18.4634 18.4302 16.4146C18.4302 14.49 19.0355 13.4812 20.184 13.4812C21.2084 13.4812 21.8914 14.1951 22.3104 15.7472L22.8071 15.7007L22.714 13.031H22.3104L21.8137 13.4967C21.1929 13.1242 20.7583 13 20.1064 13C18.0576 13 16.5831 14.49 16.5831 16.5854C16.5831 17.5477 16.878 18.3082 17.4678 18.9756C18.1042 19.6896 18.8958 20 19.9978 20C21.643 20 22.5898 19.1929 22.9468 17.5322ZM16.7073 19.1308C16.7073 18.6341 16.3193 18.2461 15.8226 18.2461C15.3415 18.2461 14.9534 18.6341 14.9534 19.1308C14.9534 19.5965 15.3415 20 15.8226 20C16.3193 20 16.7073 19.612 16.7073 19.1308ZM24.6231 19.1308C24.6231 18.6341 24.235 18.2461 23.7384 18.2461C23.2572 18.2461 22.8692 18.6341 22.8692 19.1308C22.8692 19.5965 23.2572 20 23.7384 20C24.235 20 24.6231 19.612 24.6231 19.1308Z"></path></svg>