<svg data-icon="measureRehearsalCustom24" data-version="v2" class="triggerIcon_U19u_" width="24" height="24" viewBox="0 0 24 24" fill="currentcolor" xmlns="http://www.w3.org/2000/svg"><path fill-rule="evenodd" clip-rule="evenodd" d="M3.21951 7.60988C2.8154 7.60988 2.4878 7.93747 2.4878 8.34158V15.6587C2.4878 16.0628 2.8154 16.3904 3.21951 16.3904H20.7805C21.1846 16.3904 21.5122 16.0628 21.5122 15.6587V8.34158C21.5122 7.93747 21.1846 7.60988 20.7805 7.60988H3.21951ZM2 8.34158C2 7.66806 2.54599 7.12207 3.21951 7.12207H20.7805C21.454 7.12207 22 7.66806 22 8.34158V15.6587C22 16.3322 21.454 16.8782 20.7805 16.8782H3.21951C2.54599 16.8782 2 16.3322 2 15.6587V8.34158Z"></path><path fill-rule="evenodd" clip-rule="evenodd" d="M9.20655 10.9864H8.9436C8.92073 10.8949 8.87945 10.7863 8.81974 10.6606C8.76004 10.5348 8.69334 10.416 8.61966 10.3042C8.54345 10.1874 8.46024 10.0851 8.37005 9.99745C8.27985 9.9098 8.19284 9.85962 8.10899 9.84692C8.03023 9.83676 7.93115 9.82913 7.81174 9.82405C7.69233 9.81897 7.58181 9.81643 7.48018 9.81643H7.25915V14.1419C7.25915 14.2257 7.27693 14.3026 7.3125 14.3725C7.34807 14.4423 7.41031 14.4963 7.49924 14.5344C7.54497 14.5522 7.64088 14.5763 7.78697 14.6068C7.93305 14.6373 8.04675 14.6538 8.12805 14.6564V14.9269H5.5747V14.6564C5.64583 14.6513 5.75445 14.6411 5.90053 14.6259C6.04662 14.6106 6.14761 14.5916 6.20351 14.5687C6.28735 14.5357 6.34896 14.4881 6.38834 14.4258C6.42772 14.3636 6.44741 14.2804 6.44741 14.1762V9.81643H6.22637C6.14761 9.81643 6.0498 9.81834 5.93293 9.82215C5.81606 9.82596 5.70427 9.83421 5.59756 9.84692C5.51372 9.85708 5.4267 9.90726 5.33651 9.99745C5.24632 10.0876 5.16311 10.1899 5.08689 10.3042C5.01067 10.4186 4.94334 10.5399 4.88491 10.6682C4.82647 10.7965 4.78582 10.9026 4.76296 10.9864H4.49619V9.51917H9.20655V10.9864ZM12.8803 14.0428C12.7228 14.3426 12.5119 14.5814 12.2477 14.7593C11.9835 14.9371 11.6799 15.026 11.3369 15.026C11.0346 15.026 10.7697 14.9727 10.5423 14.866C10.3149 14.7593 10.1275 14.6144 9.98018 14.4315C9.83282 14.2486 9.72294 14.0352 9.65053 13.7913C9.57812 13.5474 9.54192 13.2895 9.54192 13.0176C9.54192 12.7737 9.58067 12.5343 9.65816 12.2993C9.73565 12.0643 9.84934 11.8528 9.99924 11.6648C10.1441 11.4844 10.3238 11.3389 10.5385 11.2284C10.7532 11.1179 10.9939 11.0626 11.2607 11.0626C11.5351 11.0626 11.7701 11.1058 11.9657 11.1922C12.1613 11.2786 12.3201 11.3967 12.4421 11.5466C12.5589 11.6889 12.646 11.8566 12.7031 12.0497C12.7603 12.2428 12.7889 12.4524 12.7889 12.6785V12.93H10.3003C10.3003 13.1764 10.3238 13.4 10.3708 13.6007C10.4178 13.8014 10.4921 13.978 10.5938 14.1305C10.6928 14.2778 10.8224 14.394 10.9825 14.4792C11.1425 14.5643 11.3331 14.6068 11.5541 14.6068C11.7802 14.6068 11.9752 14.5541 12.1391 14.4487C12.303 14.3432 12.4611 14.1533 12.6136 13.8789L12.8803 14.0428ZM12.0381 12.6099C12.0381 12.4676 12.026 12.3152 12.0019 12.1526C11.9778 11.99 11.939 11.854 11.8857 11.7448C11.8272 11.6279 11.7472 11.5326 11.6456 11.459C11.544 11.3853 11.4131 11.3484 11.253 11.3484C10.9863 11.3484 10.7646 11.4596 10.588 11.6819C10.4115 11.9042 10.3155 12.2135 10.3003 12.6099H12.0381ZM16.9352 14.9269H15.2127V14.6754C15.327 14.6627 15.4242 14.65 15.5042 14.6373C15.5842 14.6246 15.6242 14.5916 15.6242 14.5382C15.6242 14.5154 15.6115 14.4798 15.5861 14.4315C15.5607 14.3832 15.5353 14.3388 15.5099 14.2981C15.4464 14.1991 15.3594 14.0663 15.2489 13.8999C15.1383 13.7335 15.003 13.5347 14.843 13.3035C14.7109 13.4686 14.5889 13.6293 14.4771 13.7856C14.3653 13.9418 14.2485 14.1076 14.1265 14.2829C14.1087 14.3083 14.0903 14.3401 14.0713 14.3782C14.0522 14.4163 14.0427 14.4468 14.0427 14.4696C14.0427 14.5255 14.0789 14.5719 14.1513 14.6087C14.2237 14.6456 14.3323 14.6703 14.4771 14.683V14.9269H13.0861V14.6907C13.2589 14.6399 13.398 14.5782 13.5034 14.5058C13.6089 14.4334 13.706 14.3439 13.795 14.2372C13.8737 14.1355 13.9836 13.9958 14.1246 13.818C14.2656 13.6401 14.4479 13.3987 14.6715 13.0939C14.5419 12.9084 14.3838 12.6817 14.197 12.4136C14.0103 12.1456 13.8559 11.9226 13.734 11.7448C13.6679 11.6482 13.5924 11.5701 13.5072 11.5104C13.4221 11.4507 13.3021 11.4209 13.1471 11.4209V11.1693H14.782V11.4209C14.7007 11.4209 14.6207 11.4259 14.5419 11.4361C14.4632 11.4463 14.4238 11.4691 14.4238 11.5047C14.4238 11.5276 14.4314 11.553 14.4466 11.5809C14.4619 11.6089 14.4809 11.6393 14.5038 11.6724C14.5597 11.7588 14.6467 11.8921 14.7649 12.0725C14.883 12.2529 15.0107 12.4435 15.1479 12.6442C15.2368 12.5222 15.3403 12.3799 15.4585 12.2173C15.5766 12.0547 15.6852 11.8998 15.7843 11.7524C15.7945 11.7346 15.8046 11.7124 15.8148 11.6857C15.8249 11.659 15.83 11.633 15.83 11.6076C15.83 11.5542 15.7862 11.5117 15.6986 11.4799C15.6109 11.4482 15.5277 11.4259 15.4489 11.4132V11.1693H16.8361V11.4056C16.6405 11.4564 16.4881 11.5168 16.3788 11.5866C16.2696 11.6565 16.1768 11.7372 16.1006 11.8286C16.0168 11.9328 15.917 12.0611 15.8014 12.2135C15.6858 12.366 15.5239 12.5794 15.3155 12.8538C15.5467 13.179 15.7348 13.4457 15.8796 13.6541C16.0244 13.8624 16.1705 14.0771 16.3178 14.2981C16.3915 14.4099 16.4734 14.4982 16.5636 14.563C16.6538 14.6278 16.7777 14.6653 16.9352 14.6754V14.9269ZM19.5762 14.7631C19.4111 14.8317 19.2548 14.8895 19.1075 14.9365C18.9601 14.9835 18.7797 15.007 18.5663 15.007C18.2513 15.007 18.0296 14.9276 17.9013 14.7688C17.773 14.61 17.7088 14.3858 17.7088 14.0962V11.5504H17.0305V11.1846H17.7241V10.0146H18.4177V11.1846H19.4962V11.5504H18.4253V13.6503C18.4253 13.8078 18.431 13.9393 18.4425 14.0447C18.4539 14.1501 18.4812 14.2422 18.5244 14.321C18.565 14.3947 18.626 14.4506 18.7073 14.4887C18.7886 14.5268 18.8979 14.5459 19.0351 14.5459C19.0986 14.5459 19.1919 14.5401 19.3152 14.5287C19.4384 14.5173 19.5254 14.5027 19.5762 14.4849V14.7631Z"></path></svg>