<svg data-icon="measureRepeat24" data-version="v2" class="" width="24" height="24" viewBox="0 0 24 24" fill="currentcolor" xmlns="http://www.w3.org/2000/svg"><path d="M15.255 12.9235C15.834 12.9235 16.297 13.3865 16.297 13.9655C16.297 14.5275 15.834 14.9905 15.255 14.9905C14.9836 14.9892 14.7236 14.8808 14.5317 14.6888C14.3397 14.4969 14.2313 14.2369 14.23 13.9655C14.23 13.3865 14.693 12.9235 15.255 12.9235ZM8.525 8.8065C9.104 8.8065 9.567 9.2695 9.567 9.848C9.567 10.41 9.104 10.873 8.525 10.873C8.25356 10.8717 7.99361 10.7633 7.80167 10.5713C7.60973 10.3794 7.50131 10.1194 7.5 9.848C7.5 9.2695 7.963 8.8065 8.525 8.8065ZM16.214 7.748L9.6165 16.0155C9.534 16.115 9.418 16.247 9.2695 16.247H7.6325C7.5495 16.247 7.5 16.1975 7.5 16.1315C7.5 16.0985 7.5165 16.049 7.55 16.0155L14.147 7.748C14.263 7.599 14.3455 7.5 14.445 7.5H16.1975C16.264 7.5 16.297 7.533 16.297 7.5825C16.297 7.6325 16.264 7.682 16.214 7.748Z"></path></svg>