<svg data-icon="measureRepeatXtimes32" data-version="v2" class="triggerIcon_diYnW" width="32" height="32" viewBox="0 0 32 32" fill="currentcolor" xmlns="http://www.w3.org/2000/svg"><path d="M15.9578 19.7348V18.8198H11.7486C11.8419 18.4394 12.0679 18.0931 12.4268 17.7809C12.6277 17.6051 12.9041 17.4203 13.2557 17.2265L13.9931 16.8175C14.6426 16.455 15.093 16.1464 15.3442 15.8916C15.7784 15.4539 15.9955 14.9264 15.9955 14.3091C15.9955 13.7242 15.7918 13.1931 15.3845 12.7159C14.9773 12.2386 14.3322 12 13.4495 12C12.3873 12 11.6463 12.3732 11.2265 13.1196C10.9896 13.543 10.8658 14.0903 10.8551 14.7613H11.8401C11.8544 14.284 11.9298 13.9108 12.0662 13.6417C12.3209 13.1393 12.7803 12.8881 13.4441 12.8881C13.8927 12.8881 14.2515 13.02 14.5206 13.2838C14.7898 13.5475 14.9243 13.9037 14.9243 14.3522C14.9243 14.7362 14.7772 15.0771 14.483 15.3749C14.2964 15.5651 13.9716 15.7948 13.5087 16.0639L12.4752 16.6614C11.7827 17.0633 11.3171 17.51 11.0784 18.0016C10.8398 18.4932 10.7026 19.071 10.6667 19.7348H15.9578ZM17.7394 19.7348L19.1282 17.571L20.5599 19.7348H21.7979L19.7687 16.7798L21.7118 13.997L20.533 13.97L19.1928 15.9993L17.8686 13.97H16.6145L18.5415 16.7798L16.5122 19.7348H17.7394Z"></path></svg>