<svg data-icon="measureRehearsalNumber24" data-version="v2" class="" width="24" height="24" viewBox="0 0 24 24" fill="currentcolor" xmlns="http://www.w3.org/2000/svg"><path fill-rule="evenodd" clip-rule="evenodd" d="M16.8055 6C17.4652 6 18 6.53893 18 7.19448V16.8055C18 17.4652 17.4611 18 16.8055 18H7.19448C6.53479 18 6 17.4611 6 16.8055V7.19448C6 6.53479 6.53893 6 7.19448 6H16.8055ZM16.8055 6.6H7.19448C6.86855 6.6 6.6 6.86791 6.6 7.19448V16.8055C6.6 17.1315 6.86791 17.4 7.19448 17.4H16.8055C17.1315 17.4 17.4 17.1321 17.4 16.8055V7.19448C17.4 6.86855 17.1321 6.6 16.8055 6.6ZM12.7282 9.12539C12.7164 9.3793 12.7047 9.67617 12.693 10.016C12.6813 10.3559 12.6754 10.6605 12.6754 10.9301V14.4047C12.6754 14.5414 12.7057 14.6635 12.7662 14.7709C12.8268 14.8783 12.9137 14.9574 13.027 15.0082C13.1285 15.0512 13.2946 15.0902 13.525 15.1254C13.7555 15.1605 13.9274 15.1801 14.0407 15.184V15.6H10.0914V15.184C10.2086 15.1762 10.3912 15.1596 10.6393 15.1342C10.8873 15.1088 11.0582 15.0824 11.152 15.0551C11.2731 15.016 11.3659 14.9525 11.4303 14.8646C11.4948 14.7768 11.527 14.6449 11.527 14.4691V10.3559H10.068V9.86367H10.3903C10.8121 9.86367 11.1901 9.78555 11.5241 9.6293C11.858 9.47305 12.0973 9.30508 12.2418 9.12539H12.7282Z"></path></svg>