<svg data-icon="measureTempo24" data-version="v2" class="triggerIcon_ZZVM2" width="24" height="24" viewBox="0 0 24 24" fill="currentcolor" xmlns="http://www.w3.org/2000/svg"><path fill-rule="evenodd" clip-rule="evenodd" d="M10.5749 5V16.4094C10.5749 17.7185 8.87998 19 7.50203 19C6.66148 19 6.00006 18.5177 6.00006 17.7047C6.00006 16.3681 7.36423 15.1142 9.05912 15.1142C9.51384 15.1142 9.89967 15.2382 10.1615 15.4724V5H10.5749ZM14.5412 7.75591C14.7279 7.75591 14.9187 7.90197 14.9683 8.08799L15.7117 10.8763L17.0236 9.26132C17.1434 9.11319 17.3605 9.09114 17.5086 9.21102C17.656 9.33091 17.6788 9.54793 17.5582 9.69537L15.9308 11.6989L17.5472 17.7585C17.5961 17.9417 17.4838 18.0906 17.2923 18.0906H16.2574V18.435C16.2574 18.6252 16.11 18.7795 15.9102 18.7795H15.2274C15.0352 18.7795 14.8795 18.6197 14.8795 18.435V18.0906L11.4574 18.0912C11.5901 17.8705 11.6996 17.6399 11.7816 17.4023L16.739 17.4016L16.1878 15.3346H11.9521V14.6457H12.6486L15.175 11.537L14.3503 8.44488H11.9521V7.75591H14.5412ZM13.8527 16.0236C14.0395 16.0236 14.1903 16.1835 14.1903 16.3681C14.1903 16.5583 14.0422 16.7126 13.8527 16.7126L11.9367 16.7133C11.9473 16.6127 11.9528 16.5113 11.9528 16.4094L11.9521 16.0236H13.8527ZM15.3941 12.3596L13.5366 14.6457H16.0039L15.3941 12.3596ZM13.1539 11.8898C13.3461 11.8898 13.5018 12.0496 13.5018 12.2343C13.5018 12.4244 13.3544 12.5787 13.1539 12.5787H12.4711C12.2796 12.5787 12.1239 12.4189 12.1239 12.2343C12.1239 12.0441 12.2713 11.8898 12.4711 11.8898H13.1539ZM13.1542 10.5118C13.3457 10.5118 13.5014 10.6717 13.5014 10.8563C13.5014 11.0465 13.354 11.2008 13.1542 11.2008H12.4714C12.2792 11.2008 12.1235 11.0409 12.1235 10.8563C12.1235 10.6661 12.2709 10.5118 12.4714 10.5118H13.1542ZM13.1542 9.13386C13.3457 9.13386 13.5014 9.2937 13.5014 9.47835C13.5014 9.6685 13.354 9.82283 13.1542 9.82283H12.4714C12.2792 9.82283 12.1235 9.66299 12.1235 9.47835C12.1235 9.28819 12.2709 9.13386 12.4714 9.13386H13.1542Z"></path></svg>