<svg data-icon="measureSegno32" data-version="v2" class="" width="32" height="32" viewBox="0 0 32 32" fill="currentcolor" xmlns="http://www.w3.org/2000/svg"><path fill-rule="evenodd" clip-rule="evenodd" d="M18.3664 13.9644C18.3664 14.5954 18.8957 15.1247 19.5267 15.1247C20.1781 15.1247 20.687 14.5954 20.687 13.9644C20.687 13.313 20.1781 12.8041 19.5267 12.8041C18.8957 12.8041 18.3664 13.313 18.3664 13.9644ZM12.7684 18.0763C12.7684 17.4453 12.2595 16.916 11.6081 16.916C10.9771 16.916 10.4478 17.4453 10.4478 18.0763C10.4478 18.7277 10.9771 19.2366 11.6081 19.2366C12.2595 19.2366 12.7684 18.7277 12.7684 18.0763ZM12.6667 9.91349C12.7888 9.91349 12.9313 9.9542 12.9924 10.1781L13.0331 10.3206C13.1756 10.8702 13.4809 12.0712 14.5191 12.0712C14.7023 12.0712 14.8855 12.0509 15.1094 11.9695C15.6997 11.7659 15.9237 11.2774 15.9237 10.7074C15.9237 10.402 15.8626 10.0763 15.7608 9.75064C15.4351 8.81425 14.0712 8.46819 13.0331 8.46819C11.6081 8.46819 10 10.2188 10 12.2341C10 12.7226 10.1018 13.2316 10.3257 13.7405C10.9771 15.2265 13.9288 17.0382 14.0916 17.0992C14.173 17.14 14.2137 17.1807 14.2137 17.2621C14.2137 17.3435 14.173 17.4453 14.0916 17.5878C13.9491 17.8728 11.0178 23.145 11.0178 23.145C10.9771 23.2265 10.9567 23.3282 10.9567 23.4097C10.9567 23.6132 11.0585 23.8168 11.2417 23.9186C11.3435 23.9796 11.4249 24 11.5267 24C11.7303 24 11.9338 23.8779 12.0356 23.6947C12.0356 23.6947 15.1908 17.9949 15.2519 17.8728C15.2519 17.8931 15.4148 17.771 15.4962 17.771C15.8015 17.8321 19.8728 19.0331 19.8728 20.9669C19.8728 21.7608 19.3842 22.2901 18.7328 22.3919C18.6921 22.3919 18.631 22.4122 18.5903 22.4122C18.2036 22.4122 17.8575 22.1272 17.8575 21.4962V21.2723C17.8575 20.4987 17.3486 19.9288 16.7786 19.9288C16.6972 19.9288 16.6158 19.9491 16.5344 19.9695C15.7812 20.1527 15.0891 20.4784 15.0891 21.2926C15.0891 21.374 15.0891 21.4555 15.1094 21.5573C15.2519 22.4326 16.1679 23.6132 17.5522 23.6132C17.8168 23.6132 18.1018 23.5725 18.4071 23.4707C20.0356 22.9211 21.1145 21.598 21.1145 19.9084C21.1145 19.7252 21.0941 19.5216 21.0738 19.3181C20.7684 17.0789 17.5522 15.2672 17.3079 15.145C17.0636 15.0025 16.9618 14.9211 16.9618 14.8193C16.9618 14.7786 16.9822 14.7379 17.0025 14.6972C17.1043 14.5344 20.2595 8.85496 20.2595 8.85496C20.3206 8.75318 20.341 8.67176 20.341 8.56998C20.341 8.36641 20.2188 8.16285 20.0356 8.06107C19.9542 8.02036 19.8524 8 19.771 8C19.5674 8 19.3639 8.10178 19.2621 8.28499C19.2621 8.28499 16.0254 14.1272 15.9033 14.3104C15.8422 14.4122 15.8015 14.4733 15.7201 14.4733C15.659 14.4733 15.598 14.4529 15.5165 14.4122C15.3333 14.3511 12.2595 13.1705 11.7303 12.2545C11.6081 12.0305 11.4453 11.6031 11.4453 11.1756C11.4453 10.626 11.6896 10.056 12.5445 9.91349H12.6667Z"></path></svg>