<svg data-icon="measureAtempo32" data-version="v2" class="" width="32" height="32" viewBox="0 0 32 32" fill="currentcolor" xmlns="http://www.w3.org/2000/svg"><path d="M2.54146 18.7789C2.2208 18.7789 1.97228 18.68 1.79592 18.4823C1.61955 18.2792 1.53137 17.9959 1.53137 17.6325C1.53137 17.3065 1.5955 16.9885 1.72377 16.6786C1.85203 16.3632 2.02305 16.0773 2.23683 15.8208C2.4506 15.5643 2.6911 15.3612 2.95832 15.2115C3.22554 15.0565 3.49543 14.979 3.76799 14.979C4.12607 14.979 4.37992 15.1073 4.52957 15.3638C4.68455 15.615 4.70059 15.933 4.57767 16.3178L4.43337 16.3098L4.8342 15.0913H5.97255L5.08271 17.8329C4.97582 18.1483 4.99186 18.3059 5.13081 18.3059C5.19494 18.3059 5.26709 18.2632 5.34726 18.1776C5.42742 18.0868 5.51026 17.9559 5.59577 17.7848L5.82023 17.9211C5.69731 18.199 5.53164 18.4128 5.32321 18.5624C5.11478 18.7067 4.8823 18.7789 4.62577 18.7789C4.31579 18.7789 4.11538 18.6693 4.02452 18.4502C3.93901 18.2257 3.96841 17.8971 4.11271 17.4642L4.22494 17.6165C4.04323 17.9746 3.80006 18.2578 3.49543 18.4662C3.1908 18.6747 2.87281 18.7789 2.54146 18.7789ZM3.11064 18.2498C3.24959 18.2498 3.38854 18.1937 3.5275 18.0815C3.67179 17.9639 3.8054 17.8035 3.92832 17.6005C4.05125 17.392 4.15813 17.1489 4.24899 16.8709C4.30243 16.716 4.34251 16.5663 4.36924 16.422C4.39596 16.2777 4.40932 16.1495 4.40932 16.0372C4.40932 15.8662 4.37725 15.7379 4.31312 15.6524C4.25433 15.5616 4.16615 15.5162 4.04857 15.5162C3.90962 15.5162 3.76265 15.5883 3.60766 15.7326C3.45802 15.8716 3.31639 16.0533 3.18278 16.2777C3.04917 16.5022 2.93962 16.7427 2.85411 16.9992C2.77394 17.2557 2.73386 17.5016 2.73386 17.7367C2.73386 18.0788 2.85945 18.2498 3.11064 18.2498Z"></path><path d="M8.97099 18.7789C8.61826 18.7789 8.38846 18.6854 8.28157 18.4983C8.17468 18.3113 8.18804 18.0173 8.32165 17.6165L9.52414 13.9609H10.6946L9.41992 17.8329C9.31838 18.1483 9.35579 18.3059 9.53215 18.3059C9.62301 18.3059 9.71653 18.2632 9.81273 18.1776C9.90893 18.0921 10.0105 17.9585 10.1174 17.7768L10.3338 17.9211C10.1949 18.2044 10.0105 18.4181 9.78067 18.5624C9.5562 18.7067 9.28631 18.7789 8.97099 18.7789ZM8.49802 15.4119L8.60223 15.0913H9.50009L9.38785 15.4119H8.49802ZM9.8929 15.4119L10.0131 15.0913H11.1755L11.0713 15.4119H9.8929Z"></path><path d="M12.3891 18.7789C11.9187 18.7789 11.5473 18.6533 11.2748 18.4021C11.0022 18.1456 10.8659 17.8009 10.8659 17.368C10.8659 17.0527 10.9354 16.7534 11.0743 16.4701C11.2133 16.1815 11.403 15.9277 11.6435 15.7085C11.884 15.4841 12.1566 15.3077 12.4612 15.1795C12.7658 15.0458 13.0865 14.979 13.4232 14.979C13.7652 14.979 14.0431 15.0485 14.2569 15.1875C14.4707 15.3264 14.5776 15.5135 14.5776 15.7486C14.5776 16.0426 14.4039 16.2964 14.0565 16.5102C13.7091 16.724 13.2415 16.8549 12.6536 16.903L11.7718 16.9752L11.7958 16.7267L12.4051 16.6385C12.7632 16.585 13.0411 16.4701 13.2388 16.2938C13.4366 16.1174 13.5354 15.9009 13.5354 15.6444C13.5354 15.3932 13.4499 15.2676 13.2789 15.2676C13.1453 15.2676 13.0063 15.3425 12.862 15.4921C12.7177 15.6364 12.5815 15.8261 12.4532 16.0613C12.3249 16.2911 12.2207 16.5423 12.1405 16.8148C12.0604 17.0821 12.0203 17.3359 12.0203 17.5764C12.0203 17.8383 12.0737 18.0387 12.1806 18.1776C12.2929 18.3166 12.4585 18.3861 12.6777 18.3861C12.8807 18.3861 13.0785 18.3273 13.2709 18.2097C13.4633 18.0868 13.6477 17.9024 13.824 17.6566L14.0405 17.8329C13.8748 18.1376 13.6503 18.3727 13.3671 18.5384C13.0838 18.6987 12.7578 18.7789 12.3891 18.7789Z"></path><path d="M19.8973 18.7789C19.5766 18.7789 19.3708 18.6827 19.28 18.4903C19.1891 18.2979 19.2105 18.0066 19.3441 17.6165L19.8652 16.0933C19.9293 15.9063 19.9427 15.762 19.9053 15.6604C19.8679 15.5589 19.785 15.5081 19.6568 15.5081C19.5231 15.5081 19.3842 15.5589 19.2399 15.6604C19.1009 15.7566 18.9727 15.8903 18.8551 16.0613C18.7375 16.227 18.644 16.414 18.5745 16.6224L17.9091 18.6667H16.7467L17.5805 16.0933C17.6393 15.9063 17.6499 15.762 17.6125 15.6604C17.5805 15.5589 17.4976 15.5081 17.364 15.5081C17.2625 15.5081 17.1556 15.5429 17.0434 15.6123C16.9365 15.6818 16.8296 15.778 16.7227 15.9009C16.6212 16.0239 16.525 16.1682 16.4341 16.3338C16.3432 16.4942 16.2658 16.6679 16.2016 16.8549L15.6004 18.6667H14.438L15.3519 15.941C15.4267 15.7219 15.4427 15.5723 15.4 15.4921C15.3572 15.4066 15.2396 15.3638 15.0472 15.3638H14.8789L14.9671 15.0913L16.7307 15.0672L16.4181 16.1735L16.3139 15.9811C16.5169 15.6765 16.7761 15.4333 17.0915 15.2516C17.4121 15.0699 17.7355 14.979 18.0615 14.979C18.3928 14.979 18.6173 15.0833 18.7349 15.2917C18.8524 15.5001 18.8498 15.7887 18.7268 16.1575L18.5825 16.0212C18.791 15.6952 19.0502 15.4413 19.3601 15.2596C19.6755 15.0726 20.0015 14.979 20.3382 14.979C20.6856 14.979 20.9127 15.0886 21.0196 15.3077C21.1318 15.5268 21.1158 15.8475 20.9715 16.2697L20.4424 17.8329C20.3889 17.9879 20.3649 18.1055 20.3702 18.1857C20.3809 18.2658 20.421 18.3059 20.4905 18.3059C20.56 18.3059 20.6321 18.2605 20.7069 18.1696C20.7871 18.0788 20.8699 17.9478 20.9554 17.7768L21.1799 17.9211C20.918 18.493 20.4905 18.7789 19.8973 18.7789Z"></path><path d="M20.0018 20.9113L20.09 20.6387H20.3145C20.4695 20.6387 20.5924 20.5933 20.6833 20.5025C20.7741 20.4169 20.8543 20.2726 20.9238 20.0696L22.2786 15.941C22.3534 15.7166 22.3694 15.5642 22.3267 15.4841C22.2839 15.4039 22.1663 15.3638 21.9739 15.3638H21.8056L21.8938 15.0913L23.6574 15.0672L23.4169 15.909L23.1524 16.0933C23.3554 15.7406 23.5959 15.4681 23.8738 15.2757C24.1571 15.0779 24.4457 14.979 24.7396 14.979C25.071 14.979 25.3302 15.0939 25.5172 15.3238C25.7096 15.5482 25.8058 15.8582 25.8058 16.2537C25.8058 16.5743 25.7471 16.887 25.6295 17.1916C25.5119 17.4909 25.3516 17.7608 25.1485 18.0013C24.9454 18.2418 24.7156 18.4315 24.4591 18.5705C24.2025 18.7094 23.938 18.7789 23.6654 18.7789C23.3127 18.7789 23.0481 18.6586 22.8718 18.4181C22.6954 18.1723 22.6393 17.849 22.7034 17.4481H22.9359L22.0862 20.0615C22.0167 20.286 22.0006 20.4383 22.0381 20.5185C22.0808 20.5987 22.1984 20.6387 22.3908 20.6387H22.5591L22.479 20.9113H20.0018ZM23.3929 18.2418C23.5318 18.2418 23.6734 18.1803 23.8177 18.0574C23.962 17.9291 24.093 17.7635 24.2105 17.5604C24.3281 17.3519 24.4216 17.1221 24.4911 16.8709C24.5659 16.6198 24.6034 16.3713 24.6034 16.1254C24.6034 15.9223 24.5686 15.77 24.4991 15.6685C24.435 15.5616 24.3361 15.5081 24.2025 15.5081C24.0849 15.5081 23.962 15.5562 23.8338 15.6524C23.7108 15.7433 23.5959 15.8689 23.4891 16.0292C23.3822 16.1842 23.294 16.3632 23.2245 16.5663L23.1123 16.895C23.0214 17.1622 22.9733 17.3974 22.968 17.6005C22.9626 17.8035 22.9947 17.9612 23.0642 18.0734C23.139 18.1857 23.2486 18.2418 23.3929 18.2418Z"></path><path d="M27.586 18.7789C27.276 18.7789 27.0088 18.7254 26.7843 18.6186C26.5652 18.5063 26.3942 18.3487 26.2712 18.1456C26.1537 17.9372 26.0949 17.6913 26.0949 17.4081C26.0949 17.0821 26.1617 16.7748 26.2953 16.4862C26.4289 16.1922 26.6133 15.933 26.8484 15.7085C27.0836 15.4787 27.3535 15.2997 27.6581 15.1714C27.9627 15.0432 28.2834 14.979 28.6201 14.979C28.9301 14.979 29.1946 15.0352 29.4137 15.1474C29.6382 15.2543 29.8092 15.4093 29.9268 15.6123C30.0444 15.8154 30.1032 16.0613 30.1032 16.3499C30.1032 16.6759 30.0364 16.9859 29.9027 17.2798C29.7691 17.5684 29.5848 17.8249 29.3496 18.0494C29.1144 18.2738 28.8446 18.4529 28.5399 18.5865C28.2406 18.7148 27.9227 18.7789 27.586 18.7789ZM27.6421 18.4181C27.7596 18.4181 27.8772 18.37 27.9948 18.2738C28.1177 18.1776 28.2326 18.0467 28.3395 17.881C28.4517 17.7154 28.5506 17.5283 28.6361 17.3199C28.727 17.1061 28.7965 16.8843 28.8446 16.6545C28.898 16.4194 28.9247 16.1895 28.9247 15.9651C28.9247 15.762 28.8927 15.607 28.8285 15.5001C28.7697 15.3932 28.6789 15.3398 28.556 15.3398C28.4384 15.3398 28.3181 15.3879 28.1952 15.4841C28.0776 15.5803 27.9627 15.7139 27.8505 15.8849C27.7436 16.0506 27.6447 16.2403 27.5539 16.4541C27.4684 16.6625 27.3989 16.8843 27.3455 17.1195C27.2974 17.3493 27.2733 17.5764 27.2733 17.8009C27.2733 17.9986 27.3054 18.1509 27.3695 18.2578C27.4336 18.3647 27.5245 18.4181 27.6421 18.4181Z"></path></svg>