<svg data-icon="measureAddOnLeft24" data-version="v2" class="" width="24" height="24" viewBox="0 0 24 24" fill="currentcolor" xmlns="http://www.w3.org/2000/svg"><path fill-rule="evenodd" clip-rule="evenodd" d="M5.9375 9.96875C6.16355 9.96887 6.3318 10.1596 6.33203 10.3789V11.4893H7.44141C7.65989 11.4894 7.85246 11.6586 7.85254 11.8848C7.85237 12.1108 7.65984 12.2802 7.44141 12.2803H6.33203V13.3906C6.3318 13.603 6.16532 13.8007 5.9375 13.8008C5.70962 13.8007 5.5432 13.6031 5.54297 13.3906V12.2803H4.43359C4.21507 12.2803 4.02263 12.1109 4.02246 11.8848C4.02255 11.6586 4.21502 11.4893 4.43359 11.4893H5.54297V10.3789C5.5432 10.1595 5.71139 9.96881 5.9375 9.96875ZM7.44141 12.1318H6.18359V13.3906L6.18457 12.1328L7.44141 12.1318ZM6.16504 10.2764C6.1774 10.3077 6.18358 10.3424 6.18359 10.3789C6.18357 10.3606 6.183 10.3424 6.17969 10.3252C6.17637 10.3079 6.17133 10.2922 6.16504 10.2764Z"></path><path fill-rule="evenodd" clip-rule="evenodd" d="M10.3799 7.2334H8.21094C8.01394 7.23349 7.85352 7.39443 7.85352 7.59082V8.44727C9.05827 9.12037 9.87495 10.407 9.875 11.8848C9.87489 13.3624 9.05807 14.6482 7.85352 15.3213V16.1797C7.85389 16.3758 8.01417 16.537 8.21094 16.5371H10.3799V17.3379H8.21094C7.57112 17.3378 7.05311 16.8164 7.05273 16.1797V15.6582C6.69884 15.7627 6.32491 15.8222 5.9375 15.8223C3.76286 15.8222 2.00114 14.0578 2.00098 11.8848C2.00106 9.71167 3.76281 7.9483 5.9375 7.94824C6.32488 7.94826 6.69886 8.00689 7.05273 8.11133V7.59082C7.05273 6.94822 7.57137 6.43271 8.21094 6.43262H10.3799V7.2334ZM7.22656 16.3975C7.23256 16.4247 7.2369 16.4521 7.24512 16.4785C7.25495 16.5101 7.26652 16.5411 7.2793 16.5713C7.30299 16.6272 7.33227 16.6802 7.36523 16.7305C7.29976 16.6304 7.25347 16.5176 7.22656 16.3975ZM5.9375 8.74902C4.20546 8.74908 2.80184 10.1527 2.80176 11.8848C2.80192 13.6167 4.20552 15.0214 5.9375 15.0215C7.66943 15.0214 9.07405 13.6167 9.07422 11.8848C9.07414 10.1528 7.66948 8.74914 5.9375 8.74902Z"></path><path fill-rule="evenodd" clip-rule="evenodd" d="M22 16.1797C21.9996 16.8164 21.481 17.3377 20.8418 17.3379H18.6729V16.5371H20.8418C21.0385 16.5369 21.1988 16.3757 21.1992 16.1797V14.0107H22V16.1797ZM21.8516 16.1787C21.8516 16.2135 21.8509 16.2482 21.8477 16.2822C21.8511 16.2485 21.8525 16.2143 21.8525 16.1797V14.1582L21.8516 16.1787Z"></path><path d="M13.75 10.0752C13.8862 9.94803 14.0905 9.93379 14.2422 10.0322L14.3047 10.082L14.3066 10.084C14.4404 10.2214 14.4606 10.4308 14.3564 10.585L14.2979 10.6533L13.3311 11.4844H17.0527C17.2721 11.4846 17.453 11.661 17.4531 11.8848C17.453 12.1085 17.272 12.2849 17.0527 12.2852H13.332L14.2969 13.1113L14.3076 13.1201C14.4618 13.2786 14.461 13.5272 14.3066 13.6855L14.3047 13.6885C14.1514 13.8385 13.9058 13.8392 13.75 13.6934L12.0068 12.1992L12.0049 12.1982C12.0032 12.1973 12.0006 12.1958 11.998 12.1943L11.9814 12.1846L11.9678 12.1709C11.8883 12.0906 11.8501 11.9857 11.8516 11.8828C11.8511 11.7812 11.8894 11.6779 11.9678 11.5986L11.9795 11.5869L11.9941 11.5781C12.0032 11.5725 12.0126 11.5671 12.0176 11.5645L13.75 10.0752Z"></path><path d="M20.8418 6.43262C21.4807 6.4328 22 6.94824 22 7.59082V9.75879H21.1992V7.59082C21.1992 7.39449 21.0387 7.23359 20.8418 7.2334H18.6729V6.43262H20.8418Z"></path></svg>