<svg data-icon="measureRepeatLeft32" data-version="v2" class="" width="32" height="32" viewBox="0 0 32 32" fill="currentcolor" xmlns="http://www.w3.org/2000/svg"><path fill-rule="evenodd" clip-rule="evenodd" d="M16.1613 24H16.7373V8H16.1613V24ZM13.0893 24H15.0893V8H13.0893V24ZM18.1453 18.88C18.5933 18.88 18.9453 18.528 18.9453 18.08C18.9453 17.648 18.5933 17.28 18.1453 17.28C17.7133 17.28 17.3453 17.648 17.3453 18.08C17.3453 18.528 17.7133 18.88 18.1453 18.88ZM18.1453 14.848C18.5933 14.848 18.9453 14.496 18.9453 14.048C18.9453 13.6 18.5933 13.248 18.1453 13.248C17.7133 13.248 17.3453 13.6 17.3453 14.048C17.3453 14.496 17.7133 14.848 18.1453 14.848Z"></path></svg>