<svg data-icon="measureAdd24" data-version="v2" class="" width="24" height="24" viewBox="0 0 24 24" fill="currentcolor" xmlns="http://www.w3.org/2000/svg"><path d="M5.30176 16.2417C5.30205 16.4392 5.46303 16.6008 5.66113 16.6011H7.83691V17.4028H5.66113C5.01977 17.4026 4.5003 16.88 4.5 16.2417V14.0659H5.30176V16.2417Z"></path><path d="M19.5 16.2417C19.4997 16.8801 18.9797 17.4026 18.3389 17.4028H16.1631V16.6011H18.3389C18.537 16.6008 18.6979 16.4392 18.6982 16.2417V14.0659H19.5V16.2417Z"></path><path fill-rule="evenodd" clip-rule="evenodd" d="M12 10.0093C12.2264 10.0093 12.3945 10.2007 12.3945 10.4204V11.5356H13.5098C13.7285 11.5358 13.9209 11.7049 13.9209 11.9312C13.9208 12.1573 13.7284 12.3266 13.5098 12.3267H12.3945V13.4419C12.3944 13.6546 12.2281 13.853 12 13.853C11.7719 13.853 11.6056 13.6546 11.6055 13.4419V12.3267H10.4902C10.2716 12.3265 10.0792 12.1573 10.0791 11.9312C10.0791 11.7049 10.2716 11.5358 10.4902 11.5356H11.6055V10.4204C11.6055 10.2007 11.7736 10.0093 12 10.0093ZM10.4365 12.1743L10.4902 12.1792C10.4538 12.1792 10.4192 12.1722 10.3877 12.1597L10.4365 12.1743Z"></path><path d="M7.83691 7.26123H5.66113C5.46301 7.26149 5.30202 7.42311 5.30176 7.62061V9.79639H4.5V7.62061C4.50026 6.97668 5.02022 6.45973 5.66113 6.45947H7.83691V7.26123Z"></path><path d="M18.3389 6.45947C18.9792 6.45971 19.4997 6.97662 19.5 7.62061V9.79639H18.6982V7.62061C18.698 7.4231 18.537 7.26147 18.3389 7.26123H16.1631V6.45947H18.3389Z"></path></svg>