<svg data-icon="measureRepeatRight32" data-version="v2" class="" width="32" height="32" viewBox="0 0 32 32" fill="currentcolor" xmlns="http://www.w3.org/2000/svg"><path fill-rule="evenodd" clip-rule="evenodd" d="M15.784 24V8H15.208V24H15.784ZM18.856 8H16.856V24H18.856V8ZM13.8 13.12C13.352 13.12 13 13.472 13 13.92C13 14.352 13.352 14.72 13.8 14.72C14.232 14.72 14.6 14.352 14.6 13.92C14.6 13.472 14.232 13.12 13.8 13.12ZM13.8 17.152C13.352 17.152 13 17.504 13 17.952C13 18.4 13.352 18.752 13.8 18.752C14.232 18.752 14.6 18.4 14.6 17.952C14.6 17.504 14.232 17.152 13.8 17.152Z"></path></svg>