<svg data-icon="measurePageBreak24" data-version="v2" class="" width="24" height="24" viewBox="0 0 24 24" fill="currentcolor" xmlns="http://www.w3.org/2000/svg"><path fill-rule="evenodd" clip-rule="evenodd" d="M15.9375 6.55143H8.0625C7.70006 6.55143 7.40625 6.84991 7.40625 7.2181V16.5514C7.40625 16.9196 7.70006 17.2181 8.0625 17.2181H15.9375C16.2999 17.2181 16.5938 16.9196 16.5938 16.5514V7.2181C16.5938 6.84991 16.2999 6.55143 15.9375 6.55143ZM8.0625 5.88477C7.33763 5.88477 6.75 6.48172 6.75 7.2181V16.5514C6.75 17.2878 7.33763 17.8848 8.0625 17.8848H15.9375C16.6624 17.8848 17.25 17.2878 17.25 16.5514V7.2181C17.25 6.48172 16.6624 5.88477 15.9375 5.88477H8.0625Z"></path><path fill-rule="evenodd" clip-rule="evenodd" d="M6.4 11.5318H5V10.8259H6.4V11.5318ZM9.9 11.5318H7.1V10.8259H9.9V11.5318ZM13.4 11.5318H10.6V10.8259H13.4V11.5318ZM16.9 11.5318H14.1V10.8259H16.9V11.5318ZM19 11.5318H17.6V10.8259H19V11.5318Z"></path><path fill-rule="evenodd" clip-rule="evenodd" d="M8.5 14.3554L10.95 12.2377V16.473L8.5 14.3554Z"></path><path fill-rule="evenodd" clip-rule="evenodd" d="M14.45 9.06124H10.95V8.35535H14.45C15.0299 8.35535 15.5 8.82941 15.5 9.41418V13.6495C15.5 14.2342 15.0299 14.7083 14.45 14.7083H10.95V14.0024H14.45C14.6433 14.0024 14.8 13.8444 14.8 13.6495V9.41418C14.8 9.21925 14.6433 9.06124 14.45 9.06124Z"></path></svg>