<svg data-icon="measureMultiMeasureRest32" data-version="v2" class="triggerIcon_n9h3W" width="32" height="32" viewBox="0 0 32 32" fill="currentcolor" xmlns="http://www.w3.org/2000/svg"><path d="M27.5087 9.65234C27.7855 9.65234 27.9997 9.87188 27.9999 10.1523V25.7705C28.0012 25.8356 27.9897 25.9004 27.9657 25.9609C27.9416 26.0216 27.905 26.0765 27.8593 26.123C27.8136 26.1695 27.7592 26.2064 27.6991 26.2314C27.6389 26.2566 27.5739 26.2698 27.5087 26.2695C27.4436 26.2698 27.3793 26.2564 27.3192 26.2314C27.259 26.2063 27.2038 26.1696 27.1581 26.123C27.1124 26.0766 27.0767 26.0215 27.0526 25.9609C27.0286 25.9004 27.0162 25.8356 27.0175 25.7705V21.085H4.9823V25.7705C4.98359 25.8356 4.97216 25.9004 4.94812 25.9609C4.92403 26.0216 4.88743 26.0765 4.84167 26.123C4.79598 26.1695 4.74164 26.2064 4.68152 26.2314C4.62128 26.2566 4.55635 26.2698 4.49109 26.2695C4.42589 26.2698 4.36085 26.2565 4.30066 26.2314C4.24061 26.2063 4.18614 26.1695 4.1405 26.123C4.09484 26.0766 4.05911 26.0215 4.03503 25.9609C4.011 25.9004 3.99859 25.8356 3.99988 25.7705V10.1514C3.9987 10.0863 4.01093 10.0214 4.03503 9.96094C4.05918 9.90051 4.09483 9.84519 4.1405 9.79883C4.18625 9.75239 4.24146 9.71548 4.30164 9.69043C4.36164 9.66551 4.42611 9.65309 4.49109 9.65332C4.76791 9.65332 4.98214 9.87188 4.9823 10.1523V14.8379H27.0175V10.1514C27.0162 10.0862 27.0286 10.0215 27.0526 9.96094C27.0767 9.90041 27.1124 9.84529 27.1581 9.79883C27.2038 9.75229 27.259 9.71554 27.3192 9.69043C27.3793 9.66542 27.4436 9.65212 27.5087 9.65234ZM17.0253 5C16.9948 5.46238 16.9792 6.07887 16.9764 6.84668V9.36719H18.0936V9.88574H16.9764V10.6299C16.9765 10.8272 17.0209 10.9509 17.1112 10.9971C17.2017 11.0432 17.4347 11.0664 17.8094 11.0664H17.8466V11.499H15.1512V11.0664H15.2538C15.6295 11.0664 15.8624 11.0432 15.951 10.9971C16.0396 10.95 16.0838 10.8273 16.0839 10.6299V9.88574H13.4872V9.36719L16.6288 5H17.0253ZM14.0526 9.36719H16.0848V6.56836L14.0526 9.36719Z"></path></svg>