<svg data-icon="measureRehearsalLetter24" data-version="v2" class="" width="24" height="24" viewBox="0 0 24 24" fill="currentcolor" xmlns="http://www.w3.org/2000/svg"><path fill-rule="evenodd" clip-rule="evenodd" d="M16.8055 6C17.4652 6 18 6.53893 18 7.19448V16.8055C18 17.4652 17.4611 18 16.8055 18H7.19448C6.53479 18 6 17.4611 6 16.8055V7.19448C6 6.53479 6.53893 6 7.19448 6H16.8055ZM16.8055 6.6H7.19448C6.86855 6.6 6.6 6.86791 6.6 7.19448V16.8055C6.6 17.1315 6.86791 17.4 7.19448 17.4H16.8055C17.1315 17.4 17.4 17.1321 17.4 16.8055V7.19448C17.4 6.86855 17.1321 6.6 16.8055 6.6ZM12.5766 8.85469C13.1891 10.3609 13.6687 11.5516 14.0156 12.4266C14.3625 13.3016 14.6578 14.0266 14.9016 14.6016C14.9422 14.6953 14.9937 14.7805 15.0563 14.857C15.1188 14.9336 15.2078 15.0063 15.3234 15.075C15.4109 15.125 15.5125 15.1625 15.6281 15.1875C15.7438 15.2125 15.8484 15.2281 15.9422 15.2344V15.6H12.3188V15.2344C12.4875 15.2219 12.6859 15.1914 12.9141 15.143C13.1422 15.0945 13.2563 15.0344 13.2563 14.9625C13.2563 14.9375 13.2539 14.9094 13.2492 14.8781C13.2445 14.8469 13.2313 14.8047 13.2094 14.7516L12.6422 13.3734H10.3453C10.2922 13.5016 10.2336 13.6516 10.1695 13.8234C10.1055 13.9953 10.05 14.1484 10.0031 14.2828C9.94375 14.4578 9.90859 14.5844 9.89766 14.6625C9.88672 14.7406 9.88125 14.7953 9.88125 14.8266C9.88125 14.9266 9.95703 15.0117 10.1086 15.082C10.2602 15.1523 10.5125 15.2031 10.8656 15.2344V15.6H8.1375V15.2344C8.24063 15.2281 8.35703 15.2117 8.48672 15.1852C8.61641 15.1586 8.71875 15.1219 8.79375 15.075C8.92188 15 9.03047 14.9078 9.11953 14.7984C9.20859 14.6891 9.28281 14.5594 9.34219 14.4094C9.70469 13.5312 10.068 12.6516 10.432 11.7703C10.7961 10.8891 11.1984 9.91719 11.6391 8.85469H12.5766ZM11.4844 10.5L10.5328 12.9094H12.45L11.4844 10.5Z"></path></svg>