<svg data-icon="measureEnding332" data-version="v2" class="" width="32" height="32" viewBox="0 0 32 32" fill="currentcolor" xmlns="http://www.w3.org/2000/svg"><path fill-rule="evenodd" clip-rule="evenodd" d="M7.23684 9C7.10362 9 7 9.10362 7 9.23684V20.3388H7.47368V10.8503H25V9H7.23684Z"></path><path fill-rule="evenodd" clip-rule="evenodd" d="M12.3072 22.0976C12.0052 22.0976 11.729 22.0598 11.4784 21.9844C11.2278 21.9089 11.0126 21.8069 10.8327 21.6784C10.6528 21.5499 10.5139 21.4021 10.4159 21.2351C10.3179 21.068 10.2689 20.8962 10.2689 20.7195C10.2689 20.5621 10.3075 20.4199 10.3846 20.293C10.4617 20.1661 10.5853 20.1027 10.7556 20.1027C10.9483 20.1027 11.0953 20.1501 11.1965 20.2448C11.2977 20.3396 11.3483 20.448 11.3483 20.5701C11.3483 20.6729 11.3314 20.803 11.2977 20.9604C11.264 21.1178 11.2375 21.2302 11.2182 21.2977C11.2407 21.3266 11.2816 21.3652 11.3411 21.4134C11.4005 21.4615 11.4736 21.5049 11.5603 21.5435C11.6631 21.5916 11.7707 21.6302 11.8832 21.6591C11.9956 21.688 12.1546 21.7025 12.3602 21.7025C12.5529 21.7025 12.7384 21.6703 12.9167 21.6061C13.095 21.5418 13.2516 21.4391 13.3865 21.2977C13.5279 21.1499 13.6379 20.9773 13.7166 20.7797C13.7953 20.5821 13.8347 20.3227 13.8347 20.0015C13.8347 19.828 13.8162 19.6562 13.7793 19.4859C13.7423 19.3157 13.6741 19.1679 13.5745 19.0426C13.4749 18.9173 13.3392 18.8202 13.1673 18.7511C12.9954 18.682 12.7778 18.6475 12.5144 18.6475H11.8832V18.0934H12.3024C12.7457 18.0934 13.0653 17.9713 13.2613 17.7271C13.4572 17.483 13.5552 17.1152 13.5552 16.6237C13.5552 16.2221 13.4604 15.9194 13.2709 15.7154C13.0814 15.5114 12.8131 15.4094 12.4662 15.4094C12.2992 15.4094 12.1618 15.4295 12.0542 15.4696C11.9466 15.5098 11.8591 15.5492 11.7916 15.5877C11.7113 15.6327 11.6454 15.6825 11.594 15.7371C11.5426 15.7917 11.5041 15.8318 11.4784 15.8575C11.5009 15.9603 11.5282 16.0864 11.5603 16.2358C11.5924 16.3852 11.6085 16.5273 11.6085 16.6622C11.6085 16.7811 11.5579 16.8879 11.4567 16.9827C11.3555 17.0774 11.2069 17.1248 11.011 17.1248C10.8407 17.1248 10.7163 17.0638 10.6376 16.9417C10.5588 16.8196 10.5195 16.6783 10.5195 16.5177C10.5195 16.3506 10.5661 16.1804 10.6592 16.0069C10.7524 15.8334 10.8905 15.6712 11.0736 15.5202C11.2567 15.3693 11.48 15.2472 11.7434 15.154C12.0068 15.0609 12.3104 15.0143 12.6541 15.0143C13.0492 15.0143 13.3761 15.0729 13.6347 15.1902C13.8933 15.3074 14.0965 15.4496 14.2442 15.6166C14.3888 15.7804 14.4884 15.9523 14.543 16.1322C14.5976 16.3121 14.6249 16.4663 14.6249 16.5948C14.6249 16.7554 14.6024 16.9168 14.5575 17.079C14.5125 17.2413 14.4386 17.3915 14.3358 17.5296C14.2234 17.6806 14.0748 17.8179 13.8901 17.9416C13.7054 18.0652 13.4733 18.1656 13.1938 18.2427V18.3198C13.3737 18.3359 13.5656 18.376 13.7696 18.4403C13.9736 18.5045 14.1575 18.5993 14.3213 18.7246C14.4916 18.8563 14.6313 19.0257 14.7406 19.2329C14.8498 19.4401 14.9044 19.7028 14.9044 20.0208C14.9044 20.6376 14.657 21.1379 14.1623 21.5218C13.6676 21.9056 13.0492 22.0976 12.3072 22.0976ZM17.4052 19.6667C17.4052 19.8466 17.3402 20 17.2101 20.1269C17.08 20.2538 16.925 20.3172 16.7451 20.3172C16.5652 20.3172 16.4102 20.2538 16.2801 20.1269C16.15 20 16.0849 19.8466 16.0849 19.6667C16.0849 19.4868 16.15 19.3318 16.2801 19.2017C16.4102 19.0716 16.5652 19.0066 16.7451 19.0066C16.925 19.0066 17.08 19.0716 17.2101 19.2017C17.3402 19.3318 17.4052 19.4868 17.4052 19.6667Z"></path></svg>