<svg data-icon="measureFine32" data-version="v2" class="" width="32" height="32" viewBox="0 0 32 32" fill="currentcolor" xmlns="http://www.w3.org/2000/svg"><path fill-rule="evenodd" clip-rule="evenodd" d="M11.6487 15.2506H11.3076C11.2219 15.0055 11.0706 14.7448 10.8535 14.4687C10.6364 14.1925 10.4304 14.0411 10.2354 14.0146C10.1468 14.0027 10.0287 13.9924 9.88101 13.9835C9.73333 13.9747 9.59747 13.9703 9.47342 13.9703H8.4943V16.438H9.11899C9.2962 16.438 9.44979 16.418 9.57975 16.3782C9.7097 16.3383 9.82489 16.2667 9.92532 16.1633C9.99916 16.0895 10.0708 15.9661 10.1402 15.7934C10.2096 15.6206 10.2517 15.4722 10.2665 15.3481H10.6032V17.993H10.2665C10.2546 17.8601 10.2089 17.6984 10.1291 17.5079C10.0494 17.3174 9.98143 17.1911 9.92532 17.1291C9.83966 17.0346 9.73038 16.9645 9.59747 16.9187C9.46456 16.8729 9.30506 16.85 9.11899 16.85H8.4943V18.9323C8.4943 19.0386 8.51424 19.1294 8.55411 19.2047C8.59399 19.2801 8.67004 19.3414 8.78228 19.3886C8.84726 19.4152 8.9366 19.4396 9.05032 19.4617C9.16403 19.4839 9.277 19.5008 9.38924 19.5127V19.8582H6V19.5127C6.08565 19.5038 6.19937 19.4912 6.34114 19.475C6.48291 19.4588 6.58186 19.4388 6.63797 19.4152C6.7443 19.3738 6.81814 19.3162 6.85949 19.2424C6.90084 19.1686 6.92152 19.0741 6.92152 18.9589V14.5241C6.92152 14.4236 6.90306 14.3358 6.86614 14.2604C6.82922 14.1851 6.75317 14.1224 6.63797 14.0722C6.55527 14.0367 6.44599 14.0042 6.31013 13.9747C6.17426 13.9451 6.07089 13.9259 6 13.9171V13.5715H11.6487V15.2506ZM14.843 19.8582H12.043V19.5348C12.1198 19.5289 12.1951 19.5215 12.269 19.5127C12.3428 19.5038 12.4063 19.489 12.4595 19.4684C12.554 19.4329 12.6205 19.382 12.6589 19.3155C12.6973 19.2491 12.7165 19.1612 12.7165 19.0519V16.4734C12.7165 16.37 12.6928 16.2792 12.6456 16.2009C12.5983 16.1227 12.5392 16.0599 12.4684 16.0127C12.4152 15.9772 12.3347 15.9432 12.2269 15.9108C12.1191 15.8783 12.0209 15.8576 11.9323 15.8487V15.5253L14.1032 15.4101L14.1696 15.4766V18.9943C14.1696 19.0977 14.1918 19.1855 14.2361 19.2579C14.2804 19.3303 14.3439 19.3842 14.4266 19.4196C14.4857 19.4462 14.5506 19.4698 14.6215 19.4905C14.6924 19.5112 14.7662 19.5259 14.843 19.5348V19.8582ZM14.1962 13.8152C14.1962 14.0397 14.1098 14.2309 13.937 14.3889C13.7642 14.5469 13.5597 14.6259 13.3234 14.6259C13.0842 14.6259 12.8782 14.5469 12.7054 14.3889C12.5326 14.2309 12.4462 14.0397 12.4462 13.8152C12.4462 13.5907 12.5326 13.3987 12.7054 13.2392C12.8782 13.0797 13.0842 13 13.3234 13C13.5627 13 13.7679 13.0797 13.9392 13.2392C14.1105 13.3987 14.1962 13.5907 14.1962 13.8152ZM21.0987 19.8582H18.4316V19.5348C18.4878 19.5289 18.5557 19.5215 18.6354 19.5127C18.7152 19.5038 18.7757 19.489 18.8171 19.4684C18.8791 19.4359 18.9234 19.3886 18.95 19.3266C18.9766 19.2646 18.9899 19.173 18.9899 19.0519V16.9785C18.9899 16.6772 18.9345 16.4505 18.8237 16.2984C18.713 16.1463 18.5498 16.0703 18.3342 16.0703C18.216 16.0703 18.106 16.088 18.0041 16.1234C17.9022 16.1589 17.8025 16.2105 17.7051 16.2785C17.6194 16.3376 17.5507 16.3981 17.499 16.4601C17.4474 16.5222 17.4038 16.5768 17.3684 16.6241V19.0032C17.3684 19.1065 17.3831 19.1929 17.4127 19.2623C17.4422 19.3318 17.4909 19.3842 17.5589 19.4196C17.6061 19.4462 17.6652 19.4698 17.7361 19.4905C17.807 19.5112 17.8764 19.5259 17.9443 19.5348V19.8582H15.2506V19.5348C15.3245 19.5289 15.399 19.5208 15.4744 19.5104C15.5497 19.5001 15.6139 19.4861 15.6671 19.4684C15.7616 19.4359 15.8266 19.3857 15.862 19.3177C15.8975 19.2498 15.9152 19.1612 15.9152 19.0519V16.4734C15.9152 16.3819 15.8916 16.2918 15.8443 16.2032C15.797 16.1146 15.735 16.0422 15.6582 15.9861C15.6051 15.9506 15.5379 15.9211 15.4566 15.8975C15.3754 15.8738 15.2861 15.8576 15.1886 15.8487V15.5253L17.3019 15.4101L17.3684 15.4766V16.119H17.3861C17.4688 16.0451 17.5692 15.9565 17.6873 15.8532C17.8055 15.7498 17.9148 15.6656 18.0152 15.6006C18.1245 15.5297 18.2677 15.4692 18.4449 15.419C18.6222 15.3688 18.8112 15.3437 19.012 15.3437C19.4935 15.3437 19.8545 15.4803 20.0953 15.7535C20.336 16.0267 20.4563 16.3892 20.4563 16.8411V19.012C20.4563 19.1213 20.4726 19.2084 20.5051 19.2734C20.5376 19.3384 20.5981 19.3901 20.6867 19.4285C20.734 19.4492 20.7923 19.4698 20.8617 19.4905C20.9311 19.5112 21.0101 19.5259 21.0987 19.5348V19.8582ZM26.2734 18.7994C26.17 18.9677 26.0453 19.1265 25.899 19.2756C25.7528 19.4248 25.5867 19.5525 25.4006 19.6589C25.2027 19.7711 25.0026 19.856 24.8003 19.9136C24.598 19.9712 24.3654 20 24.1025 20C23.6654 20 23.2881 19.938 22.9706 19.8139C22.6531 19.6899 22.3909 19.523 22.1842 19.3133C21.9774 19.1036 21.8231 18.8562 21.7212 18.5712C21.6193 18.2862 21.5684 17.9768 21.5684 17.643C21.5684 17.3418 21.6237 17.0531 21.7345 16.7769C21.8453 16.5007 22.0025 16.2549 22.2063 16.0392C22.4072 15.8295 22.6604 15.6597 22.9661 15.5297C23.2718 15.3998 23.6137 15.3348 23.9918 15.3348C24.4053 15.3348 24.7449 15.385 25.0108 15.4854C25.2766 15.5859 25.4966 15.7247 25.6709 15.9019C25.8392 16.0703 25.9618 16.2689 26.0386 16.4978C26.1154 16.7267 26.1538 16.9667 26.1538 17.2177V17.5057H23.1589C23.1589 18.1112 23.2755 18.5719 23.5089 18.888C23.7422 19.204 24.1129 19.362 24.6209 19.362C24.8985 19.362 25.1481 19.286 25.3696 19.1339C25.5911 18.9818 25.7802 18.789 25.9367 18.5557L26.2734 18.7994ZM24.581 17.1158C24.581 16.9386 24.5722 16.757 24.5544 16.5709C24.5367 16.3848 24.5057 16.2327 24.4614 16.1146C24.4112 15.9757 24.3425 15.8709 24.2554 15.8C24.1682 15.7291 24.0582 15.6937 23.9253 15.6937C23.6979 15.6937 23.5162 15.8089 23.3804 16.0392C23.2445 16.2696 23.1707 16.6344 23.1589 17.1335L24.581 17.1158Z"></path></svg>