<svg data-icon="measureEnding132" data-version="v2" class="" width="32" height="32" viewBox="0 0 32 32" fill="currentcolor" xmlns="http://www.w3.org/2000/svg"><path fill-rule="evenodd" clip-rule="evenodd" d="M7.23684 10C7.10362 10 7 10.1036 7 10.2368V21.3388H7.47368V11.8503H25V10H7.23684Z"></path><path fill-rule="evenodd" clip-rule="evenodd" d="M13.8587 21.3388H10.611V20.9967C10.7074 20.9903 10.8576 20.9766 11.0616 20.9557C11.2655 20.9349 11.4061 20.9132 11.4832 20.8907C11.5828 20.8586 11.6591 20.8064 11.7121 20.7341C11.7651 20.6618 11.7916 20.5534 11.7916 20.4088V17.0262H10.5917V16.6214H10.8568C11.2037 16.6214 11.5145 16.5572 11.7892 16.4287C12.0638 16.3002 12.2606 16.1621 12.3794 16.0143H12.7794C12.7697 16.2231 12.7601 16.4672 12.7505 16.7467C12.7408 17.0262 12.736 17.2768 12.736 17.4984V20.3558C12.736 20.4683 12.7609 20.5686 12.8107 20.657C12.8605 20.7453 12.932 20.8104 13.0251 20.8521C13.1086 20.8875 13.2452 20.9196 13.4347 20.9485C13.6242 20.9774 13.7656 20.9935 13.8587 20.9967V21.3388ZM16.2006 20.6667C16.2006 20.8466 16.1355 21 16.0054 21.1269C15.8753 21.2538 15.7203 21.3172 15.5404 21.3172C15.3605 21.3172 15.2055 21.2538 15.0754 21.1269C14.9453 21 14.8803 20.8466 14.8803 20.6667C14.8803 20.4868 14.9453 20.3318 15.0754 20.2017C15.2055 20.0716 15.3605 20.0066 15.5404 20.0066C15.7203 20.0066 15.8753 20.0716 16.0054 20.2017C16.1355 20.3318 16.2006 20.4868 16.2006 20.6667Z"></path></svg>