<svg data-icon="measureSwing32" data-version="v2" class="" width="32" height="32" viewBox="0 0 32 32" fill="currentcolor" xmlns="http://www.w3.org/2000/svg"><path d="M7.13687 8.13818V10.6155H6.75V7.75131H11.1685V8.13818H7.13687Z"></path><path d="M13.6906 6.7941C13.6906 6.55429 13.7992 6.36198 14.0164 6.21719C14.2335 6.0724 14.505 6 14.8308 6C15.1566 6 15.4145 6.10181 15.6046 6.30542C15.7946 6.50904 15.8874 6.71944 15.8828 6.93663C15.8828 7.37101 15.6046 7.71716 15.048 7.97508C14.9937 7.9977 14.9666 8.02711 14.9666 8.06331C14.9666 8.09951 14.9756 8.12666 14.9937 8.14476C15.143 8.29407 15.2177 8.48412 15.2177 8.71488C15.2177 8.78728 15.2132 8.83705 15.2041 8.8642C15.091 9.50672 14.6317 9.82798 13.8263 9.82798C13.0209 9.82798 12.6182 9.58138 12.6182 9.08818C12.6182 8.98411 12.6318 8.89587 12.6589 8.82348C12.7313 8.61081 12.8761 8.50448 13.0933 8.50448C13.2155 8.50448 13.3173 8.5452 13.3987 8.62665C13.4802 8.71262 13.5209 8.83253 13.5209 8.98637C13.5209 9.14021 13.4372 9.25333 13.2698 9.32573C13.2245 9.37098 13.2019 9.40265 13.2019 9.42075C13.2019 9.43885 13.22 9.466 13.2562 9.5022C13.3376 9.55649 13.4485 9.5859 13.5888 9.59043C13.9145 9.59043 14.1702 9.37776 14.3557 8.95243C14.4191 8.80311 14.4507 8.66284 14.4507 8.53163C14.4507 8.20584 14.3399 8.04295 14.1182 8.04295H13.8127C13.6091 8.04295 13.5073 7.99317 13.5073 7.89363C13.5073 7.85743 13.5118 7.83028 13.5209 7.81218C13.5752 7.66286 13.6996 7.5882 13.8942 7.5882H14.3693C14.4869 7.5882 14.6227 7.54296 14.7765 7.45246C14.9304 7.36196 15.0344 7.2398 15.0887 7.08595C15.143 6.93663 15.1679 6.81673 15.1634 6.72623C15.1634 6.50452 15.0797 6.36425 14.9123 6.30542H14.8308C14.7494 6.30995 14.677 6.33936 14.6136 6.39366C14.5503 6.44796 14.5209 6.50678 14.5254 6.57012C14.5254 6.63347 14.5344 6.69003 14.5525 6.7398V6.82125C14.548 6.93437 14.505 7.02939 14.4236 7.10631C14.3421 7.18324 14.2403 7.2217 14.1182 7.2217C13.996 7.2217 13.8942 7.18097 13.8127 7.09953C13.7313 7.01808 13.6906 6.91627 13.6906 6.7941Z"></path><path d="M21.7511 7.75131V10.6155H21.3643V8.13818H17.3327V7.75131H21.7511Z"></path><path d="M10.9445 14.4753H11.3653V23.4005C11.3562 24.0385 11.0169 24.6312 10.3472 25.1787C9.67755 25.7262 8.98299 26 8.26355 26C7.82916 26 7.46718 25.8824 7.17759 25.6471C6.89253 25.4118 6.75 25.0928 6.75 24.6901C6.75 24.0023 7.05316 23.396 7.65948 22.8711C8.26581 22.3462 8.99204 22.0815 9.83818 22.077C10.2907 22.077 10.6594 22.1969 10.9445 22.4367V14.4753Z"></path><path d="M24.2285 22.8168C24.2285 22.7625 24.242 22.6924 24.2692 22.6064C24.4909 22.0137 24.6018 21.3236 24.6018 20.5363C24.6018 19.749 24.4886 19.0929 24.2624 18.568C24.0362 18.0431 23.6945 17.4708 23.2375 16.8509C22.7851 16.231 22.3552 15.7966 21.948 15.5477V23.3462C21.948 23.9933 21.6086 24.5905 20.9299 25.138C20.2512 25.6855 19.5566 25.9593 18.8462 25.9593C18.4164 25.9548 18.0566 25.8348 17.7671 25.5996C17.4775 25.3643 17.3327 25.0475 17.3327 24.6493C17.3327 23.9616 17.6358 23.3553 18.2422 22.8304C18.8485 22.3055 19.5747 22.0408 20.4209 22.0363C20.8914 22.0363 21.2602 22.1562 21.5272 22.396V12.0319C21.5362 11.9505 21.5837 11.9075 21.6697 11.903C21.9095 11.903 22.0475 12.0048 22.0837 12.2084C22.2738 13.3079 22.7805 14.498 23.604 15.7785C24.6719 17.4753 25.2036 19.0657 25.1991 20.5499C25.1991 21.2557 25.1063 21.9367 24.9208 22.5928L24.8393 22.9525C24.776 23.1562 24.6561 23.2489 24.4796 23.2308C24.3122 23.1449 24.2285 23.0068 24.2285 22.8168Z"></path></svg>