<svg data-icon="measureRitardando32" data-version="v2" class="" width="32" height="32" viewBox="0 0 32 32" fill="currentcolor" xmlns="http://www.w3.org/2000/svg"><path fill-rule="evenodd" clip-rule="evenodd" d="M14.1543 15.7343C14.1543 15.9057 14.1295 16.0714 14.08 16.2314C14.0305 16.3914 13.9562 16.5286 13.8571 16.6429C13.7467 16.7724 13.6305 16.8686 13.5086 16.9314C13.3867 16.9943 13.2152 17.0257 12.9943 17.0257C12.7086 17.0257 12.4838 16.9552 12.32 16.8143C12.1562 16.6733 12.0743 16.5152 12.0743 16.34C12.0743 16.1762 12.0981 16.0352 12.1457 15.9171C12.1933 15.799 12.2686 15.62 12.3714 15.38C12.1162 15.4867 11.8971 15.6171 11.7143 15.7714C11.5314 15.9257 11.3562 16.1019 11.1886 16.3L10.2857 20.3457H8.39429L9.18286 16.8314C9.20571 16.7248 9.23524 16.5857 9.27143 16.4143C9.30762 16.2429 9.32571 16.1 9.32571 15.9857C9.32571 15.7648 9.28286 15.6143 9.19714 15.5343C9.11143 15.4543 8.94667 15.4143 8.70286 15.4143C8.58095 15.4143 8.45619 15.4333 8.32857 15.4714C8.20095 15.5095 8.09143 15.5457 8 15.58L8.12571 15.0657C8.43429 14.94 8.72952 14.8324 9.01143 14.7429C9.29333 14.6533 9.56 14.6086 9.81143 14.6086C10.261 14.6086 10.5971 14.6971 10.82 14.8743C11.0429 15.0514 11.1905 15.3 11.2629 15.62H11.3029C11.68 15.22 12 14.941 12.2629 14.7829C12.5257 14.6248 12.8076 14.5457 13.1086 14.5457C13.4324 14.5457 13.6876 14.6476 13.8743 14.8514C14.061 15.0552 14.1543 15.3495 14.1543 15.7343ZM18.1543 19.5286L18.0286 20.0429C17.6514 20.1914 17.3505 20.3048 17.1257 20.3829C16.901 20.461 16.64 20.5 16.3429 20.5C15.8857 20.5 15.5305 20.3886 15.2771 20.1657C15.0238 19.9429 14.8971 19.66 14.8971 19.3171C14.8971 19.1838 14.9067 19.0476 14.9257 18.9086C14.9448 18.7695 14.9752 18.6124 15.0171 18.4371L15.4857 16.7686C15.5276 16.6086 15.5629 16.4571 15.5914 16.3143C15.62 16.1714 15.6343 16.041 15.6343 15.9229C15.6343 15.7095 15.5905 15.561 15.5029 15.4771C15.4152 15.3933 15.2476 15.3514 15 15.3514C14.8781 15.3514 14.7533 15.3705 14.6257 15.4086C14.4981 15.4467 14.3886 15.4829 14.2971 15.5171L14.4229 15.0029C14.7314 14.8771 15.0267 14.7695 15.3086 14.68C15.5905 14.5905 15.8571 14.5457 16.1086 14.5457C16.5619 14.5457 16.9114 14.6552 17.1571 14.8743C17.4029 15.0933 17.5257 15.3781 17.5257 15.7286C17.5257 15.801 17.5171 15.9286 17.5 16.1114C17.4829 16.2943 17.4514 16.4619 17.4057 16.6143L16.9371 18.2771C16.899 18.4105 16.8648 18.5629 16.8343 18.7343C16.8038 18.9057 16.7886 19.0352 16.7886 19.1229C16.7886 19.3438 16.8381 19.4943 16.9371 19.5743C17.0362 19.6543 17.2076 19.6943 17.4514 19.6943C17.5657 19.6943 17.6952 19.6743 17.84 19.6343C17.9848 19.5943 18.0895 19.559 18.1543 19.5286ZM18.2743 12.5514C18.2743 12.841 18.1648 13.0876 17.9457 13.2914C17.7267 13.4952 17.4629 13.5971 17.1543 13.5971C16.8457 13.5971 16.581 13.4952 16.36 13.2914C16.139 13.0876 16.0286 12.841 16.0286 12.5514C16.0286 12.2619 16.139 12.0143 16.36 11.8086C16.581 11.6029 16.8457 11.5 17.1543 11.5C17.4629 11.5 17.7267 11.6029 17.9457 11.8086C18.1648 12.0143 18.2743 12.2619 18.2743 12.5514ZM20.6914 20.4943C20.2343 20.4943 19.8686 20.3829 19.5943 20.16C19.32 19.9371 19.1829 19.6543 19.1829 19.3114C19.1829 19.1705 19.1924 19.0371 19.2114 18.9114C19.2305 18.7857 19.261 18.6238 19.3029 18.4257L20.0114 15.3857H18.9657L19.1029 14.7971H20.1714L20.5829 13.0657H22.4343L22.0343 14.7971H23.5829L23.4457 15.3857H21.9029L21.2057 18.4257C21.179 18.5324 21.1533 18.6619 21.1286 18.8143C21.1038 18.9667 21.0914 19.0657 21.0914 19.1114C21.0914 19.3286 21.1514 19.479 21.2714 19.5629C21.3914 19.6467 21.5752 19.6886 21.8229 19.6886C21.941 19.6886 22.1038 19.6657 22.3114 19.62C22.519 19.5743 22.6648 19.5362 22.7486 19.5057L22.6229 20.02C22.2876 20.1686 21.9514 20.2848 21.6143 20.3686C21.2771 20.4524 20.9695 20.4943 20.6914 20.4943Z"></path></svg>