<svg data-icon="measureRepeat224" data-version="v2" class="" width="24" height="24" viewBox="0 0 24 24" fill="currentcolor" xmlns="http://www.w3.org/2000/svg"><path d="M18.2172 7.74795L11.6196 16.0156C11.537 16.1148 11.4212 16.2471 11.2724 16.2471H9.63535C9.5527 16.2471 9.50305 16.1975 9.50305 16.1314C9.50305 16.0983 9.51955 16.0487 9.55263 16.0156L16.1502 7.74802C16.266 7.59922 16.3487 7.5 16.4478 7.5H18.2006C18.2667 7.5 18.2998 7.53307 18.2998 7.58265C18.2998 7.63222 18.2668 7.6818 18.2172 7.74795ZM14.4141 7.74795L7.81653 16.0156C7.73388 16.1148 7.61808 16.2471 7.46928 16.2471H5.83225C5.7496 16.2471 5.69995 16.1975 5.69995 16.1314C5.69995 16.0983 5.71645 16.0487 5.74953 16.0156L12.3471 7.74802C12.4629 7.59922 12.5456 7.5 12.6447 7.5H14.3975C14.4636 7.5 14.4967 7.53307 14.4967 7.58265C14.4967 7.63222 14.4637 7.6818 14.4141 7.74795ZM6.7252 8.8062C7.3039 8.8062 7.76695 9.26917 7.76695 9.84795C7.76695 10.4102 7.30398 10.8731 6.7252 10.8731C6.163 10.8731 5.70003 10.4102 5.70003 9.84795C5.70003 9.26925 6.163 8.8062 6.7252 8.8062ZM17.2582 12.9235C17.8369 12.9235 18.3 13.3865 18.3 13.9652C18.3 14.5274 17.837 14.9904 17.2582 14.9904C16.696 14.9904 16.233 14.5274 16.233 13.9652C16.233 13.3865 16.696 12.9235 17.2582 12.9235Z"></path></svg>