<svg data-icon="measureEnding232" data-version="v2" class="" width="32" height="32" viewBox="0 0 32 32" fill="currentcolor" xmlns="http://www.w3.org/2000/svg"><path fill-rule="evenodd" clip-rule="evenodd" d="M7.23684 10C7.10362 10 7 10.1036 7 10.2368V21.3388H7.47368V11.8503H25V10H7.23684Z"></path><path fill-rule="evenodd" clip-rule="evenodd" d="M15.0056 21.3388H10.4906V20.6835C10.5773 20.5839 10.6978 20.4723 10.8519 20.3486C11.0061 20.2249 11.1892 20.0908 11.4013 19.9462C11.5298 19.8595 11.684 19.7647 11.8638 19.6619C12.0437 19.5592 12.2477 19.4467 12.4758 19.3246C12.7296 19.1897 12.9247 19.0709 13.0613 18.9681C13.1978 18.8653 13.3223 18.7384 13.4347 18.5874C13.5086 18.4878 13.568 18.3633 13.613 18.214C13.658 18.0646 13.6804 17.8518 13.6804 17.5755C13.6804 17.174 13.5728 16.8792 13.3576 16.6913C13.1424 16.5034 12.8661 16.4094 12.5288 16.4094C12.32 16.4094 12.1224 16.4504 11.9361 16.5323C11.7498 16.6142 11.6101 16.7274 11.5169 16.872C11.5394 16.9748 11.5675 17.0969 11.6012 17.2382C11.635 17.3796 11.6518 17.5177 11.6518 17.6526C11.6518 17.7747 11.6012 17.8831 11.5 17.9779C11.3989 18.0726 11.2487 18.12 11.0495 18.12C10.8889 18.12 10.7652 18.0646 10.6785 17.9538C10.5917 17.8429 10.5484 17.6944 10.5484 17.508C10.5484 17.3346 10.5966 17.1603 10.6929 16.9852C10.7893 16.8102 10.9274 16.6487 11.1073 16.501C11.284 16.3564 11.5025 16.2392 11.7627 16.1492C12.0229 16.0593 12.3039 16.0143 12.6059 16.0143C13.2644 16.0143 13.7873 16.1613 14.1743 16.4552C14.5614 16.7491 14.755 17.1418 14.755 17.6333C14.755 17.8678 14.7205 18.0815 14.6514 18.2742C14.5823 18.4669 14.4707 18.6372 14.3165 18.785C14.1462 18.9488 13.9471 19.0893 13.719 19.2066C13.4909 19.3238 13.1424 19.4869 12.6734 19.6957C12.3939 19.821 12.1337 19.9519 11.8928 20.0884C11.6518 20.2249 11.4543 20.3574 11.3001 20.4859H15.0056V21.3388ZM17.4727 20.6667C17.4727 20.8466 17.4076 21 17.2775 21.1269C17.1474 21.2538 16.9924 21.3172 16.8125 21.3172C16.6326 21.3172 16.4776 21.2538 16.3475 21.1269C16.2174 21 16.1524 20.8466 16.1524 20.6667C16.1524 20.4868 16.2174 20.3318 16.3475 20.2017C16.4776 20.0716 16.6326 20.0066 16.8125 20.0066C16.9924 20.0066 17.1474 20.0716 17.2775 20.2017C17.4076 20.3318 17.4727 20.4868 17.4727 20.6667Z"></path></svg>