<svg data-icon="measureSwing1624" data-version="v2" class="" width="24" height="24" viewBox="0 0 24 24" fill="currentcolor" xmlns="http://www.w3.org/2000/svg"><path d="M17.2744 17.5864C17.2641 18.5482 16.0155 19.5 14.9923 19.5C14.3683 19.4999 13.8772 19.1418 13.8771 18.5383C13.8771 17.5458 14.8902 16.6143 16.1487 16.6143C16.4863 16.6143 16.7627 16.717 16.9673 16.8807V14.3432H13.7751V13.0645H16.9673V12.2969H10.1223V17.5864C10.112 18.5482 8.86341 19.5 7.84023 19.5C7.21624 19.4999 6.72506 19.1418 6.72498 18.5383C6.72498 17.5458 7.7381 16.6143 8.9966 16.6143C9.33425 16.6143 9.62081 16.717 9.81522 16.8807V11.0177H17.2744V17.5864Z"></path><path d="M9.97915 6.15805H7.01173V7.97899H6.72498V5.8713H9.97915V6.15805Z"></path><path d="M17.1718 7.97899H16.8856V6.15805H13.9182V5.8713H17.1718V7.97899Z"></path><path d="M12.3939 4.5C12.8849 4.50014 13.1506 4.91993 13.1506 5.18591C13.1505 5.44165 13.0484 5.71773 12.537 5.95301C12.4858 5.97347 12.4756 6.00454 12.4756 6.03523C12.4757 6.0555 12.4857 6.06566 12.4959 6.07582C12.5163 6.09628 12.6597 6.26005 12.6598 6.49528C12.6598 6.53621 12.6596 6.57752 12.6494 6.60821C12.5982 6.89468 12.3833 7.31383 11.606 7.3139C10.9204 7.3139 10.7462 7.02742 10.7462 6.77162C10.7463 6.55679 10.8489 6.34176 11.0944 6.34176C11.2682 6.34187 11.4113 6.48534 11.4113 6.65921C11.4113 6.79221 11.3396 6.89429 11.2271 6.94544C11.2066 6.96591 11.1761 6.99697 11.1761 7.02767C11.1762 7.04803 11.1968 7.05826 11.2172 7.07867C11.2481 7.09916 11.3399 7.14003 11.4623 7.14008C11.8204 7.14008 12.0967 6.68998 12.0967 6.36257C12.0967 6.1784 12.025 6.00453 11.8511 6.00453H11.6263C11.483 6.00453 11.4009 5.97345 11.4009 5.8916C11.4009 5.8712 11.4011 5.85059 11.4113 5.83019C11.4625 5.69732 11.5854 5.66678 11.6877 5.66678H12.0353C12.3525 5.66678 12.6187 5.33932 12.6187 5.03239C12.6187 4.88914 12.5573 4.76627 12.4345 4.72534H12.3731C12.2606 4.72539 12.1482 4.80748 12.1482 4.95068C12.1483 4.9813 12.1583 5.01217 12.1685 5.0428V5.10368C12.1583 5.26739 12.025 5.40084 11.8511 5.40084C11.6773 5.40071 11.5342 5.26747 11.5342 5.08339C11.5342 4.72532 11.8926 4.5 12.3939 4.5Z"></path></svg>