<svg data-icon="measureCoda32" data-version="v2" class="" width="32" height="32" viewBox="0 0 32 32" fill="currentcolor" xmlns="http://www.w3.org/2000/svg"><path fill-rule="evenodd" clip-rule="evenodd" d="M23.2576 15.5455H21.4545C21.303 12.697 19.1818 10.4091 16.7273 10.2121V8.25758C16.7273 8.06061 16.5606 8 16.3636 8C16.1667 8 16 8.06061 16 8.25758V10.2121C13.5455 10.4091 11.4394 12.6818 11.2727 15.5455H9.27273C9.06061 15.5455 9 15.7121 9 15.9091C9 16.1061 9.06061 16.2727 9.27273 16.2727H11.2727C11.4394 19.1061 13.5455 21.4091 16 21.6061V23.7273C16 23.9394 16.1667 24 16.3636 24C16.5606 24 16.7273 23.9394 16.7273 23.7273V21.6061C19.1818 21.4091 21.303 19.1061 21.4545 16.2727H23.2576C23.4697 16.2727 23.5303 16.1061 23.5303 15.9091C23.5303 15.7121 23.4697 15.5455 23.2576 15.5455ZM18.9545 15.5455H16.7273V11.0606C18.8485 11.2424 18.9545 13.0909 18.9545 15.5455ZM16 11.0606V15.5455H13.8485C13.8485 13.0909 13.8485 11.2424 16 11.0606ZM13.8485 16.2727H16V20.8788C14.0455 20.6515 13.8636 18.6061 13.8485 16.2727ZM16.7273 20.8788V16.2727H18.9545C18.9091 18.5909 18.6212 20.6515 16.7273 20.8788Z"></path></svg>