<svg data-icon="measureDalSegno32" data-version="v2" class="" width="32" height="32" viewBox="0 0 32 32" fill="currentcolor" xmlns="http://www.w3.org/2000/svg"><path fill-rule="evenodd" clip-rule="evenodd" d="M15.2173 16.4302C15.2173 15.1729 14.7517 14.2106 13.8825 13.6364C13.3237 13.2639 12.6408 13.1397 11.3215 13.1397H8V13.6364H8.13969C8.63636 13.6364 8.82262 13.6829 8.91574 13.7761C8.97783 13.8537 8.97783 13.8847 8.97783 14.4745V18.5255C8.97783 19.0998 8.97783 19.1463 8.91574 19.2239C8.82262 19.3171 8.63636 19.3636 8.13969 19.3636H8V19.8603H11.4302C12.6098 19.8603 13.3548 19.6896 13.929 19.286C14.7517 18.7118 15.2173 17.7029 15.2173 16.4302ZM13.3548 16.3991C13.3548 18.4479 12.796 19.3636 11.3991 19.3636H11.2129C10.7472 19.3636 10.6541 19.2395 10.6541 18.7583V14.1951C10.6541 13.745 10.7627 13.6364 11.2129 13.6364H11.4457C12.7339 13.6364 13.3548 14.5366 13.3548 16.3991ZM16.7073 19.1308C16.7073 18.6341 16.3193 18.2461 15.8226 18.2461C15.3415 18.2461 14.9534 18.6341 14.9534 19.1308C14.9534 19.5965 15.3415 20 15.8226 20C16.3193 20 16.7073 19.612 16.7073 19.1308ZM24.6231 19.1308C24.6231 18.6341 24.235 18.2461 23.7384 18.2461C23.2572 18.2461 22.8692 18.6341 22.8692 19.1308C22.8692 19.5965 23.2572 20 23.7384 20C24.235 20 24.6231 19.612 24.6231 19.1308ZM22.5588 17.7805C22.5588 16.6009 21.8603 15.9335 20.2461 15.592L19.796 15.4834C19.082 15.3126 19.082 15.3437 18.8492 15.2661C18.4302 15.1109 18.2129 14.847 18.2129 14.459C18.2129 13.8847 18.7406 13.4812 19.4701 13.4812C20.4324 13.4812 21.2084 14.1641 21.7672 15.4834H22.2483L22.1397 13.0776H21.7206L21.2239 13.4967C20.7118 13.1397 20.1996 13 19.5477 13C18.1197 13 17.1419 13.8381 17.1419 15.0798C17.1419 16.2129 17.98 17.02 19.439 17.2838L20.0133 17.408C20.0599 17.4235 20.1064 17.4235 20.153 17.439C20.1996 17.4545 20.2461 17.4545 20.2772 17.4701C20.3082 17.4856 20.3392 17.4856 20.3703 17.4856C20.6962 17.5632 20.8514 17.6098 21.0222 17.6874C21.286 17.8271 21.4412 18.1064 21.4412 18.4324C21.4412 19.0843 20.898 19.5188 20.0909 19.5188C19.0355 19.5188 18.1197 18.6807 17.6075 17.2838H17.1264V19.9224H17.6075L18.1818 19.3792C18.7561 19.7982 19.3459 20 20.0909 20C21.5499 20 22.5588 19.0843 22.5588 17.7805Z"></path></svg>