<svg data-icon="measureAccelerando32" data-version="v2" class="" width="32" height="32" viewBox="0 0 32 32" fill="currentcolor" xmlns="http://www.w3.org/2000/svg"><path fill-rule="evenodd" clip-rule="evenodd" d="M8.16128 18.4567H8.12872C8.03378 18.5381 7.94358 18.6127 7.85813 18.6805C7.77268 18.7483 7.66486 18.8161 7.53465 18.884C7.42071 18.9436 7.30068 18.9931 7.17454 19.0325C7.0484 19.0718 6.90938 19.0915 6.75747 19.0915C6.28546 19.0915 5.9301 18.9524 5.69139 18.6744C5.45267 18.3963 5.33331 18.0159 5.33331 17.533C5.33331 17.1614 5.39977 16.8128 5.53269 16.4873C5.66562 16.1618 5.84329 15.8756 6.06573 15.6287C6.29089 15.3846 6.55401 15.1913 6.85512 15.0489C7.15623 14.9065 7.47361 14.8353 7.80727 14.8353C8.05141 14.8353 8.26503 14.8638 8.44814 14.9207C8.63125 14.9777 8.78112 15.055 8.89777 15.1527L10.147 14.8963L10.2039 14.9614L9.60577 17.4639C9.58407 17.548 9.56101 17.6531 9.5366 17.7792C9.51219 17.9054 9.49998 18.001 9.49998 18.0661C9.49998 18.2207 9.53524 18.3272 9.60577 18.3855C9.6763 18.4438 9.79837 18.473 9.97198 18.473C10.0479 18.473 10.1395 18.4581 10.2466 18.4282C10.3538 18.3984 10.4291 18.374 10.4725 18.355L10.383 18.7212C10.1144 18.827 9.89942 18.9077 9.73802 18.9633C9.57661 19.0189 9.39012 19.0467 9.17853 19.0467C8.89912 19.0467 8.67601 18.9918 8.50918 18.8819C8.34235 18.7721 8.22638 18.6303 8.16128 18.4567ZM8.64549 15.877C8.64549 15.8173 8.63735 15.7467 8.62107 15.6654C8.6048 15.584 8.57631 15.5148 8.53562 15.4578C8.4868 15.3873 8.42305 15.3337 8.34438 15.2971C8.26571 15.2605 8.16806 15.2422 8.05141 15.2422C7.87237 15.2422 7.70758 15.3066 7.55703 15.4355C7.40647 15.5643 7.27288 15.7359 7.15623 15.9502C7.0423 16.1618 6.95278 16.408 6.88767 16.6887C6.82257 16.9695 6.79002 17.2563 6.79002 17.5493C6.79002 17.6822 6.80019 17.8057 6.82054 17.9196C6.84088 18.0335 6.87411 18.1298 6.92023 18.2085C6.96906 18.2926 7.03484 18.3577 7.11757 18.4038C7.20031 18.4499 7.30407 18.473 7.42885 18.473C7.55635 18.473 7.6791 18.4357 7.7971 18.3611C7.9151 18.2865 8.02428 18.1949 8.12465 18.0864L8.64549 15.877ZM12.8366 19.0996C12.2126 19.0996 11.7264 18.9436 11.3778 18.6317C11.0292 18.3197 10.855 17.8911 10.855 17.3459C10.855 17.0176 10.9106 16.7064 11.0218 16.412C11.133 16.1177 11.3039 15.8498 11.5345 15.6084C11.7488 15.3805 12.0241 15.1947 12.3605 15.0509C12.6969 14.9072 13.0726 14.8353 13.4876 14.8353C13.9678 14.8353 14.3346 14.9234 14.5883 15.0998C14.8419 15.2761 14.9687 15.5189 14.9687 15.8281C14.9687 15.9122 14.9552 16.0058 14.928 16.1089C14.9009 16.212 14.8602 16.2988 14.806 16.3693C14.7382 16.4561 14.6642 16.5226 14.5842 16.5687C14.5042 16.6148 14.3841 16.6379 14.2241 16.6379C14.0125 16.6379 13.8477 16.5856 13.7297 16.4812C13.6117 16.3768 13.5527 16.2676 13.5527 16.1536C13.5527 16.018 13.5812 15.8837 13.6382 15.7508C13.6951 15.6179 13.767 15.4782 13.8538 15.3317C13.8294 15.3019 13.7799 15.2652 13.7053 15.2218C13.6307 15.1784 13.5337 15.1567 13.4144 15.1567C13.097 15.1567 12.8339 15.3487 12.625 15.7325C12.4161 16.1163 12.3117 16.5917 12.3117 17.1587C12.3117 17.59 12.391 17.9169 12.5497 18.1393C12.7084 18.3618 12.9342 18.473 13.2272 18.473C13.5256 18.473 13.7745 18.4153 13.9739 18.3C14.1732 18.1848 14.3774 17.9874 14.5862 17.708L14.8792 17.9562C14.6568 18.3007 14.3624 18.5774 13.9962 18.7863C13.63 18.9952 13.2435 19.0996 12.8366 19.0996ZM17.3003 19.0996C16.6764 19.0996 16.1901 18.9436 15.8415 18.6317C15.493 18.3197 15.3187 17.8911 15.3187 17.3459C15.3187 17.0176 15.3743 16.7064 15.4855 16.412C15.5967 16.1177 15.7676 15.8498 15.9982 15.6084C16.2125 15.3805 16.4878 15.1947 16.8242 15.0509C17.1606 14.9072 17.5363 14.8353 17.9513 14.8353C18.4315 14.8353 18.7983 14.9234 19.052 15.0998C19.3056 15.2761 19.4324 15.5189 19.4324 15.8281C19.4324 15.9122 19.4189 16.0058 19.3917 16.1089C19.3646 16.212 19.3239 16.2988 19.2697 16.3693C19.2019 16.4561 19.1279 16.5226 19.0479 16.5687C18.9679 16.6148 18.8479 16.6379 18.6878 16.6379C18.4762 16.6379 18.3114 16.5856 18.1934 16.4812C18.0754 16.3768 18.0164 16.2676 18.0164 16.1536C18.0164 16.018 18.0449 15.8837 18.1019 15.7508C18.1588 15.6179 18.2307 15.4782 18.3175 15.3317C18.2931 15.3019 18.2436 15.2652 18.169 15.2218C18.0944 15.1784 17.9974 15.1567 17.8781 15.1567C17.5607 15.1567 17.2976 15.3487 17.0887 15.7325C16.8798 16.1163 16.7754 16.5917 16.7754 17.1587C16.7754 17.59 16.8547 17.9169 17.0134 18.1393C17.1721 18.3618 17.3979 18.473 17.6909 18.473C17.9893 18.473 18.2382 18.4153 18.4376 18.3C18.6369 18.1848 18.8411 17.9874 19.0499 17.708L19.3429 17.9562C19.1205 18.3007 18.8262 18.5774 18.4599 18.7863C18.0937 18.9952 17.7072 19.0996 17.3003 19.0996ZM21.7192 19.0996C21.3937 19.0996 21.1082 19.0555 20.8627 18.9674C20.6172 18.8792 20.4144 18.7565 20.2544 18.5991C20.097 18.4418 19.979 18.2587 19.9004 18.0498C19.8217 17.8409 19.7824 17.6104 19.7824 17.3581C19.7824 17.038 19.842 16.7274 19.9614 16.4263C20.0808 16.1252 20.2584 15.8539 20.4944 15.6125C20.7169 15.3819 20.999 15.1947 21.3408 15.0509C21.6826 14.9072 22.0597 14.8353 22.472 14.8353C22.9576 14.8353 23.3272 14.9126 23.5808 15.0672C23.8344 15.2218 23.9612 15.4538 23.9612 15.763C23.9612 16.0587 23.8514 16.313 23.6317 16.526C23.4119 16.7389 23.1135 16.8969 22.7365 17C22.4381 17.0895 22.1838 17.1533 21.9735 17.1912C21.7633 17.2292 21.5063 17.2645 21.2025 17.297C21.2079 17.4164 21.2242 17.5507 21.2513 17.6999C21.2784 17.8491 21.3191 17.9766 21.3734 18.0824C21.4385 18.2044 21.5307 18.3014 21.65 18.3733C21.7694 18.4452 21.9213 18.4811 22.1058 18.4811C22.4259 18.4811 22.6978 18.4194 22.9216 18.296C23.1454 18.1726 23.359 17.9766 23.5625 17.708L23.8595 17.9562C23.6154 18.3034 23.3027 18.5808 22.9216 18.7883C22.5405 18.9959 22.1397 19.0996 21.7192 19.0996ZM22.6388 15.877C22.6388 15.6464 22.5968 15.4694 22.5127 15.3459C22.4286 15.2225 22.3119 15.1608 22.1627 15.1608C21.9539 15.1608 21.7565 15.331 21.5707 15.6715C21.3849 16.0119 21.2662 16.4425 21.2147 16.9634C21.3747 16.9444 21.5334 16.92 21.6907 16.8901C21.8481 16.8603 21.9729 16.825 22.0651 16.7843C22.2685 16.6948 22.415 16.5795 22.5045 16.4385C22.5941 16.2974 22.6388 16.1102 22.6388 15.877ZM27.1758 12.7316L26.0812 17.4924C26.0622 17.571 26.0398 17.6755 26.0141 17.8057C25.9883 17.9359 25.9754 18.0322 25.9754 18.0946C25.9754 18.2519 26.0147 18.359 26.0934 18.416C26.1721 18.473 26.3023 18.5015 26.484 18.5015C26.5518 18.5015 26.6441 18.4872 26.7607 18.4587C26.8774 18.4303 26.9601 18.4052 27.0089 18.3835L26.9194 18.7497C26.6509 18.8555 26.4311 18.9362 26.2602 18.9918C26.0893 19.0474 25.8954 19.0752 25.6784 19.0752C25.3528 19.0752 25.0965 18.9959 24.9093 18.8372C24.7221 18.6785 24.6286 18.4771 24.6286 18.2329C24.6286 18.1325 24.6374 18.0281 24.655 17.9196C24.6726 17.8111 24.6923 17.7067 24.714 17.6063L25.5929 13.7855C25.6038 13.7394 25.6119 13.696 25.6173 13.6553C25.6228 13.6146 25.6255 13.5807 25.6255 13.5535C25.6255 13.4559 25.6092 13.3786 25.5766 13.3216C25.5441 13.2646 25.4953 13.2185 25.4302 13.1833C25.365 13.148 25.2905 13.1236 25.2064 13.11C25.1223 13.0965 25.0246 13.0843 24.9134 13.0734L24.9866 12.7723L27.131 12.6665L27.1758 12.7316Z"></path></svg>