<svg data-icon="measureToCoda32" data-version="v2" class="" width="32" height="32" viewBox="0 0 32 32" fill="currentcolor" xmlns="http://www.w3.org/2000/svg"><path fill-rule="evenodd" clip-rule="evenodd" d="M4.02185 18.6594C3.86109 18.7297 3.68902 18.7931 3.50565 18.8497C3.32228 18.9062 3.09872 18.9344 2.83497 18.9344C2.4431 18.9344 2.15235 18.839 1.9627 18.6481C1.77305 18.4572 1.67822 18.1846 1.67822 17.8304V15.517H1V15.11H1.69329V13.9683H2.91786V15.11H3.97287V15.517H2.9254V17.5818C2.9254 17.8757 2.96621 18.0841 3.04785 18.2072C3.12949 18.3303 3.27581 18.3919 3.48681 18.3919C3.55463 18.3919 3.64883 18.3868 3.7694 18.3768C3.88998 18.3667 3.97413 18.3554 4.02185 18.3429V18.6594ZM8.13263 15.5396C8.31851 15.7129 8.46044 15.9201 8.5584 16.1613C8.65637 16.4024 8.70535 16.6637 8.70535 16.945C8.70535 17.2238 8.657 17.4869 8.56029 17.7344C8.46358 17.9818 8.32228 18.1934 8.1364 18.3693C7.93795 18.5577 7.70121 18.7021 7.42615 18.8026C7.15109 18.903 6.83648 18.9533 6.48229 18.9533C6.17583 18.9533 5.89387 18.9093 5.6364 18.8214C5.37892 18.7335 5.15097 18.6016 4.95252 18.4258C4.76162 18.2575 4.6109 18.0496 4.50038 17.8022C4.38985 17.5548 4.33459 17.2778 4.33459 16.9714C4.33459 16.6699 4.38294 16.4018 4.47965 16.1669C4.57636 15.9321 4.72143 15.7229 4.91485 15.5396C5.10073 15.3637 5.32994 15.2275 5.60249 15.1307C5.87503 15.034 6.1796 14.9857 6.5162 14.9857C6.86787 14.9857 7.17747 15.034 7.44499 15.1307C7.71251 15.2275 7.94172 15.3637 8.13263 15.5396ZM7.16805 18.1507C7.22331 18.01 7.26413 17.8392 7.2905 17.6383C7.31688 17.4373 7.33007 17.2037 7.33007 16.9375C7.33007 16.7616 7.31751 16.5607 7.29239 16.3346C7.26727 16.1085 7.22959 15.9302 7.17935 15.7995C7.11907 15.6413 7.03554 15.517 6.92879 15.4265C6.82203 15.3361 6.68701 15.2909 6.52374 15.2909C6.34539 15.2909 6.20284 15.3399 6.09608 15.4378C5.98932 15.5358 5.90706 15.6626 5.84928 15.8184C5.79653 15.9616 5.76011 16.1292 5.74002 16.3214C5.71992 16.5136 5.70987 16.7139 5.70987 16.9224C5.70987 17.1962 5.71866 17.4229 5.73625 17.6025C5.75383 17.7821 5.79653 17.9623 5.86436 18.1432C5.92213 18.2989 6.00502 18.422 6.11304 18.5124C6.22105 18.6029 6.35795 18.6481 6.52374 18.6481C6.67445 18.6481 6.80382 18.606 6.91183 18.5219C7.01985 18.4377 7.10525 18.314 7.16805 18.1507ZM13.9955 18.9759C13.6036 18.9759 13.2369 18.9125 12.8953 18.7856C12.5536 18.6588 12.256 18.4748 12.0023 18.2336C11.7536 17.9975 11.5576 17.7055 11.4145 17.3576C11.2713 17.0097 11.1997 16.6272 11.1997 16.2102C11.1997 15.7958 11.2719 15.4121 11.4164 15.0592C11.5608 14.7062 11.7636 14.4004 12.0249 14.1417C12.2811 13.888 12.5888 13.6914 12.948 13.552C13.3072 13.4126 13.6915 13.3429 14.101 13.3429C14.3974 13.3429 14.6674 13.3787 14.9111 13.4503C15.1547 13.5219 15.3607 13.6029 15.529 13.6933L15.7626 13.4861H16.0904L16.1243 15.4378H15.7928C15.6044 14.8425 15.3783 14.4054 15.1145 14.1266C14.8508 13.8478 14.5293 13.7084 14.15 13.7084C13.6777 13.7084 13.3185 13.9162 13.0723 14.332C12.8262 14.7477 12.7031 15.3311 12.7031 16.0821C12.7031 16.5067 12.7452 16.869 12.8293 17.1692C12.9135 17.4694 13.0234 17.7111 13.159 17.8945C13.3047 18.0854 13.4768 18.2254 13.6752 18.3146C13.8737 18.4038 14.0934 18.4484 14.3346 18.4484C14.6863 18.4484 14.9996 18.3529 15.2747 18.162C15.5497 17.9711 15.8003 17.6822 16.0264 17.2954L16.3504 17.4913C16.2424 17.7124 16.1193 17.9102 15.9812 18.0848C15.843 18.2594 15.6835 18.4094 15.5026 18.535C15.3042 18.6732 15.085 18.7812 14.8451 18.8591C14.6052 18.937 14.322 18.9759 13.9955 18.9759ZM20.5177 15.5396C20.7036 15.7129 20.8455 15.9201 20.9435 16.1613C21.0414 16.4024 21.0904 16.6637 21.0904 16.945C21.0904 17.2238 21.0421 17.4869 20.9454 17.7344C20.8487 17.9818 20.7074 18.1934 20.5215 18.3693C20.323 18.5577 20.0863 18.7021 19.8112 18.8026C19.5362 18.903 19.2216 18.9533 18.8674 18.9533C18.5609 18.9533 18.279 18.9093 18.0215 18.8214C17.764 18.7335 17.536 18.6016 17.3376 18.4258C17.1467 18.2575 16.996 18.0496 16.8855 17.8022C16.7749 17.5548 16.7197 17.2778 16.7197 16.9714C16.7197 16.6699 16.768 16.4018 16.8647 16.1669C16.9614 15.9321 17.1065 15.7229 17.2999 15.5396C17.4858 15.3637 17.715 15.2275 17.9876 15.1307C18.2601 15.034 18.5647 14.9857 18.9013 14.9857C19.253 14.9857 19.5625 15.034 19.8301 15.1307C20.0976 15.2275 20.3268 15.3637 20.5177 15.5396ZM19.5531 18.1507C19.6084 18.01 19.6492 17.8392 19.6756 17.6383C19.702 17.4373 19.7151 17.2037 19.7151 16.9375C19.7151 16.7616 19.7026 16.5607 19.6775 16.3346C19.6523 16.1085 19.6147 15.9302 19.5644 15.7995C19.5041 15.6413 19.4206 15.517 19.3139 15.4265C19.2071 15.3361 19.0721 15.2909 18.9088 15.2909C18.7305 15.2909 18.5879 15.3399 18.4812 15.4378C18.3744 15.5358 18.2921 15.6626 18.2344 15.8184C18.1816 15.9616 18.1452 16.1292 18.1251 16.3214C18.105 16.5136 18.095 16.7139 18.095 16.9224C18.095 17.1962 18.1037 17.4229 18.1213 17.6025C18.1389 17.7821 18.1816 17.9623 18.2494 18.1432C18.3072 18.2989 18.3901 18.422 18.4981 18.5124C18.6061 18.6029 18.743 18.6481 18.9088 18.6481C19.0595 18.6481 19.1889 18.606 19.2969 18.5219C19.4049 18.4377 19.4903 18.314 19.5531 18.1507ZM26.4484 18.7536L24.5908 18.8628L24.5343 18.8101V18.4635L24.5079 18.4559C24.3848 18.589 24.2184 18.7052 24.0087 18.8044C23.7989 18.9037 23.5873 18.9533 23.3738 18.9533C22.8664 18.9533 22.4481 18.7649 22.1191 18.3881C21.79 18.0113 21.6255 17.524 21.6255 16.9261C21.6255 16.3961 21.8095 15.9415 22.1775 15.5622C22.5455 15.1829 22.9907 14.9932 23.5132 14.9932C23.7192 14.9932 23.9126 15.0165 24.0934 15.0629C24.2743 15.1094 24.4187 15.164 24.5268 15.2268V13.9947C24.5268 13.9018 24.5079 13.8145 24.4702 13.7329C24.4326 13.6512 24.3823 13.5878 24.3195 13.5426C24.2416 13.4873 24.1443 13.4478 24.0275 13.4239C23.9107 13.4 23.7933 13.3831 23.6752 13.373V13.098L25.7099 13L25.7664 13.0603V18C25.7664 18.0955 25.7821 18.1758 25.8135 18.2411C25.8449 18.3065 25.8958 18.358 25.9661 18.3956C26.0188 18.4233 26.0961 18.4434 26.1978 18.4559C26.2995 18.4685 26.3831 18.476 26.4484 18.4785V18.7536ZM24.5268 18.0829V15.954C24.5092 15.8963 24.4847 15.8322 24.4533 15.7619C24.4219 15.6915 24.3785 15.625 24.3233 15.5622C24.273 15.5094 24.2059 15.4629 24.1217 15.4228C24.0376 15.3826 23.9427 15.3625 23.8372 15.3625C23.586 15.3625 23.3801 15.5044 23.2193 15.7882C23.0585 16.0721 22.9781 16.4727 22.9781 16.9902C22.9781 17.1937 22.9926 17.3764 23.0215 17.5384C23.0504 17.7005 23.1012 17.848 23.1741 17.9812C23.2469 18.1143 23.3405 18.2185 23.4548 18.2939C23.5691 18.3693 23.7066 18.4069 23.8674 18.4069C24.0206 18.4069 24.1474 18.3774 24.2479 18.3184C24.3484 18.2594 24.4413 18.1809 24.5268 18.0829ZM31 18.7536C30.8895 18.8013 30.7589 18.8453 30.6081 18.8855C30.4574 18.9256 30.2979 18.9457 30.1296 18.9457C29.8206 18.9457 29.5933 18.8999 29.4476 18.8082C29.3019 18.7165 29.2027 18.5853 29.15 18.4145H29.1274C29.042 18.4999 28.9597 18.5727 28.8806 18.633C28.8014 18.6933 28.7167 18.7448 28.6262 18.7875C28.5082 18.8428 28.3945 18.8836 28.2852 18.9099C28.176 18.9363 28.0234 18.9495 27.8274 18.9495C27.536 18.9495 27.2874 18.8635 27.0814 18.6914C26.8754 18.5193 26.7724 18.2914 26.7724 18.0075C26.7724 17.8443 26.795 17.7055 26.8402 17.5912C26.8855 17.4769 26.9495 17.3758 27.0324 17.2879C27.1078 17.2075 27.1951 17.1409 27.2943 17.0882C27.3935 17.0354 27.5021 16.9864 27.6202 16.9412C27.8463 16.8583 28.1176 16.7723 28.4341 16.6831C28.7506 16.5939 28.9817 16.5142 29.1274 16.4439V16.0821C29.1274 16.0193 29.1223 15.9364 29.1123 15.8335C29.1022 15.7305 29.0809 15.6438 29.0482 15.5735C29.0131 15.4931 28.9578 15.4253 28.8824 15.37C28.8071 15.3147 28.7079 15.2871 28.5848 15.2871C28.4743 15.2871 28.3819 15.3028 28.3078 15.3342C28.2337 15.3656 28.1741 15.3976 28.1289 15.4303C28.1364 15.4805 28.1577 15.5571 28.1929 15.6601C28.2281 15.7631 28.2457 15.8623 28.2457 15.9578C28.2457 16.0005 28.2344 16.0539 28.2118 16.1179C28.1891 16.182 28.1565 16.2329 28.1138 16.2705C28.056 16.3208 27.9913 16.3597 27.9197 16.3873C27.8482 16.415 27.7383 16.4288 27.5901 16.4288C27.379 16.4288 27.2195 16.3779 27.1115 16.2762C27.0035 16.1745 26.9495 16.042 26.9495 15.8787C26.9495 15.738 27.0054 15.6118 27.1172 15.5C27.229 15.3882 27.3652 15.2959 27.526 15.2231C27.6843 15.1477 27.8664 15.0893 28.0723 15.0479C28.2783 15.0064 28.4692 14.9857 28.6451 14.9857C28.8887 14.9857 29.1123 15.0001 29.3158 15.029C29.5192 15.0579 29.7026 15.1176 29.8659 15.208C30.0216 15.2959 30.1453 15.4234 30.237 15.5904C30.3287 15.7575 30.3745 15.9754 30.3745 16.2442C30.3745 16.528 30.3689 16.8646 30.3576 17.254C30.3463 17.6433 30.3406 17.8995 30.3406 18.0226C30.3406 18.1356 30.3576 18.2248 30.3915 18.2901C30.4254 18.3554 30.4775 18.4044 30.5479 18.4371C30.5906 18.4572 30.6577 18.4691 30.7494 18.4729C30.8411 18.4766 30.9246 18.4785 31 18.4785V18.7536ZM29.1274 16.7905C28.9867 16.8382 28.8473 16.8929 28.7091 16.9544C28.571 17.016 28.4579 17.0806 28.37 17.1485C28.2771 17.2188 28.2042 17.3086 28.1515 17.4179C28.0987 17.5271 28.0723 17.6559 28.0723 17.8041C28.0723 18 28.1169 18.1419 28.2061 18.2298C28.2953 18.3178 28.4052 18.3617 28.5358 18.3617C28.674 18.3617 28.7876 18.3335 28.8768 18.2769C28.966 18.2204 29.0445 18.1507 29.1123 18.0678L29.1274 16.7905Z"></path></svg>