<svg xmlns="http://www.w3.org/2000/svg" width="24" height="24" viewBox="0 0 24 24" fill="currentColor"><path fill-rule="evenodd" clip-rule="evenodd" d="M14.3968 4C14.6678 4 14.9448 4.212 15.0168 4.482L16.0958 8.529L17.9998 6.185C18.1738 5.97 18.4888 5.938 18.7038 6.112C18.9178 6.286 18.9508 6.601 18.7758 6.815L16.4138 9.723L18.7598 18.518C18.8308 18.784 18.6678 19 18.3898 19H16.8878V19.5C16.8878 19.776 16.6738 20 16.3838 20H15.3928C15.1138 20 14.8878 19.768 14.8878 19.5V19H8.8878V19.5C8.8878 19.776 8.67381 20 8.38381 20H7.39281C7.11381 20 6.88781 19.768 6.88781 19.5V19H5.38681C5.11081 19 4.94481 18.788 5.01681 18.518L8.75981 4.482C8.83081 4.216 9.11582 4 9.37882 4H14.3968ZM16.7868 15H6.98981L6.18981 18H17.5868L16.7868 15ZM13.3976 16C13.6686 16 13.8876 16.232 13.8876 16.5C13.8876 16.776 13.6726 17 13.3976 17H10.3786C10.1076 17 9.8876 16.768 9.8876 16.5C9.8876 16.224 10.1036 16 10.3786 16H13.3976ZM15.6348 10.682L12.9388 14H16.5198L15.6348 10.682ZM14.1198 5H9.65682L7.25681 14H11.6498L15.3168 9.488L14.1198 5ZM12.3833 10C12.6623 10 12.8883 10.232 12.8883 10.5C12.8883 10.776 12.6743 11 12.3833 11H11.3923C11.1143 11 10.8883 10.768 10.8883 10.5C10.8883 10.224 11.1023 10 11.3923 10H12.3833ZM12.3837 8C12.6617 8 12.8877 8.232 12.8877 8.5C12.8877 8.776 12.6737 9 12.3837 9H11.3927C11.1137 9 10.8877 8.768 10.8877 8.5C10.8877 8.224 11.1017 8 11.3927 8H12.3837ZM12.3837 6C12.6617 6 12.8877 6.232 12.8877 6.5C12.8877 6.776 12.6737 7 12.3837 7H11.3927C11.1137 7 10.8877 6.768 10.8877 6.5C10.8877 6.224 11.1017 6 11.3927 6H12.3837Z"></path></svg>