<svg xmlns="http://www.w3.org/2000/svg" width="24" height="24" viewBox="0 0 24 24" fill="currentColor" title="关闭节拍器"><path fill-rule="evenodd" clip-rule="evenodd" d="M14.3968 4C14.6678 4 14.9448 4.212 15.0168 4.482L16.0958 8.529L17.9998 6.185C18.1738 5.97 18.4888 5.938 18.7038 6.112C18.9178 6.286 18.9508 6.601 18.7758 6.815L16.4138 9.723L17.3598 13.268C17.1228 13.384 16.8968 13.528 16.6988 13.722L16.4488 13.732L15.6348 10.682L13.6108 13.173C13.2978 13.293 13.0038 13.475 12.7508 13.725C12.3928 14.095 12.1678 14.539 12.0688 15H6.98981L6.18981 18H12.4878C12.2648 18.304 12.1128 18.643 12.0458 19H8.88781V19.5C8.88781 19.776 8.67381 20 8.38381 20H7.39281C7.11381 20 6.88781 19.768 6.88781 19.5V19H5.38681C5.11081 19 4.94481 18.788 5.01681 18.518L8.75981 4.482C8.83081 4.216 9.11581 4 9.37881 4H14.3968ZM14.1461 15.146C14.3421 14.951 14.6581 14.951 14.8531 15.146L16.5001 16.793L18.1461 15.146C18.3421 14.951 18.6581 14.951 18.8531 15.146C19.0491 15.342 19.0491 15.658 18.8531 15.854L17.2071 17.5L18.8531 19.146C19.0491 19.342 19.0491 19.658 18.8531 19.854C18.6581 20.049 18.3421 20.049 18.1461 19.854L16.5001 18.207L14.8531 19.854C14.6581 20.049 14.3421 20.049 14.1461 19.854C13.9511 19.658 13.9511 19.342 14.1461 19.146L15.7931 17.5L14.1461 15.854C13.9511 15.658 13.9511 15.342 14.1461 15.146ZM12.0506 16C12.1176 16.356 12.2676 16.695 12.4896 17H10.3786C10.1076 17 9.88761 16.768 9.88761 16.5C9.88761 16.224 10.1036 16 10.3786 16H12.0506ZM14.1198 5H9.65681L7.25681 14H11.6498L15.3168 9.488L14.1198 5ZM12.3833 10C12.6623 10 12.8883 10.232 12.8883 10.5C12.8883 10.776 12.6743 11 12.3833 11H11.3923C11.1143 11 10.8883 10.768 10.8883 10.5C10.8883 10.224 11.1023 10 11.3923 10H12.3833ZM12.3837 8C12.6617 8 12.8877 8.232 12.8877 8.5C12.8877 8.776 12.6737 9 12.3837 9H11.3927C11.1137 9 10.8877 8.768 10.8877 8.5C10.8877 8.224 11.1017 8 11.3927 8H12.3837ZM12.3837 6C12.6617 6 12.8877 6.232 12.8877 6.5C12.8877 6.776 12.6737 7 12.3837 7H11.3927C11.1137 7 10.8877 6.768 10.8877 6.5C10.8877 6.224 11.1017 6 11.3927 6H12.3837Z"></path></svg>