<svg class="midi-icon" inline="" width="16" height="16" viewBox="0 0 16 16" xmlns="http://www.w3.org/2000/svg"><g fill="#FFF" fill-rule="evenodd"><path class="midi_cable_connection" d="M1 .5v3a.5.5 0 0 0 .5.5h2a.5.5 0 0 0 .5-.5v-3a.5.5 0 0 0-.5-.5h-2a.5.5 0 0 0-.5.5zm11 12v3a.5.5 0 0 0 .5.5h2a.5.5 0 0 0 .5-.5v-3a.5.5 0 0 0-.5-.5h-2a.5.5 0 0 0-.5.5zM2 1h1v2H2V1zm11 12h1v2h-1v-2z"></path><path class="midi_cable_core" d="M14 8.42V3.635a4.164 4.164 0 0 0-.387-1.778C13.079.707 12.054 0 10.5 0S7.921.707 7.387 1.858c-.3.646-.394 1.29-.387 1.779v8.727c-.001.068-.012.219-.042.417-.048.33-.131.66-.254.962-.33.81-.862 1.259-1.703 1.257-.842-.002-1.375-.448-1.704-1.248a4.13 4.13 0 0 1-.255-.955A3.581 3.581 0 0 1 3 12.375V7.58A2.303 2.303 0 0 0 5 5.3V4.229C5 3.554 4.445 3 3.766 3H1.234A1.23 1.23 0 0 0 0 4.229V5.3c0 1.173.87 2.134 2 2.28v4.804c.002.127.016.318.053.56.06.403.162.806.319 1.188.47 1.143 1.332 1.865 2.627 1.868 1.298.003 2.162-.725 2.631-1.88.156-.384.258-.789.318-1.193A4.58 4.58 0 0 0 8 12.373V3.636c-.005-.366.07-.872.295-1.357C8.67 1.469 9.35 1 10.5 1c1.15 0 1.83.47 2.205 1.279.226.485.3.991.295 1.343V8.42a2.303 2.303 0 0 0-2 2.28v1.072c0 .674.555 1.228 1.234 1.228h2.532A1.23 1.23 0 0 0 16 11.772V10.7c0-1.173-.87-2.134-2-2.28zm-.699.98h.398c.721 0 1.301.578 1.301 1.3v1.072a.23.23 0 0 1-.234.228h-2.532a.235.235 0 0 1-.234-.228V10.7c0-.717.584-1.3 1.301-1.3zM1.234 4h2.532c.127 0 .234.106.234.229V5.3c0 .717-.584 1.3-1.301 1.3H2.3A1.296 1.296 0 0 1 1 5.3V4.229A.23.23 0 0 1 1.234 4z"></path></g></svg>