<svg xmlns="http://www.w3.org/2000/svg" width="24" height="24" viewBox="0 0 24 24" fill="currentColor"><path d="M16.02 12.02C16.2851 12.02 16.5 12.2349 16.5 12.5C16.5 12.7651 16.2851 12.98 16.02 12.98H8.98C8.7149 12.98 8.5 12.7651 8.5 12.5C8.5 12.2349 8.7149 12.02 8.98 12.02H16.02Z"></path><path fill-rule="evenodd" clip-rule="evenodd" d="M12.5 5C8.35786 5 5 8.35786 5 12.5C5 16.6421 8.35786 20 12.5 20C16.6421 20 20 16.6421 20 12.5C20 8.35786 16.6421 5 12.5 5ZM4 12.5C4 7.80558 7.80558 4 12.5 4C17.1944 4 21 7.80558 21 12.5C21 17.1944 17.1944 21 12.5 21C7.80558 21 4 17.1944 4 12.5Z"></path></svg>