<svg data-icon="noteEighth32" data-version="v2" class="" width="32" height="32" viewBox="0 0 32 32" fill="currentcolor" xmlns="http://www.w3.org/2000/svg"><path fill-rule="evenodd" clip-rule="evenodd" d="M17.2509 6.47873C17.1873 6.13056 17.0177 6 16.6148 6C16.5088 6 16.424 6.04352 16.4028 6.19585V6.32641V11.4402V22.4293C16 22.0593 15.4064 21.8635 14.7067 21.8635C12.0989 21.8635 10 23.8437 10 25.9545C10 27.2384 11.0177 28 12.311 28C14.4311 28 17.0389 25.9763 17.0389 23.909V11.7013C18.3534 12.5282 19.9223 14.9219 20.5795 16.5104C20.8975 17.2502 21.0883 18.4906 21.0883 19.7745C21.0883 20.7537 20.9399 21.7765 20.5795 22.7557C20.5371 22.8862 20.5159 22.9951 20.5159 23.0821C20.5159 23.4303 20.7279 23.6261 20.8551 23.7132L20.8975 23.7349C21.0883 23.7567 21.3428 23.6696 21.4488 23.2997C21.4488 23.2997 22 21.2324 22 19.5351C22 16.815 20.8975 14.2473 19.5618 12.0712C18.4806 10.3521 17.5901 8.56775 17.2509 6.47873Z"></path></svg>