<svg data-icon="noteUnbeam24" data-version="v2" class="" width="24" height="24" viewBox="0 0 24 24" fill="currentcolor" xmlns="http://www.w3.org/2000/svg"><path fill-rule="evenodd" clip-rule="evenodd" d="M11.265 12.555C11.265 12.525 11.265 12.495 11.28 12.45C11.325 12.36 11.655 11.46 11.655 10.545C11.655 10.35 11.64 10.185 11.61 10.005C11.46 8.985 11.07 8.565 9.99 7.395C9.18 6.525 8.34 6.285 8.085 4.695C8.055 4.53 7.875 4.5 7.785 4.5C7.695 4.5 7.53 4.515 7.53 4.515V15.825C7.245 15.57 6.825 15.435 6.33 15.435C4.485 15.435 3 16.8 3 18.255C3 19.14 3.72 19.665 4.635 19.665C6.135 19.665 7.98 18.27 7.98 16.845V10.485C8.805 10.545 9.735 10.8 10.635 12.63C10.98 13.35 11.115 14.085 11.115 14.865C11.115 15.3 11.07 15.75 10.995 16.2C10.98 16.26 10.98 16.29 10.98 16.335C10.98 16.545 11.085 16.665 11.19 16.695C11.235 16.71 11.265 16.725 11.31 16.725C11.415 16.725 11.52 16.665 11.61 16.47C11.67 16.395 11.715 15.54 11.715 14.82V14.49C11.715 13.86 11.55 13.245 11.28 12.69C11.28 12.645 11.265 12.615 11.265 12.555ZM11.07 10.995C11.04 11.115 11.04 11.265 10.965 11.385C10.95 11.43 10.845 11.475 10.77 11.475C10.725 11.475 10.695 11.46 10.665 11.415C10.425 11.04 10.17 10.74 9.855 10.38C9.15 9.57 8.46 9.21 8.145 7.98C8.13 7.965 8.13 7.95 8.13 7.935C8.13 7.875 8.22 7.785 8.34 7.785H8.46C9.375 7.785 10.185 8.625 10.68 9.36C10.95 9.75 11.085 10.215 11.085 10.695C11.085 10.8 11.085 10.89 11.07 10.995Z"></path><path fill-rule="evenodd" clip-rule="evenodd" d="M21.03 12.69C21.03 12.645 21.015 12.615 21.015 12.555C21.015 12.525 21.015 12.495 21.03 12.45C21.075 12.36 21.405 11.46 21.405 10.545C21.405 10.35 21.39 10.185 21.36 10.005C21.21 8.985 20.82 8.565 19.74 7.395C18.93 6.525 18.09 6.285 17.835 4.695C17.805 4.53 17.625 4.5 17.535 4.5C17.445 4.5 17.28 4.515 17.28 4.515V15.825C16.995 15.57 16.575 15.435 16.08 15.435C14.235 15.435 12.75 16.8 12.75 18.255C12.75 19.14 13.47 19.665 14.385 19.665C15.885 19.665 17.73 18.27 17.73 16.845V10.485C18.555 10.545 19.485 10.8 20.385 12.63C20.73 13.35 20.865 14.085 20.865 14.865C20.865 15.3 20.82 15.75 20.745 16.2C20.73 16.26 20.73 16.29 20.73 16.335C20.73 16.545 20.835 16.665 20.94 16.695C20.985 16.71 21.015 16.725 21.06 16.725C21.165 16.725 21.27 16.665 21.36 16.47C21.42 16.395 21.465 15.54 21.465 14.82V14.49C21.465 13.86 21.3 13.245 21.03 12.69ZM20.82 10.995C20.79 11.115 20.79 11.265 20.715 11.385C20.7 11.43 20.595 11.475 20.52 11.475C20.475 11.475 20.445 11.46 20.415 11.415C20.175 11.04 19.92 10.74 19.605 10.38C18.9 9.57 18.21 9.21 17.895 7.98C17.88 7.965 17.88 7.95 17.88 7.935C17.88 7.875 17.97 7.785 18.09 7.785H18.21C19.125 7.785 19.935 8.625 20.43 9.36C20.7 9.75 20.835 10.215 20.835 10.695C20.835 10.8 20.835 10.89 20.82 10.995Z"></path></svg>