<svg data-icon="noteTransposition16" data-version="v2" class="" width="16" height="16" viewBox="0 0 16 16" fill="currentcolor" xmlns="http://www.w3.org/2000/svg"><path fill-rule="evenodd" clip-rule="evenodd" d="M12.2526 4C12.3166 4 12.3801 4.02 12.4286 4.07C12.4396 4.08 12.4446 4.095 12.4526 4.105L13.9286 5.585C14.0241 5.68 14.0241 5.835 13.9286 5.93C13.8331 6.025 13.6786 6.025 13.5831 5.93L12.5001 4.845V11.155L13.5831 10.07C13.6786 9.975 13.8331 9.975 13.9286 10.07C14.0241 10.165 14.0241 10.32 13.9286 10.415L12.4526 11.89C12.4446 11.905 12.4396 11.915 12.4286 11.93C12.3801 11.975 12.3166 12 12.2476 12C12.1836 12 12.1201 11.975 12.0716 11.93C12.0606 11.915 12.0556 11.905 12.0476 11.89L10.5716 10.415C10.4761 10.32 10.4761 10.165 10.5716 10.07C10.6671 9.975 10.8216 9.975 10.9166 10.07L12.0001 11.155V4.845L10.9166 5.93C10.8216 6.025 10.6671 6.025 10.5716 5.93C10.4761 5.835 10.4761 5.68 10.5716 5.585L12.0476 4.105C12.0556 4.095 12.0606 4.08 12.0716 4.07C12.1201 4.02 12.1836 4 12.2526 4ZM2.341 4.671C2.451 4.671 2.55 4.737 2.55 4.858C2.55 4.96067 2.53563 5.59036 2.51918 6.25741L2.51204 6.54416C2.49524 7.2119 2.47813 7.84707 2.473 7.96C2.473 8.037 2.517 8.114 2.594 8.147C2.616 8.158 2.627 8.158 2.649 8.158C2.704 8.158 2.825 8.059 2.891 8.004C3.012 7.927 3.144 7.883 3.265 7.85C3.342 7.828 3.419 7.817 3.496 7.817C4.002 7.85 4.486 8.246 4.486 8.873C4.486 9.379 4.145 10.05 3.166 10.732C2.891 10.919 2.627 11.216 2.297 11.403C2.297 11.403 2.264 11.425 2.231 11.425C2.198 11.425 2.165 11.414 2.132 11.37C2.09114 11.3189 2.05977 9.93763 2.03788 8.47232L2.033 8.13325C2.01336 6.71896 2.00248 5.31564 2.00038 5.03116L2 4.979C2.011 4.781 2.187 4.671 2.341 4.671ZM3.276 8.4C3.188 8.4 3.089 8.422 2.99 8.477C2.836 8.565 2.55 8.807 2.506 8.939C2.495 8.983 2.484 9.115 2.484 9.291C2.484 9.731 2.517 10.391 2.517 10.391C2.517 10.446 2.539 10.556 2.638 10.556C2.671 10.556 2.704 10.545 2.748 10.523C3.078 10.314 3.397 9.962 3.54 9.698C3.672 9.467 3.727 9.236 3.727 9.038C3.727 8.829 3.661 8.642 3.551 8.521C3.485 8.444 3.386 8.4 3.276 8.4ZM8.178 7.125C8.805 7.125 9.245 7.477 9.245 8.038C9.245 8.973 8.046 9.875 7.067 9.875C6.473 9.875 6 9.534 6 8.962C6 8.016 6.968 7.125 8.178 7.125Z"></path></svg>