<svg data-icon="noteBeam24" data-version="v2" class="" width="24" height="24" viewBox="0 0 24 24" fill="currentcolor" xmlns="http://www.w3.org/2000/svg"><path d="M19.275 4.5H9V6.75H19.275V4.5Z"></path><path d="M19.275 7.5H9V9.75H19.275V7.5Z"></path><path fill-rule="evenodd" clip-rule="evenodd" d="M9.03 16.275C8.745 16.02 8.325 15.885 7.83 15.885C5.985 15.885 4.5 17.25 4.5 18.705C4.5 19.59 5.22 20.115 6.135 20.115C7.635 20.115 9.48 18.72 9.48 17.295V4.875H9.03V16.275Z"></path><path fill-rule="evenodd" clip-rule="evenodd" d="M18.78 16.275C18.495 16.02 18.075 15.885 17.58 15.885C15.735 15.885 14.25 17.25 14.25 18.705C14.25 19.59 14.97 20.115 15.885 20.115C17.385 20.115 19.23 18.72 19.23 17.295V4.875H18.78V16.275Z"></path></svg>