<svg data-icon="noteSwitchEnharmonic32" data-version="v2" class="" width="32" height="32" viewBox="0 0 32 32" fill="currentcolor" xmlns="http://www.w3.org/2000/svg"><path d="M28.1112 16.7324C28.1455 16.5891 28.1797 16.1431 28.1797 15.713C28.1797 15.283 28.1455 14.8848 28.1112 14.8052C28.0769 14.7414 27.974 14.7096 27.854 14.7096C27.4253 14.7096 26.6366 15.0441 26.6023 15.3148C26.568 15.4423 26.5509 15.9997 26.5509 16.4935C26.5509 16.8758 26.568 17.2262 26.6023 17.2899C26.6194 17.3377 26.7052 17.3695 26.8081 17.3695C27.2024 17.3695 28.0083 17.051 28.1112 16.7324ZM29.2942 14.1362L28.8484 14.2955C28.7113 14.3432 28.6255 14.6459 28.6255 14.7574V16.2387C28.6255 16.4298 28.7456 16.5254 28.8484 16.5254L29.2942 16.3661C29.3285 16.3502 29.3457 16.3502 29.38 16.3502C29.4486 16.3502 29.5 16.3979 29.5 16.4776V17.6085C29.5 17.704 29.4143 17.8314 29.2942 17.8792C29.2942 17.8792 28.9342 18.0067 28.8142 18.0544C28.6941 18.1022 28.6255 18.2934 28.6255 18.4208V20.6825C28.6255 20.7781 28.5227 20.8577 28.3341 20.8577C28.214 20.8577 28.1112 20.7781 28.1112 20.6825V18.6915C28.1112 18.596 28.0254 18.4048 27.8883 18.4048C27.8711 18.4048 27.8368 18.4208 27.8197 18.4208L26.7738 18.819C26.688 18.8508 26.6023 18.9623 26.6023 19.1694V21.3834C26.6023 21.4789 26.4823 21.5586 26.3108 21.5586C26.1908 21.5586 26.0879 21.4789 26.0879 21.3834V19.4242C26.0879 19.3446 26.0022 19.1694 25.8822 19.1694C25.865 19.1694 25.8479 19.1694 25.8307 19.1853C25.6764 19.2331 25.4364 19.3287 25.4364 19.3287C25.4192 19.3287 25.3849 19.3446 25.3678 19.3446C25.282 19.3446 25.2306 19.2968 25.2306 19.2012V18.0704C25.2306 17.9748 25.3163 17.8474 25.4364 17.8155C25.4364 17.8155 25.7964 17.6722 25.8993 17.6403C26.0022 17.5925 26.0879 17.4492 26.0879 17.274V15.6971C26.0879 15.5697 25.985 15.4104 25.865 15.4104C25.8479 15.4104 25.8307 15.4263 25.8136 15.4263C25.6935 15.49 25.4364 15.5856 25.4364 15.5856C25.4192 15.5856 25.3849 15.6015 25.3678 15.6015C25.282 15.6015 25.2306 15.5538 25.2306 15.4582V14.3273C25.2306 14.2317 25.3163 14.1043 25.4364 14.0725C25.4364 14.0725 25.7793 13.945 25.8822 13.8973C25.985 13.8495 26.0879 13.6902 26.0879 13.4672V11.317C26.0879 11.2214 26.1908 11.1417 26.3622 11.1417C26.4823 11.1417 26.6023 11.2214 26.6023 11.317V13.2283C26.6023 13.3557 26.6537 13.5469 26.8081 13.5469C27.0995 13.4831 27.6825 13.2601 27.8883 13.1487C28.0426 13.0531 28.094 12.846 28.1112 12.6867V10.6161C28.1112 10.5206 28.214 10.4409 28.3855 10.4409C28.5227 10.4409 28.6255 10.5206 28.6255 10.6161V12.5593C28.6255 12.6867 28.7456 12.7664 28.8656 12.7664C28.9513 12.7505 29.2942 12.623 29.2942 12.623C29.3285 12.6071 29.3457 12.6071 29.38 12.6071C29.4486 12.6071 29.5 12.6549 29.5 12.7345V13.8654C29.5 13.961 29.4143 14.0884 29.2942 14.1362Z"></path><path d="M3.47244 19.8565C3.47244 19.9471 3.51383 20.1281 3.70004 20.1281C3.76211 20.1281 3.82418 20.11 3.90694 20.0738C4.52765 19.7298 5.12767 19.1503 5.39664 18.7158C5.64493 18.3355 5.74838 17.9553 5.74838 17.6294C5.74838 17.2853 5.62424 16.9775 5.41733 16.7783C5.29319 16.6516 5.10698 16.5792 4.90008 16.5792C4.73455 16.5792 4.54834 16.6154 4.36213 16.7059C4.07246 16.8508 3.53452 17.2491 3.45175 17.4664C3.43106 17.5388 3.41037 17.7561 3.41037 18.0458C3.41037 18.7701 3.47244 19.8565 3.47244 19.8565ZM2.74828 21.468C2.58276 21.287 2.5 10.9479 2.5 10.9479C2.52069 10.622 2.85174 10.4409 3.1414 10.4409C3.3483 10.4409 3.53452 10.5496 3.53452 10.7487C3.53452 11.1109 3.41037 15.4565 3.38968 15.8549C3.38968 15.9816 3.47244 16.1084 3.61728 16.1627C3.65866 16.1808 3.67935 16.1808 3.72073 16.1808C3.82418 16.1808 4.05177 16.0178 4.17591 15.9273C4.40351 15.8006 4.65179 15.7281 4.87939 15.6738C5.02422 15.6376 5.16905 15.6195 5.31388 15.6195C6.26564 15.6738 7.17601 16.3257 7.17601 17.3578C7.17601 18.1907 6.53461 19.2952 4.69317 20.4178C4.17591 20.7256 3.67935 21.2145 3.05864 21.5224C3.05864 21.5224 2.99657 21.5586 2.9345 21.5586C2.87243 21.5586 2.81035 21.5405 2.74828 21.468Z"></path><path fill-rule="evenodd" clip-rule="evenodd" d="M12.5983 19.4614L9.89807 16.7099C9.73237 16.5411 9.73237 16.2673 9.89807 16.0985L12.5983 13.347C12.764 13.1782 13.0327 13.1782 13.1984 13.347C13.3641 13.5159 13.3641 13.7896 13.1984 13.9584L11.2225 15.9719L18.6842 15.9719V16.8366L11.2225 16.8366L13.1984 18.85C13.3641 19.0188 13.3641 19.2926 13.1984 19.4614C13.0327 19.6302 12.764 19.6302 12.5983 19.4614Z"></path><path fill-rule="evenodd" clip-rule="evenodd" d="M19.6784 13.347L22.3787 16.0984C22.5444 16.2673 22.5444 16.541 22.3787 16.7099L19.6784 19.4614C19.5127 19.6302 19.244 19.6302 19.0783 19.4614C18.9126 19.2925 18.9126 19.0188 19.0783 18.8499L21.0543 16.8365H13.5925V15.9718H21.0543L19.0783 13.9584C18.9126 13.7896 18.9126 13.5158 19.0783 13.347C19.244 13.1781 19.5127 13.1781 19.6784 13.347Z"></path></svg>