<svg data-icon="noteDoubleDotted32" data-version="v2" width="32" height="32" viewBox="0 0 32 32" fill="currentColor" xmlns="http://www.w3.org/2000/svg"><path fill-rule="evenodd" clip-rule="evenodd" d="M10.134 18.5C12.092 18.5 14.49 16.696 14.49 14.826C14.49 13.704 13.61 13 12.356 13C9.936 13 8 14.782 8 16.674C8 17.818 8.946 18.5 10.134 18.5ZM19.99 15.75C19.99 15.134 19.506 14.65 18.89 14.65C18.274 14.65 17.79 15.134 17.79 15.75C17.79 16.366 18.274 16.85 18.89 16.85C19.506 16.85 19.99 16.366 19.99 15.75ZM23.99 15.75C23.99 15.134 23.506 14.65 22.89 14.65C22.274 14.65 21.79 15.134 21.79 15.75C21.79 16.366 22.274 16.85 22.89 16.85C23.506 16.85 23.99 16.366 23.99 15.75Z"/></svg>