<svg data-icon="noteHalf32" data-version="v2" class="" width="32" height="32" viewBox="0 0 32 32" fill="currentcolor" xmlns="http://www.w3.org/2000/svg"><path fill-rule="evenodd" clip-rule="evenodd" d="M14.2991 28C18.1994 28 19 24.6784 19 23.8373V6H18.3842V22.3274C17.9736 21.9608 17.3783 21.7451 16.6598 21.7451C13.1085 21.7451 12 24.6353 12 25.9294C12 27.2451 13.0059 28 14.2991 28ZM14.8534 23.751C16.0235 23.0392 16.7625 22.7804 17.2551 22.7804C17.7067 22.7804 17.9531 22.9961 18.1173 23.298C18.1994 23.449 18.261 23.6 18.261 23.7725C18.261 24.2686 17.7683 24.8725 16.1056 26.0157C15.0381 26.7706 14.2991 27.0294 13.7859 27.0294C13.2933 27.0294 13.0059 26.7706 12.8416 26.4686C12.7595 26.3176 12.6979 26.1451 12.6979 25.9725C12.6979 25.4333 13.2111 24.7431 14.8534 23.751Z"></path></svg>