<svg data-icon="noteVoiceVoice224" data-version="v2" class="" width="24" height="24" viewBox="0 0 24 24" fill="currentcolor" xmlns="http://www.w3.org/2000/svg"><path fill-rule="evenodd" clip-rule="evenodd" d="M12.2902 20.0767C15.9904 20.0767 16.7499 17.0687 16.7499 16.307V3.00015H16.1656V14.9398C15.7761 14.6077 15.2114 14.4124 14.5298 14.4124C11.1606 14.4124 10.109 17.0297 10.109 18.2016C10.109 19.393 11.0633 20.0767 12.2902 20.0767ZM12.816 16.2289C13.9261 15.5843 14.6271 15.3499 15.0945 15.3499C15.523 15.3499 15.7567 15.5452 15.9125 15.8187C15.9904 15.9554 16.0488 16.0921 16.0488 16.2484C16.0488 16.6976 15.5814 17.2445 14.0039 18.2797C12.9913 18.9633 12.2902 19.1977 11.8033 19.1977C11.3359 19.1977 11.0633 18.9633 10.9075 18.6899C10.8296 18.5532 10.7712 18.3969 10.7712 18.2407C10.7712 17.7524 11.258 17.1273 12.816 16.2289Z"></path><path fill-rule="evenodd" clip-rule="evenodd" d="M7.35008 8.94385C7.73013 9.2772 8.2902 9.45368 8.95029 9.45368C11.4106 9.45368 13.3909 7.66927 13.3909 5.76721C13.3909 4.61029 12.4307 3.92398 11.2106 3.92398C9.21032 3.92398 6.75 5.7476 6.75 7.61045V21.0005H7.35008V8.94385Z"></path></svg>