<svg data-icon="noteVoiceVoice124" data-version="v2" class="" width="24" height="24" viewBox="0 0 24 24" fill="currentcolor" xmlns="http://www.w3.org/2000/svg"><path fill-rule="evenodd" clip-rule="evenodd" d="M11.2097 3.92383C7.50951 3.92383 6.75 6.93175 6.75 7.69349V21.0003H7.33424V9.06073C7.72373 9.39278 8.2885 9.58809 8.97011 9.58809C12.3392 9.58809 13.3909 6.97081 13.3909 5.7989C13.3909 4.60745 12.4366 3.92383 11.2097 3.92383ZM10.6839 7.77162C9.57383 8.41618 8.87274 8.65056 8.40535 8.65056C7.9769 8.65056 7.74321 8.45524 7.58741 8.18179C7.50951 8.04507 7.45109 7.90835 7.45109 7.75209C7.45109 7.30286 7.91848 6.75596 9.49593 5.72077C10.5086 5.03715 11.2097 4.80277 11.6966 4.80277C12.164 4.80277 12.4366 5.03715 12.5924 5.3106C12.6703 5.44732 12.7287 5.60358 12.7287 5.75983C12.7287 6.24813 12.2419 6.87315 10.6839 7.77162Z"></path><path fill-rule="evenodd" clip-rule="evenodd" d="M16.1498 15.0566C15.7697 14.7233 15.2097 14.5468 14.5496 14.5468C12.0893 14.5468 10.109 16.3312 10.109 18.2333C10.109 19.3902 11.0691 20.0765 12.2893 20.0765C14.2896 20.0765 16.7499 18.2529 16.7499 16.39V3H16.1498V15.0566Z"></path></svg>