<svg data-icon="noteThirtySecond32" data-version="v2" width="32" height="32" viewBox="0 0 32 32" fill="currentColor" xmlns="http://www.w3.org/2000/svg"><path fill-rule="evenodd" clip-rule="evenodd" d="M21.9787 20.9922C21.9361 20.186 21.7442 19.4005 21.4245 18.6563C21.4032 18.615 21.4032 18.5736 21.4032 18.5116C21.4032 18.4703 21.4032 18.4289 21.4245 18.3876C21.4671 18.2429 21.9147 17.1059 21.9147 15.9276C21.9147 15.6796 21.8934 15.4522 21.8508 15.2041C21.7655 14.7287 21.6377 14.3566 21.4671 14.0052C21.659 13.4677 21.8934 12.6202 21.8934 11.814C21.8934 11.6072 21.8934 11.4212 21.8508 11.2351C21.6163 9.97416 21.1261 9.41602 19.698 7.90698C18.6323 6.7907 17.4814 6.45995 17.119 4.39276C17.0977 4.20672 16.8206 4 16.6927 4C16.5648 4 16.4369 4.24806 16.4369 4.24806V22.708C16.0107 22.3566 15.4139 22.1705 14.7318 22.1705C12.1101 22.1705 10 24.0517 10 26.0568C10 27.2765 11.0231 28 12.3233 28C14.4334 28 17.0551 26.0775 17.0551 24.1137V15.845C18.1634 15.9276 19.3783 16.2791 20.5506 18.5943C21.0195 19.5039 21.2114 20.4341 21.2114 21.4264C21.2114 22.0052 21.1474 22.584 21.0409 23.1835C21.0409 23.2455 21.0195 23.2868 21.0195 23.3282C21.0195 23.5762 21.1474 23.7623 21.2966 23.8243C21.3393 23.845 21.3819 23.8656 21.4245 23.8656C21.5524 23.8656 21.7016 23.7623 21.8508 23.5349C21.9147 23.4109 22 22.4599 22 21.5711C22 21.3643 21.9787 21.1783 21.9787 20.9922ZM21.1048 16.5065C21.0622 16.6718 21.0622 16.8372 20.9982 16.9819C20.9769 17.0439 20.8703 17.1059 20.7638 17.1059C20.6998 17.1059 20.6359 17.0853 20.6146 17.0233C20.2948 16.5685 19.9964 16.2171 19.6341 15.8036L19.5275 15.7003C18.611 14.646 17.6732 14.2119 17.2469 12.6202C17.2469 12.5995 17.3961 12.3721 17.524 12.3514C18.8668 12.3514 19.9538 13.4057 20.6146 14.3566C20.9556 14.8527 21.1474 15.4109 21.1474 16.0103C21.1474 16.1757 21.1261 16.3411 21.1048 16.5065ZM21.1261 12.2481C21.0835 12.4548 20.9769 12.8062 20.8703 13.1576C20.5719 12.7855 20.1883 12.3928 19.698 11.876C18.6536 10.7597 17.6092 10.4083 17.2682 8.4031C18.4405 8.4031 19.698 8.89922 20.8703 10.8217C21.1048 11.2351 21.1901 11.5452 21.1901 11.814C21.1901 11.9793 21.1474 12.1034 21.1261 12.2481Z"/></svg>
