<svg data-icon="noteGraceNote24" data-version="v2" class="" width="24" height="24" viewBox="0 0 24 24" fill="currentcolor" xmlns="http://www.w3.org/2000/svg"><path fill-rule="evenodd" clip-rule="evenodd" d="M10.9822 10.3057C10.4394 9.51088 9.97415 8.69666 9.78029 7.76613C9.7609 7.59165 9.64459 7.57227 9.56704 7.57227H9.47011C9.39257 7.57227 9.33441 7.57227 9.33441 7.68858V16.3542C9.12116 16.2185 8.84976 16.1409 8.53958 16.1409C7.12439 16.1409 6 17.1684 6 18.2734C6 18.9519 6.54281 19.3396 7.24071 19.3396C8.34572 19.3396 9.70275 18.3509 9.78029 17.3041V10.4996C10.2843 10.6159 11.0598 11.0036 11.525 12.2831C11.6607 12.632 11.7771 13.1749 11.7771 13.7564C11.7771 14.2023 11.6995 14.6676 11.525 15.0941C11.5057 15.1522 11.4863 15.2104 11.4863 15.2492C11.4863 15.4043 11.5832 15.5012 11.6607 15.54C11.6801 15.5593 11.7189 15.5593 11.7383 15.5593C11.8158 15.5593 11.9128 15.5012 11.9709 15.3461C12.0291 15.2492 12.2617 14.3768 12.2617 13.737V13.6595C12.2036 12.4188 11.6801 11.2556 10.9822 10.3057ZM14.1616 20.1926C15.8869 20.1926 18 18.603 18 16.9551C18 15.9665 17.2246 15.3461 16.1195 15.3461C13.9871 15.3461 12.2811 16.9164 12.2811 18.5836C12.2811 19.5917 13.1147 20.1926 14.1616 20.1926Z"></path></svg>