<svg data-icon="noteFlat24" data-version="v2" class="" width="24" height="24" viewBox="0 0 24 24" fill="currentcolor" xmlns="http://www.w3.org/2000/svg"><path d="M9.45575 17.5505C9.45575 17.6808 9.5177 17.9414 9.79646 17.9414C9.88938 17.9414 9.9823 17.9153 10.1062 17.8632C11.0354 17.3681 11.9336 16.5342 12.3363 15.9088C12.708 15.3616 12.8628 14.8143 12.8628 14.3453C12.8628 13.8502 12.677 13.4072 12.3673 13.1205C12.1814 12.9381 11.9027 12.8339 11.5929 12.8339C11.3451 12.8339 11.0664 12.886 10.7876 13.0163C10.354 13.2248 9.54867 13.798 9.42478 14.1107C9.39381 14.215 9.36283 14.5277 9.36283 14.9446C9.36283 15.987 9.45575 17.5505 9.45575 17.5505ZM8.37168 19.8697C8.12389 19.6091 8 4.72964 8 4.72964C8.03097 4.26059 8.52655 4 8.96018 4C9.26991 4 9.54867 4.15635 9.54867 4.443C9.54867 4.96417 9.36283 11.2182 9.33186 11.7915C9.33186 11.9739 9.45575 12.1564 9.67257 12.2345C9.73451 12.2606 9.76549 12.2606 9.82743 12.2606C9.9823 12.2606 10.323 12.0261 10.5088 11.8958C10.8496 11.7134 11.2212 11.6091 11.5619 11.5309C11.7788 11.4788 11.9956 11.4528 12.2124 11.4528C13.6372 11.5309 15 12.4691 15 13.9544C15 15.1531 14.0398 16.7427 11.2832 18.3583C10.5088 18.8013 9.76549 19.5049 8.83628 19.9479C8.83628 19.9479 8.74336 20 8.65044 20C8.55752 20 8.4646 19.9739 8.37168 19.8697Z"></path></svg>