<svg data-icon="noteWhole32" data-version="v2" width="32" height="32" viewBox="0 0 32 32" fill="currentColor" xmlns="http://www.w3.org/2000/svg"><path fill-rule="evenodd" clip-rule="evenodd" d="M16.1234 12.9102C12.8696 12.9102 10.85 14.291 10.85 15.9662C10.85 17.6187 12.2413 19.0902 15.8766 19.0902C19.8709 19.0902 21.15 17.6866 21.15 15.9662C21.15 14.2231 18.3898 12.9102 16.1234 12.9102ZM13.5652 14.4495C13.8345 13.6119 14.7321 13.4761 15.4951 13.4761C17.1556 13.4761 18.502 15.2871 18.502 16.7811C18.502 16.9396 18.4796 17.0981 18.4572 17.2339C18.345 17.8451 17.9859 18.2752 17.38 18.4337C17.1332 18.5016 16.8864 18.5242 16.6395 18.5242C16.4151 18.5242 16.2132 18.5016 15.9888 18.4337C15.5848 18.2978 15.1809 18.0715 14.8443 17.7772C14.6648 17.6187 14.4853 17.4376 14.3282 17.2339C13.8569 16.668 13.4755 15.8304 13.4755 15.0607C13.4755 14.857 13.4979 14.6532 13.5652 14.4495Z"/></svg>