<svg data-icon="noteNatural24" data-version="v2" class="" width="24" height="24" viewBox="0 0 24 24" fill="currentcolor" xmlns="http://www.w3.org/2000/svg"><path d="M10.881 11.1479V13.5858C10.881 13.6805 11 13.7278 11.1667 13.7278C11.7619 13.7278 13.119 13.1834 13.119 12.7574V10.3195C13.119 10.2249 13.0476 10.2012 12.9048 10.2012C12.3333 10.2012 10.881 10.8166 10.881 11.1479ZM13.3571 7.78698L13.7143 7.66864C13.7381 7.64497 13.7857 7.64497 13.8095 7.64497C13.9048 7.64497 14 7.71598 14 7.83432V19.716C14 19.8817 13.8571 20 13.7143 20H13.4048C13.2381 20 13.119 19.8817 13.119 19.716V16.1893C13.119 16 12.9524 15.929 12.7143 15.929C12.0238 15.929 10.6905 16.497 10.3571 16.6391C10.3333 16.6627 10.2857 16.6627 10.2857 16.6627C10.2619 16.6627 10.2143 16.6864 10.1905 16.6864C10.0714 16.6864 10 16.6154 10 16.4734V4.28402C10 4.11834 10.119 4 10.2857 4H10.5952C10.7381 4 10.881 4.11834 10.881 4.28402V8.23669C10.881 8.33136 10.9762 8.35503 11.119 8.35503C11.7381 8.35503 13.2619 7.81065 13.2619 7.81065C13.2857 7.81065 13.3095 7.78698 13.3571 7.78698Z"></path></svg>