<svg data-icon="noteSixteenth32" data-version="v2" width="32" height="32" viewBox="0 0 32 32" fill="currentColor" xmlns="http://www.w3.org/2000/svg"><path fill-rule="evenodd" clip-rule="evenodd" d="M22.3511 17.8813C22.3511 17.816 22.3287 17.7725 22.3287 17.6855C22.3287 17.6419 22.3287 17.5984 22.3511 17.5331C22.4182 17.4026 22.9105 16.0969 22.9105 14.7695C22.9105 14.4866 22.8881 14.2473 22.8434 13.9862C22.6196 12.5064 22.0379 11.8971 20.4268 10.1998C19.2186 8.93768 17.9656 8.58952 17.5852 6.28289C17.5404 6.04352 17.2719 6 17.1377 6C17.0034 6 16.7573 6.02176 16.7573 6.02176V14.6607V22.4293C16.3322 22.0593 15.7057 21.8635 14.9673 21.8635C12.2151 21.8635 10 23.8437 10 25.9545C10 27.2384 11.074 28 12.4389 28C14.6764 28 17.4286 25.9763 17.4286 23.909V14.6825C18.6592 14.7695 20.0465 15.1395 21.389 17.7943C21.9036 18.8388 22.105 19.905 22.105 21.0366C22.105 21.6677 22.0379 22.3205 21.926 22.9733C21.9036 23.0603 21.9036 23.1039 21.9036 23.1691C21.9036 23.4738 22.0602 23.6479 22.2169 23.6914C22.284 23.7132 22.3287 23.7349 22.3959 23.7349C22.5525 23.7349 22.7091 23.6479 22.8434 23.365C22.9329 23.2562 23 22.0158 23 20.9713V20.4926C23 19.5786 22.7539 18.6864 22.3511 17.8813ZM22.0379 15.4224C21.9931 15.5964 21.9931 15.814 21.8812 15.9881C21.8589 16.0534 21.7022 16.1187 21.5904 16.1187C21.5232 16.1187 21.4785 16.0969 21.4337 16.0317C21.0757 15.4876 20.6954 15.0524 20.2255 14.5302C19.1738 13.3551 18.1446 12.8328 17.6747 11.0485C17.6523 11.0267 17.6523 11.0049 17.6523 10.9832C17.6523 10.8961 17.7866 10.7656 17.9656 10.7656H18.1446C19.5095 10.7656 20.7177 11.9842 21.4561 13.0504C21.8589 13.6162 22.0602 14.2908 22.0602 14.9871C22.0602 15.1395 22.0602 15.27 22.0379 15.4224Z"/></svg>
