<svg data-icon="noteGhostNote24" data-version="v2" class="" width="24" height="24" viewBox="0 0 24 24" fill="currentcolor" xmlns="http://www.w3.org/2000/svg"><path fill-rule="evenodd" clip-rule="evenodd" d="M8.77255 7.05518L8.87818 7.24001C8.08602 7.90014 7.74275 8.29622 7.42588 8.98276C7.10902 9.6693 6.977 10.5935 6.977 11.7817C6.977 12.8907 7.10902 13.7357 7.37307 14.5015C7.66353 15.3464 7.9804 15.7425 8.87818 16.429L8.74615 16.6139C8.16523 16.2442 7.87478 16.0066 7.39948 15.4785C6.42248 14.343 6 13.234 6 11.8081C6 10.4879 6.39608 9.37884 7.18824 8.40184C7.61072 7.90014 7.95399 7.60969 8.77255 7.05518ZM15.2274 7.05518C16.0724 7.60969 16.3893 7.90014 16.8118 8.40184C17.6039 9.37884 18 10.4879 18 11.8081C18 13.234 17.5775 14.343 16.6005 15.4785C16.1516 16.0066 15.8612 16.2442 15.2803 16.6139L15.1218 16.429C16.0196 15.7425 16.3365 15.3464 16.6533 14.5015C16.9174 13.7357 17.0494 12.8907 17.0494 11.7817C17.0494 10.5935 16.891 9.6693 16.6005 8.98276C16.2837 8.29622 15.9404 7.90014 15.1218 7.24001L15.2274 7.05518ZM12.971 9.46046C14.0656 9.46046 14.8338 10.075 14.8338 11.0544C14.8338 12.6867 12.7405 14.2614 11.0314 14.2614C9.9944 14.2614 9.16863 13.6661 9.16863 12.6675C9.16863 11.016 10.8586 9.46046 12.971 9.46046Z"></path></svg>