<svg data-icon="noteSharp24" data-version="v2" class="" width="24" height="24" viewBox="0 0 24 24" fill="currentcolor" xmlns="http://www.w3.org/2000/svg"><path d="M13.0482 13.0544C13.0964 12.8481 13.1446 12.2063 13.1446 11.5874C13.1446 10.9685 13.0964 10.3954 13.0482 10.2808C13 10.1891 12.8554 10.1433 12.6867 10.1433C12.0843 10.1433 10.9759 10.6246 10.9277 11.0143C10.8795 11.1977 10.8554 12 10.8554 12.7106C10.8554 13.2607 10.8795 13.765 10.9277 13.8567C10.9518 13.9255 11.0723 13.9713 11.2169 13.9713C11.7711 13.9713 12.9036 13.5129 13.0482 13.0544ZM14.7108 9.31805L14.0843 9.54728C13.8916 9.61605 13.7711 10.0516 13.7711 10.212V12.3438C13.7711 12.6189 13.9398 12.7564 14.0843 12.7564L14.7108 12.5272C14.759 12.5043 14.7831 12.5043 14.8313 12.5043C14.9277 12.5043 15 12.5731 15 12.6877V14.3152C15 14.4527 14.8795 14.6361 14.7108 14.7049C14.7108 14.7049 14.2048 14.8883 14.0361 14.957C13.8675 15.0258 13.7711 15.3009 13.7711 15.4842V18.7393C13.7711 18.8768 13.6265 18.9914 13.3614 18.9914C13.1928 18.9914 13.0482 18.8768 13.0482 18.7393V15.8739C13.0482 15.7364 12.9277 15.4613 12.7349 15.4613C12.7108 15.4613 12.6627 15.4842 12.6386 15.4842L11.1687 16.0573C11.0482 16.1032 10.9277 16.2636 10.9277 16.5616V19.7479C10.9277 19.8854 10.759 20 10.5181 20C10.3494 20 10.2048 19.8854 10.2048 19.7479V16.9284C10.2048 16.8138 10.0843 16.5616 9.91566 16.5616C9.89157 16.5616 9.86747 16.5616 9.84337 16.5845C9.62651 16.6533 9.28916 16.7908 9.28916 16.7908C9.26506 16.7908 9.21687 16.8138 9.19277 16.8138C9.07229 16.8138 9 16.745 9 16.6074V14.9799C9 14.8424 9.12048 14.659 9.28916 14.6132C9.28916 14.6132 9.79518 14.4069 9.93976 14.361C10.0843 14.2923 10.2048 14.086 10.2048 13.8338V11.5645C10.2048 11.3811 10.0602 11.1519 9.89157 11.1519C9.86747 11.1519 9.84337 11.1748 9.81928 11.1748C9.6506 11.2665 9.28916 11.404 9.28916 11.404C9.26506 11.404 9.21687 11.4269 9.19277 11.4269C9.07229 11.4269 9 11.3582 9 11.2206V9.59312C9 9.45559 9.12048 9.27221 9.28916 9.22636C9.28916 9.22636 9.77108 9.04298 9.91566 8.97421C10.0602 8.90544 10.2048 8.67622 10.2048 8.3553V5.26075C10.2048 5.12321 10.3494 5.0086 10.5904 5.0086C10.759 5.0086 10.9277 5.12321 10.9277 5.26075V8.01146C10.9277 8.19484 11 8.46991 11.2169 8.46991C11.6265 8.37822 12.4458 8.05731 12.7349 7.89685C12.9518 7.75931 13.0241 7.46132 13.0482 7.23209V4.25215C13.0482 4.11461 13.1928 4 13.4337 4C13.6265 4 13.7711 4.11461 13.7711 4.25215V7.04871C13.7711 7.23209 13.9398 7.3467 14.1084 7.3467C14.2289 7.32378 14.7108 7.1404 14.7108 7.1404C14.759 7.11748 14.7831 7.11748 14.8313 7.11748C14.9277 7.11748 15 7.18625 15 7.30086V8.92837C15 9.0659 14.8795 9.24928 14.7108 9.31805Z"></path></svg>