<svg data-icon="noteDeadNote24" data-version="v2" class="" width="24" height="24" viewBox="0 0 24 24" fill="currentcolor" xmlns="http://www.w3.org/2000/svg"><path fill-rule="evenodd" clip-rule="evenodd" d="M13.95 4.5L13.9502 16.5071C14.0268 16.5305 14.1 16.6098 14.1 16.71C14.1 16.77 14.07 16.845 14.025 16.875L12.24 18.375L14.025 19.86C14.07 19.905 14.1 19.965 14.1 20.04C14.1 20.13 14.025 20.25 13.905 20.25C13.875 20.25 13.83 20.235 13.8 20.205L11.91 18.63L10.05 20.205C10.02 20.235 9.99 20.25 9.945 20.25C9.825 20.25 9.75 20.145 9.75 20.025C9.75 19.965 9.765 19.905 9.825 19.86L11.61 18.375L9.825 16.875C9.78 16.83 9.75 16.755 9.75 16.695C9.75 16.605 9.825 16.5 9.93 16.5C9.975 16.5 10.02 16.515 10.05 16.53L11.91 18.105L13.5 16.7797V4.5H13.95Z"></path></svg>