<svg data-icon="noteAcciaccatura24" data-version="v2" class="" width="24" height="24" viewBox="0 0 24 24" fill="currentcolor" xmlns="http://www.w3.org/2000/svg"><path fill-rule="evenodd" clip-rule="evenodd" d="M12.4969 10.7933C12.4417 10.7197 12.3497 10.6645 12.2577 10.6645C12.2025 10.6645 12.1472 10.7013 12.092 10.7381L11.135 11.4559C11.0061 11.2534 10.8773 11.0326 10.7301 10.8485C10.2147 10.0939 9.77301 9.3209 9.58896 8.43747C9.57055 8.27182 9.46012 8.25342 9.3865 8.25342H9.29448C9.22086 8.25342 9.16564 8.25342 9.16564 8.36385V12.9835L7.69325 14.1062C7.61963 14.1614 7.56442 14.2534 7.56442 14.3454C7.56442 14.4007 7.60123 14.4559 7.63804 14.5111C7.69325 14.5847 7.78528 14.6399 7.8773 14.6399C7.93252 14.6399 7.98773 14.6215 8.04294 14.5663L9.16564 13.7197V16.5908C8.96319 16.462 8.70552 16.3884 8.41104 16.3884C7.06749 16.3884 6 17.3638 6 18.4129C6 19.0571 6.51534 19.4252 7.17791 19.4252C8.22699 19.4252 9.51534 18.4865 9.58896 17.4927V13.3884L11.0429 12.2657C11.1166 12.4129 11.1902 12.5602 11.2454 12.7258C11.3742 13.0571 11.4847 13.5724 11.4847 14.1246C11.4847 14.5479 11.411 14.9896 11.2454 15.3945C11.227 15.4497 11.2086 15.505 11.2086 15.5418C11.2086 15.689 11.3006 15.781 11.3742 15.8178C11.3926 15.8362 11.4294 15.8362 11.4479 15.8362C11.5215 15.8362 11.6135 15.781 11.6687 15.6338C11.7239 15.5418 11.9448 14.7135 11.9448 14.1062V14.0326C11.908 13.3148 11.7239 12.6338 11.411 11.9896L12.4417 11.1982C12.5153 11.143 12.5706 11.051 12.5706 10.9589C12.5706 10.9037 12.5337 10.8485 12.4969 10.7933ZM9.58896 12.6522V11.0326C9.90184 11.1062 10.3436 11.2902 10.7301 11.7688L9.58896 12.6522ZM14.3558 20.1982C15.9939 20.1982 18 18.689 18 17.1246C18 16.1859 17.2638 15.597 16.2147 15.597C14.1902 15.597 12.5706 17.0878 12.5706 18.6706C12.5706 19.6277 13.362 20.1982 14.3558 20.1982Z"></path></svg>