<svg data-icon="noteBeamingPolicy16" data-version="v2" class="" width="16" height="16" viewBox="0 0 16 16" fill="currentcolor" xmlns="http://www.w3.org/2000/svg"><path fill-rule="evenodd" clip-rule="evenodd" d="M7.73663 11.3076C7.51947 11.1288 7.19943 11.0342 6.82224 11.0342C5.41637 11.0342 4.28481 11.9912 4.28481 13.0114C4.28481 13.6319 4.83345 14 5.53067 14C6.67366 14 8.07953 13.0219 8.07953 12.0228V5.94391H7.73663V11.3076Z"></path><path d="M5.91902 5.51116H3.71429V6.01168H5.91793C5.89231 5.84517 5.89231 5.67716 5.91902 5.51116ZM6.45044 4.52567C6.51258 4.46799 6.58235 4.42235 6.65102 4.37471L5.16195 3.00455L4.79785 3.33957L6.28693 4.70972C6.33871 4.64703 6.38831 4.58334 6.45044 4.52567ZM7.52964 4.03568C7.7106 4.01211 7.89373 4.01211 8.07469 4.03668V2H7.52964V4.03568ZM6.45535 7.00569C6.51694 7.06236 6.58616 7.107 6.65429 7.15464L5.16522 8.5248L4.80112 8.18979L6.2902 6.81963C6.34252 6.88282 6.39267 6.94701 6.45535 7.00569ZM9.30923 4.71073L10.7994 3.33957L10.4353 3.00455L8.94513 4.37521C9.01327 4.42335 9.08358 4.46849 9.14517 4.52567C9.20839 4.58334 9.25745 4.64754 9.30923 4.71073Z"></path><path d="M12.2857 5.68098H7.71377V7.25855H12.2857V5.68098Z"></path></svg>