<svg data-icon="noteSixtyFourth32" data-version="v2" class="" width="32" height="32" viewBox="0 0 32 32" fill="currentcolor" xmlns="http://www.w3.org/2000/svg"><path fill-rule="evenodd" clip-rule="evenodd" d="M20.4725 19.3397C20.4529 19.3015 20.4529 19.2632 20.4529 19.2059C20.4529 19.1676 20.4529 19.1294 20.4725 19.0912C20.5115 18.9574 20.9218 17.9059 20.9218 16.8162C20.9218 16.5868 20.9023 16.3765 20.8632 16.1471C20.7851 15.7074 20.6679 15.3632 20.5115 15.0382C20.6874 14.5412 20.9023 13.7574 20.9023 13.0118C20.9023 12.8206 20.9023 12.6485 20.8632 12.4765C20.7851 12.0368 20.6678 11.6735 20.4725 11.3294C20.6483 10.8515 20.9023 10.0103 20.9023 9.20735C20.9023 9.03529 20.8828 8.86324 20.8632 8.69118C20.6483 7.525 20.1989 7.00882 18.8899 5.61324C17.913 4.58088 16.8579 4.275 16.5258 2.36324C16.5062 2.19118 16.2522 2 16.135 2C16.0178 2 15.9005 2.22941 15.9005 2.22941V23.1059C15.5098 22.7809 14.9627 22.6088 14.3375 22.6088C11.9343 22.6088 10 24.3485 10 26.2029C10 27.3309 10.9378 28 12.1297 28C14.0639 28 16.4671 26.2221 16.4671 24.4059V16.7397C17.4831 16.8162 18.5968 17.1412 19.6714 19.2824C20.1012 20.1235 20.2771 20.9838 20.2771 21.9015C20.2771 22.4368 20.2185 22.9721 20.1208 23.5265C20.1208 23.5838 20.1012 23.6221 20.1012 23.6603C20.1012 23.8897 20.2185 24.0618 20.3552 24.1191C20.3943 24.1382 20.4334 24.1574 20.4725 24.1574C20.5897 24.1574 20.7265 24.0618 20.8632 23.8515C20.9218 23.7368 21 22.8574 21 22.0353C21 21.8441 20.9805 21.6721 20.9805 21.5C20.9414 20.7544 20.7655 20.0279 20.4725 19.3397ZM20.1794 17.3515C20.1403 17.5044 20.1403 17.6574 20.0817 17.7912C20.0622 17.8485 19.9645 17.9059 19.8668 17.9059C19.8082 17.9059 19.7496 17.8868 19.73 17.8294C19.4369 17.4088 19.1634 17.0838 18.8313 16.7015L18.7336 16.6059C17.8934 15.6309 17.0337 15.2294 16.643 13.7574C16.643 13.7382 16.7798 13.5279 16.897 13.5088C18.1279 13.5088 19.1243 14.4838 19.73 15.3632C20.0426 15.8221 20.2185 16.3382 20.2185 16.8926C20.2185 17.0456 20.1989 17.1985 20.1794 17.3515ZM20.1989 13.4132C20.1599 13.6044 20.0622 13.9294 19.9645 14.2544C19.6909 13.9103 19.3393 13.5471 18.8899 13.0691C17.9325 12.0368 16.9751 11.7118 16.6625 9.85735C17.7371 9.85735 18.8899 10.3162 19.9645 12.0941C20.1794 12.4765 20.2575 12.7632 20.2575 13.0118C20.2575 13.1647 20.2185 13.2794 20.1989 13.4132ZM20.1989 9.62794L19.9449 10.5647C19.6714 10.2397 19.3393 9.87647 18.8899 9.39853C17.913 8.36618 17.0142 8.06029 16.6821 6.14853C16.6821 6.12941 16.6821 6.09118 16.6625 6.07206C17.7762 6.07206 18.8899 6.55 19.9645 8.30882C20.1794 8.69118 20.2575 8.97794 20.2575 9.22647C20.2575 9.37941 20.2185 9.49412 20.1989 9.62794Z"></path></svg>