<svg data-icon="ornamentMordentInverted24" data-version="v2" class="triggerIcon_YpvKO" width="24" height="24" viewBox="0 0 24 24" fill="currentcolor" xmlns="http://www.w3.org/2000/svg"><path fill-rule="evenodd" clip-rule="evenodd" d="M12.2308 11.2253V9H11.7198V11.7857L11.2418 12.3462C11.1923 12.3791 11.1594 12.4286 11.1264 12.478C10.533 11.7857 9.5275 10.6319 9.44509 10.5165C9.31322 10.3846 9.21432 10.2363 8.9341 10.2198C8.78574 10.2198 8.70333 10.2692 8.57146 10.3681C8.42311 10.4835 8.30772 10.6319 8.19234 10.7802L8.1264 10.8462C7.68135 11.3407 7.23629 11.8352 6.80772 12.3462L6.21432 13.0385C6.11542 13.1374 6.00003 13.3022 6.00003 13.4176C6.00003 13.5165 6.08245 13.5824 6.3297 13.5824C6.59344 13.5824 6.82421 13.3516 6.98904 13.1868C7.20333 13.0055 7.40113 12.8077 7.6319 12.6264C7.79673 12.4945 7.91212 12.4121 7.99454 12.4121C8.07695 12.4121 8.14289 12.478 8.24179 12.6099L9.67585 14.1429C9.74179 14.2253 9.87366 14.2582 10.0055 14.2582C10.1209 14.2582 10.2363 14.2253 10.3022 14.1593C10.4671 14.0604 11.4231 13.1868 11.6868 12.956V15.4615H12.2143V12.511C12.2803 12.4615 12.3462 12.4286 12.4121 12.4286C12.4945 12.4286 12.577 12.478 12.6759 12.6099C12.7418 12.7088 13.9616 13.978 14.1099 14.1429C14.1759 14.2253 14.3077 14.2582 14.4231 14.2582C14.555 14.2582 14.6704 14.2253 14.7363 14.1593C14.8682 14.0604 17.555 11.1264 17.7693 10.8791L17.8022 10.8297C17.9011 10.7308 18 10.6154 18 10.5C18 10.4505 17.9835 10.4011 17.9176 10.3516C17.8022 10.2692 17.6868 10.2198 17.5715 10.2198C17.4561 10.2198 17.3572 10.2692 17.2748 10.3352C17.0934 10.4835 15.9561 11.9011 15.7583 12.0824C15.6264 12.1978 15.544 12.2473 15.4616 12.2473C15.3462 12.2473 15.2473 12.1648 15.1649 12.0824C15.033 11.9505 13.9451 10.5989 13.7803 10.4505C13.6319 10.3187 13.5 10.2198 13.3682 10.2198C13.2363 10.2198 13.1539 10.2527 13.0055 10.3681C12.8572 10.4835 12.7418 10.6484 12.6264 10.7802L12.2308 11.2253Z"></path></svg>