<svg data-icon="ornamentTurn24" data-version="v2" class="" width="24" height="24" viewBox="0 0 24 24" fill="currentcolor" xmlns="http://www.w3.org/2000/svg"><path fill-rule="evenodd" clip-rule="evenodd" d="M15.279 9.79834C14.5679 9.79834 13.9945 10.1194 13.9945 10.8075C13.9945 11.3121 14.3386 11.6332 14.8202 11.6332C15.4854 11.6332 15.5083 11.1057 15.99 11.1057C16.3799 11.1057 16.7468 11.5873 16.7468 12.1837C16.7468 13.1699 16.0588 13.6516 15.256 13.6516C14.5221 13.6516 13.7652 13.0323 12.779 11.9314C11.6551 10.6928 10.6459 9.82127 9.1551 9.82127C7.64134 9.82127 6.76978 10.9681 6.76978 12.436C6.76978 14.0873 7.82482 14.7983 8.81106 14.7983C9.52207 14.7983 10.0955 14.4772 10.0955 13.7892C10.0955 13.2846 9.75143 12.9635 9.26978 12.9635C8.60464 12.9635 8.5817 13.491 8.10005 13.491C7.71014 13.491 7.34317 13.0093 7.34317 12.413C7.34317 11.4268 8.03124 10.9451 8.834 10.9451C9.56794 10.9451 10.3248 11.5644 11.3111 12.6653C12.4349 13.9038 13.4441 14.7754 14.9349 14.7754C16.4487 14.7754 17.3202 13.6286 17.3202 12.1607C17.3202 10.5093 16.2652 9.79834 15.279 9.79834Z"></path></svg>