<svg data-icon="ornamentTremolo2424" data-version="v2" class="" width="24" height="24" viewBox="0 0 24 24" fill="currentcolor" xmlns="http://www.w3.org/2000/svg"><path fill-rule="evenodd" clip-rule="evenodd" d="M19.365 17.655V5.25H18.915V16.605C18.615 16.35 18.18 16.2 17.655 16.2C15.06 16.2 14.25 18.21 14.25 19.11C14.25 20.025 14.985 20.55 15.93 20.55C18.78 20.55 19.365 18.24 19.365 17.655ZM18.09 16.92C18.42 16.92 18.6 17.07 18.72 17.28C18.78 17.385 18.825 17.49 18.825 17.61C18.825 17.955 18.465 18.375 17.25 19.17C16.47 19.695 15.93 19.875 15.555 19.875C15.195 19.875 14.985 19.695 14.865 19.485C14.805 19.38 14.76 19.26 14.76 19.14C14.76 18.765 15.135 18.285 16.335 17.595C17.19 17.1 17.73 16.92 18.09 16.92Z"></path><path fill-rule="evenodd" clip-rule="evenodd" d="M9.615 17.655V5.25H9.165V16.605C8.865 16.35 8.43 16.2 7.905 16.2C5.31 16.2 4.5 18.21 4.5 19.11C4.5 20.025 5.235 20.55 6.18 20.55C9.03 20.55 9.615 18.24 9.615 17.655ZM8.34 16.92C8.67 16.92 8.85 17.07 8.97 17.28C9.03 17.385 9.075 17.49 9.075 17.61C9.075 17.955 8.715 18.375 7.5 19.17C6.72 19.695 6.18 19.875 5.805 19.875C5.445 19.875 5.235 19.695 5.115 19.485C5.055 19.38 5.01 19.26 5.01 19.14C5.01 18.765 5.385 18.285 6.585 17.595C7.44 17.1 7.98 16.92 8.34 16.92Z"></path><path d="M17.8393 9.75H10.5V12H17.8393V9.75Z"></path><path d="M17.8393 12.75H10.5V15H17.8393V12.75Z"></path><path d="M17.8393 6.75H10.5V9H17.8393V6.75Z"></path><path d="M17.8393 3.75H10.5V6H17.8393V3.75Z"></path></svg>