<svg data-icon="ornamentTremolo2124" data-version="v2" class="" width="24" height="24" viewBox="0 0 24 24" fill="currentcolor" xmlns="http://www.w3.org/2000/svg"><path fill-rule="evenodd" clip-rule="evenodd" d="M19.365 16.905V4.5H18.915V15.855C18.615 15.6 18.18 15.45 17.655 15.45C15.06 15.45 14.25 17.46 14.25 18.36C14.25 19.275 14.985 19.8 15.93 19.8C18.78 19.8 19.365 17.49 19.365 16.905ZM18.09 16.17C18.42 16.17 18.6 16.32 18.72 16.53C18.78 16.635 18.825 16.74 18.825 16.86C18.825 17.205 18.465 17.625 17.25 18.42C16.47 18.945 15.93 19.125 15.555 19.125C15.195 19.125 14.985 18.945 14.865 18.735C14.805 18.63 14.76 18.51 14.76 18.39C14.76 18.015 15.135 17.535 16.335 16.845C17.19 16.35 17.73 16.17 18.09 16.17Z"></path><path fill-rule="evenodd" clip-rule="evenodd" d="M9.615 16.905V4.5H9.165V15.855C8.865 15.6 8.43 15.45 7.905 15.45C5.31 15.45 4.5 17.46 4.5 18.36C4.5 19.275 5.235 19.8 6.18 19.8C9.03 19.8 9.615 17.49 9.615 16.905ZM8.34 16.17C8.67 16.17 8.85 16.32 8.97 16.53C9.03 16.635 9.075 16.74 9.075 16.86C9.075 17.205 8.715 17.625 7.5 18.42C6.72 18.945 6.18 19.125 5.805 19.125C5.445 19.125 5.235 18.945 5.115 18.735C5.055 18.63 5.01 18.51 5.01 18.39C5.01 18.015 5.385 17.535 6.585 16.845C7.44 16.35 7.98 16.17 8.34 16.17Z"></path><path d="M17.8393 4.5H10.5V6.75H17.8393V4.5Z"></path></svg>