<svg data-icon="ornamentTrills32" data-version="v2" class="" width="32" height="32" viewBox="0 0 32 32" fill="currentcolor" xmlns="http://www.w3.org/2000/svg"><path fill-rule="evenodd" clip-rule="evenodd" d="M16.1478 11C16.0403 11 15.8791 11.0537 15.7985 11.0806L14.4818 11.5106C14.2399 11.5912 14.1324 11.6718 14.025 11.9405L13.0576 14.3052C12.9501 14.5739 12.9232 14.6276 12.8426 14.6276C12.7351 14.6276 12.5739 14.4933 12.3321 14.3858C11.9559 14.2246 11.6065 14.144 11.2035 14.144C9.9405 14.144 9 14.8964 9 16.025C9 16.858 9.5643 17.5566 10.7735 17.5566C11.096 17.5566 11.4453 17.5029 11.6065 17.5029C11.6603 17.5029 11.6871 17.5297 11.6871 17.5835C11.6871 17.6372 11.6603 17.7179 11.6065 17.8522L11.3109 18.5777C11.0154 19.3033 10.8004 19.8407 10.8004 20.405C10.8004 21.1574 11.3109 21.7486 12.3321 21.7486C13.7294 21.7486 15.0729 20.62 15.0729 18.6315C15.0729 17.9866 14.9655 17.3954 14.7236 16.8042C14.6699 16.6699 14.643 16.6161 14.643 16.5355C14.643 16.3743 14.8042 16.2399 15.2342 15.9981L15.3954 15.9175C16.3359 15.3532 16.9808 14.977 17.4914 14.977C17.7332 14.977 17.8407 15.0576 17.8407 15.38C17.8407 15.6488 17.7601 15.9712 17.6795 16.1593L15.7179 21.023C15.6641 21.1574 15.6372 21.238 15.6372 21.3186C15.6372 21.4261 15.7179 21.4798 15.9328 21.4798H17.2495C17.4914 21.4798 17.572 21.4261 17.6795 21.1574L19.4261 16.8042C19.7754 15.9175 20.6353 14.9232 21.2265 14.9232C21.3877 14.9232 21.4952 14.977 21.4952 15.0845C21.4952 15.3263 20.904 15.4069 20.904 16.1593C20.904 16.6967 21.3071 17.0192 21.8714 17.0192C22.5163 17.0192 23 16.4818 23 15.5413C23 14.762 22.5969 14.1171 21.6027 14.1171C20.904 14.1171 20.3397 14.4933 19.9367 14.9501C19.6948 15.2188 19.6679 15.3263 19.5605 15.3263C19.4261 15.3263 19.5336 15.1382 19.3186 14.7351C19.1305 14.3858 18.7274 14.144 18.1363 14.144C17.0614 14.144 16.0403 14.6814 15.476 14.977C15.1267 15.1651 14.9655 15.2726 14.8311 15.2726C14.7774 15.2726 14.7505 15.2457 14.7505 15.1919C14.7505 15.0845 14.8311 14.9232 14.8848 14.7889L16.2284 11.4568C16.2821 11.3225 16.309 11.2418 16.309 11.1612C16.309 11.0537 16.2553 11 16.1478 11ZM11.2035 14.762C11.5259 14.762 11.929 14.8695 12.2246 15.0307C12.4664 15.1651 12.5739 15.2726 12.5739 15.4069C12.5739 15.4875 12.5202 15.6219 12.4664 15.7562L12.3589 16.025C12.2246 16.3743 12.1171 16.4549 11.7678 16.5355C11.4184 16.6161 11.096 16.6699 10.8273 16.6699C9.9405 16.6699 9.72553 16.2399 9.72553 15.8637C9.72553 15.38 10.1286 14.762 11.2035 14.762ZM14.0787 16.9923C14.1593 16.9923 14.1593 17.0729 14.2131 17.2073C14.2131 17.6641 14.4549 18.1747 14.4549 18.6583C14.4549 19.8407 13.7294 20.9155 12.9501 20.9155C12.7351 20.9155 12.6545 20.7812 12.6545 20.5931C12.6545 20.3781 12.762 20.0288 12.8695 19.7601C12.8695 19.7332 12.8964 19.7332 13.9175 17.1804C13.9712 17.0461 13.9981 16.9923 14.0787 16.9923Z"></path></svg>