<svg data-icon="ornamentTremolo424" data-version="v2" class="" width="24" height="24" viewBox="0 0 24 24" fill="currentcolor" xmlns="http://www.w3.org/2000/svg"><path d="M10.5 13.0271L12.75 12.5621V11.6771L10.5 12.1421V10.2671L12.75 9.80215V8.87965L10.5 9.35215V7.47715L12.75 7.00465V6.07465L10.5 6.54715V4.67215L12.75 4.19965V2.07715H13.2V4.10515L15 3.72715V5.60215L13.2 5.98015V6.91015L15 6.53215V8.40715L13.2 8.78515V9.70915L15 9.33715V11.2121L13.2 11.5841V12.4691L15 12.0971V13.9721L13.2 14.3441V17.4671H13.23V18.4871C13.23 19.869 11.4951 21.2226 10.0223 21.3033L9.885 21.3071C8.97 21.3071 8.25 20.7821 8.25 19.8971C8.25 18.4421 9.735 17.0771 11.58 17.0771C12.0579 17.0771 12.4659 17.203 12.75 17.4412V14.4371L10.5 14.9021V13.0271Z"></path></svg>