<svg data-icon="ornamentTremolo224" data-version="v2" class="" width="24" height="24" viewBox="0 0 24 24" fill="currentcolor" xmlns="http://www.w3.org/2000/svg"><path d="M13.5 11.5315L11.235 12.007V10.132L13.5 9.65647V8.73397L11.235 9.20197V7.32697L13.5 6.85897L13.5 3.57715H13.95V6.76597L15.735 6.39697V8.27197L13.95 8.64097V9.56197L15.735 9.18697V11.062L13.95 11.437V15.9671H13.98V16.9871C13.98 18.369 12.2451 19.7226 10.7723 19.8033L10.635 19.8071C9.72 19.8071 9 19.2821 9 18.3971C9 16.9421 10.485 15.5771 12.33 15.5771C12.8079 15.5771 13.2159 15.703 13.5 15.9412L13.5 11.5315Z"></path></svg>