<svg data-icon="ornamentTurnInverted24" data-version="v2" class="" width="24" height="24" viewBox="0 0 24 24" fill="currentcolor" xmlns="http://www.w3.org/2000/svg"><path fill-rule="evenodd" clip-rule="evenodd" d="M12.2979 7C12.0227 7 11.931 7.11468 11.931 7.36696V9.66043C11.931 9.91272 11.908 10.0045 11.8163 10.0045C11.6787 10.0045 11.564 9.84391 11.1512 9.59163C10.6237 9.27054 10.0503 9.06413 9.38522 9.06413C7.87152 9.06413 7 10.2109 7 11.6787C7 13.33 8.055 14.041 9.0412 14.041C9.75217 14.041 10.3255 13.7199 10.3255 13.0318C10.3255 12.5273 9.98152 12.2062 9.49989 12.2062C8.83478 12.2062 8.81185 12.7337 8.33022 12.7337C7.94033 12.7337 7.57337 12.2521 7.57337 11.6558C7.57337 10.6696 8.26141 10.1879 9.06413 10.1879C9.79804 10.1879 10.532 10.876 11.5411 11.9768C11.8392 12.2979 11.8851 12.3438 11.8851 12.7566V15.7152C11.8851 15.9675 11.9768 16.0822 12.2521 16.0822C12.5273 16.0822 12.619 15.9675 12.619 15.7152V13.4217C12.619 13.1695 12.619 13.0777 12.7337 13.0777C12.8713 13.0777 12.986 13.2383 13.3988 13.4905C13.9263 13.8116 14.4997 14.018 15.1648 14.018C16.6785 14.018 17.55 12.8713 17.55 11.4035C17.55 9.75217 16.495 9.0412 15.5088 9.0412C14.7978 9.0412 14.2245 9.36228 14.2245 10.0503C14.2245 10.5549 14.5685 10.876 15.0501 10.876C15.7152 10.876 15.7382 10.3485 16.2198 10.3485C16.6097 10.3485 16.9766 10.8301 16.9766 11.4264C16.9766 12.4126 16.2886 12.8942 15.4859 12.8942C14.752 12.8942 14.018 12.2062 13.0089 11.1053C12.7108 10.7842 12.6649 10.7384 12.6649 10.3255V7.36696C12.6649 7.11468 12.5732 7 12.2979 7Z"></path></svg>