<svg data-icon="ornamentArpeggio24" data-version="v2" class="" width="24" height="24" viewBox="0 0 24 24" fill="currentcolor" xmlns="http://www.w3.org/2000/svg"><path fill-rule="evenodd" clip-rule="evenodd" d="M11.1765 5.26987C11.1457 5.26987 11.115 5.23912 11.0992 5.25412C11.0685 5.25412 11.0227 5.26987 11.007 5.28562C11.007 5.28562 11.0377 5.53162 11.115 5.60812L11.1922 5.68537C11.346 5.83912 11.4997 5.99287 11.484 6.19237L11.469 6.36187C11.3152 7.09987 10.5 7.63837 10.5 8.40712C10.5 8.86837 10.6995 9.22237 10.9455 9.46837C11.0535 9.57637 11.1765 9.66862 11.2845 9.74512C11.3918 9.88387 11.484 10.0069 11.484 10.1606L11.469 10.3301C11.3152 11.0681 10.5 11.6066 10.5 12.3754C10.5 12.8366 10.6995 13.1906 10.9455 13.4366C11.0535 13.5439 11.1765 13.6361 11.2845 13.7134C11.4075 13.8364 11.484 13.9744 11.4997 14.1131L11.469 14.2976C11.3152 15.0356 10.5 15.5741 10.515 16.3279C10.515 16.8199 10.6995 17.1581 10.9612 17.4199C11.346 17.8039 11.8688 17.9891 12.084 18.1429C12.1605 18.1886 12.222 18.2194 12.2835 18.2194C12.345 18.2194 12.3915 18.2044 12.4222 18.1736C12.4687 18.1271 12.4687 18.0656 12.4687 18.0041C12.4687 17.9426 12.438 17.8811 12.4065 17.8196C12.2527 17.6044 12.1297 17.4199 12.1297 17.1124C12.1455 16.4201 13.0837 16.2506 13.0987 15.0356C13.0987 14.6051 12.8992 14.2826 12.6225 14.0051C12.5302 13.9129 12.438 13.8206 12.345 13.7591C12.222 13.5746 12.1455 13.4059 12.1455 13.1599C12.1455 12.4519 13.0837 12.2831 13.0837 11.0831C13.0987 10.6376 12.8835 10.2986 12.6067 10.0219C12.5302 9.94537 12.438 9.85312 12.345 9.79162C12.222 9.60712 12.1297 9.45337 12.1455 9.19162C12.1455 8.48437 13.0837 8.31487 13.0987 7.13062C13.0987 6.70012 12.8992 6.34612 12.6225 6.06937C12.1297 5.57737 11.4075 5.31637 11.1765 5.26987Z"></path></svg>