<svg data-icon="ornamentTremolo324" data-version="v2" class="" width="24" height="24" viewBox="0 0 24 24" fill="currentcolor" xmlns="http://www.w3.org/2000/svg"><path d="M12.75 7.3796L10.5 7.85211V5.9771L12.75 5.5046V3.57715H13.2V5.4101L15 5.0321V6.9071L13.2 7.2851V8.20911L15 7.8371V9.7121L13.2 10.0841V10.9691L15 10.5971V12.4721L13.2 12.8441V15.9671H13.23V16.9871C13.23 18.369 11.4951 19.7226 10.0223 19.8033L9.885 19.8071C8.97 19.8071 8.25 19.2821 8.25 18.3971C8.25 16.9421 9.735 15.5771 11.58 15.5771C12.0579 15.5771 12.4659 15.703 12.75 15.9412V12.9371L10.5 13.4021V11.5271L12.75 11.0621V10.1771L10.5 10.6421V8.76711L12.75 8.3021V7.3796Z"></path></svg>