<svg data-icon="ornamentGlissando24" data-version="v2" class="" width="24" height="24" viewBox="0 0 24 24" fill="currentcolor" xmlns="http://www.w3.org/2000/svg"><path fill-rule="evenodd" clip-rule="evenodd" d="M19.962 3.2475C19.962 3.5115 19.9455 3.7095 19.7475 3.825C19.5495 3.957 19.2855 3.9735 19.0545 4.023C18.7575 4.1055 18.3615 4.1715 18.147 4.4025C17.883 4.6665 17.8005 4.947 17.8005 5.2275C17.8005 5.3595 17.817 5.508 17.85 5.6235C17.8335 5.739 17.784 5.838 17.652 5.937C17.4375 6.0525 17.1735 6.069 16.959 6.135C16.926 6.135 16.9095 6.1515 16.8765 6.1515C16.86 6.1515 16.827 6.168 16.8105 6.168C16.794 6.168 16.7775 6.1845 16.761 6.1845C16.7445 6.1845 16.7115 6.201 16.695 6.201C16.6785 6.201 16.662 6.2175 16.6455 6.2175C16.629 6.2175 16.6125 6.234 16.596 6.234C16.398 6.3 16.167 6.366 16.035 6.498C15.7875 6.762 15.705 7.0425 15.705 7.323C15.705 7.4715 15.7215 7.6035 15.7545 7.7355C15.738 7.851 15.672 7.95 15.54 8.0325C15.342 8.1645 15.078 8.1645 14.847 8.2305C14.55 8.2965 14.1705 8.379 13.9395 8.5935C13.692 8.8575 13.6095 9.138 13.6095 9.4185C13.6095 9.534 13.6095 9.6495 13.6425 9.765C13.626 9.9135 13.593 10.0455 13.428 10.1445C13.2135 10.2765 12.9495 10.293 12.735 10.359C12.702 10.359 12.6855 10.3755 12.6525 10.3755C12.636 10.3755 12.603 10.392 12.5865 10.392C12.57 10.392 12.5535 10.4085 12.537 10.4085C12.5205 10.4085 12.4875 10.425 12.471 10.425C12.4545 10.425 12.438 10.4415 12.4215 10.4415C12.405 10.4415 12.3885 10.458 12.372 10.458C12.3555 10.458 12.3225 10.4745 12.306 10.4745C12.2895 10.4745 12.2895 10.491 12.273 10.491C12.108 10.557 11.9265 10.6065 11.811 10.722C11.5635 10.986 11.481 11.2665 11.481 11.547C11.481 11.613 11.481 11.6955 11.4975 11.7615C11.4975 11.976 11.4975 12.1575 11.283 12.306C11.0685 12.4215 10.8045 12.438 10.59 12.504C10.26 12.57 9.897 12.6525 9.666 12.867C9.402 13.131 9.336 13.4115 9.336 13.6755C9.336 13.824 9.3525 13.9725 9.3855 14.1045C9.3525 14.22 9.303 14.319 9.171 14.4015C8.973 14.5335 8.709 14.5335 8.478 14.5995C8.181 14.6655 7.8015 14.748 7.5705 14.9625C7.3065 15.243 7.224 15.5235 7.224 15.804C7.224 15.936 7.2405 16.068 7.2735 16.2C7.257 16.3155 7.2075 16.4145 7.0755 16.497C6.8775 16.629 6.6135 16.6455 6.3825 16.695C6.0855 16.7775 5.6895 16.8435 5.475 17.0745C5.211 17.3385 5.1285 17.6355 5.1285 17.8995C5.1285 18.015 5.145 18.1305 5.1615 18.2295C5.1615 18.3945 5.112 18.51 4.947 18.6255C4.749 18.7575 4.485 18.7575 4.254 18.8235C3.957 18.8895 3.5775 18.972 3.3465 19.203C3.0825 19.467 3 19.7475 3 20.028C3 20.4405 3.1815 20.8035 3.2145 21.0015C3.231 21.15 3.3135 21.216 3.3795 21.216C3.462 21.216 3.5445 21.1335 3.561 21.018C3.6105 20.8035 3.6435 20.655 3.8085 20.49C4.1715 20.127 4.7655 20.5395 5.4255 19.896C5.6565 19.6815 5.739 19.3845 5.739 19.104C5.739 19.005 5.7225 18.8895 5.706 18.7905C5.739 18.642 5.7885 18.51 5.937 18.3615C6.3 17.9985 6.894 18.411 7.554 17.784C7.7685 17.5695 7.851 17.2725 7.851 16.992C7.851 16.8765 7.8345 16.7445 7.818 16.629C7.8675 16.497 7.917 16.3815 8.0325 16.266C8.3955 15.903 8.9895 16.3155 9.6495 15.672C9.8805 15.441 9.963 15.1605 9.963 14.8635C9.963 14.748 9.9465 14.6325 9.93 14.5335C9.963 14.4015 10.0125 14.286 10.128 14.1705C10.5075 13.791 11.1015 14.22 11.745 13.5765C11.976 13.3455 12.0585 13.0485 12.0585 12.7515C12.0585 12.669 12.0585 12.603 12.042 12.5205C12.075 12.3225 12.1245 12.174 12.273 12.0255C12.6525 11.646 13.2465 12.075 13.89 11.4315C14.1375 11.2005 14.2035 10.9035 14.2035 10.6065C14.2035 10.5075 14.2035 10.4085 14.187 10.326C14.22 10.161 14.2695 10.029 14.4015 9.897C14.7645 9.534 15.3585 9.9465 16.0185 9.303C16.2495 9.072 16.332 8.7915 16.332 8.511C16.332 8.3955 16.3155 8.28 16.299 8.1645C16.332 8.0325 16.3815 7.917 16.497 7.8015C16.8765 7.422 17.4705 7.851 18.114 7.2075C18.345 6.9765 18.4275 6.696 18.4275 6.399C18.4275 6.2835 18.411 6.168 18.3945 6.0525C18.4275 5.937 18.477 5.8215 18.5925 5.706C18.972 5.3265 19.566 5.739 20.226 5.0955C20.457 4.881 20.523 4.584 20.523 4.3035C20.523 3.7755 20.259 3.231 20.1765 3.099C20.1435 3.033 20.1105 3 20.0775 3C20.0115 3 19.962 3.1485 19.962 3.2475Z"></path></svg>