<svg data-icon="icon8Va32" data-version="v2" class="" width="32" height="32" viewBox="0 0 32 32" fill="currentcolor" xmlns="http://www.w3.org/2000/svg"><path fill-rule="evenodd" clip-rule="evenodd" d="M22.6131 12.7611C22.9175 12.7611 23.0317 13.0465 23.0317 13.351C23.0317 14.1882 22.2135 16.129 21.5856 16.129C21.3192 16.129 21.167 15.8626 21.167 15.4059C21.167 14.4926 21.7949 12.7611 22.6131 12.7611ZM24.4207 12.5328C24.4397 12.4567 24.4588 12.3996 24.4588 12.3615C24.4588 12.2664 24.4017 12.2283 24.2495 12.2283H23.7928C23.6216 12.2283 23.5645 12.3044 23.5264 12.4567C23.4693 12.685 23.4503 12.7611 23.3932 12.7611C23.3552 12.7611 23.2981 12.666 23.222 12.5518C23.0698 12.3044 22.8605 12.1903 22.518 12.1903C21.3192 12.1903 20.2347 13.7125 20.2347 15.1586C20.2347 16.2622 20.8436 16.6998 21.3763 16.6998C21.7949 16.6998 22.1564 16.4524 22.4228 16.0719C22.4419 16.0529 22.537 15.8626 22.6321 15.8626C22.6892 15.8626 22.7082 15.9767 22.7463 16.148C22.8224 16.4715 23.0317 16.6808 23.4503 16.6808C24.1924 16.6808 24.592 15.6913 24.7442 15.3298C24.7442 15.2347 24.8393 15.1015 24.8393 14.9873C24.8393 14.8541 24.7252 14.797 24.63 14.797C24.5159 14.797 24.4588 14.8731 24.4207 14.9683C24.2304 15.444 23.945 16.148 23.6025 16.148C23.4503 16.148 23.3932 16.0529 23.3932 15.9006C23.3932 15.8245 23.4123 15.7104 23.4503 15.6152L24.4207 12.5328ZM17.2474 12.2283C16.5433 12.2283 16.1628 12.9514 15.8964 13.6934C15.8393 13.8457 15.8203 13.9408 15.8203 14.0169C15.8203 14.1501 15.9345 14.2072 16.0296 14.2072C16.1247 14.2072 16.2008 14.1501 16.2389 14.0359C16.3911 13.5412 16.6765 12.8372 17 12.8372C17.1142 12.8372 17.1712 12.9133 17.1712 13.0275C17.1712 13.6934 16.3531 14.6258 16.3531 15.5581C16.3531 16.3002 16.9429 16.6998 17.6279 16.6998C18.8266 16.6998 19.8922 15.2537 19.8922 13.408C19.8922 12.7992 19.6258 12.2664 19.1501 12.2664C18.7886 12.2664 18.5222 12.5899 18.5222 12.9323C18.5222 13.2178 18.7315 13.408 18.9218 13.5412C19.1311 13.6934 19.2643 13.8457 19.2643 14.1691C19.2643 15.0254 18.5032 16.148 17.8562 16.148C17.4757 16.148 17.3235 15.9006 17.3235 15.6342C17.3235 14.9112 18.0465 14.1311 18.0465 13.2178C18.0465 12.666 17.7421 12.2283 17.2474 12.2283ZM12.6808 12.5708C13.5941 12.5708 13.8985 13.1797 13.8985 13.8076C13.8985 14.4355 13.6131 15.1015 12.9852 15.5391C12.9091 15.5962 12.833 15.6152 12.7569 15.6152C12.6617 15.6152 12.5666 15.5772 12.4144 15.463C11.5201 14.797 11.2347 14.4545 11.2347 13.9027C11.2347 13.0655 11.8245 12.5708 12.6808 12.5708ZM10.5497 17.0042C10.6258 16.9662 10.6829 16.9281 10.74 16.9281C10.8351 16.9281 10.9493 16.9852 11.1015 17.1184C12.3192 18.0698 12.6237 18.3362 12.6237 18.907C12.6237 19.8774 11.9006 20.4292 11.0063 20.4292C9.84567 20.4292 9.48414 19.649 9.48414 18.9641C9.48414 18.3742 9.75053 17.4989 10.5497 17.0042ZM12.7188 12C10.778 12 9.42706 12.9514 9.42706 14.5687C9.42706 15.1205 9.57928 15.5962 9.88372 15.9577C9.97886 16.0719 10.0359 16.167 10.0359 16.2431C10.0359 16.3383 9.9408 16.3953 9.69345 16.5095C8.47569 17.0042 8 17.8414 8 18.7548C8 20.0106 8.91332 21 10.9683 21C12.814 21 14.4313 20.0296 14.4313 18.2981C14.4313 17.5941 14.26 17.0994 13.8224 16.6237C13.6892 16.4715 13.5941 16.3763 13.5941 16.2812C13.5941 16.186 13.6892 16.1099 13.9175 15.9958C14.945 15.463 15.3446 14.6829 15.3446 13.9789C15.3446 12.8943 14.5835 12 12.7188 12Z"></path></svg>