<svg data-icon="icon15MaBelow32" data-version="v2" class="" width="32" height="32" viewBox="0 0 32 32" fill="currentcolor" xmlns="http://www.w3.org/2000/svg"><path fill-rule="evenodd" clip-rule="evenodd" d="M25.5665 16.9492C24.7728 16.9492 24.1625 18.6878 24.1625 19.605C24.1625 20.0632 24.3097 20.3315 24.5691 20.3315C25.1786 20.3315 25.9723 18.3818 25.9723 17.5415C25.9723 17.2355 25.8618 16.9492 25.5665 16.9492ZM27.3206 16.7201L26.3789 19.8153C26.3444 19.9069 26.3256 20.0037 26.3233 20.1016C26.3233 20.2546 26.3789 20.3504 26.5262 20.3504C26.8584 20.3504 27.1357 19.6435 27.3198 19.1656C27.3575 19.0699 27.4123 18.9938 27.5235 18.9938C27.616 18.9938 27.7265 19.0511 27.7265 19.1845C27.7265 19.299 27.634 19.4332 27.634 19.5281C27.4867 19.8914 27.0989 20.8855 26.3789 20.8855C25.9723 20.8855 25.7694 20.6752 25.6957 20.3504C25.6581 20.1785 25.6401 20.064 25.5845 20.064C25.492 20.064 25.3995 20.2546 25.3815 20.2743C25.123 20.6564 24.772 20.9043 24.3662 20.9043C23.8491 20.9043 23.2584 20.4649 23.2584 19.3571C23.2584 17.9048 24.3105 16.3756 25.474 16.3756C25.8062 16.3756 26.0091 16.4902 26.1572 16.7389C26.2308 16.8535 26.2865 16.9492 26.3233 16.9492C26.3789 16.9492 26.3969 16.8723 26.4525 16.6432C26.4894 16.4902 26.545 16.4141 26.7111 16.4141H27.1537C27.301 16.4141 27.3575 16.4525 27.3575 16.5475C27.3575 16.5859 27.3386 16.6432 27.3206 16.7193V16.7201ZM16.2965 20.5606L17.1645 17.8279C17.2014 17.6945 17.275 17.427 17.275 17.2928C17.275 17.1595 17.2202 17.0637 17.0909 17.0637C16.7211 17.0637 16.3521 17.8083 16.1672 18.2673C16.1304 18.363 16.0755 18.4391 15.9643 18.4391C15.8718 18.4391 15.7614 18.3818 15.7614 18.2485C15.7614 18.1339 15.7982 18.0382 15.8538 17.9048C16.1484 17.2167 16.5918 16.3953 17.3863 16.3953C17.7185 16.3953 17.9402 16.5671 18.0326 16.815C18.1251 17.0637 18.0695 17.2159 18.1619 17.2159C18.1799 17.2159 18.3092 17.0637 18.4565 16.8919C18.697 16.6055 18.9924 16.3765 19.4358 16.3765C19.7868 16.3765 20.0265 16.5286 20.1378 16.815C20.2295 17.0637 20.1746 17.2159 20.2663 17.2159C20.2851 17.2159 20.4144 17.0637 20.5625 16.8919C20.8022 16.6244 21.0975 16.3765 21.541 16.3765C22.1137 16.3765 22.3535 16.8346 22.3535 17.3125C22.3535 18.2485 21.5958 19.5665 21.5958 20.1401C21.5958 20.2931 21.6695 20.3888 21.7995 20.3888C22.0761 20.3888 22.261 19.9683 22.4083 19.5862C22.4639 19.4332 22.5375 19.3947 22.612 19.3947C22.7225 19.3947 22.7961 19.4716 22.7961 19.5665C22.7937 19.6522 22.7751 19.7366 22.7413 19.8153C22.5375 20.3692 22.2242 20.9043 21.541 20.9043C21.0239 20.9043 20.6541 20.6752 20.6541 20.1597C20.6541 19.3947 21.3741 18.1527 21.3741 17.5219C21.3741 17.3501 21.2825 17.2167 21.1164 17.2167C20.6361 17.2167 20.1926 17.9236 19.9529 18.669L19.3254 20.6179C19.2877 20.7325 19.2697 20.7897 19.1036 20.7897H18.5497C18.4205 20.7897 18.3836 20.7709 18.3836 20.694C18.3836 20.6564 18.3836 20.6179 18.4016 20.5606L19.2329 17.9425C19.2877 17.7706 19.3065 17.6561 19.3065 17.5415C19.3065 17.3313 19.1961 17.2167 19.0112 17.2167C18.5309 17.2167 18.0875 17.9236 17.8477 18.669L17.2202 20.6179C17.1834 20.7325 17.1645 20.7897 16.9985 20.7897H16.4445C16.3153 20.7897 16.2785 20.7709 16.2785 20.694C16.2785 20.6564 16.2785 20.6179 16.2965 20.5606ZM10.111 16.2799L11.3669 12.4778C11.4594 12.2103 11.6066 12.0769 11.8652 12.0769C12.0313 12.0769 12.1605 12.1145 12.4747 12.2103C12.7513 12.2864 13.2127 12.3821 13.8411 12.3821C14.5055 12.3821 15.0782 12.306 15.5396 12.1718C15.8538 12.0761 15.9651 12 16.0935 12C16.2228 12 16.3145 12.1145 16.3145 12.2291C16.3145 12.3821 16.2228 12.5351 16.0011 12.7445C15.2999 13.4138 14.2657 14.0635 12.9362 14.0635C12.6408 14.0635 12.2898 14.0258 12.0501 13.9874C11.9765 13.9685 11.9388 13.9685 11.884 13.9685C11.7727 13.9685 11.6991 14.0062 11.6435 14.178L11.2925 15.2482C11.2736 15.2974 11.2612 15.3488 11.2556 15.4012C11.2556 15.4969 11.3113 15.5542 11.4217 15.5542C11.4774 15.5542 11.533 15.5354 11.6066 15.5157C11.9531 15.4074 12.3147 15.3558 12.6776 15.3627C14.1545 15.3627 15.0782 15.9175 15.0782 17.2936C15.0782 19.5093 13.5269 21 11.4217 21C9.81564 21 9.07682 20.1213 9.07682 19.1845C9.07682 18.4015 9.55709 17.8091 10.1846 17.8091C10.6649 17.8091 11.0715 18.0955 11.0715 18.6682C11.0715 19.2802 10.7385 19.5665 10.4988 19.6819C10.3139 19.7768 10.2035 19.8153 10.2035 19.9683C10.2035 20.1974 10.5545 20.3888 11.0159 20.3888C12.5115 20.3888 13.2315 18.4775 13.2315 17.3313C13.2315 16.6628 12.955 16.1277 12.1794 16.1277C11.4774 16.1277 11.0159 16.6244 10.813 16.8346C10.6469 17.0065 10.5356 17.0825 10.3695 17.0825C10.1666 17.0825 10.0185 16.9492 10.0185 16.7201C10.0185 16.5859 10.0374 16.5098 10.111 16.2799ZM5.14464 15.0575L7.56318 12.2291C7.67364 12.0957 7.76609 12.0385 7.91336 12.0385C8.19073 12.0385 8.33882 12.2487 8.61536 12.2487C8.85509 12.2487 9.15045 12.0385 9.391 12.0385C9.53827 12.0385 9.61191 12.1334 9.61191 12.2675C9.61191 12.3436 9.59391 12.4205 9.55709 12.5351L7.35945 19.758C7.34145 19.8537 7.30464 19.911 7.30464 19.9683C7.30464 20.0255 7.34145 20.064 7.43391 20.0828L8.20955 20.1589C8.41245 20.1785 8.52291 20.2931 8.52291 20.4837C8.52291 20.6752 8.41245 20.8085 8.17191 20.8085H4.351C4.11045 20.8085 4 20.6752 4 20.4837C4 20.2931 4.11045 20.1785 4.31418 20.1589L5.10782 20.0828C5.31073 20.064 5.32873 20.0067 5.38518 19.8341L6.93564 14.8088C6.9682 14.7231 6.98698 14.6328 6.99127 14.5413C6.99127 14.4267 6.93564 14.3883 6.862 14.3883C6.76954 14.3883 6.69591 14.4455 6.56664 14.5985L5.73536 15.5542C5.60609 15.7072 5.49564 15.8029 5.31073 15.8029C5.22021 15.799 5.13433 15.7618 5.06966 15.6983C5.005 15.6349 4.96613 15.5497 4.96055 15.4593C4.96055 15.3251 5.01536 15.2105 5.14464 15.0575Z"></path></svg>