<svg data-icon="icon15Ma32" data-version="v2" class="" width="32" height="32" viewBox="0 0 32 32" fill="currentcolor" xmlns="http://www.w3.org/2000/svg"><path fill-rule="evenodd" clip-rule="evenodd" d="M25.8918 12.7261C26.1975 12.7261 26.3121 13.0127 26.3121 13.3185C26.3121 14.1592 25.4905 16.1083 24.8599 16.1083C24.5924 16.1083 24.4395 15.8408 24.4395 15.3822C24.4395 14.465 25.0701 12.7261 25.8918 12.7261ZM27.707 12.4968C27.7261 12.4204 27.7453 12.3631 27.7453 12.3248C27.7453 12.2293 27.6879 12.1911 27.5351 12.1911H27.0765C26.9045 12.1911 26.8472 12.2675 26.8089 12.4204C26.7516 12.6497 26.7325 12.7261 26.6752 12.7261C26.637 12.7261 26.5797 12.6306 26.5032 12.5159C26.3504 12.2675 26.1402 12.1529 25.7962 12.1529C24.5924 12.1529 23.5032 13.6815 23.5032 15.1338C23.5032 16.242 24.1147 16.6815 24.6497 16.6815C25.0701 16.6815 25.4332 16.4331 25.7007 16.051C25.7198 16.0318 25.8153 15.8408 25.9109 15.8408C25.9682 15.8408 25.9873 15.9554 26.0255 16.1274C26.1019 16.4522 26.3121 16.6624 26.7325 16.6624C27.4777 16.6624 27.879 15.6688 28.0319 15.3057C28.0319 15.2102 28.1274 15.0764 28.1274 14.9618C28.1274 14.828 28.0128 14.7707 27.9172 14.7707C27.8026 14.7707 27.7453 14.8471 27.707 14.9427C27.516 15.4204 27.2293 16.1274 26.8854 16.1274C26.7325 16.1274 26.6752 16.0318 26.6752 15.879C26.6752 15.8025 26.6943 15.6879 26.7325 15.5924L27.707 12.4968ZM16.2994 16.3376C16.2803 16.3949 16.2803 16.4331 16.2803 16.4713C16.2803 16.5478 16.3185 16.5669 16.4523 16.5669H17.0255C17.1975 16.5669 17.2166 16.5096 17.2548 16.3949L17.9045 14.4459C18.1529 13.7006 18.6115 12.9936 19.1083 12.9936C19.2994 12.9936 19.414 13.1083 19.414 13.3185C19.414 13.4331 19.3949 13.5478 19.3376 13.7197L18.4777 16.3376C18.4586 16.3949 18.4586 16.4331 18.4586 16.4713C18.4586 16.5478 18.4968 16.5669 18.6306 16.5669H19.2039C19.3758 16.5669 19.3949 16.5096 19.4332 16.3949L20.0828 14.4459C20.3312 13.7006 20.7898 12.9936 21.2867 12.9936C21.4586 12.9936 21.5542 13.1274 21.5542 13.2994C21.5542 13.9299 20.809 15.172 20.809 15.9363C20.809 16.4522 21.1911 16.6815 21.7261 16.6815C22.4332 16.6815 22.758 16.1465 22.9682 15.5924C23.0064 15.4968 23.0255 15.4204 23.0255 15.3439C23.0255 15.2484 22.9491 15.172 22.8344 15.172C22.758 15.172 22.6816 15.2102 22.6242 15.3631C22.4714 15.7452 22.2803 16.1656 21.9937 16.1656C21.8599 16.1656 21.7835 16.0701 21.7835 15.9172C21.7835 15.3439 22.5669 14.0255 22.5669 13.0892C22.5669 12.6115 22.3185 12.1529 21.7261 12.1529C21.2675 12.1529 20.9618 12.4013 20.7134 12.6688C20.5605 12.8408 20.4268 12.9936 20.4077 12.9936C20.3121 12.9936 20.3695 12.8408 20.2739 12.5924C20.1593 12.3057 19.9109 12.1529 19.5478 12.1529C19.0892 12.1529 18.7835 12.3822 18.5351 12.6688C18.3822 12.8408 18.2484 12.9936 18.2293 12.9936C18.1338 12.9936 18.1911 12.8408 18.0956 12.5924C18 12.344 17.7707 12.172 17.4268 12.172C16.6051 12.172 16.1465 12.9936 15.8408 13.6815C15.7835 13.8153 15.7453 13.9108 15.7453 14.0255C15.7453 14.1592 15.8599 14.2166 15.9554 14.2166C16.0701 14.2166 16.1274 14.1401 16.1656 14.0446C16.3567 13.586 16.7389 12.8408 17.1211 12.8408C17.2548 12.8408 17.3121 12.9363 17.3121 13.0701C17.3121 13.2038 17.2357 13.4713 17.1975 13.6051L16.2994 16.3376ZM9.32487 16.2803C9.24844 16.5096 9.22933 16.586 9.22933 16.7197C9.22933 16.949 9.3822 17.0828 9.59239 17.0828C9.76436 17.0828 9.87901 17.0064 10.051 16.8344C10.2612 16.6242 10.7389 16.1274 11.465 16.1274C12.2675 16.1274 12.5542 16.6624 12.5542 17.3312C12.5542 18.4777 11.8089 20.3885 10.2612 20.3885C9.78347 20.3885 9.42041 20.1975 9.42041 19.9682C9.42041 19.8153 9.53506 19.7771 9.72615 19.6815C9.97455 19.5669 10.3185 19.2803 10.3185 18.6688C10.3185 18.0955 9.89812 17.8089 9.40131 17.8089C8.75162 17.8089 8.25481 18.4013 8.25481 19.1847C8.25481 20.121 9.01914 21 10.6816 21C12.8599 21 14.465 19.5096 14.465 17.293C14.465 15.9172 13.5096 15.3631 11.9809 15.3631C11.5223 15.3631 11.1784 15.4204 10.8726 15.5159C10.7962 15.535 10.7389 15.5541 10.6816 15.5541C10.5669 15.5541 10.5096 15.4968 10.5096 15.4013C10.5096 15.3631 10.5287 15.3057 10.5478 15.2484L10.9109 14.1783C10.9682 14.0064 11.0446 13.9682 11.1593 13.9682C11.2166 13.9682 11.2548 13.9682 11.3312 13.9873C11.5796 14.0255 11.9427 14.0637 12.2484 14.0637C13.6242 14.0637 14.6943 13.414 15.4204 12.7452C15.6497 12.535 15.7453 12.3822 15.7453 12.2293C15.7453 12.1146 15.6497 12 15.516 12C15.3822 12 15.2675 12.0764 14.9427 12.172C14.465 12.3057 13.8726 12.3822 13.1847 12.3822C12.5351 12.3822 12.0574 12.2866 11.7707 12.2102C11.4459 12.1147 11.3121 12.0764 11.1402 12.0764C10.8726 12.0764 10.7198 12.2102 10.6242 12.4777L9.32487 16.2803ZM4.18474 15.0573C4.05099 15.2102 3.99366 15.3248 3.99366 15.4586C3.99366 15.6306 4.16564 15.8025 4.35672 15.8025C4.5478 15.8025 4.66245 15.707 4.79621 15.5541L5.65608 14.5987C5.78984 14.4459 5.86627 14.3885 5.96181 14.3885C6.03825 14.3885 6.09557 14.4268 6.09557 14.5414C6.09557 14.6178 6.07646 14.6943 6.03825 14.8089L4.43315 19.8344C4.37583 20.0064 4.35672 20.0637 4.14653 20.0828L3.32487 20.1592C3.11468 20.1783 3.00003 20.293 3.00003 20.4841C3.00003 20.6752 3.11468 20.8089 3.36309 20.8089H7.3185C7.56691 20.8089 7.68156 20.6752 7.68156 20.4841C7.68156 20.293 7.56691 20.1783 7.35672 20.1592L6.55417 20.0828C6.45863 20.0637 6.42041 20.0255 6.42041 19.9682C6.42041 19.9108 6.45863 19.8535 6.47774 19.758L8.75162 12.535C8.78984 12.4204 8.80895 12.3439 8.80895 12.2675C8.80895 12.1338 8.73251 12.0382 8.57965 12.0382C8.33124 12.0382 8.02551 12.2484 7.7771 12.2484C7.49048 12.2484 7.33761 12.0382 7.05099 12.0382C6.89812 12.0382 6.80258 12.0955 6.68793 12.2293L4.18474 15.0573Z"></path></svg>