<svg data-icon="icon8Ba32" data-version="v2" class="" width="32" height="32" viewBox="0 0 32 32" fill="currentcolor" xmlns="http://www.w3.org/2000/svg"><path fill-rule="evenodd" clip-rule="evenodd" d="M22.5885 17.1194C21.7608 17.1194 21.1259 18.8707 21.1259 19.7944C21.1259 20.2567 21.2792 20.5261 21.5486 20.5261C22.1843 20.5261 23.012 18.5625 23.012 17.7163C23.012 17.4082 22.8958 17.1194 22.5885 17.1194ZM24.4165 16.8887L23.4347 20.0066C23.3991 20.0985 23.3797 20.196 23.3774 20.2945C23.3774 20.4486 23.4347 20.5455 23.5888 20.5455C23.9357 20.5455 24.2245 19.8331 24.4165 19.3515C24.4552 19.2555 24.5125 19.1789 24.6287 19.1789C24.7246 19.1789 24.84 19.2361 24.84 19.3709C24.84 19.4862 24.744 19.6209 24.744 19.7178C24.5899 20.0832 24.1858 21.0843 23.4347 21.0843C23.012 21.0843 22.7998 20.8722 22.7232 20.5455C22.6845 20.372 22.6651 20.2567 22.6079 20.2567C22.511 20.2567 22.415 20.4486 22.3957 20.468C22.1262 20.8528 21.7608 21.1029 21.3373 21.1029C20.7984 21.1029 20.1829 20.6608 20.1829 19.5443C20.1829 18.0818 21.2792 16.5417 22.4917 16.5417C22.8386 16.5417 23.0499 16.6571 23.204 16.908C23.2815 17.0234 23.3387 17.1194 23.3774 17.1194C23.4347 17.1194 23.4541 17.0427 23.5122 16.8112C23.5509 16.6571 23.6082 16.5805 23.7816 16.5805H24.243C24.3971 16.5805 24.4552 16.6192 24.4552 16.7152C24.4552 16.7539 24.4358 16.8112 24.4165 16.8887ZM18.4315 17.0806C17.5651 17.0806 16.8722 18.9288 16.8722 20.0251C16.8722 20.3914 17.0262 20.6221 17.315 20.6221C18.2194 20.6221 18.8736 18.5053 18.8736 17.7349C18.8736 17.3694 18.7776 17.0806 18.4315 17.0806ZM16.5455 14.5016L18.0274 14.4056C18.1806 14.4056 18.2581 14.4831 18.2581 14.5984C18.2581 14.6557 18.2387 14.7138 18.2194 14.771L17.7386 16.3691C17.6232 16.7733 17.5651 16.8693 17.5651 16.9653C17.5651 17.004 17.5845 17.0234 17.6232 17.0234C17.7192 17.0234 17.8733 16.8306 18.1621 16.6958C18.3347 16.6192 18.5082 16.5805 18.701 16.5805C19.4512 16.5805 19.836 17.196 19.836 17.8696C19.836 19.6024 18.701 21.1029 17.3344 21.1029C16.5455 21.1029 16.0066 20.564 16.0066 19.7371C16.0066 19.3709 16.0638 19.0635 16.1413 18.7941L17.1029 15.272C17.1222 15.1945 17.1416 15.1179 17.1416 15.0792C17.1416 14.9832 17.065 14.9638 16.8915 14.9638H16.5261C16.2567 14.9638 16.2373 14.8291 16.2373 14.7525C16.2373 14.675 16.2567 14.5209 16.5455 14.5016ZM12.7346 12.5776C11.8681 12.5776 11.272 13.0778 11.272 13.9248C11.272 14.4831 11.5608 14.8291 12.4651 15.5027C12.6192 15.6181 12.7152 15.6568 12.8112 15.6568C12.8949 15.6579 12.9765 15.6306 13.0427 15.5793C13.3273 15.3844 13.5602 15.123 13.7211 14.8179C13.882 14.5127 13.9662 14.173 13.9664 13.828C13.9664 13.1931 13.6582 12.5776 12.7346 12.5776ZM10.579 17.0613C9.77073 17.5623 9.50129 18.4472 9.50129 19.0442C9.50129 19.7371 9.86671 20.5261 11.0405 20.5261C11.9456 20.5261 12.6765 19.9678 12.6765 18.9861C12.6765 18.4085 12.3691 18.139 11.1373 17.1775C10.9832 17.0427 10.8679 16.9846 10.771 16.9846C10.7138 16.9846 10.6557 17.0234 10.579 17.0613ZM12.7733 12C14.6594 12 15.429 12.9043 15.429 14.0014C15.429 14.7138 15.0248 15.5027 13.9858 16.0416C13.7542 16.157 13.6582 16.2344 13.6582 16.3304C13.6582 16.4264 13.7542 16.5224 13.8889 16.6765C14.3318 17.1581 14.5053 17.6582 14.5053 18.3706C14.5053 20.1219 12.8693 21.1029 11.0026 21.1029C8.92367 21.1029 8 20.1026 8 18.832C8 17.9083 8.48078 17.0613 9.71263 16.5611C9.9627 16.4458 10.0595 16.3877 10.0595 16.2917C10.0595 16.2151 10.0014 16.1182 9.90545 16.0029C9.59727 15.6374 9.44319 15.1567 9.44319 14.5984C9.44319 12.9624 10.8098 12 12.7733 12Z"></path></svg>