<svg xmlns="http://www.w3.org/2000/svg" width="24" height="24" viewBox="0 0 24 24" fill="currentColor"><path fill-rule="evenodd" clip-rule="evenodd" d="M6.5 7C5.67157 7 5 7.67157 5 8.5V15.5C5 16.3284 5.67157 17 6.5 17H17.5C18.3284 17 19 16.3284 19 15.5V8.5C19 7.67157 18.3284 7 17.5 7H6.5ZM4 8.5C4 7.11929 5.11929 6 6.5 6H17.5C18.8807 6 20 7.11929 20 8.5V15.5C20 16.8807 18.8807 18 17.5 18H6.5C5.11929 18 4 16.8807 4 15.5V8.5Z"></path><path fill-rule="evenodd" clip-rule="evenodd" d="M9 8.19098L16.618 12L9 15.809V8.19098ZM10 9.80902V14.191L14.382 12L10 9.80902Z"></path></svg>