<svg data-icon="playFill16" data-version="v2" class="play_cdblA" xmlns="http://www.w3.org/2000/svg" width="16" height="16" viewBox="0 0 16 16" fill="currentcolor"><path d="M11.22 4.902C12.94 6.218 13.8 6.875 13.8 8s-.86 1.782-2.58 3.098c-.475.363-.946.705-1.378.99-.38.25-.81.508-1.255.762-1.716.978-2.574 1.467-3.343.926-.77-.542-.84-1.675-.98-3.943C4.226 9.192 4.2 8.563 4.2 8s.025-1.192.065-1.833c.14-2.267.21-3.401.979-3.943.77-.541 1.627-.052 3.343.926.445.254.875.512 1.255.762.432.285.903.627 1.378.99"></path></svg>