<svg xmlns="http://www.w3.org/2000/svg" width="45" height="42" viewBox="0 0 45 42"><g fill="none" fill-rule="evenodd"><path d="M0 0h45v42H0z"></path><path class="fill" fill="#000" d="M15.478 18.994c.297 0 .528.231.528.528a.521.521 0 0 1-.528.528h-4.422v4.422a.521.521 0 0 1-.528.528.521.521 0 0 1-.528-.528v-4.95c0-.297.231-.528.528-.528h4.95zm4.512 1.782l1.21-3.542c.088-.264.242-.374.484-.374.154 0 .286.022.594.11.264.088.704.176 1.32.176.638 0 1.188-.066 1.628-.198.308-.088.55-.154.55-.154.11 0 .198.088.198.198 0 .154-.088.286-.286.484-.682.638-1.694 1.232-2.97 1.232-.286 0-.616-.044-.858-.066-.22-.044-.308-.044-.396.176l-.33.99c-.066.22-.022.352.308.264a3.308 3.308 0 0 1 1.034-.154c1.43 0 2.31.528 2.31 1.804 0 2.068-1.496 3.454-3.52 3.454-1.562 0-2.266-.814-2.266-1.694 0-.726.462-1.276 1.056-1.276.462 0 .858.264.858.792 0 .572-.308.836-.55.946-.176.088-.286.132-.286.264 0 .22.352.396.792.396 1.43 0 2.134-1.782 2.134-2.838 0-.638-.264-1.122-1.012-1.122-.682 0-1.122.462-1.32.66-.154.154-.264.22-.418.22-.198 0-.352-.132-.352-.33 0-.132.022-.198.088-.418zm9.538-1.782h4.95c.297 0 .528.231.528.528v4.95a.521.521 0 0 1-.528.528.521.521 0 0 1-.528-.528V20.05h-4.422a.521.521 0 0 1-.528-.528c0-.297.231-.528.528-.528z"></path></g></svg>