<svg width="24" height="24" viewBox="0 0 24 24" xmlns="http://www.w3.org/2000/svg" fill="currentColor"><path fill-rule="evenodd" clip-rule="evenodd" d="M13.6 5V6.07733C16.6251 6.58933 18.9333 9.21333 18.9333 12.3813C18.9333 15.5493 16.6251 18.1733 13.6 18.6853V19.7627C17.2171 19.24 20 16.136 20 12.3813C20 8.616 17.2171 5.52267 13.6 5ZM16.8 12.3813C16.8 10.504 15.4069 8.95733 13.6 8.70133V9.768C14.8171 10.0133 15.7333 11.0907 15.7333 12.3813C15.7333 13.672 14.8171 14.7493 13.6 14.9947V16.0613C15.4069 15.7947 16.8 14.2587 16.8 12.3813ZM8.26667 9.576L11.4667 7.58133V17.1813L8.26667 15.176V9.576ZM7.2 14.5147H5.6C5.3056 14.5147 5.06667 14.28 5.06667 13.9813V10.7813C5.06667 10.4827 5.3056 10.248 5.6 10.248H7.2V14.5147ZM5.06667 9.18133C4.47787 9.18133 4 9.66133 4 10.248V14.5147C4 15.1013 4.47787 15.5813 5.06667 15.5813H7.2L12.5333 18.7813V5.98133L7.2 9.18133H5.06667Z"></path></svg>