<svg data-icon="stringsDownbow32" data-version="v2" class="" width="32" height="32" viewBox="0 0 32 32" fill="currentcolor" xmlns="http://www.w3.org/2000/svg"><path fill-rule="evenodd" clip-rule="evenodd" d="M15.3017 25.5331C17.4136 25.5331 20 23.5874 20 21.5704C20 20.3602 19.0508 19.6009 17.6983 19.6009C15.0881 19.6009 13 21.523 13 23.5636C13 24.7975 14.0203 25.5331 15.3017 25.5331ZM13.5609 6C13.413 6.00276 13.2719 6.06274 13.1673 6.16733C13.0627 6.27192 13.0028 6.41298 13 6.56086V12.6009C13 12.7519 13.1294 12.8598 13.2589 12.8598H13.5609C13.6903 12.8598 13.8197 12.7519 13.8197 12.6009V9.06317C13.8197 8.82589 15.0925 8.69646 16.3652 8.69646C17.6379 8.69646 18.9106 8.82589 18.9106 9.06317V12.6009C18.9106 12.7519 19.0401 12.8598 19.1911 12.8598H19.4715C19.6009 12.8598 19.7304 12.7519 19.7304 12.6009V6.56086C19.7276 6.41298 19.6676 6.27192 19.563 6.16733C19.4584 6.06274 19.3174 6.00276 19.1695 6H13.5609Z"></path></svg>