<svg data-icon="stringsUpbow32" data-version="v2" class="" width="32" height="32" viewBox="0 0 32 32" fill="currentcolor" xmlns="http://www.w3.org/2000/svg"><path fill-rule="evenodd" clip-rule="evenodd" d="M17.6983 20.402C19.0508 20.402 20 21.1186 20 22.2606C20 24.1639 17.4136 26 15.3017 26C14.0203 26 13 25.3059 13 24.1415C13 22.2158 15.0881 20.402 17.6983 20.402ZM14.4884 6C14.661 6 14.812 6.10178 14.8767 6.26463L16.775 14.1018L18.6949 6.26463C18.7381 6.10178 18.8891 6 19.0616 6H19.1479C19.3421 6.04071 19.4499 6.18321 19.4499 6.34606V6.42748L17.1633 15.771C17.1202 15.9338 16.9692 16.056 16.7966 16.056C16.5809 16.056 16.4299 15.9338 16.3867 15.771L14.1217 6.42748C14.1002 6.38677 14.1002 6.36641 14.1002 6.3257C14.1002 6.18321 14.2296 6.04071 14.4022 6H14.4884Z"></path></svg>