<svg xmlns="http://www.w3.org/2000/svg" width="51" height="42" viewBox="0 0 51 42"><g fill="none" fill-rule="evenodd"><path d="M0 0h51v42H0z"></path><path class="fill" fill="#000" d="M15.478 18.994h-4.95a.521.521 0 0 0-.528.528v4.95c0 .297.231.528.528.528a.521.521 0 0 0 .528-.528V20.05h4.422a.521.521 0 0 0 .528-.528.521.521 0 0 0-.528-.528zm4.622.638c-.11.154-.176.264-.176.374 0 .154.154.33.352.33.176 0 .264-.088.396-.242l.814-.88c.11-.154.198-.198.286-.198.066 0 .11.022.11.132 0 .044-.022.154-.044.264l-1.496 4.686c-.066.154-.066.198-.264.22l-.77.066c-.198.022-.308.132-.308.308s.11.308.33.308h3.696c.242 0 .33-.132.33-.308s-.088-.286-.286-.308l-.748-.066c-.176-.022-.132-.11-.088-.308l2.134-6.732c.022-.11.044-.22.044-.242 0-.132-.066-.22-.198-.22-.242 0-.528.198-.748.198-.286 0-.418-.198-.682-.198-.154 0-.242.066-.352.176l-2.332 2.64zm7 0c-.11.154-.176.264-.176.374 0 .154.154.33.352.33.176 0 .264-.088.396-.242l.814-.88c.11-.154.198-.198.286-.198.066 0 .11.022.11.132 0 .044-.022.154-.044.264l-1.496 4.686c-.066.154-.066.198-.264.22l-.77.066c-.198.022-.308.132-.308.308s.11.308.33.308h3.696c.242 0 .33-.132.33-.308s-.088-.286-.286-.308l-.748-.066c-.176-.022-.132-.11-.088-.308l2.134-6.732c.022-.11.044-.22.044-.242 0-.132-.066-.22-.198-.22-.242 0-.528.198-.748.198-.286 0-.418-.198-.682-.198-.154 0-.242.066-.352.176l-2.332 2.64zm8.428-.638a.521.521 0 0 0-.528.528c0 .297.231.528.528.528h4.422v4.422c0 .297.231.528.528.528a.521.521 0 0 0 .528-.528v-4.95a.521.521 0 0 0-.528-.528h-4.95z"></path></g></svg>