<svg xmlns="http://www.w3.org/2000/svg" width="24" height="24" viewBox="0 0 24 24" fill="currentColor"><path d="M9.00006 7.72656V15.9084L16.0001 11.8175L9.00006 7.72656ZM9.63643 8.70078L14.7273 11.8175L9.63643 14.9347V8.70078Z"></path><path d="M7.85547 4.57855L8.34301 5.45166C7.78924 5.76088 7.28316 6.13358 6.83179 6.56194L6.14342 5.83659C6.65518 5.35091 7.2287 4.92854 7.85547 4.57855ZM4.25797 8.48974L5.16904 8.90198C4.91037 9.47365 4.7239 10.076 4.61426 10.6939L3.62964 10.5192C3.75382 9.81941 3.96499 9.13724 4.25797 8.48974ZM3.68436 13.7707L4.66235 13.5621C4.79234 14.1714 4.99901 14.765 5.28071 15.3319L4.38519 15.7769C4.0661 15.1348 3.83178 14.4618 3.68436 13.7707ZM6.22911 18.2434L6.90798 17.5091C7.36908 17.9354 7.88158 18.3009 8.43323 18.5984L7.95861 19.4786C7.33327 19.1414 6.75212 18.7269 6.22911 18.2434Z"></path><path fill-rule="evenodd" clip-rule="evenodd" d="M20.5001 12C20.5001 7.30558 16.6945 3.5 12.0001 3.5V4.5C16.1422 4.5 19.5001 7.85786 19.5001 12C19.5001 16.1421 16.1422 19.5 12.0001 19.5V20.5C16.6945 20.5 20.5001 16.6944 20.5001 12Z"></path></svg>