<svg xmlns="http://www.w3.org/2000/svg" width="45" height="42" viewBox="0 0 45 42"><g fill="none" fill-rule="evenodd"><path d="M0 0h45v42H0z"></path><path class="fill" fill="#000" d="M15.478 18.994c.297 0 .528.231.528.528a.521.521 0 0 1-.528.528h-4.422v4.422a.521.521 0 0 1-.528.528.521.521 0 0 1-.528-.528v-4.95c0-.297.231-.528.528-.528h4.95zm4.566.528l.748-2.376c.088-.22.198-.264.396-.264.176 0 .286.066.286.198 0 .176-.088.308-.088.44 0 .066.044.088.066.088.044 0 .132-.088.286-.242.352-.308.77-.55 1.254-.55 1.078 0 1.496.902 2.222.902.33 0 .55-.176.682-.55.088-.22.176-.286.44-.286.176 0 .33.044.33.242 0 .11-.022.22-.044.33-.462 1.518-1.232 2.508-1.98 3.366-1.21 1.386-1.54 2.64-1.87 4.026-.022.154-.088.242-.286.242-.33 0-.616-.198-.946-.198-.352 0-.682.198-1.012.198-.132 0-.198-.066-.198-.176 0-.066.022-.154.044-.198a7.659 7.659 0 0 1 2.618-3.784c.924-.748 1.716-1.254 2.354-2.2.11-.154 0-.286-.176-.176-.44.286-.924.44-1.364.44-.814 0-1.54-.418-2.156-.418-.528 0-.792.462-.99 1.056-.066.242-.198.286-.396.286-.176 0-.264-.066-.264-.22a.68.68 0 0 1 .044-.176zm9.484-.528h4.95c.297 0 .528.231.528.528v4.95a.521.521 0 0 1-.528.528.521.521 0 0 1-.528-.528V20.05h-4.422a.521.521 0 0 1-.528-.528c0-.297.231-.528.528-.528z"></path></g></svg>