<svg xmlns="http://www.w3.org/2000/svg" width="24" height="24" viewBox="0 0 24 24" fill="currentColor"><path fill-rule="evenodd" clip-rule="evenodd" d="M14.3968 4C14.6678 4 14.9448 4.212 15.0168 4.482L16.0958 8.529L17.9998 6.185C18.1738 5.97 18.4888 5.938 18.7038 6.112C18.9178 6.286 18.9508 6.601 18.7758 6.815L16.4138 9.723L17.1099 12.4867H16.2182L15.6348 10.682L14.2239 12.4867H12.8836C12.8756 12.495 12.868 12.5028 12.8607 12.5103L15.3168 9.488L14.1198 5H9.65681L7.25681 14L10.783 14.0004C10.4013 14.2697 9.93947 14.5979 9.37881 15H6.98981L6.18981 18H10.6711V19H8.88781V19.5C8.88781 19.776 8.67381 20 8.38381 20H7.39281C7.11381 20 6.88781 19.768 6.88781 19.5V19H5.38681C5.11081 19 4.94481 18.788 5.01681 18.518L8.75981 4.482C8.83081 4.216 9.11581 4 9.37881 4H14.3968ZM12.3833 10C12.6623 10 12.8883 10.232 12.8883 10.5C12.8883 10.776 12.6743 11 12.3833 11H11.3923C11.1143 11 10.8883 10.768 10.8883 10.5C10.8883 10.224 11.1023 10 11.3923 10H12.3833ZM12.3837 8C12.6617 8 12.8877 8.232 12.8877 8.5C12.8877 8.776 12.6737 9 12.3837 9H11.3927C11.1137 9 10.8877 8.768 10.8877 8.5C10.8877 8.224 11.1017 8 11.3927 8H12.3837ZM12.3837 6C12.6617 6 12.8877 6.232 12.8877 6.5C12.8877 6.776 12.6737 7 12.3837 7H11.3927C11.1137 7 10.8877 6.768 10.8877 6.5C10.8877 6.224 11.1017 6 11.3927 6H12.3837Z"></path><path fill-rule="evenodd" clip-rule="evenodd" d="M19 20H15.0156V19.1301L16.4464 17.6291C16.8701 17.1787 17.1469 16.8665 17.2768 16.6925C17.4068 16.5185 17.5003 16.3574 17.5575 16.209C17.6147 16.0607 17.6433 15.9069 17.6433 15.7478C17.6433 15.5105 17.5803 15.3338 17.4542 15.2178C17.3281 15.1018 17.1599 15.0438 16.9493 15.0438C16.7284 15.0438 16.514 15.0964 16.3061 15.2016C16.0981 15.3068 15.8811 15.4565 15.655 15.6507L15 14.8456C15.2807 14.5974 15.5133 14.4221 15.6979 14.3196C15.8824 14.2171 16.0838 14.1382 16.3022 14.0829C16.5205 14.0276 16.7648 14 17.0351 14C17.3912 14 17.7057 14.0674 17.9786 14.2023C18.2515 14.3372 18.4633 14.526 18.614 14.7687C18.7648 15.0115 18.8402 15.2893 18.8402 15.6022C18.8402 15.8746 18.794 16.1301 18.7018 16.3688C18.6095 16.6076 18.4665 16.8523 18.2729 17.1032C18.0793 17.354 17.7382 17.7114 17.2495 18.1753L16.5166 18.8914V18.9481H19V20Z"></path><path fill-rule="evenodd" clip-rule="evenodd" d="M14 20H12.7214V16.528L12.7338 15.9576L12.7545 15.3338C12.5421 15.5445 12.3945 15.6826 12.3117 15.7483L11.6166 16.3023L11 15.539L12.949 14H14V20Z"></path></svg>