<svg data-icon="tablatureHarmonicNaturalSounding32" data-version="v2" class="" width="32" height="32" viewBox="0 0 32 32" fill="currentcolor" xmlns="http://www.w3.org/2000/svg"><path fill-rule="evenodd" clip-rule="evenodd" d="M14.6305 26C17.0441 26 20 23.501 20 20.9105C20 19.3562 18.9153 18.381 17.3695 18.381C14.3864 18.381 12 20.8495 12 23.4705C12 25.0552 13.1661 26 14.6305 26Z"></path><path d="M20 9.80952C20 11.9048 18.4 13.619 16.4444 13.619C14.4889 13.619 12.8889 11.9048 12.8889 9.80952C12.8889 7.67619 14.4889 6 16.4444 6C18.4 6 20 7.67619 20 9.80952ZM16.4444 6.95238C14.9833 6.95238 13.7778 8.20483 13.7778 9.80952C13.7778 11.3751 14.9833 12.6667 16.4444 12.6667C17.9422 12.6667 19.1111 11.3751 19.1111 9.80952C19.1111 8.20483 17.9422 6.95238 16.4444 6.95238Z"></path></svg>