<svg data-icon="tablatureHarmonicNaturalTouching32" data-version="v2" class="" width="32" height="32" viewBox="0 0 32 32" fill="currentcolor" xmlns="http://www.w3.org/2000/svg"><path d="M21.9313 21.3249L16.2564 25.9198C16.1734 25.9682 16.0797 25.9952 15.9836 25.9984C15.8988 25.9904 15.8168 25.9635 15.7436 25.9198L10.1364 21.3249C10.0338 21.2464 10 21.2071 10 21.1285C10 21.05 10.0338 21.0107 10.1364 20.9322L15.7775 16.2587C15.8351 16.2104 15.9073 16.1827 15.9825 16.1802C16.0851 16.1802 16.1876 16.2194 16.2225 16.2587L21.9313 20.9322C21.9662 21.0107 22 21.05 22 21.1285C21.9992 21.1998 21.9751 21.2687 21.9313 21.3249Z"></path></svg>