<svg data-icon="tablaturePreBendFull32" data-version="v2" class="" width="32" height="32" viewBox="0 0 32 32" fill="currentcolor" xmlns="http://www.w3.org/2000/svg"><path fill-rule="evenodd" clip-rule="evenodd" d="M25.8275 29.2102V3.59486H26.615V29.2102H25.8275Z"></path><path d="M26.2338 2.7002C26.7127 4.07369 27.6577 6.20322 27.6577 6.29143C27.6577 6.36704 27.5947 6.46784 27.5191 6.46784C27.5065 6.46784 27.4939 6.45524 27.4813 6.45524C27.3175 6.35443 26.2842 6.02681 26.2338 6.02681C26.1834 6.02681 25.1628 6.32923 24.9486 6.45524C24.936 6.45524 24.9234 6.46784 24.9108 6.46784C24.8351 6.46784 24.7847 6.36704 24.7847 6.29143C24.7847 6.20322 25.755 4.07369 26.2338 2.7002Z"></path><path d="M4.32129 6.22807V5.76471H5.26908V5.42772C5.26908 4.98893 5.30155 4.63702 5.36649 4.37199C5.43143 4.10696 5.54288 3.86211 5.70085 3.63745C6.07996 3.10739 6.63108 2.84236 7.35421 2.84236H7.37001C7.8088 2.84236 8.15457 2.93188 8.40731 3.1109C8.66005 3.28993 8.78643 3.53741 8.78643 3.85334C8.78643 4.04641 8.73026 4.20437 8.61793 4.32723C8.5056 4.45009 8.35992 4.51152 8.18089 4.51152C8.01591 4.51152 7.8755 4.45624 7.75965 4.34566C7.64381 4.23509 7.58589 4.10082 7.58589 3.94285C7.58589 3.81999 7.61924 3.70415 7.68594 3.59533C7.72806 3.52512 7.74912 3.47773 7.74912 3.45316C7.74912 3.33381 7.63504 3.27413 7.40687 3.27413H7.3858C7.17167 3.27413 6.97598 3.34171 6.7987 3.47686C6.62143 3.612 6.48892 3.79893 6.40116 4.03763C6.32393 4.2307 6.28532 4.57822 6.28532 5.0802V5.76471H7.47005V6.22807H6.28532V9.89286C6.28532 10.107 6.33358 10.2448 6.43012 10.3062C6.52665 10.3676 6.75043 10.3983 7.10147 10.3983H7.29629V10.788H4.41607V10.3983H4.46346C4.80747 10.3983 5.02774 10.3676 5.12428 10.3062C5.22081 10.2448 5.26908 10.107 5.26908 9.89286V6.22807H4.32129ZM7.92815 6.34391V5.88055L9.8132 5.76471V9.05038C9.8132 9.34525 9.82285 9.54533 9.84216 9.65064C9.86146 9.75595 9.90622 9.85775 9.97643 9.95604C10.1204 10.1772 10.3713 10.2895 10.7294 10.293C11.284 10.293 11.6807 10.0403 11.9194 9.5348C12.0703 9.20483 12.1458 8.76429 12.1458 8.21316V6.88626C12.1458 6.65458 12.1186 6.50627 12.0642 6.44133C12.0098 6.37639 11.8825 6.34391 11.6824 6.34391H11.1296V5.88055L13.1568 5.76471V9.5348C13.1568 9.87882 13.1963 10.0965 13.2753 10.1877C13.3542 10.279 13.5412 10.3246 13.836 10.3246H14.1098V10.788L12.1458 10.8617V9.96657C11.9071 10.3106 11.6552 10.5607 11.3902 10.7169C11.1252 10.8731 10.8154 10.9512 10.4609 10.9512C9.79389 10.9512 9.30947 10.7213 9.00758 10.2614C8.87067 10.0543 8.80222 9.70506 8.80222 9.21361V6.88626C8.80222 6.65458 8.77502 6.50627 8.72061 6.44133C8.6662 6.37639 8.53895 6.34391 8.33886 6.34391H7.92815ZM14.4942 3.42157V2.9582L16.4898 2.84236V9.89286C16.4898 10.107 16.5381 10.2448 16.6346 10.3062C16.7312 10.3676 16.955 10.3983 17.306 10.3983H17.385V10.788H14.589V10.3983H14.668C15.012 10.3983 15.2323 10.3676 15.3288 10.3062C15.4253 10.2448 15.4736 10.107 15.4736 9.89286V3.96391C15.4736 3.73223 15.4473 3.58392 15.3946 3.51898C15.342 3.45404 15.2173 3.42157 15.0208 3.42157H14.4942ZM17.8905 3.42157V2.9582L19.8861 2.84236V9.89286C19.8861 10.107 19.9343 10.2448 20.0309 10.3062C20.1274 10.3676 20.3512 10.3983 20.7022 10.3983H20.7812V10.788H17.9852V10.3983H18.0642C18.4082 10.3983 18.6285 10.3676 18.725 10.3062C18.8216 10.2448 18.8698 10.107 18.8698 9.89286V3.96391C18.8698 3.73223 18.8435 3.58392 18.7909 3.51898C18.7382 3.45404 18.6136 3.42157 18.417 3.42157H17.8905Z"></path></svg>