<svg data-icon="tablatureLetRing24" data-version="v2" class="" width="24" height="24" viewBox="0 0 24 24" fill="currentcolor" xmlns="http://www.w3.org/2000/svg"><path fill-rule="evenodd" clip-rule="evenodd" d="M9.14512 13.8499L9.0096 15.9027H4V15.5573C4.07228 15.5508 4.17692 15.5395 4.31395 15.5233C4.45097 15.5071 4.54658 15.486 4.60079 15.46C4.69114 15.4179 4.75663 15.3563 4.79729 15.2752C4.83794 15.1941 4.85827 15.0903 4.85827 14.9639V10.0215C4.85827 9.91128 4.84096 9.81399 4.80632 9.72967C4.77169 9.64536 4.70318 9.57725 4.60079 9.52536C4.53153 9.48645 4.43441 9.44834 4.30943 9.41105C4.18445 9.37375 4.08131 9.35186 4 9.34538V9H6.70582V9.34538C6.62149 9.34862 6.51233 9.36484 6.37832 9.39402C6.24431 9.42321 6.14719 9.44915 6.08696 9.47186C5.98457 9.51077 5.91455 9.57725 5.87691 9.6713C5.83926 9.76535 5.82044 9.86588 5.82044 9.9729V14.6088C5.82044 14.8228 5.83023 14.989 5.8498 15.1074C5.86938 15.2257 5.9153 15.3173 5.98758 15.3822C6.05684 15.4406 6.15998 15.4787 6.29701 15.4965C6.43403 15.5144 6.62601 15.5233 6.87295 15.5233C6.98438 15.5233 7.10032 15.52 7.22078 15.5136C7.34124 15.5071 7.45567 15.4941 7.56409 15.4746C7.66949 15.4552 7.76661 15.4284 7.85545 15.3944C7.94429 15.3603 8.00979 15.3174 8.05195 15.2655C8.17542 15.1163 8.31922 14.8901 8.48334 14.5869C8.64747 14.2836 8.76115 14.038 8.82439 13.8499H9.14512ZM11.0152 15.3433C11.0152 15.5249 10.9543 15.6798 10.8323 15.8079C10.7103 15.936 10.565 16 10.3964 16C10.2277 16 10.0824 15.936 9.96047 15.8079C9.83851 15.6798 9.77753 15.5249 9.77753 15.3433C9.77753 15.1617 9.83851 15.0052 9.96047 14.8739C10.0824 14.7425 10.2277 14.6769 10.3964 14.6769C10.565 14.6769 10.7103 14.7425 10.8323 14.8739C10.9543 15.0052 11.0152 15.1617 11.0152 15.3433ZM18.3196 15.9027H16.594C16.2116 15.2574 15.866 14.6996 15.5573 14.2293C15.2486 13.7591 14.9136 13.2743 14.5522 12.7748H13.8972V14.9639C13.8972 15.0774 13.9138 15.1771 13.9469 15.263C13.98 15.349 14.0508 15.4146 14.1592 15.46C14.2134 15.4827 14.3083 15.5038 14.4438 15.5233C14.5793 15.5427 14.6938 15.5541 14.7871 15.5573V15.9027H12.0768V15.5573C12.1491 15.5508 12.2537 15.5395 12.3907 15.5233C12.5278 15.5071 12.6234 15.486 12.6776 15.46C12.7679 15.4179 12.8334 15.3563 12.8741 15.2752C12.9147 15.1941 12.9351 15.0903 12.9351 14.9639V9.9729C12.9351 9.85939 12.92 9.75886 12.8899 9.6713C12.8598 9.58374 12.789 9.51726 12.6776 9.47186C12.6023 9.44267 12.5044 9.41591 12.384 9.39159C12.2635 9.36727 12.1611 9.35186 12.0768 9.34538V9H15.0356C15.3066 9 15.5611 9.03 15.799 9.08999C16.0369 9.14999 16.2522 9.24647 16.4449 9.37943C16.6317 9.50915 16.7807 9.6786 16.8922 9.88777C17.0036 10.0969 17.0593 10.3491 17.0593 10.6442C17.0593 10.9101 17.0216 11.1452 16.9464 11.3495C16.8711 11.5539 16.7596 11.7306 16.6121 11.8798C16.4766 12.0192 16.3139 12.14 16.1242 12.2422C15.9345 12.3443 15.7252 12.4311 15.4963 12.5024C15.8125 12.9532 16.0753 13.3326 16.2846 13.6407C16.4939 13.9488 16.7506 14.3234 17.0548 14.7644C17.1873 14.959 17.307 15.1025 17.4139 15.1949C17.5208 15.2874 17.627 15.3628 17.7324 15.4211C17.8107 15.4633 17.9085 15.4957 18.026 15.5184C18.1434 15.5411 18.2413 15.5541 18.3196 15.5573V15.9027ZM15.9435 10.7561C15.9435 10.3377 15.8321 10.0061 15.6093 9.76129C15.3864 9.51645 15.0717 9.39402 14.6652 9.39402H13.8972V12.3565H14.489C14.9046 12.3565 15.2509 12.213 15.528 11.926C15.805 11.639 15.9435 11.249 15.9435 10.7561ZM20 15.3433C20 15.5249 19.939 15.6798 19.8171 15.8079C19.6951 15.936 19.5498 16 19.3811 16C19.2125 16 19.0672 15.936 18.9452 15.8079C18.8233 15.6798 18.7623 15.5249 18.7623 15.3433C18.7623 15.1617 18.8233 15.0052 18.9452 14.8739C19.0672 14.7425 19.2125 14.6769 19.3811 14.6769C19.5498 14.6769 19.6951 14.7425 19.8171 14.8739C19.939 15.0052 20 15.1617 20 15.3433Z"></path></svg>