<svg data-icon="tablatureBendRelease32" data-version="v2" class="" width="32" height="32" viewBox="0 0 32 32" fill="currentcolor" xmlns="http://www.w3.org/2000/svg"><path fill-rule="evenodd" clip-rule="evenodd" d="M3.30005 2.7002C11.4345 2.7002 17.602 4.67508 21.7343 8.68747C25.8583 12.6921 27.8927 18.6673 27.9027 26.5442C28.1468 26.4651 28.4431 26.3652 28.5159 26.3209C28.5256 26.3206 28.5353 26.3112 28.545 26.3112C28.6022 26.3112 28.6517 26.3889 28.6517 26.4471C28.6497 26.5205 27.9223 28.1553 27.5549 29.2102C27.187 28.1538 26.4403 26.5142 26.4403 26.4471C26.4406 26.3881 26.4805 26.3115 26.5373 26.3112C26.5472 26.3112 26.5582 26.3209 26.5681 26.3209C26.6602 26.3748 26.9442 26.4697 27.1844 26.5442C27.1745 18.7846 25.1715 13.0271 21.2344 9.20353C17.285 5.36874 11.3289 3.41847 3.30005 3.41847V2.7002ZM27.385 26.6024C27.4776 26.6292 27.5423 26.6502 27.5549 26.6509C27.5652 26.6509 27.6268 26.6293 27.7151 26.6024H27.385Z"></path></svg>