<svg data-icon="tablatureBendFull32" data-version="v2" class="" width="32" height="32" viewBox="0 0 32 32" fill="currentcolor" xmlns="http://www.w3.org/2000/svg"><path fill-rule="evenodd" clip-rule="evenodd" d="M20.9711 23.487C17.2608 27.3519 11.7243 29.2502 4.43783 29.2502V28.4592C11.594 28.4592 16.8895 26.5964 20.4005 22.9391C23.9144 19.2788 25.7063 13.7532 25.7063 6.28806C25.7063 6.28806 25.6789 5.54004 26.1145 5.54004C26.55 5.54004 26.4973 6.28806 26.4973 6.28806C26.4973 13.8673 24.6786 19.6251 20.9711 23.487Z"></path><path d="M26.1145 2.74023C26.5954 4.11987 27.5447 6.25894 27.5447 6.34754C27.5447 6.42348 27.4814 6.52474 27.4055 6.52474C27.3928 6.52474 27.3802 6.51209 27.3675 6.51209C27.203 6.41083 26.1651 6.08174 26.1145 6.08174C26.0638 6.08174 25.0386 6.38551 24.8234 6.51209C24.8108 6.51209 24.7981 6.52474 24.7854 6.52474C24.7095 6.52474 24.6589 6.42348 24.6589 6.34754C24.6589 6.25894 25.6335 4.11987 26.1145 2.74023Z"></path><path d="M4.35001 6.89286V6.42742H5.30204V6.08892C5.30204 5.64817 5.33465 5.29468 5.39988 5.02847C5.46512 4.76225 5.57707 4.51631 5.73574 4.29064C6.11655 3.75821 6.67013 3.492 7.3965 3.492H7.41237C7.85313 3.492 8.20044 3.58191 8.45431 3.76174C8.70819 3.94157 8.83512 4.19015 8.83512 4.5075C8.83512 4.70143 8.77871 4.8601 8.66588 4.98351C8.55304 5.10692 8.40671 5.16863 8.22688 5.16863C8.06116 5.16863 7.92012 5.11309 7.80376 5.00202C7.6874 4.89095 7.62922 4.75608 7.62922 4.59741C7.62922 4.474 7.66272 4.35764 7.72971 4.24833C7.77203 4.17781 7.79318 4.13021 7.79318 4.10553C7.79318 3.98564 7.67859 3.9257 7.44939 3.9257H7.42824C7.21315 3.9257 7.01657 3.99357 6.83851 4.12933C6.66044 4.26508 6.52733 4.45284 6.43918 4.69261C6.36161 4.88654 6.32282 5.23562 6.32282 5.73985V6.42742H7.51286V6.89286H6.32282V10.574C6.32282 10.7891 6.37131 10.9275 6.46827 10.9892C6.56524 11.0509 6.79002 11.0818 7.14263 11.0818H7.33832V11.4732H4.44521V11.0818H4.49281C4.83836 11.0818 5.05962 11.0509 5.15659 10.9892C5.25355 10.9275 5.30204 10.7891 5.30204 10.574V6.89286H4.35001ZM7.97301 7.00922V6.54378L9.86649 6.42742V9.72779C9.86649 10.024 9.87619 10.225 9.89558 10.3307C9.91497 10.4365 9.95993 10.5388 10.0305 10.6375C10.175 10.8597 10.4271 10.9725 10.7868 10.976C11.3439 10.976 11.7423 10.7221 11.9821 10.2144C12.1337 9.88294 12.2095 9.44042 12.2095 8.88683V7.55399C12.2095 7.32127 12.1822 7.1723 12.1276 7.10707C12.0729 7.04183 11.9451 7.00922 11.7441 7.00922H11.1888V6.54378L13.225 6.42742V10.2144C13.225 10.5599 13.2647 10.7786 13.344 10.8702C13.4234 10.9619 13.6111 11.0077 13.9073 11.0077H14.1824V11.4732L12.2095 11.5472V10.6481C11.9698 10.9936 11.7168 11.2449 11.4506 11.4018C11.1843 11.5587 10.8732 11.6371 10.517 11.6371C9.84709 11.6371 9.36051 11.4062 9.05727 10.9443C8.91975 10.7362 8.85099 10.3854 8.85099 9.89175V7.55399C8.85099 7.32127 8.82367 7.1723 8.76901 7.10707C8.71436 7.04183 8.58654 7.00922 8.38556 7.00922H7.97301ZM14.5685 4.07379V3.60836L16.573 3.492V10.574C16.573 10.7891 16.6215 10.9275 16.7185 10.9892C16.8154 11.0509 17.0402 11.0818 17.3928 11.0818H17.4722V11.4732H14.6637V11.0818H14.743C15.0886 11.0818 15.3098 11.0509 15.4068 10.9892C15.5037 10.9275 15.5522 10.7891 15.5522 10.574V4.61857C15.5522 4.38585 15.5258 4.23687 15.4729 4.17164C15.42 4.10641 15.2948 4.07379 15.0974 4.07379H14.5685ZM17.9799 4.07379V3.60836L19.9845 3.492V10.574C19.9845 10.7891 20.0329 10.9275 20.1299 10.9892C20.2269 11.0509 20.4517 11.0818 20.8043 11.0818H20.8836V11.4732H18.0751V11.0818H18.1544C18.5 11.0818 18.7213 11.0509 18.8182 10.9892C18.9152 10.9275 18.9637 10.7891 18.9637 10.574V4.61857C18.9637 4.38585 18.9372 4.23687 18.8843 4.17164C18.8314 4.10641 18.7063 4.07379 18.5088 4.07379H17.9799Z"></path></svg>