<svg data-icon="tablaturePreBendHalf32" data-version="v2" class="" width="32" height="32" viewBox="0 0 32 32" fill="currentcolor" xmlns="http://www.w3.org/2000/svg"><path fill-rule="evenodd" clip-rule="evenodd" d="M24.3348 29.2102V3.59486H25.1224V29.2102H24.3348Z"></path><path d="M24.7412 2.7002C25.22 4.07369 26.1651 6.20322 26.1651 6.29143C26.1651 6.36704 26.1021 6.46784 26.0265 6.46784C26.0139 6.46784 26.0013 6.45524 25.9887 6.45524C25.8249 6.35443 24.7916 6.02681 24.7412 6.02681C24.6908 6.02681 23.6701 6.32923 23.4559 6.45524C23.4433 6.45524 23.4307 6.46784 23.4181 6.46784C23.3425 6.46784 23.2921 6.36704 23.2921 6.29143C23.2921 6.20322 24.2624 4.07369 24.7412 2.7002Z"></path><path d="M5.5 10.788V10.2825H6.20031C6.63208 10.2825 6.89974 10.2553 7.0033 10.2009C7.10685 10.1465 7.15863 10.0034 7.15863 9.77175V5.13812C7.15863 4.82219 7.12616 4.63 7.06122 4.56155C6.99628 4.49309 6.80584 4.45887 6.48991 4.45887H5.54212V3.99551C6.03708 3.98146 6.50746 3.89985 6.95328 3.75066C7.39909 3.60147 7.71151 3.4163 7.89053 3.19515H8.28018C8.23103 3.90775 8.20646 4.51152 8.20646 5.00648V9.46109C8.20646 9.75595 8.20997 9.93235 8.21699 9.99027C8.22401 10.0482 8.24508 10.0947 8.28018 10.1298C8.36092 10.2316 8.65929 10.2825 9.17531 10.2825H9.77031V10.788H5.5ZM10.1652 10.9407L13.0454 2.85289H13.6668L10.7918 10.9407H10.1652ZM13.7879 10.788V10.4879C14.1986 9.94726 14.5496 9.50497 14.841 9.16095L15.6835 8.25529L16.3206 7.58657C16.7664 7.11267 17.0902 6.68091 17.2921 6.29126C17.4939 5.90161 17.5948 5.51021 17.5948 5.11706C17.5948 4.66422 17.4685 4.30793 17.2157 4.04816C16.963 3.7884 16.6137 3.65851 16.1679 3.65851C15.6343 3.65851 15.2254 3.83227 14.941 4.1798C14.769 4.38691 14.683 4.58349 14.683 4.76953C14.683 4.83974 14.7023 4.88976 14.7409 4.9196C14.7795 4.94944 14.9007 5.00823 15.1043 5.09599C15.364 5.20481 15.4921 5.40841 15.4886 5.70679C15.4886 5.89986 15.4281 6.05782 15.307 6.18068C15.1859 6.30355 15.0235 6.36498 14.8199 6.36498C14.5602 6.36498 14.3513 6.25879 14.1933 6.04641C14.0354 5.83404 13.9564 5.55936 13.9564 5.22237C13.9564 4.64667 14.1907 4.16488 14.6593 3.77699C15.128 3.3891 15.7028 3.19515 16.3838 3.19515C17.0893 3.19515 17.6703 3.39261 18.1266 3.78752C18.583 4.18243 18.8112 4.68704 18.8112 5.30135C18.8112 5.81035 18.6392 6.30179 18.2951 6.77569C18.0635 7.07758 17.5123 7.56375 16.6418 8.23423C16.2978 8.50803 16.0248 8.7362 15.823 8.91874C15.6212 9.10128 15.3342 9.38561 14.9621 9.77175H17.3789C17.7089 9.77175 17.9222 9.7305 18.0187 9.64801C18.1152 9.56552 18.2004 9.35227 18.2741 9.00825L18.3794 8.46064H18.8533L18.6479 10.788H13.7879Z"></path></svg>