<svg data-icon="tablatureBendHalf32" data-version="v2" class="" width="32" height="32" viewBox="0 0 32 32" fill="currentcolor" xmlns="http://www.w3.org/2000/svg"><path fill-rule="evenodd" clip-rule="evenodd" d="M20.9333 23.4469C17.223 27.3118 11.6865 29.2102 4.40002 29.2102V28.4191C11.5562 28.4191 16.8517 26.5564 20.3627 22.8991C23.8766 19.2388 25.6685 13.7132 25.6685 6.24802C25.6685 6.24802 25.6838 5.30829 26.0767 5.31735C26.4696 5.3264 26.4595 6.24802 26.4595 6.24802C26.4595 13.8273 24.6408 19.585 20.9333 23.4469Z"></path><path d="M26.0767 2.7002C26.5576 4.07983 27.5069 6.2189 27.5069 6.3075C27.5069 6.38345 27.4436 6.4847 27.3677 6.4847C27.355 6.4847 27.3424 6.47205 27.3297 6.47205C27.1652 6.37079 26.1273 6.0417 26.0767 6.0417C26.026 6.0417 25.0008 6.34547 24.7856 6.47205C24.773 6.47205 24.7603 6.4847 24.7476 6.4847C24.6717 6.4847 24.6211 6.38345 24.6211 6.3075C24.6211 6.2189 25.5957 4.07983 26.0767 2.7002Z"></path><path d="M5.19019 11.4331V10.9254H5.89363C6.32734 10.9254 6.5962 10.8981 6.70021 10.8434C6.80423 10.7888 6.85624 10.6451 6.85624 10.4124V5.75799C6.85624 5.44064 6.82363 5.24759 6.75839 5.17883C6.69316 5.11008 6.50188 5.0757 6.18453 5.0757H5.2325V4.61026C5.72968 4.59616 6.20216 4.51418 6.64997 4.36432C7.09778 4.21446 7.41159 4.02847 7.59142 3.80632H7.98281C7.93345 4.52211 7.90876 5.12859 7.90876 5.62576V10.1003C7.90876 10.3965 7.91229 10.5737 7.91934 10.6319C7.92639 10.69 7.94755 10.7367 7.98281 10.772C8.06391 10.8743 8.36362 10.9254 8.88195 10.9254H9.47961V11.4331H5.19019ZM9.87629 11.5865L12.7694 3.46254H13.3935L10.5057 11.5865H9.87629ZM13.5152 11.4331V11.1317C13.9277 10.5887 14.2803 10.1444 14.573 9.79882L15.4192 8.88911L16.0592 8.2174C16.507 7.74138 16.8323 7.30768 17.035 6.91629C17.2378 6.5249 17.3391 6.13175 17.3391 5.73683C17.3391 5.28197 17.2122 4.92408 16.9583 4.66315C16.7045 4.40222 16.3536 4.27176 15.9058 4.27176C15.3699 4.27176 14.9591 4.4463 14.6735 4.79538C14.5007 5.00341 14.4143 5.20087 14.4143 5.38775C14.4143 5.45827 14.4337 5.50852 14.4725 5.53849C14.5113 5.56846 14.6329 5.62752 14.8374 5.71567C15.0984 5.82498 15.2271 6.02949 15.2235 6.3292C15.2235 6.52314 15.1627 6.68181 15.0411 6.80522C14.9194 6.92863 14.7563 6.99034 14.5518 6.99034C14.2909 6.99034 14.0811 6.88367 13.9224 6.67035C13.7637 6.45702 13.6844 6.18111 13.6844 5.84261C13.6844 5.26434 13.9198 4.78039 14.3905 4.39076C14.8612 4.00114 15.4386 3.80632 16.1227 3.80632C16.8314 3.80632 17.415 4.00466 17.8733 4.40134C18.3317 4.79802 18.5609 5.30489 18.5609 5.92195C18.5609 6.43322 18.3881 6.92686 18.0426 7.40288C17.8099 7.70612 17.2563 8.19447 16.3818 8.86795C16.0363 9.14298 15.7621 9.37217 15.5594 9.55553C15.3566 9.73888 15.0684 10.0245 14.6946 10.4124H17.1223C17.4537 10.4124 17.668 10.3709 17.7649 10.2881C17.8619 10.2052 17.9474 9.99099 18.0214 9.64544L18.1272 9.09538H18.6032L18.397 11.4331H13.5152Z"></path></svg>