<svg data-icon="tablaturePalmMute24" data-version="v2" class="" width="24" height="24" viewBox="0 0 24 24" fill="currentcolor" xmlns="http://www.w3.org/2000/svg"><path fill-rule="evenodd" clip-rule="evenodd" d="M8.50987 10.4593C8.50987 10.7679 8.45004 11.041 8.33039 11.2787C8.21073 11.5163 8.045 11.713 7.83319 11.8687C7.62413 12.0243 7.39444 12.1383 7.14412 12.2106C6.8938 12.2828 6.62835 12.319 6.34777 12.319H5.69172V14.1119C5.69172 14.2092 5.70753 14.2946 5.73917 14.3683C5.7708 14.442 5.83613 14.4983 5.93516 14.5372C5.98467 14.5566 6.07201 14.5747 6.19717 14.5914C6.32233 14.6081 6.43717 14.6178 6.5417 14.6206V14.9166H4.02888V14.6206C4.0949 14.615 4.19049 14.6053 4.31565 14.5914C4.44081 14.5775 4.52815 14.5594 4.57766 14.5372C4.66018 14.501 4.72001 14.4482 4.75715 14.3787C4.79428 14.3092 4.81285 14.2203 4.81285 14.1119V9.84225C4.81285 9.74496 4.7991 9.6574 4.77159 9.57957C4.74408 9.50174 4.67944 9.44336 4.57766 9.40445C4.47313 9.36831 4.36929 9.3426 4.26614 9.32731C4.16298 9.31202 4.07427 9.3016 4 9.29604V9H6.67374C7.21839 9 7.66057 9.13273 8.00029 9.39819C8.34002 9.66366 8.50987 10.0174 8.50987 10.4593ZM7.25553 11.4684C7.34905 11.335 7.41094 11.1967 7.4412 11.0535C7.47146 10.9104 7.48659 10.7818 7.48659 10.6678C7.48659 10.5094 7.46802 10.3482 7.43089 10.1842C7.39375 10.0202 7.3298 9.877 7.23902 9.75469C7.14274 9.62404 7.01621 9.52259 6.85942 9.45031C6.70262 9.37804 6.50732 9.3419 6.2735 9.3419H5.69172V11.9562H6.11258C6.40967 11.9562 6.65105 11.9097 6.83672 11.8165C7.0224 11.7234 7.162 11.6074 7.25553 11.4684ZM9.88683 14.4371C9.88683 14.5928 9.83112 14.7255 9.71972 14.8353C9.60831 14.9451 9.47559 15 9.32154 15C9.1675 15 9.03478 14.9451 8.92337 14.8353C8.81196 14.7255 8.75626 14.5928 8.75626 14.4371C8.75626 14.2814 8.81196 14.1473 8.92337 14.0347C9.03478 13.9222 9.1675 13.8659 9.32154 13.8659C9.47559 13.8659 9.60831 13.9222 9.71972 14.0347C9.83112 14.1473 9.88683 14.2814 9.88683 14.4371ZM17.9039 14.9166H15.3168V14.6206C15.4104 14.6178 15.5307 14.6081 15.6779 14.5914C15.825 14.5747 15.9261 14.5511 15.9811 14.5205C16.0664 14.4677 16.129 14.4072 16.1689 14.3391C16.2088 14.271 16.2287 14.1855 16.2287 14.0827V9.77971H16.1668L14.1698 14.8207H13.9635L12.0613 9.67547H12.0077V13.2071C12.0077 13.549 12.029 13.8089 12.0716 13.9868C12.1143 14.1647 12.1796 14.2926 12.2676 14.3704C12.3281 14.4288 12.4533 14.4844 12.6431 14.5372C12.8329 14.59 12.9567 14.6178 13.0144 14.6206V14.9166H10.6502V14.6206C10.7739 14.6095 10.9039 14.5886 11.0401 14.558C11.1762 14.5274 11.2815 14.4816 11.3557 14.4204C11.452 14.3426 11.518 14.2231 11.5538 14.0618C11.5895 13.9006 11.6074 13.631 11.6074 13.253V10.2259C11.6074 10.0507 11.5868 9.90758 11.5455 9.79639C11.5043 9.6852 11.4451 9.59486 11.3681 9.52536C11.2828 9.45031 11.1783 9.39472 11.0545 9.35858C10.9307 9.32245 10.8083 9.3016 10.6873 9.29604V9H12.6844L14.3596 13.4364L15.7913 9.7255C15.8436 9.5893 15.8883 9.44684 15.9254 9.29812C15.9626 9.14941 15.9825 9.05003 15.9853 9H17.8957V9.29604C17.8186 9.29882 17.7203 9.31133 17.6006 9.33356C17.481 9.3558 17.3937 9.37665 17.3386 9.39611C17.2451 9.42947 17.1818 9.48506 17.1488 9.56289C17.1158 9.64072 17.0993 9.7255 17.0993 9.81723V14.0827C17.0993 14.18 17.1158 14.262 17.1488 14.3287C17.1818 14.3954 17.2451 14.4538 17.3386 14.5038C17.3882 14.5316 17.4762 14.5573 17.6027 14.581C17.7292 14.6046 17.8296 14.6178 17.9039 14.6206V14.9166ZM20 14.4371C20 14.5928 19.9443 14.7255 19.8329 14.8353C19.7215 14.9451 19.5888 15 19.4347 15C19.2807 15 19.148 14.9451 19.0365 14.8353C18.9251 14.7255 18.8694 14.5928 18.8694 14.4371C18.8694 14.2814 18.9251 14.1473 19.0365 14.0347C19.148 13.9222 19.2807 13.8659 19.4347 13.8659C19.5888 13.8659 19.7215 13.9222 19.8329 14.0347C19.9443 14.1473 20 14.2814 20 14.4371Z"></path></svg>