<svg data-icon="tablatureHammerOnPullOff24" data-version="v2" class="" width="24" height="24" viewBox="0 0 24 24" fill="currentcolor" xmlns="http://www.w3.org/2000/svg"><path fill-rule="evenodd" clip-rule="evenodd" d="M7.13474 12.9637C7.49147 13.6891 10.167 14.0577 11.8318 14.0577C13.4608 14.0577 16.1958 13.6891 16.612 12.9637H16.7785C16.398 14.0934 14.103 14.6642 11.8199 14.6642C9.66756 14.6642 7.3131 14.1053 6.96826 12.9637H7.13474ZM19.8306 9.11594V9.50835H18.5195L18.3947 10.3199C18.5731 10.1861 18.7514 10.1326 18.9744 10.1326C19.5808 10.1326 20 10.5429 20 11.1672C20 11.836 19.5541 12.282 18.912 12.282C18.3501 12.282 17.9934 12.0323 17.8685 11.399H18.2609C18.3501 11.7558 18.5641 11.9341 18.903 11.9341C19.3311 11.9341 19.5987 11.6755 19.5987 11.2207C19.5987 10.748 19.3311 10.4805 18.903 10.4805C18.6622 10.4805 18.5106 10.5518 18.3233 10.7748H17.9666L18.1985 9.11594H19.8306ZM4.55237 9C5.15882 9 5.51556 9.32998 5.51556 9.874C5.51556 10.1861 5.37286 10.3913 5.07855 10.5072C5.45313 10.641 5.61366 10.8639 5.61366 11.2474C5.61366 11.845 5.19449 12.2285 4.54345 12.2285C3.89241 12.2285 3.54459 11.9163 3.5 11.2118H3.89241C3.91916 11.6666 4.12429 11.8806 4.55237 11.8806C4.96262 11.8806 5.21233 11.6488 5.21233 11.2474C5.21233 10.8996 4.98937 10.6945 4.55237 10.6945H4.33833V10.3645C4.97153 10.3645 5.11423 10.2218 5.11423 9.88292C5.11423 9.55294 4.9091 9.34782 4.56129 9.34782C4.15996 9.34782 3.96376 9.55294 3.95484 10.0256H3.56243C3.58027 9.34782 3.91916 9 4.55237 9Z"></path></svg>