<svg data-icon="tablatureBendReleaseHalf32" data-version="v2" class="" width="32" height="32" viewBox="0 0 32 32" fill="currentcolor" xmlns="http://www.w3.org/2000/svg"><path fill-rule="evenodd" clip-rule="evenodd" d="M21.134 9.34995C17.2139 5.54353 11.2964 3.6023 3.30005 3.6023V2.74023C11.423 2.74023 17.595 4.71197 21.7346 8.73147C25.8765 12.7533 27.9101 18.7534 27.9101 26.649H27.048C27.048 18.8928 25.0518 13.1541 21.134 9.34995Z"></path><path d="M27.4887 29.2502C27.1214 28.1966 26.3771 26.563 26.3771 26.4953C26.3771 26.4373 26.4157 26.36 26.4737 26.36C26.4834 26.36 26.4931 26.3697 26.5027 26.3697C26.6671 26.4663 27.45 26.6983 27.4887 26.6983C27.5274 26.6983 28.32 26.447 28.4457 26.3697C28.4553 26.3697 28.465 26.36 28.4747 26.36C28.5327 26.36 28.581 26.4373 28.581 26.4953C28.581 26.563 27.856 28.1966 27.4887 29.2502Z"></path><path d="M4.48161 28.3325V27.7792H5.24818C5.72081 27.7792 6.0138 27.7494 6.12715 27.6899C6.2405 27.6303 6.29718 27.4737 6.29718 27.2201V22.1481C6.29718 21.8022 6.26164 21.5919 6.19055 21.5169C6.11946 21.442 5.91101 21.4045 5.56519 21.4045H4.52772V20.8973C5.06951 20.882 5.5844 20.7926 6.07239 20.6293C6.56039 20.466 6.90237 20.2633 7.09833 20.0212H7.52485C7.47105 20.8013 7.44416 21.4622 7.44416 22.004V26.8801C7.44416 27.2028 7.448 27.3959 7.45569 27.4593C7.46337 27.5227 7.48642 27.5736 7.52485 27.612C7.61323 27.7235 7.93983 27.7792 8.50468 27.7792H9.15598V28.3325H4.48161ZM9.58826 28.4997L12.741 19.6466H13.4211L10.2741 28.4997H9.58826ZM13.5537 28.3325V28.004C14.0033 27.4122 14.3875 26.9281 14.7064 26.5515L15.6286 25.5602L16.326 24.8282C16.814 24.3094 17.1685 23.8368 17.3894 23.4103C17.6104 22.9838 17.7209 22.5554 17.7209 22.125C17.7209 21.6293 17.5825 21.2393 17.3059 20.955C17.0292 20.6706 16.6469 20.5284 16.1589 20.5284C15.5748 20.5284 15.1272 20.7186 14.8159 21.0991C14.6277 21.3258 14.5335 21.5409 14.5335 21.7446C14.5335 21.8214 14.5547 21.8762 14.5969 21.9089C14.6392 21.9415 14.7718 22.0059 14.9946 22.1019C15.279 22.2211 15.4192 22.4439 15.4154 22.7705C15.4154 22.9819 15.3491 23.1548 15.2165 23.2893C15.084 23.4238 14.9062 23.491 14.6834 23.491C14.399 23.491 14.1704 23.3748 13.9975 23.1423C13.8246 22.9098 13.7381 22.6091 13.7381 22.2403C13.7381 21.6101 13.9946 21.0827 14.5076 20.6581C15.0206 20.2335 15.6498 20.0212 16.3952 20.0212C17.1675 20.0212 17.8035 20.2374 18.303 20.6697C18.8025 21.1019 19.0523 21.6543 19.0523 22.3267C19.0523 22.8839 18.864 23.4218 18.4874 23.9406C18.2338 24.271 17.6306 24.8032 16.6776 25.5371C16.3011 25.8368 16.0023 26.0866 15.7814 26.2864C15.5604 26.4862 15.2463 26.7974 14.839 27.2201H17.4845C17.8457 27.2201 18.0792 27.175 18.1848 27.0847C18.2905 26.9944 18.3837 26.7609 18.4644 26.3844L18.5796 25.785H19.0984L18.8736 28.3325H13.5537Z"></path></svg>