<svg data-icon="textFiguredBass24" data-version="v2" class="" width="24" height="24" viewBox="0 0 24 24" fill="currentcolor" xmlns="http://www.w3.org/2000/svg"><path d="M12.3482 5.238C12.1875 5.142 12.1339 4.998 12.1339 4.854C12.1339 4.758 12.1607 4.638 12.2143 4.542C12.2679 4.446 12.375 4.23 12.375 4.206C12.375 4.086 12.1875 4.038 11.9196 4.038C11.6518 4.038 11.25 4.158 11.0625 4.35C10.8482 4.542 10.5804 5.07 10.5536 5.598C10.5536 5.67 10.5268 5.814 10.5268 5.958C10.5268 6.198 10.5804 6.462 10.8214 6.462C10.8482 6.462 10.9018 6.438 10.9286 6.438L11.1429 6.39C11.1964 6.39 11.2232 6.366 11.2768 6.366C11.6786 6.27 12.1071 6.174 12.5089 6.174C12.8304 6.174 13.125 6.222 13.3929 6.366C13.6071 6.462 13.7946 6.654 13.9018 6.822C14.0893 7.11 14.2232 7.398 14.25 7.734V7.878C14.25 8.43 13.9554 8.958 13.4732 9.318C12.9911 9.654 12.3482 9.75 11.7321 9.75C11.3839 9.75 10.9821 9.702 10.6607 9.582C10.125 9.366 9.69643 8.886 9.40179 8.43C9.10714 7.95 9 7.326 9 6.774V6.678C9 6.126 9.24107 5.502 9.50893 5.022C9.99107 4.206 10.9286 3.774 11.9464 3.75C12.2946 3.75 12.6964 3.798 13.0179 3.894C13.4196 4.038 13.6339 4.254 13.6607 4.566V4.662C13.6607 5.022 13.3929 5.334 12.9911 5.406C12.9375 5.406 12.9107 5.43 12.8571 5.43C12.6429 5.43 12.4821 5.334 12.3482 5.238ZM11.7054 6.726C10.9554 6.726 10.5 7.182 10.5 7.926C10.5 8.67 10.9018 9.414 11.7054 9.414C12.4554 9.414 12.8839 8.67 12.8839 7.926C12.8839 7.182 12.4018 6.726 11.7054 6.726Z"></path><path d="M13.0446 17.8661H14.0357C14.1964 17.8661 14.25 17.9732 14.25 18.1339C14.25 18.2946 14.1696 18.4018 14.0357 18.4018H13.0446V19.1786C13.0446 19.6071 13.3393 19.6875 13.4732 19.6875C13.6071 19.6875 13.7679 19.7679 13.7679 19.9554C13.7679 20.1429 13.6339 20.25 13.5 20.25H11.1964C10.9554 20.25 10.9018 20.0893 10.9018 19.9554C10.9018 19.8214 11.0089 19.7143 11.25 19.7143C11.4643 19.7143 11.6786 19.6071 11.6786 19.2321V18.4018H9.26786C9.10714 18.4018 9 18.2679 9 18.1339C9 18.0536 9.05357 17.9732 9.10714 17.9196C9.45536 17.4375 10.8482 15.4821 10.8482 13.7679C10.8482 13.5536 11.0357 13.5 11.1696 13.5C11.2768 13.5 11.4375 13.5536 11.6786 13.5536C11.9196 13.5536 12.4821 13.5 12.6161 13.5C12.6964 13.5 12.8036 13.5804 12.8036 13.6875C12.8036 13.7143 12.7768 13.7411 12.7768 13.7679C12.75 13.9286 11.0357 16.9554 9.9375 17.8661H11.6786V16.7679C11.6786 16.5804 11.7589 16.5 11.8125 16.4464L12.6161 14.8929C12.6964 14.7857 12.7768 14.7589 12.8839 14.7589C13.0179 14.7589 13.0446 14.8661 13.0446 15V17.8661Z"></path></svg>