<svg data-icon="textLyric24" data-version="v2" class="" width="24" height="24" viewBox="0 0 24 24" fill="currentcolor" xmlns="http://www.w3.org/2000/svg"><path fill-rule="evenodd" clip-rule="evenodd" d="M17.4284 13.5156C18.2252 13.5156 18.8131 13.799 19.3225 14.4044V13.6444H20.25V18.9902H19.3225V18.243C18.8261 18.8356 18.2252 19.1447 17.4414 19.1447C15.8216 19.1447 14.8288 17.8051 14.8288 16.2979C14.8288 14.7908 15.8347 13.5156 17.4284 13.5156ZM4.19037 10.4033L4.26892 10.4056C4.50771 10.4337 4.67817 10.6474 4.64967 10.8828C4.64681 10.9065 4.64192 10.9575 4.63684 11.0326C4.58584 11.7865 4.65282 12.6652 4.92767 13.4888C5.44997 15.0539 6.57972 15.9709 8.57296 15.9845C8.84327 15.9853 9.09767 15.9695 9.33681 15.9378L8.2073 18.4722L7.97574 18.9902L6.82991 18.9902C6.61615 18.9902 6.43836 18.8383 6.40149 18.638L6.39448 18.5608C6.39448 18.3236 6.58943 18.1314 6.82991 18.1314L8.13553 18.1313L8.13552 16.827C6.0804 16.6845 4.79179 15.6201 4.16885 13.9509L4.10044 13.7572C3.78494 12.8118 3.7101 11.8299 3.7679 10.9754C3.77402 10.885 3.78033 10.8191 3.78494 10.781C3.81344 10.5456 4.03013 10.3775 4.26892 10.4056L4.19037 10.4033ZM13.4137 9.98606L14.8155 13.2192C14.5599 13.454 14.337 13.7242 14.1516 14.0226L13.3876 12.2274L11.8984 15.6668L13.5656 15.6668C13.5372 15.8724 13.5225 16.0832 13.5225 16.2979C13.5225 16.3846 13.5249 16.4706 13.5295 16.5559L11.5065 16.5556L10.4614 18.9902H9.40333L13.4137 9.98606ZM17.5721 14.34C16.4617 14.34 15.7824 15.2674 15.7824 16.2979C15.7824 17.3413 16.4356 18.3074 17.5721 18.3074C18.7347 18.3074 19.3748 17.3671 19.3748 16.2979C19.3748 15.2417 18.7086 14.34 17.5721 14.34ZM8.57165 5.25C10.2553 5.25 11.6197 6.63743 11.6197 8.34959L11.6196 10.8096L10.0671 14.2984C9.67093 14.5256 9.21976 14.6653 8.73891 14.6918L8.57165 14.6964C6.88797 14.6964 5.52361 13.3089 5.52361 11.5968V8.34959C5.52361 6.63743 6.88797 5.25 8.57165 5.25ZM8.57165 6.1356C7.38146 6.1356 6.39448 7.13927 6.39448 8.34959V8.68504H7.71459C7.92157 8.68504 8.09372 8.84241 8.12942 9.03906L8.13621 9.11442C8.13621 9.35156 7.94982 9.5438 7.71459 9.5438H6.39448V10.4026H7.71459C7.92157 10.4026 8.09372 10.5599 8.12942 10.7566L8.13621 10.8319C8.13621 11.0691 7.94982 11.2613 7.71459 11.2613H6.39448V11.5968C6.39448 12.8071 7.38146 13.8108 8.57165 13.8108C9.76184 13.8108 10.7488 12.8071 10.7488 11.5968V11.2613H9.42871C9.19585 11.2613 9.00708 11.0621 9.00708 10.8319C9.00708 10.5948 9.19348 10.4026 9.42871 10.4026H10.7488V9.5438H9.42871C9.19585 9.5438 9.00708 9.34462 9.00708 9.11442C9.00708 8.87728 9.19348 8.68504 9.42871 8.68504H10.7488V8.34959C10.7488 7.13927 9.76184 6.1356 8.57165 6.1356Z"></path></svg>