<svg data-icon="textChords24" data-version="v2" class="" width="24" height="24" viewBox="0 0 24 24" fill="currentcolor" xmlns="http://www.w3.org/2000/svg"><path d="M17.2493 6C17.6639 6 18 6.33347 18 6.75065V17.2493C18 17.6639 17.6665 18 17.2493 18H6.75065C6.33608 18 6 17.6665 6 17.2493V6.75065C6 6.33608 6.33347 6 6.75065 6H17.2493ZM16.2912 6.74998L6.7596 6.75C6.75367 6.75 6.75065 6.75 6.75065 6.75L6.75002 7.55261C6.75001 7.60271 6.74999 7.6548 6.74998 7.70879L6.75 17.2404C6.75 17.2463 6.75 17.2493 6.75 17.2493L7.55261 17.25C7.60271 17.25 7.6548 17.25 7.70879 17.25L9.75 17.25L9.75022 14.9361C9.31316 14.7817 9 14.3649 9 13.875C9 13.3851 9.31316 12.9683 9.75022 12.8139L9.75 6.75H10.5L10.5005 12.8142C10.9372 12.9688 11.25 13.3854 11.25 13.875C11.25 14.3646 10.9372 14.7812 10.5005 14.9358L10.5 17.25H13.5L13.5002 14.9361C13.0958 14.7932 12.7974 14.4256 12.7551 13.9833L12.75 13.875C12.75 13.3851 13.0632 12.9683 13.5002 12.8139V10.4361C13.0632 10.2817 12.75 9.86491 12.75 9.375C12.75 8.88509 13.0632 8.46831 13.5002 8.31394L13.5 6.75H14.25L14.2505 8.3142C14.6872 8.46879 15 8.88537 15 9.375C15 9.86463 14.6872 10.2812 14.2505 10.4358V12.8142C14.6872 12.9688 15 13.3854 15 13.875C15 14.3646 14.6872 14.7812 14.2505 14.9358L14.25 17.25H17.2493L17.25 16.4474C17.25 16.3973 17.25 16.3452 17.25 16.2912L17.25 6.75065L16.4474 6.75002C16.3973 6.75001 16.3452 6.74999 16.2912 6.74998Z"></path></svg>