<svg data-icon="textClassicChords24" data-version="v2" class="" width="24" height="24" viewBox="0 0 24 24" fill="currentcolor" xmlns="http://www.w3.org/2000/svg"><path fill-rule="evenodd" clip-rule="evenodd" d="M4.5 17.9929V8.39612H5.40637V17.9929H4.5ZM7.04583 8.39612H7.99218L10.8846 16.9266L13.7636 8.39612H14.71L11.3777 17.9929H10.3781L7.04583 8.39612Z"></path><path fill-rule="evenodd" clip-rule="evenodd" d="M19.5174 8.36413C19.449 8.02824 19.3122 7.75922 19.1069 7.55707C18.9017 7.35491 18.6217 7.25383 18.2672 7.25383C17.8629 7.25383 17.5441 7.35024 17.3108 7.54307C17.0776 7.7359 16.8988 7.98004 16.7744 8.2755C16.65 8.57096 16.566 8.89285 16.5224 9.24118C16.4789 9.58951 16.4447 9.91917 16.4198 10.2302C16.5131 10.1058 16.6111 9.98138 16.7137 9.85697C16.8163 9.73257 16.933 9.62216 17.0636 9.52575C17.1942 9.42934 17.3466 9.35158 17.5208 9.29249C17.6949 9.2334 17.9033 9.20386 18.1459 9.20386C18.8115 9.20386 19.3262 9.39201 19.6901 9.76834C20.0539 10.1447 20.2359 10.6625 20.2359 11.3218C20.2359 11.9874 20.0524 12.5099 19.6854 12.8893C19.3184 13.2687 18.799 13.4584 18.1272 13.4584C17.7976 13.4584 17.4928 13.404 17.2129 13.2952C16.933 13.1863 16.6904 13.0075 16.4851 12.7587C16.2799 12.5099 16.1181 12.1849 15.9999 11.7837C15.8818 11.3825 15.8227 10.8926 15.8227 10.3142C15.8227 9.92228 15.8569 9.51642 15.9253 9.09656C15.9937 8.67669 16.1166 8.2926 16.2938 7.94427C16.4711 7.59594 16.7137 7.30982 17.0216 7.08589C17.3295 6.86196 17.726 6.75 18.2112 6.75C18.7337 6.75 19.1691 6.88684 19.5174 7.16053C19.8658 7.43422 20.071 7.83542 20.1332 8.36413H19.5174ZM18.1272 9.70769C17.8971 9.70769 17.6903 9.75123 17.5068 9.83831C17.3233 9.9254 17.1678 10.0436 17.0403 10.1929C16.9128 10.3421 16.8148 10.5148 16.7464 10.7107C16.6779 10.9066 16.6437 11.1166 16.6437 11.3405C16.6437 11.5271 16.6702 11.7152 16.723 11.905C16.7759 12.0947 16.863 12.2673 16.9843 12.4228C17.1056 12.5783 17.2595 12.7058 17.4461 12.8053C17.6327 12.9049 17.8629 12.9546 18.1366 12.9546C18.4165 12.9546 18.6513 12.9064 18.841 12.81C19.0307 12.7136 19.1847 12.5861 19.3029 12.4275C19.421 12.2688 19.5066 12.0916 19.5594 11.8956C19.6123 11.6997 19.6387 11.5022 19.6387 11.3032C19.6387 10.7931 19.5159 10.3997 19.2702 10.1229C19.0245 9.84609 18.6435 9.70769 18.1272 9.70769Z"></path></svg>