<svg data-icon="textAnnotation24" data-version="v2" class="" width="24" height="24" viewBox="0 0 24 24" fill="currentcolor" xmlns="http://www.w3.org/2000/svg"><path fill-rule="evenodd" clip-rule="evenodd" d="M11.2037 16.0927C11.4145 16.0927 11.6055 16.1 11.7739 16.1124C11.7827 16.1578 11.801 16.1995 11.801 16.2471V16.979C11.801 17.3816 11.4738 17.711 11.069 17.711H10.4088C10.4849 17.5382 10.572 17.3435 10.676 17.1137C10.6957 17.0698 10.7184 17.0171 10.7382 16.9717C10.9226 16.9542 11.069 16.8056 11.069 16.6131C11.069 16.5296 11.0368 16.4579 10.9914 16.3964C11.0244 16.3203 11.0544 16.2559 11.0881 16.1761C11.0998 16.1483 11.1122 16.1205 11.1239 16.0934C11.1503 16.0927 11.1773 16.0927 11.2037 16.0927ZM11.6642 9.74639C11.7344 9.74639 11.7981 9.7603 11.8559 9.78884C11.9694 9.85032 12.0396 9.95206 12.0609 10.086C12.1465 10.2851 12.2482 10.5376 12.3617 10.8377C12.4788 11.1451 12.5959 11.4606 12.713 11.7848C12.8301 12.1083 12.9363 12.4231 13.0292 12.7195C13.1236 13.0174 13.1961 13.2567 13.2517 13.4404C13.2839 13.5641 13.3417 13.7427 13.4237 13.9718C13.5064 14.2046 13.5979 14.46 13.6982 14.7367C13.7985 15.0134 13.9031 15.2944 14.0129 15.5799C14.1234 15.8683 14.2223 16.1303 14.3086 16.3682C14.395 16.6031 14.4682 16.7964 14.5282 16.9449C14.5868 17.0921 14.6102 17.1528 14.6197 17.1835C14.6365 17.2231 14.646 17.2692 14.646 17.3204C14.646 17.4924 14.5567 17.6205 14.4162 17.6725C14.3774 17.6988 14.3262 17.7113 14.2559 17.7113C14.182 17.7113 14.1117 17.69 14.0444 17.6505C13.9712 17.6066 13.92 17.5407 13.8914 17.4558C13.8848 17.4368 13.8453 17.3365 13.7736 17.1565C13.7004 16.9727 13.6118 16.7473 13.5079 16.4802C13.4047 16.2137 13.289 15.9217 13.1631 15.6055C13.0446 15.3098 12.9297 15.0273 12.8177 14.7579L12.4246 14.6979C12.2782 14.6855 12.0997 14.6701 11.8903 14.654C11.6846 14.6372 11.4534 14.6291 11.2038 14.6291C11.0318 14.6291 10.8554 14.6335 10.6746 14.6437C10.515 14.6525 10.3599 14.662 10.2083 14.673C10.0956 14.9424 9.97412 15.2293 9.84311 15.533C9.70331 15.8602 9.56937 16.1647 9.44274 16.4458C9.31612 16.7254 9.20926 16.9632 9.12289 17.1601C9.03945 17.3482 8.99407 17.4536 8.98016 17.4902C8.90843 17.6344 8.784 17.7113 8.62225 17.7113C8.55711 17.7113 8.50514 17.701 8.46488 17.6805C8.31264 17.6088 8.23213 17.4844 8.23213 17.3204C8.23213 17.2736 8.24457 17.2231 8.26946 17.1704C8.28044 17.1374 8.30898 17.0723 8.38144 16.9105C8.45463 16.7473 8.54613 16.5409 8.65665 16.2913L9.02188 15.4606C9.12728 15.219 9.22975 14.9856 9.3271 14.7587C9.22389 14.7711 9.13387 14.7828 9.05701 14.7931C8.92819 14.8114 8.85354 14.8187 8.83231 14.8187C8.72984 14.8187 8.64274 14.785 8.57174 14.7199C8.50294 14.6555 8.45976 14.5632 8.44219 14.4286C8.44219 14.3283 8.47293 14.2419 8.53368 14.1724C8.5937 14.1028 8.67422 14.0582 8.78913 14.0392C8.80889 14.0377 8.90038 14.026 9.06287 14.0048C9.22609 13.9835 9.4281 13.9601 9.66818 13.936C9.70916 13.8401 9.74503 13.7523 9.77504 13.671L9.86873 13.4134C9.92874 13.2318 10.0188 12.9896 10.1359 12.6924C10.253 12.3952 10.3782 12.0849 10.5121 11.7607C10.646 11.4357 10.7814 11.121 10.9183 10.8165C11.0523 10.5193 11.1686 10.2712 11.2674 10.0728C11.2901 9.93962 11.3648 9.83788 11.4848 9.77786C11.528 9.75591 11.5851 9.74639 11.6642 9.74639ZM18.2789 11.4471C18.4956 11.4471 18.6881 11.4903 18.8498 11.5752C19.0057 11.6564 19.1375 11.7501 19.2421 11.8548C19.3453 11.958 19.4237 12.0568 19.4749 12.149L19.5261 12.2418C19.5382 12.2649 19.5459 12.2811 19.551 12.294C19.5766 12.3408 19.5898 12.3928 19.5898 12.4477C19.5898 12.526 19.5605 12.6058 19.5056 12.6855C19.5605 12.9981 19.5898 13.4058 19.5898 13.8983C19.5898 14.0089 19.5839 14.1194 19.5737 14.2292C19.5634 14.3324 19.5532 14.4378 19.54 14.5476C19.5986 14.9501 19.6681 15.3154 19.7457 15.6338C19.8255 15.9565 19.9001 16.2339 19.9697 16.4579C20.0385 16.6811 20.0978 16.8546 20.1461 16.9747C20.2017 17.1123 20.2207 17.1598 20.2273 17.184C20.2332 17.2059 20.2383 17.2264 20.2427 17.244C20.2471 17.2674 20.25 17.293 20.25 17.3209C20.25 17.4826 20.1731 17.607 20.0063 17.6876C19.9426 17.7037 19.8957 17.711 19.8599 17.711C19.6879 17.711 19.562 17.629 19.5115 17.4899C19.5042 17.4768 19.4888 17.4453 19.3212 17.0047C19.2333 16.7726 19.1411 16.4652 19.0467 16.0876C18.9706 16.2427 18.8864 16.3913 18.7964 16.5304C18.6485 16.7558 18.489 16.9542 18.3199 17.1188C18.1501 17.2865 17.9693 17.4189 17.7834 17.5134C17.5916 17.6114 17.3977 17.6612 17.2081 17.6612C16.4923 17.6612 15.9543 17.4094 15.6066 16.9132C15.2685 16.4301 15.0965 15.685 15.0965 14.6991C15.0965 14.287 15.1602 13.9152 15.2846 13.5939C15.4083 13.274 15.57 12.99 15.7669 12.7485C15.9623 12.5077 16.1863 12.302 16.4308 12.1366C16.6716 11.9734 16.9117 11.8387 17.1437 11.737C17.3757 11.6345 17.5946 11.5598 17.7936 11.5152C17.9978 11.4698 18.1559 11.4471 18.2789 11.4471ZM7.77562 6L10.0124 9.66039C10.0073 9.67649 9.99777 9.6904 9.99264 9.7065C9.91213 9.87338 9.81991 10.071 9.72036 10.2906L8.14159 7.69808V9.65966H7.40966V7.7054L4.48193 12.5874L5.94579 15.5151H7.39209C7.42795 15.5685 7.46455 15.6198 7.50115 15.6637L7.41698 15.8555C7.35183 16.0033 7.29621 16.1299 7.24351 16.247H4.8479C4.64588 16.247 4.48193 16.4081 4.48193 16.613C4.48193 16.8179 4.64588 16.979 4.8479 16.979H6.94854C6.90682 17.1268 6.87754 17.2776 6.87754 17.4306C6.87754 17.5272 6.90243 17.6179 6.9178 17.7109H4.48193C4.07717 17.7109 3.75 17.3815 3.75 16.979V16.247C3.75 15.8445 4.07717 15.5151 4.48193 15.5151H5.21386L3.75 12.5874L7.77562 6ZM18.2789 12.2273C18.2006 12.2273 18.0842 12.2449 17.9327 12.2793C17.7805 12.3144 17.6121 12.3723 17.4328 12.4528C17.2535 12.5333 17.069 12.6387 16.8853 12.7675C16.7045 12.8949 16.5376 13.053 16.3876 13.2374C16.2383 13.4211 16.1146 13.637 16.0194 13.8793C15.925 14.1187 15.8767 14.3946 15.8767 14.6991C15.8767 15.1939 15.9177 15.5913 15.9975 15.8804C16.0765 16.1644 16.1797 16.3818 16.3056 16.5296C16.4279 16.6724 16.5647 16.7668 16.7133 16.81C16.8729 16.8575 17.039 16.881 17.2081 16.881C17.3223 16.881 17.4548 16.8231 17.6011 16.709C17.7585 16.586 17.9137 16.4169 18.0645 16.2061C18.216 15.9939 18.355 15.7399 18.478 15.4515C18.5988 15.169 18.6895 14.8645 18.7473 14.5476C18.7027 14.2306 18.6661 13.8947 18.6398 13.5463C18.6141 13.2067 18.5973 12.84 18.59 12.4564C18.5358 12.4015 18.5014 12.3364 18.4868 12.2654C18.4634 12.2574 18.4392 12.25 18.415 12.2434C18.3748 12.2325 18.3287 12.2273 18.2789 12.2273ZM7.77584 11.1234C8.30649 11.1234 8.78078 11.3532 9.11454 11.714C9.0333 11.9139 8.94986 12.1181 8.87593 12.3069C8.86471 12.3352 8.85463 12.3613 8.84508 12.3864L8.78957 12.5331C8.62415 12.1349 8.2333 11.8553 7.77584 11.8553C7.1698 11.8553 6.67794 12.3457 6.67794 12.9532C6.67794 13.3536 6.89386 13.7005 7.21372 13.8915C7.13321 14.0957 7.08783 14.3146 7.08783 14.5386V14.6432C6.41884 14.3753 5.94601 13.7203 5.94601 12.9532C5.94601 11.9431 6.76504 11.1234 7.77584 11.1234ZM11.6363 11.1049C11.5697 11.2527 11.5009 11.4093 11.4292 11.5755C11.3201 11.8309 11.214 12.0871 11.1101 12.344C11.0069 12.5995 10.9103 12.8447 10.821 13.0774C10.7317 13.3094 10.6607 13.5041 10.6094 13.6556C10.5948 13.7135 10.575 13.7735 10.5494 13.8357C10.545 13.8459 10.5414 13.8569 10.5362 13.8679C10.7529 13.8555 10.9761 13.8489 11.2038 13.8489C11.5653 13.8489 11.8823 13.8613 12.1443 13.884C12.317 13.8994 12.4671 13.9147 12.593 13.9294C12.5835 13.8986 12.5739 13.8694 12.5652 13.8415C12.5425 13.7705 12.5212 13.7091 12.4978 13.6454C12.459 13.488 12.4027 13.2926 12.3295 13.0664C12.257 12.8366 12.175 12.5943 12.0857 12.3389C11.9957 12.0827 11.9042 11.8258 11.8105 11.5696C11.7513 11.4057 11.6934 11.2512 11.6363 11.1049Z"></path></svg>