<svg data-icon="timesignatureCut24" data-version="v2" class="" width="24" height="24" viewBox="0 0 24 24" fill="currentcolor" xmlns="http://www.w3.org/2000/svg"><path d="M11.14 15.4019V9.4988C11.14 9.35526 11.0323 9.21172 10.9426 9.21172C10.9246 9.21172 10.9067 9.21172 10.8888 9.24761C10.494 9.80383 10.2069 10.6471 10.2069 12.0108C10.2069 13.6794 10.4581 14.8816 10.9426 15.5634C10.951 15.5799 10.9639 15.5937 10.9797 15.6032C10.9956 15.6127 11.0138 15.6176 11.0323 15.6172C11.0861 15.6172 11.14 15.5634 11.14 15.4019ZM15.1411 13.195H15.2129C15.3026 13.195 15.4821 13.195 15.5 13.5359C15.5 14.0921 15.0156 16.8911 11.9653 16.945C11.8397 16.9988 11.7679 17.0885 11.7679 17.1962V18.6136C11.7679 18.7751 11.6423 18.9187 11.445 18.9187C11.3014 18.9187 11.14 18.7751 11.14 18.6136V17.2321C11.14 17.0706 10.9246 16.8373 10.799 16.7835C10.1711 16.622 9.61483 16.2632 9.18421 15.7428C8.55622 15.0072 8.10766 14.11 8.01794 13.1591C8 12.9976 8 12.8182 8 12.6567C8 10.9522 8.82536 9.05024 10.4402 8.35048L10.9246 8.17105C10.9605 8.17105 11.14 8.00957 11.14 7.88397V6.30502C11.14 6.16148 11.3014 6 11.445 6C11.6423 6 11.7679 6.16148 11.7679 6.30502V7.61483C11.7679 7.70455 11.8577 8.00957 11.9653 8.02751C12.0909 8.02751 12.0371 8.00957 12.073 8.00957C12.4139 8.00957 15.1232 8.22488 15.1232 10.5574C15.1232 12.0467 13.7596 12.1005 13.7596 12.1005C13.2572 12.1005 12.378 11.7775 12.378 10.7727C12.378 10.2165 12.7907 9.44498 13.5084 9.44498C13.7775 9.44498 13.8313 9.19378 13.8313 9.05024C13.8313 8.87081 13.4366 8.44019 12.5215 8.44019C12.4318 8.44019 12.3242 8.44019 12.2165 8.45813C12.0909 8.47608 11.7679 8.7811 11.7679 8.9067V16.012C11.7679 16.1555 11.8756 16.2632 11.9474 16.2811C12.0909 16.317 12.2344 16.3349 12.4139 16.3349C12.988 16.3349 14.9617 15.7967 14.9617 13.5C14.9617 13.2309 15.0694 13.195 15.1411 13.195Z"></path></svg>