<svg data-icon="timesignatureQuarter224" data-version="v2" class="" width="24" height="24" viewBox="0 0 24 24" fill="currentcolor" xmlns="http://www.w3.org/2000/svg"><path fill-rule="evenodd" clip-rule="evenodd" d="M13.9215 17.21H15.0787C15.2531 17.21 15.3165 17.3209 15.3165 17.5112C15.3165 17.7014 15.2373 17.8124 15.0787 17.8124H13.9215V18.7477C13.9215 19.2549 14.2544 19.35 14.4129 19.35C14.5715 19.35 14.7617 19.4452 14.7617 19.6671C14.7617 19.889 14.6032 20 14.4447 20H11.0681C10.8303 20 10.7669 19.8256 10.7669 19.6671C10.7669 19.5086 10.8779 19.3659 11.1315 19.3659C11.4168 19.3659 11.7656 19.2391 11.7656 18.8111V17.8124H8.81705C8.62682 17.8124 8.5 17.7014 8.5 17.5429C8.5 17.4953 8.51585 17.4319 8.54756 17.3685C8.54756 17.3526 8.56341 17.3368 8.56341 17.3209L8.65852 17.1941C9.1341 16.5283 10.6876 14.3248 10.6876 12.3591C10.6876 12.1055 10.9096 12.0579 11.0522 12.0579C11.1791 12.0579 11.8924 12.0896 12.1778 12.0896C12.4631 12.0896 13.1131 12.0579 13.2557 12.0579C13.3825 12.0579 13.4935 12.1531 13.4935 12.2799C13.4935 12.3116 13.4777 12.3274 13.4777 12.3591C13.4301 12.5335 10.8937 16.132 9.62552 17.21H11.7656V15.8784C11.7656 15.6881 11.8449 15.593 11.9083 15.5138L13.4142 13.6907C13.5094 13.5798 13.5886 13.5481 13.7313 13.5481C13.9057 13.5481 13.9215 13.6907 13.9215 13.8176V17.21Z"></path><path fill-rule="evenodd" clip-rule="evenodd" d="M14.7336 9.36304C14.4848 11.7725 13.2879 11.8347 12.6194 11.8347C11.2359 11.8347 11.0028 10.9953 10.381 10.9953C9.46379 10.9953 9.27725 11.9435 8.93526 11.9435C8.90417 11.9435 8.85754 11.9435 8.8109 11.9124C8.63991 11.8036 8.53109 11.6015 8.53109 11.4305C8.53109 11.3994 8.54664 11.3684 8.54664 11.3373C8.8109 10.3579 9.41716 9.59622 10.2721 9.05214C11.0338 8.58579 11.4691 8.21271 12.0287 7.46655C12.3707 7.01574 12.5573 6.47166 12.5573 5.88095C12.5573 5.43014 12.5417 4.38863 11.1582 4.38863C10.241 4.38863 9.96124 4.76171 9.93014 4.97934C9.93014 5.29024 11.0028 5.33687 11.0028 6.26958C11.0028 6.6582 10.8628 7.63754 9.9146 7.63754C9.35498 7.63754 8.87308 7.26446 8.63991 6.78256C8.54664 6.54939 8.5 6.33176 8.5 6.11413C8.5 5.69441 8.671 5.30578 8.93526 4.97934C9.30834 4.54408 9.85242 4.21763 10.3965 4.10882C10.8007 4.01555 11.3292 4 11.7489 4C12.0909 4 13.3034 4.09327 14.0962 4.76171C14.5004 5.1037 14.8113 5.63223 14.8113 6.36285C14.8113 7.04683 14.5159 7.49764 14.1429 7.79299C13.6299 8.21271 12.977 8.33707 12.7438 8.39925C12.4018 8.49252 11.0805 8.95887 10.7385 9.51849C10.9095 9.45631 11.1116 9.42522 11.3137 9.42522C11.951 9.42522 12.6816 9.67394 12.9925 9.7983C13.148 9.87603 13.2568 9.89158 13.4589 9.9693C13.5677 10.0004 13.6454 10.0159 13.7231 10.0159C14.0496 10.0159 14.1739 9.72058 14.3294 9.3475C14.3294 9.33195 14.3449 9.31641 14.3449 9.30086C14.376 9.20759 14.4227 9.14541 14.547 9.14541C14.6558 9.14541 14.7336 9.1765 14.7336 9.36304Z"></path></svg>