<svg data-icon="timesignatureEighth624" data-version="v2" class="" width="24" height="24" viewBox="0 0 24 24" fill="currentcolor" xmlns="http://www.w3.org/2000/svg"><path d="M12.802 6.39208C12.7861 6.37624 12.7545 6.3604 12.7386 6.32871C12.5802 6.15446 12.501 5.91683 12.501 5.67921C12.501 5.52079 12.5327 5.36238 12.6119 5.2198C12.7069 5.0297 13.0079 4.8396 13.0079 4.61782C13.0079 4.45941 12.802 4.3802 12.4851 4.3802C12.1525 4.3802 11.2178 4.45941 11.1703 7.3901C11.1703 7.64356 11.2178 7.7703 11.3129 7.7703C11.3446 7.7703 11.3762 7.7703 11.4079 7.73861C11.8054 7.38522 12.3177 7.18819 12.8495 7.18416C13.3406 7.18416 13.8317 7.35842 14.2594 7.67525C14.7663 8.05545 15.2416 8.59406 15.2416 9.48119C15.2416 10.1941 14.8772 10.9069 14.3228 11.3505C13.7525 11.8099 12.9604 11.9208 12.2475 11.9208C11.8515 11.9208 11.3762 11.8733 10.9802 11.699C10.3624 11.4297 9.82376 10.7802 9.49109 10.1782C9.14257 9.54455 9.01584 8.72079 9 7.99208V7.92871C9 7.18416 9.26931 6.34455 9.61782 5.67921C10.1881 4.60198 11.3129 4.01584 12.5168 4C12.9287 4 13.3881 4.04752 13.7683 4.20594C14.2436 4.3802 14.6871 4.7604 14.7663 5.28317C14.7822 5.34653 14.7822 5.39406 14.7822 5.45743C14.7822 5.96436 14.402 6.47129 13.9109 6.59802C13.7842 6.6297 13.6416 6.66139 13.5149 6.66139C13.2614 6.66139 12.9921 6.58218 12.802 6.39208ZM12.2 7.94455C11.6931 7.94455 11.2812 8.73663 11.2812 9.71881C11.2812 10.701 11.6931 11.4931 12.2 11.4931C12.7069 11.4931 13.1347 10.701 13.1347 9.71881C13.1347 8.73663 12.7069 7.94455 12.2 7.94455ZM13.9743 15.3267C14.7188 15.7069 15.2733 16.2297 15.2733 17.1802C15.2733 19.3188 13.5782 20 11.9941 20C10.4257 20 9 19.3663 9 17.9881C9 16.9901 9.63366 16.4673 10.4574 16.0713C9.69703 15.6436 9.07921 15.0574 9.07921 13.9644C9.07921 12.6337 10.3307 11.7941 12.1683 11.7941C12.596 11.7941 14.9248 12.0317 14.9248 13.6475C14.9248 14.4396 14.5446 14.9624 13.9743 15.3267ZM11.9307 19.4772C12.9921 19.4772 13.4832 18.9386 13.4832 18.305C13.4832 17.2594 12.3109 16.9267 11.1545 16.4198C10.4574 16.6891 9.90297 17.2752 9.90297 17.9089C9.90297 18.9386 10.8693 19.4772 11.9307 19.4772ZM13.1505 14.9624C13.6733 14.6614 13.9901 14.2495 13.9901 13.6158C13.9901 12.5069 12.6436 12.2535 12.1366 12.2535C11.4396 12.2535 10.5366 12.5861 10.5366 13.2515C10.5366 14.2495 11.8832 14.5188 13.1505 14.9624Z"></path></svg>