<svg data-icon="timesignatureCommon24" data-version="v2" class="" width="24" height="24" viewBox="0 0 24 24" fill="currentcolor" xmlns="http://www.w3.org/2000/svg"><path d="M12.0811 8C12.4212 8 15.1241 8.2148 15.1241 10.5597C15.1241 12.0453 13.7637 12.099 13.7637 12.099C13.2625 12.099 12.3854 11.7768 12.3854 10.7566C12.3854 10.2017 12.7971 9.43198 13.5131 9.43198C13.7816 9.43198 13.8353 9.19928 13.8353 9.03819C13.8353 8.85919 13.4594 8.42959 12.5286 8.42959C11.5621 8.42959 10.2017 9.03819 10.2017 11.9916C10.2017 14.9451 10.9714 16.3592 12.4212 16.3592C12.994 16.3592 14.963 15.8222 14.963 13.5131C14.963 13.2088 15.0883 13.1909 15.2315 13.1909C15.3031 13.1909 15.5 13.1909 15.5 13.5847C15.5 14.1038 15.0346 16.9499 11.9021 16.9499C10.8282 16.9499 9.84368 16.574 9.16348 15.7506C8.57279 15.0346 8.1074 14.1217 8.0179 13.1551C8 12.994 8 12.8329 8 12.6718C8 10.9714 8.84129 9.05609 10.4344 8.358C10.9177 8.1432 11.5442 8 12.0811 8Z"></path></svg>