<svg data-icon="timesignatureQuarter424" data-version="v2" class="" width="24" height="24" viewBox="0 0 24 24" fill="currentcolor" xmlns="http://www.w3.org/2000/svg"><path d="M13.9665 9.1948H15.1334C15.3092 9.1948 15.3731 9.30669 15.3731 9.4985C15.3731 9.69031 15.2932 9.8022 15.1334 9.8022H13.9665V10.7453C13.9665 11.2567 14.3022 11.3526 14.462 11.3526C14.6219 11.3526 14.8137 11.4486 14.8137 11.6723C14.8137 11.8961 14.6538 12.008 14.494 12.008H11.0894C10.8497 12.008 10.7857 11.8322 10.7857 11.6723C10.7857 11.5125 10.8976 11.3686 11.1533 11.3686C11.4411 11.3686 11.7927 11.2408 11.7927 10.8092V9.8022H8.81968C8.62787 9.8022 8.5 9.69031 8.5 9.53047C8.5 9.48252 8.51598 9.41858 8.54795 9.35465C8.54795 9.33866 8.56394 9.32268 8.56394 9.30669L8.65984 9.17882C9.13936 8.50749 10.7058 6.28571 10.7058 4.3037C10.7058 4.04795 10.9296 4 11.0734 4C11.2013 4 11.9206 4.03197 12.2083 4.03197C12.496 4.03197 13.1513 4 13.2952 4C13.4231 4 13.535 4.0959 13.535 4.22378C13.535 4.25574 13.519 4.27173 13.519 4.3037C13.471 4.47952 10.9136 8.10789 9.63487 9.1948H11.7927V7.85215C11.7927 7.66034 11.8726 7.56444 11.9366 7.48452L13.455 5.64635C13.5509 5.53447 13.6309 5.5025 13.7747 5.5025C13.9505 5.5025 13.9665 5.64635 13.9665 5.77423V9.1948ZM13.9665 17.1868H15.1334C15.3092 17.1868 15.3731 17.2987 15.3731 17.4905C15.3731 17.6823 15.2932 17.7942 15.1334 17.7942H13.9665V18.7373C13.9665 19.2488 14.3022 19.3447 14.462 19.3447C14.6219 19.3447 14.8137 19.4406 14.8137 19.6643C14.8137 19.8881 14.6538 20 14.494 20H11.0894C10.8497 20 10.7857 19.8242 10.7857 19.6643C10.7857 19.5045 10.8976 19.3606 11.1533 19.3606C11.4411 19.3606 11.7927 19.2328 11.7927 18.8012V17.7942H8.81968C8.62787 17.7942 8.5 17.6823 8.5 17.5225C8.5 17.4745 8.51598 17.4106 8.54795 17.3467C8.54795 17.3307 8.56394 17.3147 8.56394 17.2987L8.65984 17.1708C9.13936 16.4995 10.7058 14.2777 10.7058 12.2957C10.7058 12.04 10.9296 11.992 11.0734 11.992C11.2013 11.992 11.9206 12.024 12.2083 12.024C12.496 12.024 13.1513 11.992 13.2952 11.992C13.4231 11.992 13.535 12.0879 13.535 12.2158C13.535 12.2478 13.519 12.2637 13.519 12.2957C13.471 12.4715 10.9136 16.0999 9.63487 17.1868H11.7927V15.8442C11.7927 15.6523 11.8726 15.5564 11.9366 15.4765L13.455 13.6384C13.5509 13.5265 13.6309 13.4945 13.7747 13.4945C13.9505 13.4945 13.9665 13.6384 13.9665 13.7662V17.1868Z"></path></svg>