<svg data-icon="timesignatureQuarter324" data-version="v2" class="" width="24" height="24" viewBox="0 0 24 24" fill="currentcolor" xmlns="http://www.w3.org/2000/svg"><path fill-rule="evenodd" clip-rule="evenodd" d="M13.9601 17.0734H15.1255C15.3011 17.0734 15.365 17.1852 15.365 17.3768C15.365 17.5683 15.2852 17.6801 15.1255 17.6801H13.9601V18.622C13.9601 19.1329 14.2953 19.2287 14.455 19.2287C14.6146 19.2287 14.8062 19.3245 14.8062 19.548C14.8062 19.7715 14.6466 19.8833 14.4869 19.8833H11.0863C10.8469 19.8833 10.783 19.7077 10.783 19.548C10.783 19.3884 10.8948 19.2447 11.1502 19.2447C11.4376 19.2447 11.7888 19.117 11.7888 18.6859V17.6801H8.8193C8.62772 17.6801 8.5 17.5683 8.5 17.4087C8.5 17.3608 8.51597 17.2969 8.5479 17.2331C8.5479 17.2171 8.56386 17.2011 8.56386 17.1852L8.65965 17.0575C9.1386 16.3869 10.7032 14.1678 10.7032 12.1881C10.7032 11.9327 10.9267 11.8848 11.0704 11.8848C11.1981 11.8848 11.9165 11.9167 12.2039 11.9167C12.4913 11.9167 13.1458 11.8848 13.2895 11.8848C13.4173 11.8848 13.529 11.9806 13.529 12.1083C13.529 12.1402 13.513 12.1562 13.513 12.1881C13.4652 12.3637 10.9107 15.9878 9.63352 17.0734H11.7888V15.7324C11.7888 15.5408 11.8686 15.445 11.9325 15.3652L13.4492 13.5292C13.545 13.4174 13.6248 13.3855 13.7685 13.3855C13.9441 13.3855 13.9601 13.5292 13.9601 13.6569V17.0734Z"></path><path fill-rule="evenodd" clip-rule="evenodd" d="M12.0394 4.40077C12.7008 4.44877 14.6693 4.88077 14.6693 6.35277C14.6693 6.72077 14.5748 7.08877 14.3228 7.37677C14.1496 7.58477 13.9449 7.69677 13.7087 7.80877C13.5669 7.88877 13.3937 7.90477 13.2205 7.95277C13.1732 7.96877 13.1575 8.03277 13.1575 8.09677C13.1575 8.12877 13.1575 8.14477 13.1732 8.17677C13.2047 8.24077 13.252 8.24077 13.3307 8.25677L13.8504 8.40077L14.1811 8.59277C14.3386 8.68877 14.4646 8.80077 14.5591 8.92877C14.685 9.07277 14.7953 9.23277 14.8583 9.39277C14.9528 9.60077 14.9843 9.82477 15 10.0488V10.1608C15 11.5688 13.3937 12.3848 11.8346 12.3848H11.6929C10.1496 12.3528 9.0315 11.8728 9 10.6248C9 10.2728 9.07874 9.88877 9.34646 9.64877C9.53543 9.44077 9.83465 9.28077 10.1024 9.23277C10.1654 9.21677 10.2126 9.21677 10.2756 9.21677C10.7008 9.21677 11.1575 9.47277 11.3307 9.87277C11.3937 10.0328 11.4094 10.2088 11.4094 10.3688C11.3937 10.8328 11.0472 11.0728 11.0472 11.4248V11.5048C11.063 11.7448 11.3622 11.7448 11.4882 11.7608C11.5039 11.7608 11.5669 11.7768 11.6299 11.7768C11.9764 11.7768 12.8268 11.5848 12.8268 9.88877C12.8268 9.68077 12.685 8.43277 10.874 8.43277C10.748 8.43277 10.4803 8.43277 10.4803 8.24077C10.4803 8.06477 10.7008 7.98477 10.8583 7.96877C11.8504 7.92077 12.7795 7.45677 12.7795 6.27277V6.16077C12.7795 5.77677 12.6535 4.92877 11.315 4.92877C11.1732 4.92877 10.685 5.05677 10.6535 5.32877V5.39277C10.6535 5.61677 10.8898 5.58477 10.9685 5.61677C11.0472 5.64877 11.4409 5.68077 11.4882 6.27277V6.40077C11.4882 6.92877 11.1417 7.44077 10.4488 7.44077H10.3701C9.3937 7.37677 9.09449 6.67277 9.09449 6.14477C9.09449 5.29677 10.4488 4.38477 11.8031 4.38477C11.8819 4.38477 11.9606 4.40077 12.0394 4.40077Z"></path></svg>