<svg data-icon="zoomOut24" data-version="v2" class="" xmlns="http://www.w3.org/2000/svg" width="24" height="24" viewBox="0 0 24 24" fill="currentcolor"><path fill-rule="evenodd" d="M13.502 10.001H7.501c-.276 0-.5.22-.5.5s.224.5.5.5h6.001c.276 0 .5-.22.5-.5s-.224-.5-.5-.5m-3 6.002A5.5 5.5 0 0 1 5 10.5a5.5 5.5 0 0 1 5.501-5.5 5.5 5.5 0 0 1 5.502 5.5 5.5 5.5 0 0 1-5.502 5.502m9.358 3.18-4.44-4.44a6.47 6.47 0 0 0 1.583-4.242 6.501 6.501 0 1 0-2.257 4.922l4.441 4.44c.186.18.487.18.673 0a.484.484 0 0 0 0-.68" clip-rule="evenodd"></path></svg>