<svg data-icon="zoomIn24" data-version="v2" class="" xmlns="http://www.w3.org/2000/svg" width="24" height="24" viewBox="0 0 24 24" fill="currentcolor"><path fill-rule="evenodd" d="M10.501 16.003a5.5 5.5 0 0 1-5.5-5.502 5.5 5.5 0 0 1 5.5-5.5 5.5 5.5 0 0 1 5.502 5.5 5.5 5.5 0 0 1-5.502 5.502m9.36 3.18-4.442-4.44a6.47 6.47 0 0 0 1.584-4.242 6.501 6.501 0 1 0-2.257 4.922l4.441 4.44c.186.18.487.18.673 0a.484.484 0 0 0 0-.68m-6.359-9.182h-2.5v-2.5c0-.28-.225-.5-.5-.5-.277 0-.5.22-.5.5V10H7.5c-.276 0-.5.22-.5.5s.224.5.5.5H10v2.501c0 .28.224.5.5.5.277 0 .5-.22.5-.5v-2.5h2.501c.276 0 .5-.22.5-.5s-.224-.5-.5-.5" clip-rule="evenodd"></path></svg>